<?xml version="1.0" encoding="UTF-8"?>
<svg id="_이어_1" data-name="레이어 1" xmlns="http://www.w3.org/2000/svg" viewBox="0 0 98.95 128.22">
  <defs>
    <style>
      .cls-1, .cls-2 {
        fill: none;
        stroke-linecap: round;
        stroke-linejoin: round;
      }

      .cls-1, .cls-3, .cls-4 {
        stroke: #231815;
      }

      .cls-2 {
        stroke: #000;
      }

      .cls-5, .cls-6, .cls-3 {
        fill: #fff;
      }

      .cls-7 {
        fill: #211714;
      }

      .cls-6 {
        stroke: #211714;
      }

      .cls-6, .cls-3, .cls-4 {
        stroke-miterlimit: 10;
      }

      .cls-4 {
        fill: #231815;
      }
    </style>
  </defs>
  <g>
    <g>
      <path class="cls-6" d="M79.75,83.98s3.26-1.19,4.48,1.66c1.22,2.85-.29,7.88,4.07,2.35,4.36-5.53,6.47-7.99,4.91-11.79s4.14-3.29,4.64-15.36c.5-12.07,3.49-28.19-10.91-44.68-8.01-9.18-3.26,12.86-3.76,34.22-.4,17.02-7.37,33.6-3.43,33.6Z"/>
      <path class="cls-6" d="M19.2,83.98s-3.26-1.19-4.48,1.66c-1.22,2.85,.29,7.88-4.07,2.35s-6.47-7.99-4.91-11.79c1.56-3.8-4.14-3.29-4.64-15.36S-2.39,32.65,12.01,16.16c8.01-9.18,3.26,12.86,3.76,34.22,.4,17.02,7.37,33.6,3.43,33.6Z"/>
    </g>
    <path class="cls-6" d="M49.47,127.72c-8.86,0-4.86-1.01-12.1-1.01s-11.1-8.88-15.41-12.07-3.54-7.04-2.77-11.23-.15-10.89-.31-14.58-3.98-11.67-2.93-16.76,5.86-4.19,5.86-4.19c0,0-3.54,2.85-1.23,7.37s4.62,4.21,3.7,8.73,.17,16.92,1.78,16.92,1.46-1.51,2.54-2.51,2.47,.5,2.47,.5c0,0,1.24,1.1,18.42,1.1,17.18,0,18.42-1.1,18.42-1.1,0,0,1.39-1.51,2.47-.5s.92,2.51,2.54,2.51,2.7-12.4,1.78-16.92,1.39-4.2,3.7-8.73-1.23-7.37-1.23-7.37c0,0,4.8-.9,5.86,4.19,1.05,5.09-2.77,13.07-2.93,16.76s-1.08,10.39-.31,14.58,1.54,8.05-2.77,11.23c-4.32,3.18-8.17,12.07-15.41,12.07s-3.24,1.01-12.1,1.01Z"/>
    <path class="cls-6" d="M49.47,.5c-27.07,0-39.67,16.26-42.49,21.79-3.39,6.64,8.38,16.59,4.86,24.47s-2.01,10.22-1.34,15.25-4.69,3.02-5.2,4.36-.17,5.87,1.34,6.03,2.51,2.01,3.69,3.8,5.87,1.4,11.73,0,6.7,2.07,6.54,5.92-1.01,8.05,1.17,9.55,14.75,2.03,19.7,2.03c4.95,0,17.52-.52,19.7-2.03s1.34-5.7,1.17-9.55,.67-7.32,6.54-5.92,10.56,1.79,11.73,0,2.18-3.63,3.69-3.8,1.84-4.69,1.34-6.03-5.87,.67-5.2-4.36c.67-5.03,2.18-7.37-1.34-15.25s8.25-17.84,4.86-24.47C89.14,16.76,76.54,.5,49.47,.5Z"/>
    <g>
      <path class="cls-7" d="M61.08,41.86c-5.43,3.45-4.86,14.91,0,16.86s16.21,7.46,19.13,2.59c2.92-4.86,7.13-11.02,0-17.18-7.13-6.16-15.56-4.54-19.13-2.27Z"/>
      <path class="cls-7" d="M37.87,41.86c5.43,3.45,4.86,14.91,0,16.86-4.86,1.95-16.21,7.46-19.13,2.59s-7.13-11.02,0-17.18,15.56-4.54,19.13-2.27Z"/>
    </g>
    <path class="cls-7" d="M49.47,70.3c-.47,0-1.35,.43-1.53,2.4s-2.41,5.31-5.43,2.31c-3.37-3.34-.09-11.47,.46-13.27s2.27-10.19,6.51-10.19,5.96,8.39,6.51,10.19,3.82,9.93,.46,13.27c-3.02,3-5.25-.34-5.43-2.31s-1.07-2.4-1.53-2.4Z"/>
    <g>
      <path class="cls-6" d="M67.39,100.67c.99,0,1.92-1.63,1.48-4.38-.11-.67-2.24-.92-2.47-.17-.21,.7-.19,1.5-.06,2.95s.59,1.6,1.04,1.6Z"/>
      <path class="cls-6" d="M66.02,101.58c.99,0,1.92-1.93,1.48-5.18-.11-.79-2.24-1.09-2.47-.2-.21,.83-.19,1.78-.06,3.49s.59,1.89,1.04,1.89Z"/>
      <path class="cls-6" d="M64.28,103.73c.99,0,1.92-2.62,1.48-7.07-.11-1.08-2.24-1.48-2.47-.27-.21,1.13-.19,2.42-.06,4.76s.59,2.58,1.04,2.58Z"/>
      <path class="cls-6" d="M62.57,104.51c.99,0,1.92-2.62,1.48-7.07-.11-1.08-2.24-1.48-2.47-.27-.21,1.13-.19,2.42-.06,4.76s.59,2.58,1.04,2.58Z"/>
      <path class="cls-6" d="M60.27,105.12c1.19,0,2.31-2.62,1.79-7.07-.13-1.08-2.7-1.48-2.98-.27-.26,1.13-.23,2.42-.07,4.76,.17,2.34,.72,2.58,1.26,2.58Z"/>
      <path class="cls-6" d="M57.59,98.36c.64,0,1.25-.45,1.86,0,.91,.67-.24,2.51-.32,4.16-.14,2.97-.83,3.07-1.54,3.07-.71,0-1.4-.1-1.54-3.07-.08-1.65-1.22-3.49-.32-4.16,.61-.45,1.21,0,1.86,0Z"/>
      <path class="cls-6" d="M54.64,98.57c.64,0,1.25-.49,1.86,0,.91,.73-.24,2.71-.32,4.5-.14,3.21-.83,3.32-1.54,3.32-.71,0-1.4-.11-1.54-3.32-.08-1.79-1.22-3.77-.32-4.5,.61-.49,1.21,0,1.86,0Z"/>
      <path class="cls-6" d="M51.48,98.76c.64,0,1.25-.51,1.86,0,.91,.75-.24,2.81-.32,4.66-.14,3.33-.83,3.44-1.54,3.44-.71,0-1.4-.12-1.54-3.44-.08-1.85-1.22-3.91-.32-4.66,.61-.51,1.21,0,1.86,0Z"/>
    </g>
    <g>
      <path class="cls-6" d="M31.16,100.67c-.99,0-1.92-1.63-1.48-4.38,.11-.67,2.24-.92,2.47-.17,.21,.7,.19,1.5,.06,2.95s-.59,1.6-1.04,1.6Z"/>
      <path class="cls-6" d="M32.53,101.58c-.99,0-1.92-1.93-1.48-5.18,.11-.79,2.24-1.09,2.47-.2,.21,.83,.19,1.78,.06,3.49s-.59,1.89-1.04,1.89Z"/>
      <path class="cls-6" d="M34.27,103.73c-.99,0-1.92-2.62-1.48-7.07,.11-1.08,2.24-1.48,2.47-.27,.21,1.13,.19,2.42,.06,4.76s-.59,2.58-1.04,2.58Z"/>
      <path class="cls-6" d="M35.98,104.51c-.99,0-1.92-2.62-1.48-7.07,.11-1.08,2.24-1.48,2.47-.27,.21,1.13,.19,2.42,.06,4.76s-.59,2.58-1.04,2.58Z"/>
      <path class="cls-6" d="M38.28,105.12c-1.19,0-2.31-2.62-1.79-7.07,.13-1.08,2.7-1.48,2.98-.27,.26,1.13,.23,2.42,.07,4.76s-.72,2.58-1.26,2.58Z"/>
      <path class="cls-6" d="M40.96,98.36c-.64,0-1.25-.45-1.86,0-.91,.67,.24,2.51,.32,4.16,.14,2.97,.83,3.07,1.54,3.07,.71,0,1.4-.1,1.54-3.07,.08-1.65,1.22-3.49,.32-4.16-.61-.45-1.21,0-1.86,0Z"/>
      <path class="cls-6" d="M43.91,98.57c-.64,0-1.25-.49-1.86,0-.91,.73,.24,2.71,.32,4.5,.14,3.21,.83,3.32,1.54,3.32,.71,0,1.4-.11,1.54-3.32,.08-1.79,1.22-3.77,.32-4.5-.61-.49-1.21,0-1.86,0Z"/>
      <path class="cls-6" d="M47.07,98.76c-.64,0-1.25-.51-1.86,0-.91,.75,.24,2.81,.32,4.66,.14,3.33,.83,3.44,1.54,3.44,.71,0,1.4-.12,1.54-3.44,.08-1.85,1.22-3.91,.32-4.66-.61-.51-1.21,0-1.86,0Z"/>
    </g>
    <g>
      <path class="cls-6" d="M67.39,91.71c.99,0,1.92,1.63,1.48,4.38-.11,.67-2.24,.92-2.47,.17-.21-.7-.19-1.5-.06-2.95s.59-1.6,1.04-1.6Z"/>
      <path class="cls-6" d="M66.02,91.71c.99,0,1.92,1.82,1.48,4.91-.11,.75-2.24,1.03-2.47,.19-.21-.78-.19-1.69-.06-3.31s.59-1.79,1.04-1.79Z"/>
      <path class="cls-6" d="M63.92,91.39c1.06,0,2.06,2.18,1.6,5.87-.11,.9-2.41,1.23-2.66,.22-.23-.94-.21-2.01-.06-3.95s.64-2.14,1.12-2.14Z"/>
      <path class="cls-6" d="M61.58,90.99c1.26,0,2.45,2.42,1.9,6.52-.13,1-2.87,1.37-3.16,.25-.27-1.04-.25-2.24-.07-4.39s.76-2.38,1.33-2.38Z"/>
      <path class="cls-6" d="M58.84,90.7c1.56,0,3.03,2.64,2.35,7.1-.17,1.08-3.54,1.49-3.91,.27-.34-1.13-.3-2.44-.09-4.78s.94-2.59,1.65-2.59Z"/>
      <path class="cls-6" d="M55.56,90.7c1.38,0,2.68,2.74,2.07,7.38-.15,1.13-3.13,1.54-3.45,.28-.3-1.18-.27-2.53-.08-4.97s.83-2.69,1.46-2.69Z"/>
      <path class="cls-6" d="M51.46,90.7c1.88,0,3.65,2.81,2.82,7.58-.2,1.16-4.26,1.59-4.7,.29-.41-1.21-.37-2.6-.11-5.1s1.13-2.76,1.98-2.76Z"/>
    </g>
    <g>
      <path class="cls-6" d="M31.16,91.71c-.99,0-1.92,1.63-1.48,4.38,.11,.67,2.24,.92,2.47,.17,.21-.7,.19-1.5,.06-2.95s-.59-1.6-1.04-1.6Z"/>
      <path class="cls-6" d="M32.53,91.71c-.99,0-1.92,1.82-1.48,4.91,.11,.75,2.24,1.03,2.47,.19,.21-.78,.19-1.69,.06-3.31s-.59-1.79-1.04-1.79Z"/>
      <path class="cls-6" d="M34.63,91.39c-1.06,0-2.06,2.18-1.6,5.87,.11,.9,2.41,1.23,2.66,.22,.23-.94,.21-2.01,.06-3.95s-.64-2.14-1.12-2.14Z"/>
      <path class="cls-6" d="M36.97,90.99c-1.26,0-2.45,2.42-1.9,6.52,.13,1,2.87,1.37,3.16,.25,.27-1.04,.25-2.24,.07-4.39s-.76-2.38-1.33-2.38Z"/>
      <path class="cls-6" d="M39.71,90.7c-1.56,0-3.03,2.64-2.35,7.1,.17,1.08,3.54,1.49,3.91,.27,.34-1.13,.3-2.44,.09-4.78s-.94-2.59-1.65-2.59Z"/>
      <path class="cls-6" d="M42.99,90.7c-1.38,0-2.68,2.74-2.07,7.38,.15,1.13,3.13,1.54,3.45,.28,.3-1.18,.27-2.53,.08-4.97s-.83-2.69-1.46-2.69Z"/>
      <path class="cls-6" d="M47.09,90.7c-1.88,0-3.65,2.81-2.82,7.58,.2,1.16,4.26,1.59,4.7,.29,.41-1.21,.37-2.6,.11-5.1s-1.13-2.76-1.98-2.76Z"/>
    </g>
  </g>
  <path class="cls-4" d="M34.95,20.94s4.54,8.7,14.68,8.7c10.15,0,14.68-8.7,14.68-8.7,0,0-4.54-6.57-14.68-6.57-10.15,0-14.68,6.57-14.68,6.57Z"/>
  <path class="cls-3" d="M49.63,29.19c4.56,0,8.25-3.69,8.25-8.25,0-2.23-.89-4.25-2.32-5.73-1.71-.5-3.67-.84-5.93-.84s-4.22,.34-5.93,.84c-1.44,1.48-2.32,3.5-2.32,5.73,0,4.56,3.69,8.25,8.25,8.25Z"/>
  <path class="cls-1" d="M57.2,12.86c-4.27-4.27-11.18-4.27-15.45,0"/>
  <circle cx="49.47" cy="20.52" r="1.5"/>
  <line class="cls-2" x1="49.47" y1="16.76" x2="49.47" y2="17.76"/>
  <line class="cls-2" x1="48.5" y1="16.89" x2="48.76" y2="17.85"/>
  <line class="cls-2" x1="47.59" y1="17.26" x2="48.09" y2="18.13"/>
  <line class="cls-2" x1="46.81" y1="17.86" x2="47.52" y2="18.57"/>
  <line class="cls-2" x1="46.21" y1="18.64" x2="47.08" y2="19.14"/>
  <line class="cls-2" x1="45.84" y1="19.55" x2="46.8" y2="19.81"/>
  <line class="cls-2" x1="45.71" y1="20.52" x2="46.71" y2="20.52"/>
  <line class="cls-2" x1="45.84" y1="21.5" x2="46.8" y2="21.24"/>
  <line class="cls-2" x1="46.21" y1="22.41" x2="47.08" y2="21.91"/>
  <line class="cls-2" x1="46.81" y1="23.19" x2="47.52" y2="22.48"/>
  <line class="cls-2" x1="47.59" y1="23.79" x2="48.09" y2="22.92"/>
  <line class="cls-2" x1="48.5" y1="24.16" x2="48.76" y2="23.2"/>
  <line class="cls-2" x1="49.47" y1="24.29" x2="49.47" y2="23.29"/>
  <line class="cls-2" x1="50.45" y1="24.16" x2="50.19" y2="23.2"/>
  <line class="cls-2" x1="51.36" y1="23.79" x2="50.86" y2="22.92"/>
  <line class="cls-2" x1="52.14" y1="23.19" x2="51.43" y2="22.48"/>
  <line class="cls-2" x1="52.73" y1="22.41" x2="51.87" y2="21.91"/>
  <line class="cls-2" x1="53.11" y1="21.5" x2="52.15" y2="21.24"/>
  <line class="cls-2" x1="53.24" y1="20.52" x2="52.24" y2="20.52"/>
  <line class="cls-2" x1="53.11" y1="19.55" x2="52.15" y2="19.81"/>
  <line class="cls-2" x1="52.73" y1="18.64" x2="51.87" y2="19.14"/>
  <line class="cls-2" x1="52.14" y1="17.86" x2="51.43" y2="18.57"/>
  <line class="cls-2" x1="51.36" y1="17.26" x2="50.86" y2="18.13"/>
  <line class="cls-2" x1="50.45" y1="16.89" x2="50.19" y2="17.85"/>
  <circle class="cls-5" cx="50.97" cy="19.02" r="1"/>
</svg>