<?xml version="1.0" encoding="utf-8"?>
<!-- Generator: Adobe Illustrator 26.3.1, SVG Export Plug-In . SVG Version: 6.00 Build 0)  -->
<svg version="1.1" id="_이어_1" xmlns="http://www.w3.org/2000/svg" xmlns:xlink="http://www.w3.org/1999/xlink" x="0px" y="0px"
	 viewBox="0 0 98.9 128.2" style="enable-background:new 0 0 98.9 128.2;" xml:space="preserve">
<style type="text/css">
	.st0{fill:#231815;stroke:#231815;stroke-miterlimit:10;}
	.st1{fill:#FFFFFF;stroke:#231815;stroke-miterlimit:10;}
	.st2{fill:none;stroke:#231815;stroke-linecap:round;stroke-linejoin:round;}
	.st3{fill:none;stroke:#000000;stroke-linecap:round;stroke-linejoin:round;}
	.st4{fill:#FFFFFF;}
	.st5{fill:#967905;stroke:#E9BC00;stroke-miterlimit:10;}
	.st6{fill:#1B2A00;}
	.st7{fill:#E9BC00;stroke:#967905;stroke-miterlimit:10;}
	.st8{fill:#1B2A00;stroke:#1B2A00;stroke-miterlimit:10;}
	.st9{fill:#E9BC00;stroke:#1B2A00;stroke-miterlimit:10;}
	.st10{fill:none;stroke:#1B2A00;stroke-linecap:round;stroke-linejoin:round;stroke-miterlimit:10;}
	.st11{fill:#E9BC00;}
</style>
<path class="st0" d="M35,20.9c0,0,4.5,8.7,14.7,8.7c10.1,0,14.7-8.7,14.7-8.7s-4.5-6.6-14.7-6.6C39.5,14.4,34.9,20.9,35,20.9z"/>
<path class="st1" d="M49.6,29.2c4.6,0,8.2-3.7,8.2-8.2c0-2.2-0.9-4.2-2.3-5.7c-1.7-0.5-3.7-0.8-5.9-0.8s-4.2,0.3-5.9,0.8
	c-1.4,1.5-2.3,3.5-2.3,5.7C41.4,25.5,45.1,29.2,49.6,29.2z"/>
<path class="st2" d="M57.2,12.9c-4.3-4.3-11.2-4.3-15.5,0"/>
<circle cx="49.5" cy="20.5" r="1.5"/>
<line class="st3" x1="49.5" y1="16.8" x2="49.5" y2="17.8"/>
<line class="st3" x1="48.5" y1="16.9" x2="48.8" y2="17.9"/>
<line class="st3" x1="47.6" y1="17.3" x2="48.1" y2="18.1"/>
<line class="st3" x1="46.8" y1="17.9" x2="47.5" y2="18.6"/>
<line class="st3" x1="46.2" y1="18.6" x2="47.1" y2="19.1"/>
<line class="st3" x1="45.8" y1="19.5" x2="46.8" y2="19.8"/>
<line class="st3" x1="45.7" y1="20.5" x2="46.7" y2="20.5"/>
<line class="st3" x1="45.8" y1="21.5" x2="46.8" y2="21.2"/>
<line class="st3" x1="46.2" y1="22.4" x2="47.1" y2="21.9"/>
<line class="st3" x1="46.8" y1="23.2" x2="47.5" y2="22.5"/>
<line class="st3" x1="47.6" y1="23.8" x2="48.1" y2="22.9"/>
<line class="st3" x1="48.5" y1="24.2" x2="48.8" y2="23.2"/>
<line class="st3" x1="49.5" y1="24.3" x2="49.5" y2="23.3"/>
<line class="st3" x1="50.5" y1="24.2" x2="50.2" y2="23.2"/>
<line class="st3" x1="51.4" y1="23.8" x2="50.9" y2="22.9"/>
<line class="st3" x1="52.1" y1="23.2" x2="51.4" y2="22.5"/>
<line class="st3" x1="52.7" y1="22.4" x2="51.9" y2="21.9"/>
<line class="st3" x1="53.1" y1="21.5" x2="52.2" y2="21.2"/>
<line class="st3" x1="53.2" y1="20.5" x2="52.2" y2="20.5"/>
<line class="st3" x1="53.1" y1="19.5" x2="52.2" y2="19.8"/>
<line class="st3" x1="52.7" y1="18.6" x2="51.9" y2="19.1"/>
<line class="st3" x1="52.1" y1="17.9" x2="51.4" y2="18.6"/>
<line class="st3" x1="51.4" y1="17.3" x2="50.9" y2="18.1"/>
<line class="st3" x1="50.5" y1="16.9" x2="50.2" y2="17.9"/>
<circle class="st4" cx="51" cy="19" r="1"/>
<g>
	<path class="st5" d="M79.3,84.1c0,0,3.2-1.2,4.4,1.6s-0.3,7.8,4,2.3c4.3-5.5,6.4-7.9,4.8-11.6c-1.5-3.7,4.1-3.2,4.6-15.1
		c0.5-11.9,3.4-27.8-10.8-44.1c-7.9-9.1-3.2,12.7-3.7,33.7C82.3,67.8,75.4,84.1,79.3,84.1z"/>
	<path class="st5" d="M19.6,84.1c0,0-3.2-1.2-4.4,1.6s0.3,7.8-4,2.3s-6.4-7.9-4.8-11.6c1.5-3.7-4.1-3.2-4.6-15.1
		s-3.4-27.8,10.8-44.1c7.9-9.1,3.2,12.7,3.7,33.7C16.6,67.8,23.5,84.1,19.6,84.1z"/>
</g>
<path class="st5" d="M49.5,127.3c-8.7,0-4.8-1-11.9-1s-10.9-8.8-15.2-11.9s-3.5-6.9-2.7-11.1c0.8-4.1-0.2-10.7-0.3-14.4
	c-0.2-3.6-3.9-11.5-2.9-16.5c1-5,5.8-4.1,5.8-4.1s-3.5,2.8-1.2,7.3s4.6,4.2,3.6,8.6c-0.9,4.5,0.2,16.7,1.8,16.7
	c1.6,0,1.4-1.5,2.5-2.5s2.4,0.5,2.4,0.5s1.2,1.1,18.2,1.1s18.2-1.1,18.2-1.1s1.4-1.5,2.4-0.5s0.9,2.5,2.5,2.5s2.7-12.2,1.8-16.7
	c-0.9-4.5,1.4-4.1,3.6-8.6c2.3-4.5-1.2-7.3-1.2-7.3s4.7-0.9,5.8,4.1c1,5-2.7,12.9-2.9,16.5c-0.2,3.6-1.1,10.2-0.3,14.4
	c0.8,4.1,1.5,7.9-2.7,11.1s-8.1,11.9-15.2,11.9S58.2,127.3,49.5,127.3z"/>
<path class="st5" d="M49.3,0.9c-26.7,0-39.1,16-41.9,21.5C4,29,15.6,38.8,12.2,46.6s-2,10.1-1.3,15c0.7,5-4.6,3-5.1,4.3
	s-0.2,5.8,1.3,6c1.5,0.2,2.5,2,3.6,3.7s5.8,1.4,11.6,0s6.6,2,6.4,5.8c-0.2,3.8-1,7.9,1.2,9.4c2.1,1.5,14.5,2,19.4,2s17.3-0.5,19.4-2
	c2.1-1.5,1.3-5.6,1.2-9.4c-0.2-3.8,0.7-7.2,6.4-5.8s10.4,1.8,11.6,0c1.2-1.8,2.1-3.6,3.6-3.7c1.5-0.2,1.8-4.6,1.3-6
	s-5.8,0.7-5.1-4.3s2.1-7.3-1.3-15s8.1-17.6,4.8-24.1C88.4,17,76,0.9,49.3,0.9z"/>
<g>
	<path class="st6" d="M60.9,42.6c-5.4,3.4-4.8,14.7,0,16.6c4.8,1.9,16,7.4,18.9,2.6s7-10.9,0-16.9S64.4,40.4,60.9,42.6z"/>
	<path class="st6" d="M38,42.6c5.4,3.4,4.8,14.7,0,16.6c-4.8,1.9-16,7.4-18.9,2.6s-7-10.9,0-16.9S34.5,40.4,38,42.6z"/>
</g>
<path class="st6" d="M49.5,70.7c-0.5,0-1.3,0.4-1.5,2.4c-0.2,1.9-2.4,5.2-5.4,2.3C39.3,72,42.5,64,43,62.2s2.2-10,6.4-10
	s5.9,8.3,6.4,10s3.8,9.8,0.5,13.1c-3,3-5.2-0.3-5.4-2.3C50.8,71.1,49.9,70.7,49.5,70.7z"/>
<g>
	<path class="st7" d="M67.1,99.6c1,0,1.9-1.6,1.5-4.3c-0.1-0.7-2.2-0.9-2.4-0.2C66,95.8,66,96.6,66.1,98
		C66.2,99.5,66.7,99.6,67.1,99.6z"/>
	<path class="st7" d="M65.8,100.5c1,0,1.9-1.9,1.5-5.1c-0.1-0.8-2.2-1.1-2.4-0.2c-0.2,0.8-0.2,1.8-0.1,3.4
		C64.9,100.3,65.3,100.5,65.8,100.5z"/>
	<path class="st7" d="M64.1,102.6c1,0,1.9-2.6,1.5-7c-0.1-1.1-2.2-1.5-2.4-0.3c-0.2,1.1-0.2,2.4-0.1,4.7
		C63.2,102.4,63.6,102.6,64.1,102.6z"/>
	<path class="st7" d="M62.4,103.4c1,0,1.9-2.6,1.5-7c-0.1-1.1-2.2-1.5-2.4-0.3c-0.2,1.1-0.2,2.4-0.1,4.7
		C61.5,103.2,61.9,103.4,62.4,103.4z"/>
	<path class="st7" d="M60.1,104c1.2,0,2.3-2.6,1.8-7c-0.1-1.1-2.7-1.5-2.9-0.3c-0.3,1.1-0.2,2.4-0.1,4.7S59.6,104,60.1,104z"/>
	<path class="st7" d="M57.5,97.3c0.6,0,1.2-0.4,1.8,0c0.9,0.7-0.2,2.5-0.3,4.1c-0.1,2.9-0.8,3-1.5,3s-1.4-0.1-1.5-3
		c-0.1-1.6-1.2-3.4-0.3-4.1C56.2,96.9,56.8,97.3,57.5,97.3z"/>
	<path class="st7" d="M54.6,97.5c0.6,0,1.2-0.5,1.8,0c0.9,0.7-0.2,2.7-0.3,4.4c-0.1,3.2-0.8,3.3-1.5,3.3c-0.7,0-1.4-0.1-1.5-3.3
		c-0.1-1.8-1.2-3.7-0.3-4.4C53.3,97.1,53.9,97.5,54.6,97.5z"/>
	<path class="st7" d="M51.4,97.7c0.6,0,1.2-0.5,1.8,0c0.9,0.7-0.2,2.8-0.3,4.6c-0.1,3.3-0.8,3.4-1.5,3.4c-0.7,0-1.4-0.1-1.5-3.4
		c-0.1-1.8-1.2-3.9-0.3-4.6C50.2,97.2,50.8,97.7,51.4,97.7z"/>
</g>
<g>
	<path class="st7" d="M31.4,99.6c-1,0-1.9-1.6-1.5-4.3c0.1-0.7,2.2-0.9,2.4-0.2c0.2,0.7,0.2,1.5,0.1,2.9
		C32.3,99.5,31.9,99.6,31.4,99.6z"/>
	<path class="st7" d="M32.8,100.5c-1,0-1.9-1.9-1.5-5.1c0.1-0.8,2.2-1.1,2.4-0.2c0.2,0.8,0.2,1.8,0.1,3.4
		C33.7,100.3,33.2,100.5,32.8,100.5z"/>
	<path class="st7" d="M34.5,102.6c-1,0-1.9-2.6-1.5-7c0.1-1.1,2.2-1.5,2.4-0.3c0.2,1.1,0.2,2.4,0.1,4.7
		C35.4,102.4,34.9,102.6,34.5,102.6z"/>
	<path class="st7" d="M36.2,103.4c-1,0-1.9-2.6-1.5-7c0.1-1.1,2.2-1.5,2.4-0.3c0.2,1.1,0.2,2.4,0.1,4.7S36.6,103.4,36.2,103.4z"/>
	<path class="st7" d="M38.4,104c-1.2,0-2.3-2.6-1.8-7c0.1-1.1,2.7-1.5,2.9-0.3c0.3,1.1,0.2,2.4,0.1,4.7S39,104,38.4,104z"/>
	<path class="st7" d="M41.1,97.3c-0.6,0-1.2-0.4-1.8,0c-0.9,0.7,0.2,2.5,0.3,4.1c0.1,2.9,0.8,3,1.5,3s1.4-0.1,1.5-3
		c0.1-1.6,1.2-3.4,0.3-4.1C42.3,96.9,41.7,97.3,41.1,97.3z"/>
	<path class="st7" d="M44,97.5c-0.6,0-1.2-0.5-1.8,0c-0.9,0.7,0.2,2.7,0.3,4.4c0.1,3.2,0.8,3.3,1.5,3.3c0.7,0,1.4-0.1,1.5-3.3
		c0.1-1.8,1.2-3.7,0.3-4.4C45.2,97.1,44.6,97.5,44,97.5z"/>
	<path class="st7" d="M47.1,97.7c-0.6,0-1.2-0.5-1.8,0c-0.9,0.7,0.2,2.8,0.3,4.6c0.1,3.3,0.8,3.4,1.5,3.4c0.7,0,1.4-0.1,1.5-3.4
		c0.1-1.8,1.2-3.9,0.3-4.6C48.3,97.2,47.7,97.7,47.1,97.7z"/>
</g>
<g>
	<path class="st7" d="M67.1,90.8c1,0,1.9,1.6,1.5,4.3c-0.1,0.7-2.2,0.9-2.4,0.2c-0.2-0.7-0.2-1.5-0.1-2.9S66.7,90.8,67.1,90.8z"/>
	<path class="st7" d="M65.8,90.8c1,0,1.9,1.8,1.5,4.8c-0.1,0.7-2.2,1-2.4,0.2c-0.2-0.8-0.2-1.7-0.1-3.3
		C64.9,90.9,65.3,90.8,65.8,90.8z"/>
	<path class="st7" d="M63.7,90.4c1,0,2,2.2,1.6,5.8c-0.1,0.9-2.4,1.2-2.6,0.2c-0.2-0.9-0.2-2-0.1-3.9C62.8,90.6,63.2,90.4,63.7,90.4
		z"/>
	<path class="st7" d="M61.4,90.1c1.2,0,2.4,2.4,1.9,6.4c-0.1,1-2.8,1.3-3.1,0.2c-0.3-1-0.2-2.2-0.1-4.3S60.8,90.1,61.4,90.1z"/>
	<path class="st7" d="M58.7,89.8c1.5,0,3,2.6,2.3,7c-0.2,1.1-3.5,1.5-3.9,0.3c-0.3-1.1-0.3-2.4-0.1-4.7C57.3,90,58,89.8,58.7,89.8z"
		/>
	<path class="st7" d="M55.5,89.8c1.4,0,2.6,2.7,2,7.3c-0.1,1.1-3.1,1.5-3.4,0.3c-0.3-1.2-0.3-2.5-0.1-4.9S54.9,89.8,55.5,89.8z"/>
	<path class="st7" d="M51.4,89.8c1.9,0,3.6,2.8,2.8,7.5c-0.2,1.1-4.2,1.6-4.6,0.3c-0.4-1.2-0.4-2.6-0.1-5
		C49.7,90,50.6,89.8,51.4,89.8z"/>
</g>
<g>
	<path class="st7" d="M31.4,90.8c-1,0-1.9,1.6-1.5,4.3c0.1,0.7,2.2,0.9,2.4,0.2c0.2-0.7,0.2-1.5,0.1-2.9S31.9,90.8,31.4,90.8z"/>
	<path class="st7" d="M32.8,90.8c-1,0-1.9,1.8-1.5,4.8c0.1,0.7,2.2,1,2.4,0.2c0.2-0.8,0.2-1.7,0.1-3.3
		C33.7,90.9,33.2,90.8,32.8,90.8z"/>
	<path class="st7" d="M34.8,90.4c-1,0-2,2.2-1.6,5.8c0.1,0.9,2.4,1.2,2.6,0.2c0.2-0.9,0.2-2,0.1-3.9C35.8,90.6,35.3,90.4,34.8,90.4z
		"/>
	<path class="st7" d="M37.1,90.1c-1.2,0-2.4,2.4-1.9,6.4c0.1,1,2.8,1.3,3.1,0.2c0.3-1,0.2-2.2,0.1-4.3S37.7,90.1,37.1,90.1z"/>
	<path class="st7" d="M39.8,89.8c-1.5,0-3,2.6-2.3,7c0.2,1.1,3.5,1.5,3.9,0.3c0.3-1.1,0.3-2.4,0.1-4.7S40.5,89.8,39.8,89.8z"/>
	<path class="st7" d="M43.1,89.8c-1.4,0-2.6,2.7-2,7.3c0.1,1.1,3.1,1.5,3.4,0.3c0.3-1.2,0.3-2.5,0.1-4.9S43.7,89.8,43.1,89.8z"/>
	<path class="st7" d="M47.1,89.8c-1.9,0-3.6,2.8-2.8,7.5c0.2,1.1,4.2,1.6,4.6,0.3c0.4-1.2,0.4-2.6,0.1-5C48.8,90,48,89.8,47.1,89.8z
		"/>
</g>
<path class="st8" d="M35.1,22c0,0,4.5,8.6,14.5,8.6S64.1,22,64.1,22s-4.5-6.5-14.5-6.5S35.1,22,35.1,22z"/>
<path class="st9" d="M49.6,30.1c4.5,0,8.1-3.6,8.1-8.1c0-2.2-0.9-4.2-2.3-5.7c-1.7-0.5-3.6-0.8-5.8-0.8s-4.2,0.3-5.8,0.8
	c-1.4,1.5-2.3,3.5-2.3,5.7C41.5,26.5,45.1,30.1,49.6,30.1z"/>
<path class="st10" d="M57.1,14c-4.2-4.2-11-4.2-15.2,0"/>
<g>
	<circle class="st6" cx="49.5" cy="21.6" r="1.5"/>
	<path class="st6" d="M53.2,22.1c0.3,0,0.5-0.2,0.5-0.5c0-0.3-0.2-0.5-0.5-0.5c0.3-0.1,0.4-0.3,0.3-0.6c-0.1-0.3-0.3-0.4-0.6-0.3
		c0.2-0.1,0.3-0.4,0.2-0.7c-0.1-0.2-0.4-0.3-0.7-0.2c0.2-0.2,0.2-0.5,0-0.7c-0.2-0.2-0.5-0.2-0.7,0c0.1-0.2,0-0.5-0.2-0.7
		c-0.2-0.1-0.5-0.1-0.7,0.2c0.1-0.3-0.1-0.5-0.3-0.6c-0.3-0.1-0.5,0.1-0.6,0.3c0-0.3-0.2-0.5-0.5-0.5c-0.3,0-0.5,0.2-0.5,0.5
		c-0.1-0.3-0.3-0.4-0.6-0.3c-0.3,0.1-0.4,0.3-0.3,0.6c-0.1-0.2-0.4-0.3-0.7-0.2c-0.2,0.1-0.3,0.4-0.2,0.7c-0.2-0.2-0.5-0.2-0.7,0
		c-0.2,0.2-0.2,0.5,0,0.7c-0.2-0.1-0.5,0-0.7,0.2c-0.1,0.2-0.1,0.5,0.2,0.7c-0.3-0.1-0.5,0.1-0.6,0.3c-0.1,0.3,0.1,0.5,0.3,0.6
		c-0.3,0-0.5,0.2-0.5,0.5c0,0.3,0.2,0.5,0.5,0.5c-0.3,0.1-0.4,0.3-0.3,0.6c0.1,0.2,0.3,0.4,0.5,0.4c0,0,0.1,0,0.1,0
		c-0.2,0.1-0.3,0.4-0.2,0.7c0.1,0.2,0.3,0.2,0.4,0.2c0.1,0,0.2,0,0.2-0.1c-0.2,0.2-0.2,0.5,0,0.7c0.1,0.1,0.2,0.1,0.3,0.1
		c0.1,0,0.2,0,0.3-0.1c-0.1,0.2,0,0.5,0.2,0.7c0.1,0,0.2,0.1,0.2,0.1c0.2,0,0.3-0.1,0.4-0.2c-0.1,0.3,0.1,0.5,0.4,0.6
		c0,0,0.1,0,0.1,0c0.2,0,0.4-0.1,0.5-0.4c0,0.3,0.2,0.5,0.5,0.5s0.5-0.2,0.5-0.5c0.1,0.2,0.3,0.4,0.5,0.4c0,0,0.1,0,0.1,0
		c0.3-0.1,0.4-0.3,0.4-0.6c0.1,0.2,0.3,0.2,0.4,0.2c0.1,0,0.2,0,0.2-0.1c0.2-0.1,0.3-0.4,0.2-0.7c0.1,0.1,0.2,0.1,0.3,0.1
		c0.1,0,0.3,0,0.3-0.1c0.2-0.2,0.2-0.5,0-0.7c0.1,0,0.2,0.1,0.2,0.1c0.2,0,0.3-0.1,0.4-0.2c0.1-0.2,0.1-0.5-0.2-0.7c0,0,0.1,0,0.1,0
		c0.2,0,0.4-0.1,0.5-0.4C53.6,22.4,53.5,22.1,53.2,22.1z M50,23.7c-0.1,0-0.2,0.1-0.3,0.2c-0.1-0.1-0.2-0.1-0.3-0.1
		c-0.1,0-0.2,0-0.3,0.1c-0.1-0.1-0.2-0.2-0.3-0.2c-0.1,0-0.2,0-0.3,0c0-0.1-0.1-0.2-0.2-0.3c-0.1-0.1-0.2-0.1-0.3-0.1
		c0-0.1-0.1-0.2-0.1-0.3c-0.1-0.1-0.2-0.1-0.3-0.1c0-0.1,0-0.2-0.1-0.3c-0.1-0.1-0.2-0.2-0.3-0.2c0-0.1,0.1-0.2,0-0.3
		c0-0.1-0.1-0.2-0.2-0.3c0.1-0.1,0.1-0.2,0.1-0.3c0-0.1,0-0.2-0.1-0.3c0.1-0.1,0.2-0.2,0.2-0.3c0-0.1,0-0.2,0-0.3
		c0.1,0,0.2-0.1,0.3-0.2c0.1-0.1,0.1-0.2,0.1-0.3c0.1,0,0.2-0.1,0.3-0.1c0.1-0.1,0.1-0.2,0.1-0.3c0,0,0.1,0,0.1,0
		c0.1,0,0.2,0,0.2-0.1c0.1-0.1,0.2-0.2,0.2-0.3c0.1,0,0.1,0.1,0.2,0.1c0,0,0.1,0,0.1,0c0.1,0,0.2-0.1,0.3-0.2
		c0.1,0.1,0.2,0.1,0.3,0.1s0.2,0,0.3-0.1c0.1,0.1,0.2,0.2,0.3,0.2c0,0,0.1,0,0.1,0c0.1,0,0.1,0,0.2-0.1c0,0.1,0.1,0.2,0.2,0.3
		c0.1,0,0.2,0.1,0.2,0.1c0,0,0.1,0,0.1,0c0,0.1,0.1,0.2,0.1,0.3c0.1,0.1,0.2,0.1,0.3,0.1c0,0.1,0,0.2,0.1,0.3
		c0.1,0.1,0.2,0.2,0.3,0.2c0,0.1-0.1,0.2,0,0.3c0,0.1,0.1,0.2,0.2,0.3c-0.1,0.1-0.1,0.2-0.1,0.3c0,0.1,0,0.2,0.1,0.3
		c-0.1,0.1-0.2,0.2-0.2,0.3c0,0.1,0,0.2,0,0.3c-0.1,0-0.2,0.1-0.3,0.2c-0.1,0.1-0.1,0.2-0.1,0.3c-0.1,0-0.2,0.1-0.3,0.1
		c-0.1,0.1-0.1,0.2-0.1,0.3c-0.1,0-0.2,0-0.3,0.1c-0.1,0.1-0.2,0.2-0.2,0.3C50.3,23.7,50.2,23.7,50,23.7z"/>
	<circle class="st11" cx="50.9" cy="20.1" r="1"/>
</g>
</svg>
