<?xml version="1.0" encoding="utf-8"?>
<!-- Generator: Adobe Illustrator 26.3.1, SVG Export Plug-In . SVG Version: 6.00 Build 0)  -->
<svg version="1.1" id="레이어_1" xmlns="http://www.w3.org/2000/svg" xmlns:xlink="http://www.w3.org/1999/xlink" x="0px"
	 y="0px" viewBox="0 0 300 300" style="enable-background:new 0 0 300 300;" xml:space="preserve">
<style type="text/css">
	.st0{fill:#E9BC00;}
	.st1{fill:#967905;stroke:#E9BC00;stroke-width:3;stroke-miterlimit:10;}
	.st2{fill:#967905;}
	.st3{fill:#6A6EC2;stroke:#E9BC00;stroke-width:3;stroke-miterlimit:10;}
	.st4{fill:#00A3A3;stroke:#E9BC00;stroke-width:3;stroke-miterlimit:10;}
	.st5{fill:#00A3A3;stroke:#E9BC00;stroke-width:3;stroke-linecap:round;stroke-linejoin:round;stroke-miterlimit:10;}
</style>
<g>
	<path class="st0" d="M90.5,292.6c-29.8,0-54-24.2-54-54s24.2-54,54-54c5.8,0,11.4,0.9,16.9,2.7c0.2-1.5,0.7-2.8,1.5-4.1
		c1.5-2.6,3.9-4.5,6.8-5.4c0-0.1,0-0.1,0-0.2c-39.2-27.7-51.1-81.6-27-123.3c16.7-28.9,47.8-46.8,81.2-46.8
		c14.4,0,28.3,3.2,41.2,9.6c1,0.4,1.9,0.9,2.8,1.3c0.7,0.3,1.4,0.7,2,1.1c0.2,0.1,0.4,0.3,0.7,0.4c21.7,12.5,37.2,32.7,43.7,56.9
		c6.5,24.2,3.2,49.5-9.3,71.1c-16.7,28.9-47.9,46.9-81.3,46.9c0,0,0,0,0,0c-13.6,0-26.7-2.9-39-8.6c0.8,3,0.4,6.2-1.3,8.9
		c-0.8,1.3-1.7,2.4-2.9,3.3c11.4,10.3,17.9,24.7,17.9,40.2C144.5,268.4,120.2,292.6,90.5,292.6z M116.8,187
		c-0.1,0.2-0.3,0.4-0.4,0.6c-0.9,1.6-0.4,3.4,1.1,4.3c0.5,0.3,1.1,0.4,1.6,0.4c1.1,0,2.1-0.6,2.7-1.6c0.1-0.2,0.2-0.5,0.3-0.8
		c-0.3-0.1-0.6-0.2-0.9-0.3c-1-0.6-1.9-1.1-1.9-1.1c0,0-0.1,0-0.1-0.1c0,0-0.8-0.5-1.8-1C117.2,187.3,117,187.2,116.8,187z M135,176
		c10.9,5.1,22.6,7.7,34.7,7.7c29.5,0,56.9-15.8,71.6-41.3c13-22.6,14.5-49.9,4.4-73.5c0.3,10.8-2.3,21.4-7.8,30.9
		c-10.4,18-29.8,29.3-50.7,29.3c-10.2,0-20.3-2.7-29.2-7.8c-13.5-7.8-23.2-20.3-27.2-35.4c-4.1-15.1-2-30.9,5.8-44.4
		c5.4-9.4,13.2-16.9,22.5-22c-25.3,3.3-48.1,18.2-61,40.5c-10.4,18-13.6,39.2-9,59.5c4.5,20,16.2,37.4,32.8,49.2c0.1,0,0.1,0,0.2,0
		c0.8,0,1.6,0.2,2.4,0.7c2.4,1.4,4.3,2.5,4.4,2.5c0,0,0.1,0.1,0.1,0.1c0,0,1.8,1.2,4.1,2.5C134,174.7,134.6,175.3,135,176z
		 M187.5,23.2c-16.9,0-32.7,9.1-41.1,23.6c-13,22.7-5.2,51.7,17.4,64.7c7.2,4.1,15.3,6.3,23.6,6.3c16.9,0,32.7-9.1,41-23.9
		c12.3-21.2,6.5-47.9-13.4-62.1c-1.2-0.8-2.4-1.6-3.6-2.2c-0.1,0-0.3-0.1-0.4-0.2C203.8,25.4,195.7,23.2,187.5,23.2z"/>
	<path class="st0" d="M169.9,9.4c13.6,0,27.4,3,40.3,9.4c1,0.4,1.9,0.9,2.9,1.3c0.9,0.4,1.7,0.9,2.6,1.4
		c43.8,25.3,58.9,81.5,33.6,125.3c-17,29.4-47.9,45.9-79.6,45.9c-13.3,0-26.7-2.9-39.3-8.9c-0.7,0.6-1.4,1.1-2.1,1.6
		c1.1,2.7,1,6-0.6,8.7c-1.1,1.9-2.7,3.2-4.5,4.1c11.8,9.5,19.3,24.1,19.3,40.4c0,28.7-23.3,52-52,52s-52-23.3-52-52s23.3-52,52-52
		c6.6,0,13,1.3,18.8,3.5c-0.2-2,0.2-4.1,1.3-5.9c1.5-2.6,4.1-4.3,6.9-4.8c0.1-0.9,0.2-1.8,0.4-2.7c-39-26.8-51.6-79.7-27.5-121.3
		C107.3,25.9,138.2,9.4,169.9,9.4 M121.6,170.6c0.2-0.1,0.4-0.1,0.7-0.1c0.4,0,0.9,0.1,1.3,0.4c2.4,1.4,4.4,2.5,4.4,2.5
		s1.8,1.2,4.2,2.6c0.6,0.4,1,0.9,1.2,1.5c11.6,5.5,24,8.2,36.2,8.2c29.2,0,57.7-15.2,73.4-42.3c15.8-27.5,14.5-60.2-0.7-85.7
		c-0.9-1.5-1.9-3-2.9-4.5c1,1.4,1.9,2.9,2.8,4.4c3.2,13.5,1.5,28.2-6,41.1c-10.4,18.1-29.4,28.3-48.9,28.3c-9.6,0-19.3-2.4-28.2-7.6
		c-27-15.5-36.3-50.1-20.7-77.1c7.4-12.8,19.1-21.7,32.3-25.7c-0.3,0-0.6,0-0.8,0c-29.2,0-57.7,15.1-73.4,42.2
		C74.4,97.1,85.9,145.7,121.6,170.6 M187.3,119.9c17.1,0,33.7-8.9,42.7-24.9c12.8-22.1,6.4-50.1-14-64.7c-1.3-0.9-2.6-1.7-4-2.5
		c-0.1,0-0.1,0-0.1,0c-7.7-4.4-16.1-6.5-24.5-6.5c-17.1,0-33.7,8.8-42.8,24.6c-13.5,23.6-5.5,53.8,18.1,67.4
		C170.5,117.7,179,119.9,187.3,119.9 M214.8,29.4c-0.9-0.6-1.8-1.2-2.7-1.7c-0.1,0-0.1,0-0.1,0C212.9,28.2,213.8,28.8,214.8,29.4
		 M119.2,194.3c1.8,0,3.5-0.9,4.4-2.6c0.7-1.2,0.8-2.7,0.5-4c-0.5,0.2-1,0.3-1.4,0.3c-0.2,0-0.4,0-0.5-0.1c-1-0.6-1.9-1.1-1.9-1.1
		s-0.8-0.5-1.9-1.1c-0.3-0.2-0.5-0.7-0.7-1.5c-1.2,0.4-2.3,1.2-3,2.4c-1.4,2.5-0.6,5.6,1.9,7C117.4,194,118.3,194.3,119.2,194.3
		 M169.9,5.4c-16.5,0-32.9,4.3-47.2,12.4c-14.8,8.4-27.2,20.6-35.7,35.4c-12.1,20.9-15.8,45.5-10.4,69.1c5.1,22,17.5,41.3,35.4,54.9
		c-2,1.2-3.6,2.9-4.8,4.9c-0.5,0.8-0.9,1.7-1.2,2.6c-5-1.4-10.2-2.2-15.5-2.2c-30.9,0-56,25.1-56,56s25.1,56,56,56s56-25.1,56-56
		c0-15.3-6.1-29.7-17-40.2c0.6-0.7,1.2-1.4,1.7-2.3c1.2-2.1,1.9-4.4,1.9-6.7c11.6,4.9,23.9,7.3,36.6,7.3c16.5,0,32.9-4.3,47.3-12.4
		c14.8-8.4,27.2-20.6,35.8-35.4c26.4-45.7,10.7-104.4-35.1-130.8c0,0,0,0-0.1,0c-0.2-0.1-0.4-0.2-0.7-0.4c-0.7-0.4-1.4-0.8-2.2-1.1
		c-0.9-0.4-1.8-0.9-2.9-1.4C198.7,8.7,184.6,5.4,169.9,5.4L169.9,5.4z M122.8,166.5c-16-11.5-27.1-28.4-31.5-47.7
		C86.8,99,89.9,78.4,100,60.8c7.2-12.5,17.6-22.8,30.1-29.8c6.2-3.5,12.9-6.1,19.7-7.9c-5.9,4.7-11,10.5-14.9,17.2
		c-8.1,14-10.2,30.3-6,45.9c4.2,15.6,14.2,28.6,28.2,36.6c9.2,5.3,19.6,8.1,30.1,8.1c21.6,0,41.7-11.6,52.4-30.3
		c3.9-6.7,6.4-14.1,7.5-21.7c5.9,20.7,3.4,43.3-7.6,62.4c-14.3,24.8-41.1,40.3-69.9,40.3c-11.6,0-22.8-2.4-33.3-7.3
		c-0.5-0.7-1.2-1.4-2.1-1.9c-2.3-1.3-4-2.5-4-2.5c-0.1-0.1-0.2-0.1-0.3-0.2c0,0-2-1.1-4.3-2.5C124.8,166.9,123.8,166.6,122.8,166.5
		L122.8,166.5z M187.3,115.9c-7.9,0-15.7-2.1-22.6-6.1c-21.6-12.4-29-40.2-16.6-61.9c8.1-13.9,23.2-22.6,39.4-22.6
		c7.9,0,15.6,2.1,22.5,6c0.2,0.1,0.4,0.2,0.5,0.3c1,0.6,2.1,1.3,3.3,2.1c9.1,6.5,15.4,16.1,17.8,27.1c2.4,11.1,0.7,22.5-5,32.3
		C218.6,107.1,203.5,115.9,187.3,115.9L187.3,115.9z"/>
</g>
<path class="st1" d="M162.8,113.3c-23.6-13.6-31.6-43.8-18.1-67.4c13.6-23.5,43.8-31.6,67.3-18.1c0,0,0,0,0.1,0l0,0
	c12.9,7.5,23.1,17.9,30.3,29.9c15.2,25.5,16.5,58.2,0.7,85.7c-23.3,40.4-75.1,54.3-115.5,31l0,0C87.2,151,73.3,99.2,96.6,58.8
	c15.9-27.5,44.9-42.6,74.5-42.2c13.5-4.1,28.6-3.1,42,3.7c-43.4-23.3-97.9-8-122.7,35C65.1,99,80.2,155.2,124,180.5l0,0
	c43.8,25.3,100,10.2,125.3-33.6s10.2-100-33.6-125.3c-0.9-0.5-1.7-1-2.6-1.4c-13.4-6.8-28.4-7.8-42-3.7c-13.3,4-25.1,12.9-32.6,25.8
	c-15.6,27-6.3,61.6,20.7,77.1l0,0c27,15.6,61.6,6.3,77.1-20.7c7.5-12.9,9.2-27.6,6-41.1l0,0c-7.1-12-17.3-22.4-30.3-29.9
	c0,0,0,0,0.1,0c23.5,13.6,31.6,43.8,18,67.3C216.6,118.8,186.4,126.9,162.8,113.3z"/>
<g>
	<g>
		<path class="st2" d="M119.1,200.6c-2,0-3.9-0.5-5.7-1.6c-2.6-1.5-4.5-4-5.3-7c-0.8-2.9-0.3-6,1.2-8.6c2-3.5,5.8-5.7,9.9-5.7
			c2,0,4,0.5,5.7,1.6c2.6,1.5,4.5,4,5.3,7c0.8,2.9,0.3,6-1.2,8.6C126.9,198.4,123.1,200.6,119.1,200.6z M119.1,185.5
			c-1.3,0-2.5,0.7-3.1,1.8c-0.5,0.9-0.6,1.9-0.4,2.8c0.2,0.9,0.8,1.7,1.7,2.2c0.6,0.3,1.2,0.5,1.9,0.5c1.3,0,2.5-0.7,3.1-1.8
			c0.5-0.8,0.6-1.9,0.4-2.8c-0.3-0.9-0.9-1.7-1.7-2.2C120.4,185.7,119.7,185.5,119.1,185.5z"/>
		<path class="st0" d="M119.2,179.2c1.7,0,3.4,0.4,4.9,1.4c4.7,2.7,6.4,8.8,3.6,13.5c-1.9,3.2-5.2,5-8.6,5c-1.7,0-3.4-0.4-4.9-1.4
			c-4.7-2.7-6.4-8.8-3.6-13.5C112.4,181,115.8,179.2,119.2,179.2 M119.2,194.3c1.8,0,3.5-0.9,4.4-2.6c1.4-2.4,0.6-5.6-1.9-7
			c-0.8-0.5-1.7-0.7-2.6-0.7c-1.8,0-3.5,0.9-4.4,2.6c-1.4,2.5-0.6,5.6,1.9,7C117.4,194.1,118.3,194.3,119.2,194.3 M119.2,176.2
			L119.2,176.2c-4.6,0-8.9,2.5-11.2,6.5c-1.7,2.9-2.2,6.3-1.3,9.7c0.9,3.4,3,6.2,6,7.9c1.9,1.1,4.1,1.8,6.4,1.8
			c4.5,0,8.8-2.5,11.2-6.4c1.7-2.9,2.2-6.4,1.4-9.7c-0.9-3.4-3-6.2-6-7.9C123.7,176.9,121.4,176.2,119.2,176.2L119.2,176.2z
			 M119.2,191.3c-0.4,0-0.8-0.1-1.1-0.3c-0.6-0.4-0.9-0.9-1-1.2c-0.1-0.5-0.1-1.1,0.2-1.7c0.4-0.7,1-1.1,1.8-1.1
			c0.4,0,0.8,0.1,1.1,0.3c0.6,0.4,0.9,0.9,1,1.3c0.1,0.5,0.1,1.1-0.2,1.6l0,0l0,0C120.6,190.9,120,191.3,119.2,191.3L119.2,191.3z"
			/>
	</g>
</g>
<g>
	<circle class="st2" cx="90.5" cy="238.6" r="53.5"/>
	<path class="st0" d="M90.5,186.6c28.7,0,52,23.3,52,52s-23.3,52-52,52s-52-23.3-52-52S61.8,186.6,90.5,186.6 M90.5,183.6
		c-30.3,0-55,24.7-55,55s24.7,55,55,55s55-24.7,55-55S120.8,183.6,90.5,183.6L90.5,183.6z"/>
</g>
<circle class="st1" cx="90.5" cy="238.6" r="47.2"/>
<ellipse transform="matrix(4.531444e-02 -0.999 0.999 4.531444e-02 -152.4465 318.2816)" class="st3" cx="90.3" cy="238.9" rx="34.2" ry="34.2"/>
<g>
	<path class="st1" d="M128.1,173.4c0,0-2-1.1-4.4-2.5s-5,1.1-5.8,5.6c-0.8,4.4-0.5,8.6,0.5,9.2c1.1,0.6,1.9,1.1,1.9,1.1
		s0.9,0.5,1.9,1.1c1.1,0.6,4.8-1.3,8.2-4.1c3.5-2.9,4.3-6.4,1.9-7.8S128.1,173.4,128.1,173.4"/>
</g>
<g>
	<path class="st1" d="M89.4,229.3l9.8,5.7l1.2-5.8l-6.6-3.8l-5.2-3l-1-0.6c-2.4,0.4-4.8,1.3-6.8,2.6l3.4,1.9L89.4,229.3z"/>
	<path class="st1" d="M81,217.9c-2,0.9-3.8,2-5.5,3.4c-0.3,0.3-0.7,0.6-1,0.9l2.5,5.6c1.1-1.3,2.4-2.5,3.8-3.4
		c2.1-1.4,4.4-2.2,6.8-2.6c0.6-0.1,1.2-0.2,1.9-0.2l5.8-5.2C90.5,215.3,85.4,215.9,81,217.9z"/>
	<path class="st1" d="M77.1,227.7l-2.5-5.6l-0.9-1.9l1.8,1.1c1.7-1.4,3.5-2.5,5.5-3.4l-19.7-11.4l9.3,20.7l3.1,7l0.5,1.1l4.4-4
		L77.1,227.7z"/>
	<path class="st1" d="M85.7,246.8l-4.6-10.1l-4.4,4l3,6.7l2.5,5.5l0.7,1.5c2.2,1.1,4.6,1.7,7,1.7l-1.7-3.8L85.7,246.8z"/>
	<path class="st1" d="M86,261.3l9.1,20.3l4.7-21.9l1.6-7.6l0.2-1.1l-5.9,0.6l-0.8,4l-1.3,6l-0.4,1.9l-0.8-1.8
		C90.2,261.9,88.1,261.8,86,261.3z"/>
	<path class="st1" d="M94.8,255.5c-1.6,0.4-3.3,0.6-5,0.6c-2.4-0.1-4.8-0.6-7-1.7c-0.4-0.2-0.8-0.4-1.2-0.6
		c-0.4-0.2-0.8-0.5-1.1-0.7l-7.6,0.8c1.6,1.9,3.6,3.6,5.9,4.9c2.3,1.3,4.7,2.2,7.1,2.6c2.1,0.4,4.3,0.5,6.4,0.3
		c0.4,0,0.8-0.1,1.2-0.1L94.8,255.5z"/>
	<path class="st1" d="M81.1,236.7l8.3-7.4l-5.2-3l-5.6,5l-4.4,4l-1,0.9c-0.4,2.4-0.2,4.9,0.4,7.3l3-2.7L81.1,236.7z"/>
	<path class="st1" d="M79.7,247.4l-4.1,0.4l-6.1,0.6l-1.7,0.2l1.3-1.1c-0.8-2-1.3-4.1-1.6-6.2L51,256l22-2.2l7.6-0.8l1.6-0.2
		L79.7,247.4z"/>
	<path class="st1" d="M73.7,243.4c-0.6-2.3-0.8-4.8-0.4-7.3c0.1-0.7,0.3-1.3,0.4-2l-3.1-7c0,0.1-0.1,0.1-0.1,0.2
		c-2.5,4.4-3.4,9.3-2.9,13.9c0.2,2.1,0.8,4.2,1.6,6.2c0.1,0.3,0.3,0.7,0.4,1l6.1-0.6C74.7,246.4,74.1,244.9,73.7,243.4z"/>
	<path class="st1" d="M99.2,234.9l-2.3,10.8l5.9-0.6l1.5-7.2l1.2-5.8l0.2-0.9c-1.1-2.2-2.6-4.1-4.6-5.7l-0.8,3.7L99.2,234.9z"/>
	<path class="st1" d="M107.5,223.5c-1.4-1.6-3.1-3-4.9-4.1c-0.2-0.1-0.5-0.3-0.7-0.5c-0.2-0.1-0.3-0.2-0.5-0.3l-4.6,4.1
		c0.8,0.3,1.5,0.6,2.2,1.1c0.8,0.5,1.6,1,2.3,1.6c2,1.6,3.5,3.6,4.6,5.7c0.2,0.5,0.4,0.9,0.6,1.4l6.7,3.9
		C112.7,231.7,110.7,227.1,107.5,223.5z"/>
	<path class="st1" d="M112.2,201.3l-16.8,15l-5.8,5.2l-0.9,0.8l5.2,3l2.9-2.5l4.6-4.1l1.7-1.5l-0.5,2.2c1.9,1.2,3.5,2.6,4.9,4.1
		L112.2,201.3z"/>
	<path class="st1" d="M96.9,245.7l-11.3,1.1l2.5,5.5l7.6-0.8l5.9-0.6l1.1-0.1c1-1,1.9-2.1,2.6-3.4c0.5-0.9,0.9-1.8,1.2-2.7l-3.7,0.4
		L96.9,245.7z"/>
	<path class="st1" d="M110.3,250.1c1.1-1.9,1.8-3.9,2.3-5.9c0.1-0.4,0.2-0.8,0.2-1.3l-5.3-3.1c-0.1,1.7-0.4,3.3-1,5
		c-0.3,0.9-0.7,1.8-1.2,2.7c-0.7,1.3-1.6,2.4-2.6,3.4c-0.4,0.4-0.9,0.9-1.3,1.2l-1.6,7.6c4.3-1.9,8-5.1,10.5-9.4
		C110.3,250.2,110.3,250.2,110.3,250.1z"/>
	<path class="st1" d="M113.2,236.4l-6.7-3.9l-0.8-0.5l-1.2,5.8l3.2,1.8l5.3,3.1l1.8,1.1l-2.1,0.2c-0.5,2-1.3,4-2.3,5.9l22.5-2.3
		L113.2,236.4z"/>
</g>
<g>
	<circle class="st4" cx="71.6" cy="271.2" r="9.6"/>
	<path class="st5" d="M63.6,271.1c1.9-3.3,6.2-4.5,9.5-2.5c3.3,1.9,4.5,6.2,2.5,9.5c-0.7,1.2-1.7,2.1-2.8,2.6c2.8-0.4,5.4-2,7-4.7
		c2.6-4.6,1.1-10.4-3.5-13.1c-4.6-2.6-10.4-1.1-13.1,3.5c-1.5,2.7-1.6,5.7-0.6,8.4C62.7,273.5,63,272.3,63.6,271.1z"/>
</g>
<g>
	<circle class="st4" cx="115.2" cy="266.6" r="9.6"/>
	<path class="st5" d="M112.7,274.1c-2.6-2.9-2.3-7.2,0.5-9.8s7.2-2.3,9.8,0.5c0.9,1,1.4,2.2,1.7,3.5c0.5-2.8-0.2-5.8-2.3-8.1
		c-3.5-3.9-9.6-4.2-13.5-0.7s-4.2,9.6-0.7,13.5c2.1,2.3,5,3.3,7.8,3.1C114.7,275.8,113.6,275.1,112.7,274.1z"/>
</g>
<g>
	<circle class="st4" cx="124.4" cy="223.7" r="9.6"/>
	<path class="st5" d="M130.7,228.5c-3.5,1.6-7.6,0-9.2-3.5s0-7.6,3.5-9.2c1.2-0.6,2.5-0.7,3.8-0.5c-2.5-1.3-5.6-1.6-8.4-0.3
		c-4.8,2.1-7,7.8-4.8,12.6c2.1,4.8,7.8,7,12.6,4.8c2.8-1.2,4.7-3.7,5.4-6.4C132.9,227,131.9,227.9,130.7,228.5z"/>
</g>
<g>
	<circle class="st4" cx="86.4" cy="201.8" r="9.6"/>
	<path class="st5" d="M92.9,197.2c0.4,3.8-2.4,7.2-6.2,7.6s-7.2-2.4-7.6-6.2c-0.1-1.3,0.1-2.6,0.7-3.8c-2.1,2-3.2,4.8-2.9,7.9
		c0.6,5.3,5.3,9.1,10.5,8.5c5.3-0.6,9.1-5.3,8.5-10.5c-0.3-3.1-2-5.6-4.5-7.1C92.2,194.6,92.7,195.8,92.9,197.2z"/>
</g>
<g>
	<circle class="st4" cx="53.7" cy="231.1" r="9.6"/>
	<path class="st5" d="M51.4,223.5c3.8,0.8,6.1,4.5,5.3,8.2c-0.8,3.8-4.5,6.1-8.2,5.3c-1.3-0.3-2.5-0.9-3.4-1.8
		c1.2,2.6,3.6,4.5,6.6,5.2c5.2,1.1,10.2-2.2,11.3-7.4c1.1-5.2-2.2-10.2-7.4-11.3c-3-0.6-6,0.2-8.1,2
		C48.8,223.4,50.1,223.2,51.4,223.5z"/>
</g>
</svg>
