<?xml version="1.0" encoding="utf-8"?>
<!-- Generator: Adobe Illustrator 26.3.1, SVG Export Plug-In . SVG Version: 6.00 Build 0)  -->
<svg version="1.1" id="레이어_1" xmlns="http://www.w3.org/2000/svg" xmlns:xlink="http://www.w3.org/1999/xlink" x="0px"
	 y="0px" viewBox="0 0 300 300" style="enable-background:new 0 0 300 300;" xml:space="preserve">
<style type="text/css">
	.st0{fill:#E9BC00;}
	.st1{fill:#967905;stroke:#E9BC00;stroke-width:3;stroke-miterlimit:10;}
	.st2{fill:#967905;stroke:#E9BC00;stroke-width:2.9999;stroke-miterlimit:9.9998;}
	.st3{fill:#967905;stroke:#E9BC00;stroke-width:3;stroke-linecap:round;stroke-linejoin:round;stroke-miterlimit:10;}
	.st4{fill:#967905;stroke:#E9BC00;stroke-miterlimit:10;}
</style>
<g>
	<path class="st0" d="M136.7,286.5c-2.8,0-5.3-0.3-7.5-0.9c-4.1-1.1-7.1-3.2-8.9-6.3c-1.6-2.8-0.7-6.4,2-8.1
		c0.7-0.4,1.5-0.7,2.4-0.8c0-0.1,0-0.3,0-0.5c-1-0.8-1.8-1.8-2.4-2.9c-1.6-2.8-0.8-6.3,1.9-8c0.8-0.5,1.7-0.8,2.7-0.8
		c0.7-2.9,1.5-5.9,2.3-8.8c2.6-9.4-1.1-17.3-16.7-44.3c-6-10.4-7.7-20.9-5-31c1.6-6.1,5-12,9.7-17.4c-0.6-1.1-0.8-2.6-0.4-3.9
		c0.3-1,0.9-1.9,1.7-2.6c0.2-0.4,0.1-1.5-0.6-3.1c-0.5,0.1-0.9,0.1-1.3,0.1c-3,0-5.7-1.6-7.3-4.2c-2-3.5-1.4-7.7,1.5-10.4
		c-0.6-2.2-2.6-7.9-10-21c-0.4,0.1-0.9,0.1-1.3,0.1c-3,0-5.7-1.6-7.3-4.2c-1.8-3.1-1.5-6.8,0.6-9.5c-1.4-1.8-2.7-2.9-3.6-3.5
		c-0.4,0.1-0.9,0.2-1.3,0.2c-0.5,0-1-0.1-1.4-0.2c-1.4-0.4-2.6-1.3-3.2-2.6c-0.2-0.2-0.3-0.5-0.4-0.8c0,0-0.1,0-0.1,0
		c-2.4,0-4.8-0.3-7.2-0.9c-7.1-1.9-13.1-6.5-16.8-12.9c-3.7-6.4-4.7-13.9-2.8-21c0.5-1.9,1.2-3.8,2.2-5.6c-0.3-0.3-0.5-0.7-0.7-1.1
		c-0.2-0.3-0.3-0.6-0.5-1c-3.7-0.1-6.5-1.5-8-4c-2.2-3.8-0.5-9.1,4.5-14c-0.2-0.2-0.3-0.5-0.5-0.7c-0.7-1.1-0.9-2.4-0.7-3.8
		c-1.1-1.4-1.7-3.1-1.7-4.9c0-4.3,3.5-7.8,7.8-7.8c3.2,0,6.1,2,7.3,5c1.3,0.5,2.3,1.4,3,2.6c0.1,0.2,0.2,0.4,0.3,0.6
		c1.5-0.4,3-0.7,4.4-0.8c0.5,0,1-0.1,1.5-0.1c4,0,7,1.4,8.5,4c1.4,2.4,1.2,5.6-0.6,8.9c0.3,0.3,0.6,0.7,0.8,1.1
		c0.2,0.3,0.4,0.7,0.5,1c2,0.1,4,0.4,5.9,0.9c7.1,1.9,13.1,6.5,16.8,12.9c3.7,6.3,4.7,13.6,2.9,20.7c-0.6,2.4-1.6,4.8-2.8,6.9
		c0.3,0.3,0.6,0.7,0.8,1.1c1.1,2,0.7,4.6-1,6.2c0.1,1,0.3,2.8,1.2,4.8c0.4-0.1,0.8-0.1,1.3-0.1c3,0,5.7,1.6,7.3,4.2
		c1.8,3.2,1.5,7.1-0.7,9.8c7.6,13,11.6,17.6,13.2,19.2c0.7-0.2,1.5-0.3,2.2-0.3c3,0,5.7,1.6,7.3,4.2c1.8,3.1,1.5,6.9-0.7,9.6
		c0.8,1.2,1.7,1.9,2.2,2.1c0.6-0.3,1.3-0.4,2-0.4c0.5,0,0.9,0.1,1.4,0.2c1.3,0.4,2.4,1.2,3.1,2.3c3.3-0.7,6.5-1,9.6-1
		c3.6,0,7.1,0.4,10.3,1.3c10.2,2.7,18.4,9.4,24.4,19.8c15.6,27,20.5,34.2,30,36.7c3.4,0.9,6.2,1.7,8.8,2.4c0.5-0.8,1.1-1.4,1.9-1.9
		c0.9-0.5,1.8-0.8,2.9-0.8c0.6,0,1.1,0.1,1.7,0.3c1.4,0.4,2.6,1.4,3.4,2.6c0.7,1.2,1.1,2.4,1.3,3.7c0.2,0.1,0.3,0.1,0.5,0.2
		c0.5-0.7,1.1-1.3,1.7-1.7c1-0.5,2-0.8,3-0.8c2.1,0,4,1.1,5.1,3c5.4,9.4-2.6,23.8-22.6,40.4l-0.9,0.8l-0.9,0.7
		c-2.3,1.9-4.8,3.8-7.4,5.7l-0.1,0c-0.8,0.6-1.7,1.2-2.6,1.8l-0.2,0.1c-1.8,1.3-3.6,2.5-5.4,3.7c0,0-2,1.3-2.5,1.6
		c-0.4,0.3-1.4,0.9-1.4,0.9l-1.1,0.7c-0.5,0.3-1.1,0.7-1.6,1l-1.3,0.8c-0.4,0.3-0.9,0.5-1.3,0.8c-0.9,0.5-1.7,1-2.6,1.5
		c-1.1,0.6-2.2,1.3-3.3,1.9c-0.6,0.3-1.2,0.7-1.9,1l-1.2,0.6c-6.5,3.5-13,6.6-19.4,9.2l-1.5,0.6c-0.5,0.2-1,0.4-1.5,0.6
		C156.7,283.7,145.2,286.5,136.7,286.5L136.7,286.5z M69.9,53.7c-3.9,5.1-4.5,12.1-1.2,17.8c1.8,3.2,4.7,5.6,8.1,6.9
		c0-0.2,0-0.4,0-0.6c0-7.7,6.2-13.9,13.9-13.9c2.7,0,5.3,0.8,7.5,2.2c0.6-3.6-0.1-7.4-1.9-10.6c-2.2-3.7-5.6-6.3-9.7-7.4
		c-1.4-0.4-2.8-0.6-4.2-0.6c-0.7,0-1.4,0-2.1,0.1c-0.6,3.7-3.8,6.5-7.7,6.5C71.7,54.1,70.8,54,69.9,53.7z"/>
	<path class="st0" d="M58.2,15c2.9,0,5.4,2,6.1,4.7c0.1,0,0.2,0,0.3,0c1.1,0.3,2,1,2.6,2c0.3,0.6,0.5,1.2,0.5,1.8
		c1.9-0.6,3.8-1,5.6-1.2c0.5,0,0.9-0.1,1.4-0.1c3.4,0,5.9,1.1,7.2,3.2c1.3,2.3,0.8,5.3-1.2,8.4c0.6,0.4,1.1,0.9,1.4,1.5
		c0.3,0.6,0.5,1.2,0.6,1.8c2.2,0,4.5,0.3,6.7,0.9c6.8,1.8,12.4,6.1,15.9,12.2c3.5,5.9,4.5,12.9,2.7,19.6c-0.7,2.7-1.8,5.3-3.3,7.6
		c0.6,0.4,1.1,0.9,1.4,1.5c0.9,1.6,0.4,3.7-1.2,4.9c0,1.2,0.3,3.9,1.8,7.2c0.7-0.2,1.4-0.3,2.1-0.3c2.4,0,4.7,1.2,6.1,3.4
		c1.7,3,1,6.6-1.3,8.8c9.2,15.8,13.4,20,14.7,21.1c0.8-0.3,1.7-0.5,2.6-0.5c2.4,0,4.7,1.2,6.1,3.4c1.7,2.9,1.1,6.5-1.3,8.7
		c0.9,1.5,2.6,3.8,4.3,3.8c0.5-0.3,1.2-0.5,1.8-0.5c0.3,0,0.7,0,1,0.1c1,0.3,1.9,1,2.4,1.9c0.1,0.2,0.2,0.4,0.3,0.7
		c3.4-0.8,6.9-1.2,10.5-1.2c3.3,0,6.6,0.4,9.9,1.3c9.8,2.6,17.7,9,23.5,19.1c15.8,27.5,20.9,34.7,30.9,37.4c3.7,1,7,1.9,10,2.8
		c0.3-1,0.9-1.8,1.8-2.4c0.6-0.4,1.3-0.6,2.1-0.6c0.4,0,0.8,0.1,1.2,0.2c1.1,0.3,2,1,2.5,2c0.7,1.2,1.1,2.5,1.3,3.9
		c0.9,0.4,1.7,0.8,2.5,1.2c0.3-1,0.9-1.8,1.9-2.4c0.7-0.4,1.5-0.6,2.2-0.6c1.5,0,3,0.8,3.8,2.2c5.4,9.5-5.2,24.3-22.3,38.5
		c-0.3,0.3-0.6,0.5-0.9,0.8c-0.3,0.2-0.6,0.5-0.9,0.7c-2.3,1.9-4.7,3.7-7.3,5.6c0,0,0,0,0,0c-0.9,0.6-1.7,1.2-2.6,1.9
		c-0.1,0-0.1,0.1-0.2,0.1c-1.7,1.2-3.5,2.4-5.3,3.6c-0.3,0.2-0.6,0.4-0.9,0.6c-0.5,0.3-1.1,0.7-1.6,1c-0.5,0.3-0.9,0.6-1.4,0.9
		c-0.4,0.2-0.8,0.5-1.1,0.7c-0.5,0.3-1,0.7-1.6,1c-0.3,0.2-0.7,0.4-1,0.6c-0.5,0.3-1.1,0.6-1.6,1c-0.9,0.5-1.7,1-2.6,1.5
		c0,0,0,0,0,0c-1.1,0.6-2.2,1.2-3.2,1.8c-0.6,0.3-1.2,0.7-1.9,1c-0.4,0.2-0.8,0.4-1.2,0.6c-6.4,3.4-12.9,6.5-19.2,9.1
		c-0.4,0.2-0.8,0.3-1.3,0.5c-0.6,0.2-1.1,0.5-1.7,0.7c-12,4.7-23.7,7.9-32.7,7.9c-2.6,0-5-0.3-7.1-0.8c-3.7-1-6.4-2.9-8-5.6
		c-1.2-2.1-0.5-4.8,1.5-6c0.7-0.4,1.4-0.6,2.2-0.6c0.3,0,0.5,0,0.8,0.1c0-0.8,0.1-1.7,0.2-2.6c-1.1-0.8-2-1.8-2.7-3
		c-1.2-2.1-0.6-4.7,1.4-5.9c0.6-0.4,1.3-0.6,2.1-0.6c0.3,0,0.7,0,1,0.1c0.7-3,1.6-6.4,2.6-10.1c2.8-10-1-18-16.9-45.5
		c-5.8-10.1-7.5-20.1-4.8-29.9c1.8-6.8,5.7-12.8,10.1-17.6c-0.2-0.2-0.4-0.4-0.5-0.7c-0.5-0.9-0.7-1.9-0.4-2.9
		c0.2-0.8,0.7-1.5,1.4-2c1.1-1.4,0-4.2-0.9-5.9c-0.7,0.2-1.4,0.4-2.2,0.4c-2.4,0-4.7-1.2-6.1-3.4c-1.8-3.1-1-6.9,1.8-9.1
		c-0.3-1.7-1.9-7.5-10.9-23.3c-0.7,0.2-1.4,0.3-2.1,0.3c-2.4,0-4.7-1.2-6.1-3.4c-1.7-2.9-1.1-6.4,1.3-8.6c-2-3-4.3-4.6-5.3-5.3
		c-0.5,0.2-1,0.3-1.5,0.3c-0.3,0-0.7,0-1-0.1c-1-0.3-1.8-1-2.3-1.9c-0.3-0.5-0.5-1.1-0.5-1.7c-0.4,0-0.9,0-1.3,0
		c-2.3,0-4.5-0.3-6.8-0.9C69,87,63.3,82.6,59.8,76.6c-3.5-6.1-4.4-13.1-2.6-19.9c0.6-2.3,1.5-4.4,2.6-6.3c-0.5-0.4-1-0.8-1.3-1.4
		c-0.3-0.5-0.5-1.2-0.5-1.8c-0.2,0-0.5,0-0.7,0c-3.4,0-5.9-1.1-7.2-3.2c-2-3.5,0.3-8.7,5.3-13.2c-0.5-0.4-1-0.8-1.3-1.4
		c-0.6-0.9-0.7-2-0.4-3.2c0-0.1,0.1-0.2,0.1-0.3c-1.2-1.1-1.9-2.7-1.9-4.5C51.9,17.9,54.8,15,58.2,15 M72.6,52.6
		c-1.1,0-2.2-0.3-3.1-0.8c-4.8,5.5-5.9,13.7-2.1,20.4c2.3,4,6.1,6.9,10.6,8.1c0.2,0.1,0.4,0.1,0.6,0.1c-0.2-0.9-0.3-1.8-0.3-2.7
		c0-6.8,5.6-12.4,12.4-12.4c3.2,0,6.2,1.3,8.4,3.3c1.4-4.5,1-9.6-1.5-14c-2.4-4-6.1-6.9-10.7-8.1c-1.5-0.4-3-0.6-4.5-0.6
		c-1.2,0-2.4,0.1-3.5,0.4c0,0,0,0,0,0C78.9,49.8,76.1,52.6,72.6,52.6 M58.2,12c-5.1,0-9.3,4.2-9.3,9.3c0,1.9,0.6,3.7,1.6,5.3
		c-0.1,1.3,0.2,2.7,0.8,3.9c-4.8,5.2-6.3,10.8-3.9,14.9c1.6,2.7,4.5,4.3,8.2,4.7c0.1,0.1,0.1,0.2,0.2,0.4c0.1,0.1,0.2,0.3,0.3,0.4
		c-0.8,1.6-1.4,3.3-1.9,5.1c-2,7.5-1,15.4,2.9,22.1c3.9,6.7,10.2,11.6,17.7,13.6c2.2,0.6,4.4,0.9,6.7,1c0,0,0,0.1,0.1,0.1
		c0.9,1.6,2.4,2.8,4.1,3.3c0.6,0.2,1.2,0.2,1.8,0.2c0.3,0,0.7,0,1-0.1c0.6,0.5,1.3,1.1,2.1,2c-1.8,3.1-1.9,6.9-0.1,10.1l0,0l0,0
		c1.9,3.1,5.1,4.9,8.6,4.9c0.2,0,0.3,0,0.5,0c6.2,11.1,8.4,16.6,9.1,19c-2.8,3.2-3.3,7.8-1.1,11.6l0,0l0,0c1.9,3.1,5.1,4.9,8.6,4.9
		c0.1,0,0.2,0,0.3,0c0.1,0.3,0.1,0.6,0.2,0.8c-0.8,0.8-1.4,1.8-1.7,2.9c-0.4,1.3-0.3,2.7,0.1,4c-4.5,5.3-7.7,11.2-9.4,17.2
		c-2.8,10.6-1.1,21.4,5.1,32.2c15.4,26.5,19,34.3,16.6,43.2c-0.7,2.6-1.4,5.3-2.1,7.9c-0.8,0.2-1.6,0.5-2.2,0.9
		c-3.4,2.1-4.4,6.5-2.4,10c0.4,0.6,0.8,1.2,1.2,1.8c-0.2,0.1-0.4,0.2-0.6,0.3l0,0l0,0c-3.4,2.1-4.5,6.6-2.5,10.1
		c2,3.5,5.3,5.8,9.8,7.1c2.3,0.6,4.9,0.9,7.8,0.9c11,0,24.5-4.4,33.8-8.1c0.5-0.2,0.9-0.4,1.4-0.6l0.3-0.1c0.4-0.2,0.9-0.3,1.3-0.5
		c6.4-2.6,13-5.8,19.5-9.3c0.4-0.2,0.8-0.4,1.2-0.6c0.6-0.3,1.3-0.7,1.9-1c1.1-0.6,2.2-1.2,3.3-1.9c0.9-0.5,1.8-1,2.6-1.6
		c0.5-0.3,1-0.6,1.4-0.9l0.2-0.1l0.2-0.1l0.8-0.5c0.5-0.3,1.1-0.7,1.6-1c0.4-0.2,0.8-0.5,1.1-0.7c0.5-0.3,0.9-0.6,1.4-0.9
		c0.5-0.3,1.1-0.7,1.6-1.1l0.3-0.2c0.2-0.1,0.4-0.3,0.6-0.4c1.8-1.2,3.6-2.4,5.4-3.7l0.1-0.1l0.1-0.1c0.9-0.6,1.8-1.3,2.6-1.9
		c2.6-1.9,5.1-3.8,7.5-5.7c0.3-0.2,0.6-0.5,0.9-0.7l0,0c0.3-0.3,0.6-0.5,0.9-0.8c20.6-17.1,28.8-32.2,23-42.3
		c-1.3-2.3-3.7-3.7-6.4-3.7c-1.3,0-2.6,0.3-3.7,1l0,0l0,0c-0.2,0.1-0.4,0.2-0.5,0.4c-0.3-0.7-0.6-1.4-0.9-2l0,0l0,0
		c-1-1.6-2.5-2.7-4.2-3.3c-0.7-0.2-1.4-0.3-2.1-0.3c-1.3,0-2.5,0.4-3.6,1c-0.6,0.4-1.2,0.9-1.7,1.4c-2.3-0.7-4.9-1.3-7.8-2.1
		c-8.9-2.4-13.7-9.4-29.1-36c-6.2-10.8-14.7-17.7-25.3-20.5c-3.4-0.9-7-1.4-10.7-1.4c-2.9,0-6,0.3-9,0.9c-0.9-1-2-1.8-3.3-2.1
		c-0.6-0.2-1.2-0.2-1.8-0.2c-0.6,0-1.2,0.1-1.8,0.3c-0.1-0.1-0.3-0.3-0.5-0.5c1.9-3.1,2-7,0.1-10.3l0,0l0,0c-1.9-3-5.1-4.9-8.6-4.9
		c-0.6,0-1.1,0-1.7,0.1c-1.7-1.8-5.4-6.4-11.9-17.4c2-3.1,2.2-7.1,0.3-10.5l0-0.1l0-0.1c-1.9-3-5.1-4.9-8.6-4.9c-0.1,0-0.2,0-0.2,0
		c-0.3-1.1-0.5-2-0.6-2.7c1.7-2.1,2-5.1,0.7-7.5c-0.1-0.2-0.2-0.3-0.3-0.5c1.1-2,1.9-4.2,2.5-6.4c1.9-7.5,0.9-15.3-3-21.9
		c-3.9-6.7-10.2-11.5-17.7-13.6c-1.7-0.5-3.5-0.8-5.2-0.9c-0.1-0.1-0.1-0.3-0.2-0.4c-0.1-0.2-0.2-0.3-0.3-0.5
		c1.6-3.5,1.7-6.8,0.1-9.4c-1.8-3.1-5.2-4.7-9.8-4.7c-0.5,0-1.1,0-1.6,0.1c-1.1,0.1-2.3,0.3-3.5,0.5c-0.7-1.1-1.7-2-2.9-2.6
		C65.1,14.2,61.9,12,58.2,12L58.2,12z M81.5,49c0.3,0,0.6,0,0.9,0c1.3,0,2.5,0.2,3.8,0.5c3.7,1,6.9,3.4,8.8,6.7
		c1.3,2.3,1.9,4.8,1.9,7.4c-1.9-0.9-4-1.3-6.2-1.3c-7.9,0-14.5,6-15.3,13.7c-2.2-1.3-4.1-3.1-5.4-5.3c-2.8-4.8-2.5-10.8,0.5-15.3
		c0.7,0.2,1.4,0.2,2.1,0.2C76.8,55.6,80.4,52.8,81.5,49L81.5,49z"/>
</g>
<g>
	<g>
		<path class="st1" d="M94.8,84.8c-11.8,6.8-26.9,2.8-33.7-9s-2.8-26.9,9-33.7s26.9-2.8,33.7,9C110.7,62.8,106.6,77.9,94.8,84.8z
			 M73,47c-9,5.2-12.1,16.8-6.9,25.9c5.2,9,16.8,12.2,25.9,6.9c9-5.2,12.1-16.8,6.9-25.9C93.6,44.9,82,41.7,73,47z"/>
	</g>
	<circle class="st1" cx="58.2" cy="21.3" r="4.8"/>
	<circle class="st1" cx="72.6" cy="46.3" r="4.8"/>
	<g>
		<ellipse transform="matrix(0.866 -0.5 0.5 0.866 -8.5348 37.596)" class="st2" cx="65.9" cy="34.7" rx="16.8" ry="8"/>
		<ellipse transform="matrix(0.866 -0.5 0.5 0.866 -8.5348 37.596)" class="st2" cx="65.9" cy="34.7" rx="12" ry="8"/>
		<ellipse transform="matrix(0.866 -0.5 0.5 0.866 -8.5348 37.596)" class="st2" cx="65.9" cy="34.7" rx="4.8" ry="8"/>
	</g>
	<path class="st1" d="M79.6,39.9l-16.1,9.3c-1.3,0.8-3,0.3-3.7-1l0,0c-0.8-1.3-0.3-3,1-3.7l16.1-9.3c1.3-0.8,3-0.3,3.7,1l0,0
		C81.4,37.5,80.9,39.1,79.6,39.9z"/>
	<path class="st1" d="M64.8,26.2l-5.7,3.3c-1.3,0.8-3,0.3-3.7-1l0,0c-0.8-1.3-0.3-3,1-3.7l5.7-3.3c1.3-0.8,3-0.3,3.7,1l0,0
		C66.5,23.8,66.1,25.4,64.8,26.2z"/>
	<circle class="st3" cx="90.7" cy="77.7" r="10.9"/>
	<path class="st3" d="M103.6,82.9l-14.8,8.5c-1.1,0.7-2.6,0.3-3.2-0.9l0,0c-0.7-1.1-0.3-2.6,0.9-3.2l14.8-8.5
		c1.1-0.7,2.6-0.3,3.2,0.9l0,0C105.1,80.8,104.7,82.2,103.6,82.9z"/>
	<path class="st1" d="M219.5,199.8c-10.9-2.9-16.5-11.5-31.8-38.1s-42.4-21-56-13.1c-13.6,7.8-32,28.4-16.6,55s20,35.7,17,46.6
		c-4.1,15.1-6,23.8-3.2,28.7c5.4,9.3,35.9,1.7,68.2-17s54.2-41.3,48.8-50.6C243.1,206.4,234.6,203.8,219.5,199.8z"/>
	<path class="st1" d="M133.4,135.3l-14.2,8.2c-2.6,1.5-5.9,0.6-7.5-2l0,0c-1.5-2.6-0.6-5.9,2-7.5l14.2-8.2c2.6-1.5,5.9-0.6,7.5,2
		l0,0C136.9,130.4,136,133.8,133.4,135.3z"/>
	<path class="st3" d="M142.6,145l-19.5,11.3c-1.1,0.7-2.6,0.3-3.2-0.9l0,0c-0.7-1.1-0.3-2.6,0.9-3.2l19.5-11.3
		c1.1-0.7,2.6-0.3,3.2,0.9l0,0C144.1,142.9,143.8,144.4,142.6,145z"/>
	<path class="st1" d="M111.4,102.6L102,108c-2.6,1.5-5.9,0.6-7.5-2l0,0c-1.5-2.6-0.6-5.9,2-7.5l9.4-5.5c2.6-1.5,5.9-0.6,7.5,2l0,0
		C114.9,97.7,114,101.1,111.4,102.6z"/>
	<path class="st3" d="M113.8,134c0,0,1-3.7-11.8-26l4.7-2.7l4.7-2.7c12.9,22.3,16.6,23.2,16.6,23.2L113.8,134z"/>
	<path class="st3" d="M89.1,91.2c0,0,4.2,1.8,7.4,7.4l4.7-2.7l4.7-2.7c-3.2-5.5-2.7-10.1-2.7-10.1L89.1,91.2z"/>
	<path class="st3" d="M119.3,143.5c0,0,3.8,5.7,1.4,8.7l9.8-5.6l0,0l9.8-5.6c-3.8,0.6-6.8-5.6-6.8-5.6L119.3,143.5z"/>
	<g>
		<path class="st1" d="M191,251.3c-27.7,16-59.3,26-66.1,14.2c-0.8-1.4-0.4-3.1,0.9-3.9s3-0.2,3.8,1.1c3.1,5.3,27.4,1.5,58.5-16.4
			c31.1-18,46.5-37.1,43.5-42.4c-0.8-1.4-0.4-3.1,0.9-3.9s3-0.2,3.8,1.1C243.1,213,218.6,235.3,191,251.3z"/>
	</g>
	<g>
		<g>
			<path class="st4" d="M139.3,250.5c-0.9,0-1.7,0.5-2.4,1.2s-1.4,1.8-2,2.8s-1.1,2.1-1.5,2.8c-0.4,0.8-0.6,1.3-0.6,1.3
				s0.1-0.6,0.1-1.4c0.1-0.9,0.1-2,0-3.2c0-0.6-0.1-1.2-0.1-1.8c-0.1-0.6-0.1-1.2-0.3-1.7c-0.2-1.1-0.5-1.9-1-2.7
				c0.5,0.8,1.5,0.8,2.3,0.2c0.4-0.3,0.7-0.6,1.1-1.1c0.3-0.4,0.6-0.9,0.8-1.4c0.5-1,0.9-2.1,1.1-2.9c0.2-0.8,0.4-1.3,0.4-1.3
				s-0.1,0.5-0.3,1.4c-0.2,0.8-0.3,1.9-0.4,3.1c-0.1,1.2,0.1,2.3,0.5,3.2C137.7,249.8,138.4,250.5,139.3,250.5z"/>
			<path class="st4" d="M148.3,249.6c-1.8,0.3-2.5,2.7-2.9,5c-0.3,2.3-0.2,4.6-0.2,4.6s-0.4-2.2-1.3-4.4c-0.9-2.2-2.1-4.3-3.9-4.3
				c1.9,0,2.7-2.4,3-4.7s0.1-4.5,0.1-4.5s0.3,2.2,1.1,4.4C145.1,247.8,146.5,249.9,148.3,249.6z"/>
			<path class="st4" d="M157.1,247.3c-1.8,0.6-2.1,3-2.2,5.3c0,2.3,0.4,4.5,0.4,4.5s-0.7-2.1-1.9-4.2c-1.2-2-2.7-3.9-4.5-3.6
				c1.8-0.4,2.3-2.8,2.3-5.1s-0.5-4.5-0.5-4.5s0.7,2.2,1.8,4.2C153.7,246,155.3,247.9,157.1,247.3z"/>
			<path class="st4" d="M165.6,244.2c-1.7,0.7-1.9,3.2-1.7,5.5s0.9,4.5,0.9,4.5s-0.9-2.1-2.2-4s-3.1-3.7-4.8-3.1
				c1.8-0.6,2-3.1,1.8-5.4c-0.2-2.3-0.9-4.4-0.9-4.4s0.9,2.1,2.2,4C162.1,243.2,163.9,244.9,165.6,244.2z"/>
			<path class="st4" d="M173.9,240.5c-1.7,0.8-1.6,3.3-1.2,5.6c0.4,2.3,1.2,4.4,1.2,4.4s-1.1-2-2.5-3.8c-1.5-1.8-3.3-3.4-5-2.7
				c1.7-0.7,1.8-3.2,1.3-5.5c-0.4-2.3-1.3-4.4-1.3-4.4s1,2,2.5,3.8C170.3,239.7,172.2,241.3,173.9,240.5z"/>
			<path class="st4" d="M181.9,236.2c-1.6,0.9-1.4,3.4-0.9,5.6c0.5,2.3,1.5,4.3,1.5,4.3s-1.2-1.9-2.8-3.6c-1.6-1.7-3.6-3.2-5.2-2.4
				c1.7-0.8,1.5-3.3,1-5.6c-0.6-2.3-1.5-4.3-1.5-4.3s1.2,1.9,2.7,3.6C178.2,235.7,180.2,237.1,181.9,236.2z"/>
			<path class="st4" d="M189.6,231.5c-1.5,1-1.2,3.5-0.5,5.7s1.8,4.2,1.8,4.2s-1.3-1.8-3-3.4c-1.7-1.6-3.7-3-5.3-2.1
				c1.6-0.9,1.3-3.4,0.6-5.6c-0.7-2.2-1.8-4.2-1.8-4.2s1.3,1.9,2.9,3.5S188,232.5,189.6,231.5z"/>
			<path class="st4" d="M197,226.2c-1.5,1.1-1,3.5-0.2,5.7s2,4.1,2,4.1s-1.4-1.8-3.2-3.2c-1.8-1.5-3.9-2.7-5.5-1.7
				c1.6-1,1.1-3.5,0.3-5.6c-0.8-2.2-2.1-4-2.1-4s1.4,1.8,3.1,3.3C193.3,226.2,195.5,227.4,197,226.2z"/>
			<path class="st4" d="M203.9,220.5c-1.4,1.2-0.7,3.6,0.3,5.7c1,2.1,2.3,3.9,2.3,3.9s-1.5-1.6-3.4-3c-1.9-1.3-4.1-2.4-5.6-1.3
				c1.5-1.1,0.9-3.6-0.1-5.6c-1-2.1-2.4-3.9-2.4-3.9s1.5,1.7,3.4,3C200.3,220.7,202.6,221.7,203.9,220.5z"/>
			<path class="st4" d="M210.3,214.1c-1.2,1.4-0.3,3.7,0.9,5.7s2.7,3.7,2.7,3.7s-1.7-1.5-3.7-2.6c-2-1.2-4.3-2-5.7-0.8
				c1.4-1.3,0.5-3.6-0.6-5.6c-1.2-2-2.7-3.6-2.7-3.6s1.7,1.5,3.6,2.7C206.7,214.6,209.1,215.5,210.3,214.1z"/>
			<path class="st4" d="M215.7,206.8c-0.9,1.6,0.3,3.7,1.8,5.5c1.4,1.8,3.2,3.3,3.2,3.3s-1.9-1.2-4.1-2.1c-2.2-0.9-4.6-1.4-5.8,0
				c1.2-1.4,0.1-3.7-1.4-5.4c-1.5-1.8-3.2-3.2-3.2-3.2s1.9,1.3,4,2.2S214.8,208.4,215.7,206.8z"/>
			<path class="st4" d="M217.6,198.3c0.4,0.8,1,1.5,1.8,2.2c0.4,0.4,0.9,0.7,1.3,1.1c0.5,0.3,1,0.7,1.5,1c1,0.6,2,1.2,2.8,1.6
				c0.8,0.4,1.3,0.6,1.3,0.6s-0.6-0.1-1.4-0.2c-0.9-0.1-2-0.1-3.2-0.1s-2.4,0.1-3.4,0.3s-1.8,0.6-2.3,1.4c0.4-0.8,0.3-1.7-0.3-2.5
				s-1.5-1.5-2.5-2s-2.1-0.9-2.9-1.2c-0.8-0.3-1.3-0.4-1.3-0.4s0.5,0.1,1.4,0.3c0.8,0.2,1.9,0.4,3.1,0.5c0.6,0,1.1,0.1,1.7,0
				c0.5-0.1,1.1-0.2,1.5-0.4C217.5,200,218,199.1,217.6,198.3z"/>
		</g>
	</g>
	<g>
		<path class="st1" d="M197.1,261.9c-30.3,17.5-66.6,29-74.2,15.8c-0.8-1.4-0.3-3.2,1-4c1.4-0.8,3.1-0.3,3.9,1.1
			c3.7,6.4,30.7,2.6,66.4-18s52.4-42.1,48.8-48.5c-0.8-1.4-0.3-3.2,1-4c1.4-0.8,3.1-0.3,3.9,1.1
			C255.5,218.7,227.4,244.4,197.1,261.9z"/>
	</g>
	<g>
		<path class="st1" d="M157.7,172.8c1.7,1.8,3.2,3.7,4.5,5.8c5,0.6,9.6,3.2,12.8,7.4c0.5,0.6,0.9,1.2,1.3,1.9
			c0.8,1.3,1.3,2.7,1.8,4.2c1,3.5,1,7.3,0,10.7c1.2-0.2,2.4-0.4,3.6-0.7c0.9-0.2,1.8-0.5,2.7-0.9c0.4-2.5,0.4-5,0-7.5
			c-0.3-2.3-1-4.5-2-6.7c-0.3-0.7-0.6-1.3-1-2C176.3,176.5,166.9,172,157.7,172.8z"/>
		<path class="st1" d="M150.9,174.4c-1.1,0.4-2.3,1-3.4,1.6c-1.1,0.6-2.1,1.4-3.1,2.1c-1.9,1.5-3.5,3.2-4.8,5.1
			c-5.3,7.6-6.2,18-1.2,26.5c0.4,0.7,0.8,1.3,1.2,1.9c0.7-2.4,1.6-4.6,2.8-6.8c-2.1-4.8-1.9-10.1,0-14.8c0.9-2.1,2.1-4,3.7-5.7
			c1.2-1.3,2.6-2.4,4.2-3.3c1.6-0.9,3.3-1.6,5-2C154,177.3,152.5,175.8,150.9,174.4z"/>
		<path class="st1" d="M195.7,193.5c-4-3.1-8.6-5.3-13.4-6.5c1,2.2,1.7,4.4,2,6.7c2.5,0.9,4.9,2.1,7,3.7c-2.2,1.6-4.5,2.8-7,3.8
			c-0.9,0.3-1.8,0.6-2.7,0.9c-1.2,0.3-2.4,0.6-3.6,0.7c-3.6,0.5-7.2,0.4-10.8-0.4c-0.3,1.9-0.7,3.8-1.3,5.6c3,0.7,6,0.9,9,0.8
			c2.4-0.1,4.9-0.4,7.2-1c3.3-0.8,6.5-2.1,9.4-3.8c1.4-0.8,2.7-1.7,4-2.7c1.5-1.2,2.9-2.5,4.2-3.9
			C198.6,196,197.2,194.7,195.7,193.5z"/>
		<path class="st1" d="M158.9,199.1c-0.9-0.5-1.8-1.1-2.6-1.7c-1.6-1.2-3.1-2.5-4.4-3.9c-2.5-2.7-4.4-5.8-5.7-9.2
			c-1.6,1.7-2.9,3.6-3.7,5.7c1.4,2.6,3.1,5.1,5.2,7.4c1.3,1.4,2.7,2.7,4.3,3.9c1.3,1,2.6,2,4.1,2.8s2.9,1.6,4.5,2.2
			c0.6-1.9,1-3.8,1.2-5.8C160.7,200,159.8,199.6,158.9,199.1z"/>
		<path class="st1" d="M175,208.8c-1.5,2-3.4,3.7-5.7,5s-4.7,2.1-7.2,2.4c-2.2,0.3-4.5,0.1-6.7-0.4c-3.5-0.8-6.7-2.7-9.3-5.3
			c-0.8,2-1.4,4.1-1.7,6.2c2,1.6,4.2,2.8,6.5,3.7c2.2,0.8,4.4,1.4,6.7,1.6c4.9,0.4,10-0.5,14.5-3.2c4.6-2.6,8-6.5,10-11
			C179.9,208.4,177.4,208.7,175,208.8z"/>
		<path class="st1" d="M150.9,220.4c-2.1,1.7-4.4,3.1-6.8,4.2c-0.3-2.7-0.1-5.3,0.3-7.9c0.4-2.1,0.9-4.2,1.7-6.2
			c1.3-3.3,3.2-6.5,5.7-9.2c-1.5-1.2-3-2.5-4.3-3.9c-2.1,2.2-3.8,4.8-5.2,7.4c-1.2,2.2-2.1,4.5-2.8,6.8c-1.4,4.8-1.8,9.8-1.1,14.9
			c0.3,1.9,0.7,3.8,1.3,5.6c1.9-0.4,3.7-1,5.5-1.7c1.5-0.6,3-1.3,4.4-2.1c3-1.7,5.6-3.8,8-6.3C155.4,221.8,153.1,221.2,150.9,220.4z
			"/>
		<path class="st1" d="M175,186c-3-0.1-6,0.1-9,0.8c-1.9,0.4-3.7,1-5.5,1.8c-1.5,0.6-3,1.3-4.5,2.1s-2.8,1.8-4.1,2.8
			c1.3,1.4,2.8,2.7,4.4,3.9c0.8-0.6,1.7-1.2,2.6-1.7c0.9-0.5,1.8-1,2.7-1.4c1.8-0.8,3.7-1.4,5.5-1.9c3.6-0.8,7.3-0.9,10.8-0.4
			c-0.4-1.4-1-2.8-1.8-4.2C175.9,187.2,175.4,186.6,175,186z"/>
		<path class="st1" d="M162.2,178.6c-1.3-2.1-2.8-4-4.5-5.8c-3.5-3.6-7.6-6.5-12.3-8.4c-1.8-0.7-3.6-1.3-5.5-1.7
			c-0.6,1.9-1,3.7-1.3,5.6c-0.7,5-0.3,10.1,1.1,14.9c1.3-1.9,2.9-3.6,4.8-5.1c-0.4-2.6-0.6-5.3-0.3-7.9c2.4,1.1,4.7,2.5,6.7,4.2
			c1.7,1.4,3.2,2.9,4.5,4.6c2.2,2.8,4,6,5.1,9.6c1.8-0.7,3.6-1.3,5.5-1.8C165,183.9,163.8,181.2,162.2,178.6z"/>
		<path class="st1" d="M161.6,194.3c0.1,1,0.2,2,0.2,3.1c0,1-0.1,2.1-0.2,3.1c-0.2,2-0.6,3.9-1.2,5.8c-1.1,3.4-2.7,6.7-5,9.5
			c2.2,0.5,4.4,0.7,6.7,0.4c1.6-2.6,2.9-5.3,3.8-8.2c0.6-1.8,1-3.7,1.3-5.6c0.2-1.6,0.3-3.3,0.3-4.9c0-1.7-0.2-3.3-0.4-4.9
			C165.3,192.9,163.4,193.5,161.6,194.3z"/>
	</g>
</g>
</svg>
