<?xml version="1.0" encoding="utf-8"?>
<!-- Generator: Adobe Illustrator 26.3.1, SVG Export Plug-In . SVG Version: 6.00 Build 0)  -->
<svg version="1.1" id="레이어_1" xmlns="http://www.w3.org/2000/svg" xmlns:xlink="http://www.w3.org/1999/xlink" x="0px"
	 y="0px" viewBox="0 0 300 300" style="enable-background:new 0 0 300 300;" xml:space="preserve">
<style type="text/css">
	.st0{fill:#E9BC00;}
	.st1{fill:#967905;stroke:#E9BC00;stroke-width:3;stroke-linecap:round;stroke-linejoin:round;stroke-miterlimit:10;}
	.st2{fill:url(#SVGID_1_);stroke:#E9BC00;stroke-width:3;stroke-miterlimit:10;}
	.st3{opacity:0.2;fill:#FFFFFF;}
	.st4{opacity:0.3;fill:#FFFFFF;}
	.st5{fill:#967905;stroke:#E9BC00;stroke-width:3;stroke-miterlimit:10;}
</style>
<g>
	<path class="st0" d="M167.5,283.6c-0.8,0-1.7-0.2-2.4-0.6L35.8,208.3c-1.1-0.6-1.9-1.7-2.2-2.9c-0.3-1.2-0.2-2.5,0.5-3.6l1.3-2.2
		c0.6-1.1,1.7-1.9,2.9-2.2c0.4-0.1,0.8-0.2,1.2-0.2c0.8,0,1.7,0.2,2.4,0.6l2.2,1.3c0.4,0.1,1.1,0.1,2,0.1c4.2,0,12.5-1.4,20.7-11
		c3.2-3.7,7.8-5.8,12.6-5.8c2.8,0,5.6,0.7,8,2.1l11,6.4l0.1-0.2c0.6-1.1,1.7-1.9,2.9-2.3c0.4-0.1,0.8-0.2,1.3-0.2
		c0.8,0,1.7,0.2,2.4,0.6l6.9,4l0.7-1.2c-0.9-1.5-1-3.4-0.1-5l0.6-1c-1.9,1-3.9,1.7-6.1,2c-0.3,0.1-0.7,0.1-1,0.1
		c-1.1,0-2.2-0.3-3.1-0.8c-1.6-0.9-2.7-2.5-3-4.3c-0.3-1.6,0.1-3.3,1.1-4.6c1-1.3,2.4-2.2,4-2.5c4.4-0.7,7.3-4.9,6.6-9.3
		c-0.4-2.1-1.5-4-3.3-5.2c-1.4-1-3-1.5-4.7-1.5c-0.4,0-0.9,0-1.3,0.1c-1.4,0.2-2.8,0.4-4.2,0.4c-4.4,0-8.6-1.1-12.5-3.4
		c-0.7-0.4-1.4-0.9-2.1-1.4c-5.5-3.9-9.1-9.7-10.2-16.4c-1.1-6.6,0.4-13.3,4.4-18.8c3.9-5.5,9.7-9.1,16.4-10.2
		c2.1-0.4,4-1.5,5.2-3.3c0.6-0.9,1.1-1.8,1.3-2.9c-1-0.6-1.7-1.6-2-2.8c-0.3-1.2-0.2-2.5,0.5-3.6l0.1-0.2c-0.5-0.7-1.1-1.3-1.8-1.7
		c-1.4-1-3-1.5-4.7-1.5c-0.4,0-0.9,0-1.3,0.1c-4.4,0.7-7.3,4.9-6.6,9.3c0.3,1.6-0.1,3.3-1.1,4.6c-1,1.3-2.4,2.2-4,2.5
		c-0.3,0.1-0.7,0.1-1,0.1c-1.3,0-2.5-0.4-3.6-1.2c-1.3-1-2.2-2.4-2.5-4c-0.9-5.4,0.4-10.8,3.5-15.2c3.2-4.4,7.9-7.4,13.3-8.3
		c1.1-0.2,2.2-0.3,3.4-0.3c4.3,0,8.4,1.3,11.9,3.8c0.7,0.5,1.4,1,2,1.6c1.3-10.8,4.7-21,10.1-30.5c10.7-18.5,28-31.8,48.7-37.4
		c6.8-1.8,13.9-2.8,20.9-2.8c13.9,0,27.7,3.7,40,10.8c38.3,22.1,51.4,71.2,29.3,109.5c-5.5,9.5-12.6,17.5-21.3,24
		c0.7,0.2,1.5,0.5,2.2,0.8c5,2.3,8.8,6.3,10.7,11.4c1.9,5.1,1.7,10.7-0.5,15.6c-2.3,5-6.3,8.8-11.4,10.7c-0.7,0.3-1.4,0.4-2.2,0.4h0
		c-2.6,0-4.9-1.6-5.8-4c-0.6-1.5-0.5-3.2,0.2-4.7c0.7-1.5,1.9-2.7,3.5-3.2c4.2-1.6,6.3-6.2,4.7-10.4c-0.8-2-2.2-3.6-4.2-4.5
		c-0.7-0.3-1.4-0.5-2.2-0.6l-0.2,0.3c-0.8,1.5-2.4,2.4-4.1,2.4c-0.8,0-1.6-0.2-2.3-0.6c-0.8,0.7-1.4,1.6-1.8,2.6
		c-0.9,2-1,4.1-0.2,6.2c2.4,6.3,2.1,13.1-0.6,19.3c-2.8,6.1-7.8,10.8-14.1,13.2c-2.9,1.1-5.8,1.6-8.9,1.6c-3.6,0-7.1-0.8-10.4-2.3
		c-0.8-0.3-1.5-0.7-2.2-1.1c-5.1-2.9-8.9-7.4-10.9-12.9c-0.8-2-2.2-3.6-4.2-4.5c-1.1-0.5-2.2-0.7-3.3-0.7c-1,0-1.9,0.2-2.8,0.5
		c-4.2,1.6-6.3,6.2-4.7,10.4c0.6,1.5,0.5,3.2-0.2,4.7c-0.7,1.5-1.9,2.7-3.5,3.2c-0.7,0.3-1.4,0.4-2.2,0.4c-1.1,0-2.2-0.3-3.1-0.8
		c-1.2-0.7-2.2-1.8-2.7-3.2c-0.7-1.9-1.1-3.9-1.3-5.9l-0.4,0.7c-0.6,1.1-1.7,1.9-2.9,2.3c-0.4,0.1-0.8,0.2-1.3,0.2
		c-0.1,0-0.1,0-0.2,0l-0.7,1.2l6.9,4c1.1,0.6,1.9,1.7,2.3,2.9c0.3,1.2,0.2,2.5-0.5,3.7l-0.1,0.2l11,6.4c6.8,3.9,9.8,12.2,7.1,19.7
		c-5.1,14.7,0.6,23.3,1.9,25.1l2.2,1.3c1.1,0.6,1.9,1.7,2.2,2.9c0.3,1.2,0.2,2.5-0.5,3.6l-1.3,2.2c-0.6,1.1-1.7,1.9-2.9,2.2
		C168.3,283.5,167.9,283.6,167.5,283.6z M167.9,183.2c2.3,0.2,4.5,0.8,6.7,1.8c5,2.3,8.8,6.3,10.7,11.4c1.2,3.2,3.6,5.7,6.7,7.1
		c1.7,0.8,3.5,1.2,5.3,1.2c1.5,0,3-0.3,4.4-0.8l0.1,0c2-0.8,3.6-2.3,4.5-4.2c0.9-2,1-4.1,0.2-6.2c-1.2-3.1-4.2-5.2-7.5-5.2
		c-1,0-1.9,0.2-2.8,0.5c-0.7,0.3-1.4,0.4-2.2,0.4c-0.9,0-1.7-0.2-2.6-0.6c-1.5-0.7-2.7-1.9-3.2-3.5c-0.6-1.5-0.5-3.2,0.2-4.7
		s1.9-2.7,3.5-3.2c0.8-0.3,1.6-0.6,2.5-0.8c-2.6,0.3-5.2,0.4-7.9,0.4c-2.2,0-4.3-0.1-6.5-0.3c-0.1,0.1-0.1,0.2-0.2,0.3l-1.2,2.1
		c-0.6,1.1-1.7,1.9-2.9,2.3c-0.4,0.1-0.8,0.2-1.3,0.2c-0.8,0-1.7-0.2-2.4-0.7l-0.1,0C170.9,180.9,169.5,181.4,167.9,183.2z
		 M198.8,175.9c3.2,0,6.3,0.8,9.2,2.2c0.2-1.5,0.5-3,1-4.5c-3.5,1-7,1.8-10.5,2.3C198.6,175.9,198.7,175.9,198.8,175.9z
		 M124.3,166.7l0.1-0.2c0,0-0.1,0-0.1-0.1C124.3,166.5,124.3,166.6,124.3,166.7z M103.9,147.1c4.3,0,8.4,1.3,11.9,3.8
		c2,1.4,3.7,3.1,5,5.1c0.7-2.3,0.5-3.8,0.3-4.6l-0.1,0c-2.3-1.3-3.1-4.3-1.8-6.6l1.2-2.1c0.1-0.1,0.1-0.2,0.2-0.3
		c-5.6-8.2-9.8-17.4-12.1-27.1c-1,1.2-2.2,2.3-3.5,3.3c4.7,3.1,7.9,8,8.9,13.7c0.3,1.6-0.1,3.3-1.1,4.6c-1,1.3-2.4,2.2-4,2.5
		c-0.3,0.1-0.7,0.1-1,0.1c-3,0-5.6-2.2-6.1-5.2c-0.6-3.9-4-6.7-7.9-6.7c-0.4,0-0.9,0-1.3,0.1c-2.1,0.4-4,1.5-5.2,3.3
		c-1.3,1.7-1.7,3.9-1.4,6c0.6,3.4,2.4,6.3,5.2,8.3c2.2,1.6,4.8,2.4,7.4,2.4c0.7,0,1.4-0.1,2.1-0.2
		C101.6,147.2,102.8,147.1,103.9,147.1z"/>
	<path class="st0" d="M186.6,18.4c13.5,0,26.9,3.6,39,10.5c37.3,21.6,50.2,69.4,28.6,106.8c-6.3,10.8-14.7,19.6-24.5,26.1
		c2.2,0.2,4.3,0.7,6.3,1.6c4.5,2,7.9,5.7,9.6,10.3c1.7,4.6,1.6,9.6-0.5,14.1c-2,4.5-5.7,7.9-10.3,9.6c-0.5,0.2-1,0.3-1.5,0.3
		c-1.7,0-3.3-1-3.9-2.7c-0.4-1-0.4-2.2,0.1-3.2c0.5-1,1.3-1.8,2.3-2.2c5.2-1.9,7.8-7.7,5.9-12.9c-0.9-2.5-2.8-4.5-5.2-5.6
		c-1.3-0.6-2.7-0.9-4.1-0.9l-0.8,1.4c-0.5,0.9-1.4,1.4-2.4,1.4c-0.5,0-0.9-0.1-1.4-0.4l0,0l-1.1-0.7c-1.5,1-2.7,2.4-3.5,4.1
		c-1.1,2.4-1.2,5.2-0.3,7.7c2.2,5.8,2,12.1-0.6,17.7c-2.6,5.6-7.2,9.9-13,12.1c-2.7,1-5.4,1.5-8.2,1.5c-3.3,0-6.5-0.7-9.6-2.1
		c-0.7-0.3-1.4-0.7-2-1c-4.7-2.7-8.2-6.8-10.1-11.9c-0.9-2.5-2.8-4.5-5.3-5.6c-1.3-0.6-2.7-0.9-4.1-0.9c-1.2,0-2.4,0.2-3.5,0.6
		c-5.2,1.9-7.8,7.7-5.9,12.9c0.4,1,0.4,2.2-0.1,3.2c-0.5,1-1.3,1.8-2.3,2.2c-0.5,0.2-1,0.3-1.5,0.3c-0.7,0-1.4-0.2-2.1-0.6
		c-0.8-0.5-1.5-1.2-1.8-2.2c-1.4-3.8-1.5-7.8-0.4-11.7c-1.1,0.5-2.2,1.1-3.6,1.5c0.1,0.1,0.1,0.3,0.2,0.4c0.2,0.7,0.1,1.5-0.3,2.2
		l-1.2,2.1c-0.4,0.7-1,1.1-1.7,1.3c-0.2,0.1-0.5,0.1-0.7,0.1c-0.4,0-0.8-0.1-1.2-0.3l-2.4,4.2l8.6,5c0.7,0.4,1.1,1,1.3,1.7
		c0.2,0.7,0.1,1.5-0.3,2.2l-1.1,2l9.2,5.3c0,0,0,0,0,0l3.6,2.1c5.9,3.4,8.6,10.7,6.3,17.3c-5.8,16.5,1.4,25.9,2.5,27.3l2.5,1.5
		c0.6,0.4,1.1,1,1.3,1.7c0.2,0.7,0.1,1.5-0.3,2.1l-1.3,2.2c-0.4,0.6-1,1.1-1.7,1.3c-0.2,0.1-0.5,0.1-0.7,0.1c-0.5,0-1-0.1-1.4-0.4
		L36.8,206.5c-0.6-0.4-1.1-1-1.3-1.7c-0.2-0.7-0.1-1.5,0.3-2.1l1.3-2.2c0.4-0.6,1-1.1,1.7-1.3c0.2-0.1,0.5-0.1,0.7-0.1
		c0.5,0,1,0.1,1.4,0.4l2.5,1.5c0.4,0.1,1.3,0.2,2.7,0.2c4.5,0,13.4-1.5,22.2-11.7c2.9-3.3,7-5.1,11.1-5.1c2.4,0,4.8,0.6,7,1.9
		l8.5,4.9c0,0,0,0,0,0l4.3,2.5l1.1-2c0.4-0.7,1-1.1,1.7-1.3c0.2-0.1,0.5-0.1,0.7-0.1c0.5,0,1,0.1,1.4,0.4l8.6,5l2.4-4.2
		c-1.2-0.8-1.5-2.4-0.8-3.7l1.2-2.1c0.5-0.8,1.3-1.3,2.2-1.4c-0.3-1.5-0.4-2.9-0.4-4.2c-2.8,3-6.4,5-10.5,5.7
		c-0.2,0-0.5,0.1-0.7,0.1c-0.7,0-1.5-0.2-2.1-0.6c-1.1-0.6-1.8-1.7-2-2.9c-0.2-1.1,0.1-2.2,0.7-3.1c0.7-0.9,1.6-1.5,2.7-1.7
		c5.5-0.9,9.2-6.1,8.3-11.6c-0.4-2.6-1.9-5-4.1-6.5c-1.7-1.2-3.8-1.9-5.8-1.9c-0.6,0-1.1,0-1.7,0.1c-1.3,0.2-2.6,0.3-3.9,0.3
		c-4,0-7.9-1-11.5-3.1c-0.7-0.4-1.3-0.8-1.9-1.2c-5-3.6-8.4-8.9-9.4-15.1c-1-6.1,0.4-12.2,4-17.3c3.6-5,8.9-8.4,15.1-9.4
		c2.6-0.4,5-1.9,6.5-4.1c1.1-1.5,1.7-3.3,1.8-5.1l-1-0.6c-0.6-0.4-1.1-1-1.3-1.7c-0.2-0.7-0.1-1.5,0.3-2.1l0.7-1.3
		c-0.7-1.3-1.7-2.4-2.9-3.3C97.1,92.6,95.1,92,93,92c-0.6,0-1.1,0-1.7,0.1c-5.5,0.9-9.2,6.1-8.3,11.6c0.2,1.1-0.1,2.2-0.7,3.1
		c-0.7,0.9-1.6,1.5-2.7,1.7c-0.2,0-0.5,0.1-0.7,0.1c-0.9,0-1.7-0.3-2.4-0.8c-0.9-0.7-1.5-1.6-1.7-2.7c-0.8-4.8,0.3-9.7,3.2-13.7
		c2.9-4,7.1-6.7,12-7.5c1-0.2,2-0.3,3-0.3c3.8,0,7.5,1.2,10.7,3.4c1.9,1.4,3.5,3.1,4.7,5c0.7-11.8,4-23.6,10.3-34.4
		c10.4-18.1,27.3-31,47.5-36.4C172.9,19.3,179.8,18.4,186.6,18.4 M107.8,137.4c-2,0-3.8-1.5-4.1-3.5c-0.8-4.9-5.1-8.4-9.9-8.4
		c-0.5,0-1.1,0-1.6,0.1c-2.6,0.4-5,1.9-6.5,4.1c-1.6,2.2-2.2,4.8-1.7,7.5c0,0,0,0,0,0c0.7,3.9,2.8,7.3,6,9.6
		c2.5,1.8,5.5,2.8,8.6,2.8c0.8,0,1.6-0.1,2.5-0.2c1-0.2,2-0.3,3-0.3c3.8,0,7.5,1.2,10.7,3.4c4,2.9,6.7,7.1,7.5,12
		c0.3,1.8,0.3,3.6,0.1,5.4c1.2-0.5,2.4-0.8,3.5-0.8c0-0.5,0.1-0.9,0.4-1.4l1.1-2l-1.6-0.9c-2.7-1.6-4-4.9-2.9-7.8
		c1.3-3.8,0.5-6.2,0.1-6.9l-0.7-0.4c-1.4-0.8-1.8-2.5-1-3.9l1.2-2.1c0.3-0.5,0.7-0.8,1.1-1.1c-7-9.7-11.7-20.8-13.8-32.4
		c-0.4,0.9-0.9,1.8-1.5,2.6c-1.8,2.6-4.2,4.6-7,5.9c5.7,2.4,9.9,7.6,10.9,13.9c0.2,1.1-0.1,2.2-0.7,3.1c-0.7,0.9-1.6,1.5-2.7,1.7
		C108.2,137.4,108,137.4,107.8,137.4 M212.9,170.2c-8.5,3-17.5,4.6-26.5,4.6c-2.7,0-5.4-0.1-8.1-0.4c0,0.5-0.1,1-0.4,1.5l-1.2,2.1
		c-0.4,0.7-1,1.1-1.7,1.3c-0.2,0.1-0.5,0.1-0.7,0.1c-0.5,0-1-0.1-1.4-0.4l-0.7-0.4c-0.8,0.1-3.3,0.5-5.9,3.6c-1.3,1.5-3.1,2.2-5,2.2
		c-1.1,0-2.3-0.3-3.3-0.9l-1.6-0.9l-1.1,2c-0.2,0.4-0.6,0.8-1,1c0.5,0.9,0.9,2,1,3.2c1.4-1,2.9-1.9,4.5-2.5c2.1-0.8,4.3-1.2,6.5-1.2
		c2.6,0,5.2,0.6,7.6,1.7c4.5,2,7.9,5.7,9.6,10.3c1.4,3.7,4.1,6.6,7.7,8.3c2,0.9,4,1.3,6.1,1.3c1.7,0,3.5-0.3,5.2-0.9c0,0,0,0,0,0
		c2.5-0.9,4.5-2.8,5.6-5.2c1.1-2.4,1.2-5.2,0.3-7.7c-1.5-4-5.4-6.5-9.4-6.5c-1.2,0-2.4,0.2-3.5,0.6c-0.5,0.2-1,0.3-1.5,0.3
		c-0.6,0-1.2-0.1-1.7-0.4c-1-0.5-1.8-1.3-2.2-2.3c-0.4-1-0.4-2.2,0.1-3.2c0.5-1,1.3-1.8,2.3-2.2c2.1-0.8,4.3-1.2,6.4-1.2
		c4,0,7.9,1.3,11.1,3.7c-0.2-3.1,0.3-6.1,1.6-9C211.9,171.7,212.4,170.9,212.9,170.2 M186.6,14.4c-7.2,0-14.4,1-21.4,2.8
		C144,23,126.3,36.6,115.3,55.6c-5,8.7-8.3,18-9.9,27.8c-3.7-2.4-7.9-3.7-12.4-3.7c-1.2,0-2.5,0.1-3.7,0.3c-5.9,1-11.1,4.2-14.6,9.1
		c-3.5,4.9-4.9,10.8-3.9,16.7c0.4,2.2,1.5,4,3.3,5.3c1.4,1,3,1.5,4.8,1.5c0.5,0,0.9,0,1.4-0.1c2.2-0.4,4-1.5,5.3-3.3
		c1.3-1.8,1.8-4,1.4-6.1c-0.5-3.3,1.7-6.4,5-7c0.3-0.1,0.7-0.1,1-0.1c1.3,0,2.5,0.4,3.5,1.1c0.2,0.1,0.4,0.3,0.6,0.5
		c-0.5,1.3-0.5,2.7-0.2,4c0.3,1.1,0.9,2.1,1.6,2.9c-0.2,0.4-0.4,0.7-0.6,1.1c-0.9,1.3-2.3,2.2-3.9,2.4c-7.2,1.2-13.4,5.1-17.7,11
		c-4.2,5.9-5.9,13.1-4.7,20.3c1.2,7.2,5.1,13.4,11,17.7c0.7,0.5,1.5,1,2.3,1.5c4.1,2.4,8.8,3.6,13.5,3.6c1.5,0,3-0.1,4.5-0.4
		c0.3-0.1,0.7-0.1,1-0.1c1.3,0,2.5,0.4,3.5,1.1c1.3,0.9,2.2,2.3,2.4,3.9c0.5,3.3-1.7,6.4-5,7c-2.2,0.4-4.1,1.5-5.3,3.3
		c-1.3,1.8-1.8,3.9-1.4,6.1c0.2,1.5,0.9,2.8,1.8,4c-0.8,0.3-1.4,0.8-2,1.4l-1-0.6l-8.5-4.9c-2.7-1.6-5.9-2.4-9-2.4
		c-5.4,0-10.5,2.4-14.1,6.5c-7.7,9-15.3,10.3-19.2,10.3c-0.6,0-1,0-1.3-0.1l-1.9-1.1c-1-0.6-2.2-0.9-3.4-0.9c-0.6,0-1.2,0.1-1.8,0.2
		c-1.7,0.5-3.2,1.6-4.1,3.2l-1.3,2.2c-0.9,1.6-1.1,3.4-0.7,5.2c0.5,1.7,1.6,3.2,3.2,4.1l129.3,74.6c1,0.6,2.2,0.9,3.4,0.9
		c0.6,0,1.2-0.1,1.8-0.2c1.7-0.5,3.2-1.6,4.1-3.2l1.3-2.2c0.9-1.6,1.1-3.4,0.7-5.2c-0.5-1.7-1.6-3.2-3.2-4.1l-1.9-1.1
		c-1.5-2.1-6-9.8-1.4-22.9c2.9-8.4-0.4-17.7-8-22.1l-3.6-2.1l-5.9-3.4c0.2-0.8,0.3-1.7,0.2-2.5c0.4,0.1,0.8,0.1,1.3,0.1
		c1,0,2-0.2,2.9-0.5c2.1-0.8,3.7-2.3,4.6-4.3c0.9-2,1-4.2,0.2-6.3c-1.2-3.1,0.4-6.6,3.5-7.8c0.7-0.3,1.4-0.4,2.1-0.4
		c0.9,0,1.7,0.2,2.5,0.5c1.5,0.7,2.6,1.9,3.2,3.4c2.2,6,6.3,10.8,11.8,14c0.8,0.4,1.6,0.9,2.4,1.2c3.6,1.6,7.3,2.4,11.2,2.4
		c3.3,0,6.5-0.6,9.6-1.7c6.8-2.6,12.2-7.6,15.2-14.2c3-6.6,3.2-14,0.7-20.8c-0.6-1.5-0.5-3.2,0.2-4.6c0.2-0.4,0.4-0.7,0.6-1
		c0.6,0.2,1.2,0.2,1.8,0.2c2,0,3.9-0.9,5.2-2.4c0.2,0.1,0.3,0.1,0.5,0.2c1.5,0.7,2.6,1.9,3.2,3.4c1.2,3.1-0.4,6.6-3.5,7.8
		c-2,0.8-3.7,2.3-4.6,4.3c-0.9,2-1,4.2-0.2,6.3c1.2,3.2,4.3,5.3,7.7,5.3c1,0,2-0.2,2.9-0.5c5.6-2.1,10.1-6.3,12.5-11.7
		c2.5-5.5,2.7-11.6,0.6-17.2c-2-5.3-5.8-9.5-10.8-12.1c7.7-6.2,14.1-13.8,19.1-22.5c22.7-39.2,9.2-89.6-30.1-112.2
		C215,18.3,200.8,14.4,186.6,14.4L186.6,14.4z M87.8,136.5c-0.2-1.6,0.1-3.2,1.1-4.4c0.9-1.3,2.3-2.2,3.9-2.4c0.3-0.1,0.7-0.1,1-0.1
		c2.9,0,5.5,2.2,6,5.1c0.7,4,4.1,6.9,8.1,6.9c0.4,0,0.9,0,1.3-0.1c2.2-0.4,4.1-1.5,5.3-3.3c0.2-0.3,0.4-0.6,0.6-0.9
		c1,1.8,2.1,3.6,3.3,5.3l-0.8,1.4c-1,1.7-1.2,3.7-0.6,5.5c-3.8-2.7-8.3-4.2-13-4.2c-1.2,0-2.5,0.1-3.7,0.3c-0.6,0.1-1.2,0.1-1.8,0.1
		c-2.2,0-4.4-0.7-6.3-2c-2.3-1.7-3.9-4.1-4.3-6.9L87.8,136.5L87.8,136.5L87.8,136.5z M175.6,183.2c0.1,0,0.2,0,0.3-0.1
		c1.8-0.5,3.2-1.6,4.2-3.2l0.8-1.4c1.8,0.1,3.6,0.2,5.4,0.2c0.2,0,0.3,0,0.5,0c-0.1,0.3-0.3,0.5-0.4,0.8c-0.9,2-1,4.2-0.2,6.3
		c0.8,2.1,2.3,3.7,4.3,4.6c1.1,0.5,2.2,0.7,3.4,0.7c1,0,2-0.2,2.9-0.5c0.7-0.3,1.4-0.4,2.1-0.4c2.5,0,4.8,1.6,5.7,3.9
		c0.6,1.5,0.5,3.1-0.2,4.6c-0.7,1.5-1.9,2.6-3.4,3.2l0,0l0,0l-0.1,0c-1.2,0.4-2.4,0.7-3.7,0.7c-1.5,0-3-0.3-4.5-1
		c-2.6-1.2-4.6-3.3-5.6-6C185,190.1,181,185.7,175.6,183.2L175.6,183.2z M109.7,189.2c0.1,0,0.2-0.1,0.3-0.1c0,0.1,0,0.2,0,0.3
		L109.7,189.2L109.7,189.2z M144.3,209.2c0,0,0.1,0,0.1-0.1c0,0.1,0,0.1,0,0.2L144.3,209.2L144.3,209.2z"/>
</g>
<g>
	<path class="st1" d="M244.1,174.2c-1.6-4.2-4.7-7.6-8.8-9.5c-4.1-1.9-8.7-2-12.9-0.4c-4.2,1.6-7.6,4.7-9.5,8.9
		c-1.9,4.1-2,8.7-0.4,12.9c0,0.1,0,0.1,0.1,0.2c-4.4-6-12.3-8.6-19.6-5.8c-1.4,0.5-2.1,2.1-1.6,3.5c0.5,1.4,2.1,2.1,3.5,1.6
		c6-2.2,12.6,0.8,14.9,6.7c1.1,2.9,1,6-0.3,8.8c-1.3,2.8-3.6,5-6.5,6c0,0,0,0,0,0c-4.1,1.5-8.5,1.4-12.5-0.4c-4-1.8-7-5-8.5-9.1
		c-3.3-8.7-13.1-13.2-21.8-9.9c-8.7,3.3-13.2,13.1-9.9,21.8c0.2,0.6,0.7,1.1,1.2,1.4c0.7,0.4,1.5,0.5,2.3,0.2
		c1.4-0.5,2.1-2.1,1.6-3.5c-2.2-6,0.8-12.6,6.7-14.9c2.9-1.1,6-1,8.8,0.3c2.8,1.3,5,3.6,6,6.5c1.8,4.7,5.1,8.6,9.4,11.1
		c0.6,0.4,1.3,0.7,1.9,1c5.3,2.4,11.2,2.6,16.6,0.6c5.4-2,9.7-6.1,12.1-11.3c2.4-5.3,2.6-11.2,0.6-16.6c-1.1-2.9-1-6,0.3-8.8
		c1.3-2.8,3.6-5,6.5-6c2.9-1.1,6-1,8.8,0.3c2.8,1.3,4.9,3.6,6,6.5c2.2,6-0.8,12.6-6.7,14.9c-1.4,0.5-2.1,2.1-1.6,3.5
		c0.5,1.4,2.1,2.1,3.5,1.6C243,192.7,247.4,182.9,244.1,174.2z"/>
	<path class="st1" d="M90.2,85.3c4.5-0.7,8.9,0.3,12.6,2.9c3.7,2.6,6.1,6.5,6.9,11c0.7,4.5-0.3,8.9-2.9,12.6
		c-2.6,3.7-6.5,6.1-11,6.8c-0.1,0-0.1,0-0.2,0c7.3,0.8,13.6,6.4,14.8,14c0.2,1.5-0.7,2.9-2.2,3.1c-1.5,0.2-2.9-0.7-3.1-2.2
		c-1-6.3-7-10.5-13.3-9.5c-3,0.5-5.7,2.2-7.5,4.7c-1.8,2.5-2.5,5.6-2,8.6c0,0,0,0,0,0c0.7,4.3,3.1,8,6.6,10.6
		c3.5,2.5,7.9,3.5,12.1,2.8c9.2-1.5,17.9,4.7,19.5,13.9c1.5,9.2-4.7,17.9-13.9,19.5c-0.6,0.1-1.3,0-1.8-0.3
		c-0.7-0.4-1.2-1.1-1.3-1.9c-0.2-1.5,0.7-2.9,2.2-3.1c6.3-1,10.5-7,9.5-13.3c-0.5-3-2.2-5.7-4.7-7.5c-2.5-1.8-5.6-2.5-8.6-2
		c-5,0.8-10-0.1-14.3-2.6c-0.6-0.4-1.2-0.7-1.8-1.2C81.1,149,78,144,77,138.3c-0.9-5.7,0.4-11.4,3.8-16.2c3.4-4.7,8.4-7.8,14.1-8.8
		c3-0.5,5.7-2.2,7.5-4.7c1.8-2.5,2.5-5.6,2-8.6c-0.5-3-2.2-5.7-4.7-7.5c-2.5-1.8-5.6-2.5-8.6-2c-6.3,1-10.5,7-9.5,13.3
		c0.2,1.5-0.7,2.9-2.2,3.1c-1.5,0.2-2.9-0.7-3.1-2.2C74.7,95.6,81,86.8,90.2,85.3z"/>
	
		<linearGradient id="SVGID_1_" gradientUnits="userSpaceOnUse" x1="155.1536" y1="158.8511" x2="155.1536" y2="5.5207" gradientTransform="matrix(0.866 0.5 -0.5 0.866 93.1502 -52.1189)">
		<stop  offset="0" style="stop-color:#323298"/>
		<stop  offset="0.13" style="stop-color:#53329A"/>
		<stop  offset="0.3227" style="stop-color:#7C319D"/>
		<stop  offset="0.5108" style="stop-color:#9D319F"/>
		<stop  offset="0.6902" style="stop-color:#B530A1"/>
		<stop  offset="0.8573" style="stop-color:#C330A2"/>
		<stop  offset="1" style="stop-color:#C830A2"/>
	</linearGradient>
	<circle class="st2" cx="186.4" cy="96.6" r="76.7"/>
	<circle class="st3" cx="190.9" cy="88.9" r="60"/>
	<circle class="st4" cx="183.5" cy="54.7" r="20"/>
	<path class="st5" d="M224.5,171.2l-121.8-70.3c-0.6-0.3-0.8-1.1-0.5-1.7l1.3-2.3c0.3-0.6,1.1-0.8,1.7-0.5l121.8,70.3
		c0.6,0.3,0.8,1.1,0.5,1.7l-1.3,2.3C225.9,171.4,225.1,171.6,224.5,171.2z"/>
	<path class="st5" d="M173.5,177.7l-50.8-29.3c-0.6-0.4-0.9-1.2-0.5-1.8l1.2-2.1c0.4-0.6,1.2-0.9,1.8-0.5l50.8,29.3
		c0.6,0.4,0.9,1.2,0.5,1.8l-1.2,2.1C174.9,177.8,174.1,178.1,173.5,177.7z"/>
	<path class="st5" d="M152,184.3l-24.2-14c-0.6-0.4-0.9-1.2-0.5-1.8l1.2-2.1c0.4-0.6,1.2-0.9,1.8-0.5l24.2,14
		c0.6,0.4,0.9,1.2,0.5,1.8l-1.2,2.1C153.4,184.5,152.6,184.7,152,184.3z"/>
	<path class="st1" d="M123.7,149c0,0,2.1,3,0.2,8.5c-0.8,2.3,0.2,4.8,2.3,6.1l16.2,9.3l16.2,9.3c2.1,1.2,4.8,0.8,6.4-1.1
		c3.8-4.4,7.5-4.1,7.5-4.1L123.7,149z"/>
	<g>
		<path class="st1" d="M128.8,170.9c0,0-13.7-4-9,15.6c0,0,11.1,6.4,11.1,6.4l11.1,6.4c19.3-5.7,9-15.6,9-15.6L128.8,170.9z"/>
		<path class="st1" d="M132.1,172.8c0,0-10.1-1.9-9,15.6c0,0,7.7,4.5,7.7,4.5l7.7,4.5c15.7-7.8,9-15.6,9-15.6L132.1,172.8z"/>
	</g>
	<g>
		<path class="st5" d="M140.4,204.3l-24.2-14c-0.6-0.4-0.9-1.2-0.5-1.8l1.2-2.1c0.4-0.6,1.2-0.9,1.8-0.5l24.2,14
			c0.6,0.4,0.9,1.2,0.5,1.8l-1.2,2.1C141.9,204.4,141.1,204.7,140.4,204.3z"/>
		<path class="st5" d="M142.8,220.6l-41.9-24.2c-0.6-0.4-0.9-1.2-0.5-1.8l1.2-2.1c0.4-0.6,1.2-0.9,1.8-0.5l41.9,24.2
			c0.6,0.4,0.9,1.2,0.5,1.8l-1.2,2.1C144.3,220.7,143.5,221,142.8,220.6z"/>
		<rect x="113.6" y="196.8" transform="matrix(0.866 0.5 -0.5 0.866 117.266 -36.2923)" class="st5" width="25.6" height="7.7"/>
	</g>
	<path class="st5" d="M166.8,279.9L37.5,205.2c-0.6-0.4-0.8-1.1-0.5-1.8l1.3-2.2c0.4-0.6,1.1-0.8,1.8-0.5l129.3,74.6
		c0.6,0.4,0.8,1.1,0.5,1.8l-1.3,2.2C168.2,280,167.4,280.2,166.8,279.9z"/>
	<path class="st1" d="M121.9,208.5l-36.3-21c-5.4-3.1-12.2-1.8-16.2,2.9c-12.9,15-26.5,11.9-26.5,11.9l62,35.8l-0.2-0.1l62,35.8
		c0,0-9.5-10.3-3-28.9c2-5.9-0.2-12.4-5.6-15.5l-36.3-21L121.9,208.5z"/>
	<path class="st1" d="M121.9,208.5l-32.7-18.9c-4.9-2.8-11.2-1.2-15.1,3.5C61.5,208.4,49.1,206,49.1,206l55.8,32.2l-0.2-0.1
		l55.8,32.2c0,0-8.3-9.6-1.5-28.1c2.1-5.8,0.4-12.1-4.5-14.9l-32.7-18.9L121.9,208.5z"/>
	<path class="st1" d="M121.9,208.5l-27.8-16c-4.1-2.4-9.8-0.5-13.7,4.4c-12.2,15.4-23.1,13.9-23.1,13.9l47.4,27.4l-0.2-0.1
		l47.4,27.4c0,0-6.7-8.7,0.5-26.9c2.3-5.7,1.1-11.6-3-14l-27.8-16L121.9,208.5z"/>
	<path class="st1" d="M121.9,208.5l-22.2-12.8c-3.3-1.9-8.3,0.4-12,5.4c-11.7,15.7-20.8,15.2-20.8,15.2l37.9,21.9l-0.1-0.1
		l37.9,21.9c0,0-5-7.7,2.8-25.6c2.4-5.7,1.9-11.2-1.4-13.1l-22.2-12.8L121.9,208.5z"/>
	<path class="st1" d="M121.9,208.5l-16.7-9.6c-2.5-1.4-6.8,1.3-10.3,6.3c-11.2,16-18.6,16.5-18.6,16.5l28.4,16.4l-0.1-0.1l28.4,16.4
		c0,0-3.2-6.7,5-24.3c2.6-5.6,2.8-10.7,0.3-12.1L121.9,208.5L121.9,208.5z"/>
	<path class="st1" d="M121.9,208.5l-10.5-6.1c-1.6-0.9-5.1,2.3-8.5,7.4c-10.6,16.3-16.1,18-16.1,18l17.9,10.3l-0.1,0l17.9,10.3
		c0,0-1.2-5.5,7.5-22.9c2.8-5.5,3.7-10.1,2.2-11L121.9,208.5L121.9,208.5z"/>
	<path class="st1" d="M121.9,208.5l-4-2.3c-0.6-0.3-3.3,3.3-6.5,8.5c-10.1,16.6-13.4,19.5-13.4,19.5l6.8,3.9l0,0l6.8,3.9
		c0,0,0.8-4.4,10.2-21.4c2.9-5.4,4.7-9.6,4.1-9.9L121.9,208.5L121.9,208.5z"/>
	<path class="st5" d="M129.7,198.1l-2.7-1.6c-0.8-0.5-1.1-1.5-0.6-2.3l30.9-53.5c0.5-0.8,1.5-1.1,2.3-0.6l2.7,1.6
		c0.8,0.5,1.1,1.5,0.6,2.3L132,197.4C131.5,198.3,130.5,198.5,129.7,198.1z"/>
	<path class="st5" d="M156.2,152l-2.7-1.6c-0.8-0.5-1.1-1.5-0.6-2.3l12.6-21.8c0.5-0.8,1.5-1.1,2.3-0.6l2.7,1.6
		c0.8,0.5,1.1,1.5,0.6,2.3l-12.6,21.8C158.1,152.2,157,152.5,156.2,152z"/>
</g>
</svg>
