<?xml version="1.0" encoding="utf-8"?>
<!-- Generator: Adobe Illustrator 26.3.1, SVG Export Plug-In . SVG Version: 6.00 Build 0)  -->
<svg version="1.1" id="레이어_1" xmlns="http://www.w3.org/2000/svg" xmlns:xlink="http://www.w3.org/1999/xlink" x="0px"
	 y="0px" viewBox="0 0 300 300" style="enable-background:new 0 0 300 300;" xml:space="preserve">
<style type="text/css">
	.st0{fill:#E9BC00;}
	.st1{fill:#C9B8ED;stroke:#9370DB;stroke-width:3;stroke-linecap:round;stroke-linejoin:round;stroke-miterlimit:10;}
	.st2{fill:#FFB4DA;stroke:#FF69B4;stroke-width:3;stroke-linecap:round;stroke-linejoin:round;stroke-miterlimit:10;}
	.st3{fill:#ACDEDA;stroke:#58BCB4;stroke-width:3;stroke-linecap:round;stroke-linejoin:round;stroke-miterlimit:10;}
</style>
<g>
	<polygon class="st0" points="140,225.1 140.5,208 165.1,165.5 185.4,148.2 223.9,140.9 230.8,179.9 228.1,200.5 208.9,236.8 
		197.9,248.4 147.8,262 	"/>
	<path class="st0" d="M220.7,145.6l6.1,34.4l-2.5,19.3l-18.6,35.1l-9.9,10.4L150.8,257l-6.8-32.3l0.4-15.6l23.8-41l18.9-16.2
		L220.7,145.6 M227.1,136.2l-7.9,1.5l-33.5,6.3l-2.1,0.4l-1.6,1.4L163,162l-1,0.9l-0.7,1.2l-23.8,41l-1,1.8l-0.1,2l-0.4,15.6l0,0.9
		l0.2,0.9l6.8,32.3l1.7,8.3l8.2-2.2l44.9-12.2l2.2-0.6l1.5-1.6l9.9-10.4l0.8-0.8l0.5-1l18.6-35.1l0.7-1.3l0.2-1.4l2.5-19.3l0.2-1.2
		l-0.2-1.2l-6.1-34.4L227.1,136.2L227.1,136.2z"/>
</g>
<g>
	<polygon class="st0" points="187.5,125.3 178,108 183,75.5 203.1,66.8 226.8,79.4 235.3,94.4 223.4,121.2 205.5,134.1 	"/>
	<path class="st0" d="M202.9,71.2l21,11.2l6.9,12.2l-10.6,24l-15.1,10.9l-14.7-7.2l-8.2-15l4.4-29L202.9,71.2 M203.3,62.3l-3.5,1.5
		L183.4,71l-4.1,1.8l-0.7,4.4l-4.4,29l-0.4,2.7l1.3,2.4l8.2,15l1.2,2.2l2.3,1.1l14.7,7.2l4.3,2.1l3.9-2.8l15.1-10.9l1.8-1.3l0.9-2
		l10.6-24l1.6-3.7l-2-3.5l-6.9-12.2l-1.1-2l-2.1-1.1l-21-11.2L203.3,62.3L203.3,62.3z"/>
</g>
<g>
	<polygon class="st0" points="100.1,199 88.4,184 63.1,119.7 67.9,75 95.8,37.2 136.3,71 149.3,119.7 138.4,189.6 126.8,207.2 	"/>
	<path class="st0" d="M96.5,43l36.3,30.3l12.4,46.6l-10.6,68.2l-9.5,14.4l-22.6-7L91.9,182l-24.7-62.8l4.6-42.7L96.5,43 M95.1,31.4
		l-5,6.8L65.4,71.8l-1.3,1.7l-0.2,2.2l-4.6,42.7l-0.2,2l0.7,1.8l24.7,62.8l0.4,1.1l0.7,0.9l10.6,13.5l1.5,2l2.4,0.7l22.6,7l5.7,1.8
		l3.3-5l9.5-14.4l1-1.5l0.3-1.7l10.6-68.2l0.3-1.7l-0.4-1.6l-12.4-46.6l-0.7-2.5l-2-1.6l-36.3-30.3L95.1,31.4L95.1,31.4z"/>
</g>
<g>
	<polygon class="st1" points="205.6,168.3 189.6,170.7 169.3,190.5 157.6,209.8 157.1,244.2 168.6,240.4 189.4,222.1 203.9,198.6 	
		"/>
	<polygon class="st1" points="220.6,145.6 205.6,168.3 189.6,170.7 177.4,170.2 187.1,151.9 	"/>
	<polygon class="st1" points="226.8,180 203.9,198.6 205.6,168.3 220.6,145.6 	"/>
	<polygon class="st1" points="168.6,240.4 188.4,236.4 189.4,222.1 	"/>
	<polygon class="st1" points="157.6,209.8 144.1,224.7 150.8,257 157.1,244.2 	"/>
	<polygon class="st1" points="188.4,236.4 195.8,244.8 150.8,257 157.1,244.2 168.6,240.4 	"/>
	<polygon class="st1" points="226.8,180 224.2,199.3 205.6,234.4 195.8,244.8 188.4,236.4 189.4,222.1 203.9,198.6 	"/>
	<polygon class="st1" points="187.1,151.9 177.4,170.2 169.3,190.5 157.6,209.8 144.1,224.7 144.4,209.1 168.2,168.1 	"/>
	<polygon class="st1" points="189.6,170.7 177.4,170.2 169.3,190.5 	"/>
</g>
<g>
	<polygon class="st2" points="81.7,92.4 120.5,123.1 121.9,182.4 116.3,190.5 91.9,182 67.2,119.2 	"/>
	<polygon class="st2" points="134.6,188.1 145.2,119.9 124,83.2 120.5,123.1 121.9,182.4 	"/>
	<polygon class="st2" points="116.3,190.5 125.1,202.5 134.6,188.1 121.9,182.4 	"/>
	<polygon class="st2" points="91.9,182 102.5,195.5 125.1,202.5 116.3,190.5 	"/>
	<polygon class="st2" points="96.5,43 81.7,92.4 120.5,123.1 124,83.2 	"/>
	<polygon class="st2" points="67.2,119.2 71.8,76.5 96.5,43 81.7,92.4 	"/>
	<polygon class="st2" points="145.2,119.9 132.8,73.3 96.5,43 124,83.2 	"/>
</g>
<g>
	<polygon class="st3" points="202.9,71.2 186.6,78.3 182.2,107.3 190.4,122.3 205.1,129.5 214.1,94 	"/>
	<polygon class="st3" points="223.9,82.4 214.1,94 202.9,71.2 	"/>
	<polygon class="st3" points="205.1,129.5 220.2,118.6 230.8,94.6 223.9,82.4 214.1,94 	"/>
</g>
</svg>
