<?xml version="1.0" encoding="utf-8"?>
<!-- Generator: Adobe Illustrator 26.3.1, SVG Export Plug-In . SVG Version: 6.00 Build 0)  -->
<svg version="1.1" id="레이어_1" xmlns="http://www.w3.org/2000/svg" xmlns:xlink="http://www.w3.org/1999/xlink" x="0px"
	 y="0px" viewBox="0 0 300 300" style="enable-background:new 0 0 300 300;" xml:space="preserve">
<style type="text/css">
	.st0{fill:#E9BC00;}
	.st1{fill:#B24232;stroke:#E9BC00;stroke-width:3;stroke-linecap:round;stroke-linejoin:round;stroke-miterlimit:10;}
	.st2{fill:#B24232;stroke:#E9BC00;stroke-width:3;stroke-linecap:round;stroke-linejoin:round;stroke-miterlimit:9.9998;}
	.st3{fill:#B24232;stroke:#E9BC00;stroke-width:3;stroke-miterlimit:10;}
</style>
<g>
	<path class="st0" d="M161.6,283.7c-3.6,0-6-1-7.2-3.1l-2.7-4.6c0-0.1-0.1-0.1-0.1-0.2c-4.5-7.8,13.9-22.4,30.3-33.4
		c0.1-0.3,0.1-0.6,0.2-0.8c0.5-1.5,1.5-2.7,2.8-3.6c-3.6-9.8-12-27-24.8-45.5c-0.1,0.1-0.2,0.1-0.3,0.1c-5.3,1.8-11,2.8-17,3
		c-0.1,0-0.3,0-0.4,0.1c-0.4,0-0.8,0-1.1,0c-6.1,0-12.4-1-18.7-3c-0.2-0.1-0.4-0.2-0.5-0.2c-13.6-4.3-25.3-13.3-33.1-25.3
		c0,0,0,0-0.1,0c-0.5,0-1.1-0.1-1.6-0.2c-3.2-0.9-5.2-4.2-4.3-7.5c0.1-0.5,0.3-1,0.6-1.4L38.4,79.8c-0.2-0.3-0.3-0.7-0.4-1
		c-0.5-2.1,0.4-4.3,14.8-14.1c9.3-6.3,21.9-14.1,35.5-21.9c13.6-7.9,26.7-14.9,36.8-19.8c12-5.8,15.4-6.6,17.2-6.6
		c1.1,0,1.9,0.3,2.5,1c0.2,0.2,0.4,0.4,0.5,0.7l9.3,16.2l0,0l0.1,0.1l35.8,62c0,0,0,0,0,0c0.5,0,1,0.1,1.5,0.2
		c3.2,0.9,5.2,4.2,4.3,7.5c-0.1,0.5-0.4,1.1-0.7,1.5c6.6,12.8,8.5,27.5,5.4,41.5l0,0.1c-1.3,6.4-3.8,12.8-7.3,18.7l-0.1,0.2
		c-3.2,5.3-6.9,9.7-11.4,13.6c-0.1,0.1-0.2,0.2-0.3,0.2c9.6,20.3,20.2,36.1,26.9,44.2c1-0.5,2.1-0.8,3.2-0.8c0.5,0,1,0.1,1.5,0.2
		c0.3,0.1,0.5,0.1,0.8,0.2c9.8-4.8,27.1-12.6,36.8-12.6c3.6,0,6,1,7.1,3.1l0.1,0.1l0,0.1l2.7,4.6c7.1,12.4-44,42.1-46.2,43.4
		C201.3,270.2,174.5,283.7,161.6,283.7z"/>
	<path class="st0" d="M142.4,17.8c0.8,0,1.2,0.2,1.4,0.5c0.1,0.1,0.2,0.2,0.3,0.4l6.6,11.4c0,0,0,0,0,0c0,0,0,0,0,0.1l2.8,4.8
		c0,0,0,0,0,0c0,0,0,0,0,0l12.9,22.4c0,0,0,0,0,0l6.6,11.4l9.1,15.7l0.1,0.2c0,0,0,0,0,0l7.6,13.1c0.3,0,0.6-0.1,0.8-0.1
		c0.4,0,0.8,0,1.1,0.1h0c2.4,0.7,3.9,3.2,3.3,5.6c-0.2,0.7-0.5,1.3-1,1.8c6.8,12.8,8.8,27.4,5.6,41.5c0,0,0,0,0,0
		c-1.2,6.2-3.7,12.5-7.1,18.3c0,0,0,0,0,0c0,0,0,0,0,0c-3.2,5.1-6.8,9.5-11.1,13.3c-0.1,0.1-0.3,0.2-0.4,0.2
		c-0.2,0.2-0.5,0.5-0.8,0.7c10.2,21.8,21.8,38.8,28.5,46.6c0.2-0.2,0.5-0.4,0.8-0.6c0.8-0.5,1.7-0.7,2.7-0.7c0.4,0,0.8,0,1.1,0.1
		c0.4,0.1,0.8,0.2,1.2,0.4c13.9-6.9,28.6-12.7,36.8-12.7c2.8,0,4.9,0.7,5.8,2.3c0,0,0,0.1,0,0.1l2.7,4.7
		c4.8,8.2-24.7,29.2-45.6,41.3c-16.8,9.7-41.2,21.2-52.7,21.2c-2.9,0-4.9-0.7-5.9-2.4l-2.7-4.7c0,0,0-0.1-0.1-0.1
		c-3.6-6.3,13-20.2,30.4-31.8c0-0.4,0.1-0.8,0.2-1.2c0.5-1.6,1.8-2.7,3.2-3.3c-3.4-9.7-12.3-28.3-26.1-48.1
		c-0.3,0.1-0.6,0.2-0.9,0.3c-0.1,0.1-0.3,0.2-0.4,0.2c-5.2,1.7-10.8,2.7-16.7,3c-0.1,0-0.2,0-0.3,0c-0.4,0-0.7,0-1.1,0
		c-6,0-12.1-1-18.3-3c-0.1,0-0.2-0.1-0.3-0.2c-13.2-4.2-25.1-12.9-32.9-25.5c-0.3,0.1-0.6,0.1-0.8,0.1c-0.4,0-0.8-0.1-1.2-0.2
		c-2.4-0.7-3.9-3.2-3.3-5.6c0.2-0.7,0.5-1.2,0.9-1.8L46.3,90.4c0,0,0,0,0,0c0,0,0,0,0,0L39.7,79c-0.1-0.2-0.2-0.4-0.2-0.6
		c-0.4-1.3,1-3.6,14.2-12.5c9.2-6.2,21.8-14,35.4-21.9c13.6-7.9,26.6-14.9,36.7-19.7C136.2,19.2,140.5,17.8,142.4,17.8 M142.4,14.8
		L142.4,14.8c-2.1,0-5.7,0.8-17.9,6.7c-10.1,4.9-23.2,12-36.8,19.8C74,49.3,61.3,57.1,52,63.4C38.2,72.8,35.8,75.8,36.6,79
		c0.1,0.5,0.3,1,0.5,1.5l6.6,11.4l38.2,66.2c-0.1,0.3-0.3,0.7-0.3,1c-1.1,4,1.3,8.2,5.4,9.3c0.4,0.1,0.8,0.2,1.2,0.2
		c7.9,11.9,19.6,20.8,33.3,25.2c0.2,0.1,0.4,0.2,0.6,0.3c6.5,2.1,12.9,3.1,19.2,3.1c0.4,0,0.8,0,1.2,0c0.2,0,0.4,0,0.6-0.1
		c5.8-0.2,11.4-1.2,16.6-2.9c11.9,17.4,19.9,33.5,23.6,43.2c-1.1,1-1.9,2.2-2.4,3.6c0,0.1-0.1,0.2-0.1,0.4
		c-6.8,4.6-15.9,11.1-22.5,17.5c-7.8,7.5-10.3,13.3-7.8,17.6c0,0.1,0.1,0.1,0.1,0.2l2.6,4.6c1.5,2.6,4.3,3.9,8.5,3.9
		c5.7,0,14.3-2.4,25.6-7.2c8.9-3.8,19.3-9,28.7-14.4c12.1-7,24.4-15.4,32.9-22.4c12.5-10.4,16.9-17.7,13.9-23l-2.6-4.6
		c0-0.1-0.1-0.1-0.1-0.2c-1.5-2.5-4.3-3.8-8.4-3.8c-9.9,0-26.9,7.6-37,12.5c-0.1,0-0.3-0.1-0.4-0.1c-0.6-0.1-1.2-0.2-1.8-0.2
		c-0.9,0-1.9,0.2-2.8,0.5c-6.5-8-16.5-23-25.5-41.9c4.2-3.8,7.9-8.2,11-13.3l0,0l0.1-0.1c0,0,0,0,0-0.1l0.2-0.3l0,0
		c3.5-6,6.1-12.6,7.4-19l0.1-0.3c3.1-14,1.2-28.7-5.2-41.6c0.2-0.4,0.3-0.8,0.4-1.2c1.1-4-1.3-8.2-5.4-9.3c-0.3-0.1-0.7-0.2-1-0.2
		L185,83.6l0-0.1l-0.2-0.3l-0.1-0.1l-9.1-15.7L169.1,56l-12.9-22.4l-2.8-4.8l0-0.1l-0.1-0.2l0,0l-6.5-11.2c-0.2-0.4-0.5-0.7-0.8-1
		C145.1,15.3,143.8,14.8,142.4,14.8L142.4,14.8z"/>
</g>
<g>
	<path class="st1" d="M154.2,274.2l2.8,4.8c3.2,5.5,28.5-3.2,56.6-19.4s48.3-33.8,45.1-39.3l-2.8-4.8"/>
	<ellipse transform="matrix(0.866 -0.5 0.5 0.866 -94.9647 135.3437)" class="st2" cx="205.1" cy="244.9" rx="58.7" ry="11.4"/>
	<path class="st1" d="M169.7,183.6l-8.6,4.9c19,26.9,29.7,53,28.6,57.1l11.9-6.9l0,0l11.9-6.9c-4.2-1.1-21.4-23.3-35.2-53.3
		C178.3,178.6,169.7,183.6,169.7,183.6L169.7,183.6z"/>
	<path class="st1" d="M170.2,184.5L170.2,184.5c-28,16.2-64,6.7-80.3-21.5L41,78.2l101.8-58.8l48.9,84.8
		C208,132.4,198.4,168.2,170.2,184.5z"/>
	<ellipse transform="matrix(0.866 -0.5 0.5 0.866 -12.1435 52.5277)" class="st2" cx="91.9" cy="48.9" rx="58.7" ry="4.2"/>
	<path class="st1" d="M149.4,30.9c1.1,2-20.6,16.7-48.8,33s-51.8,27.7-53,25.8"/>
	<path class="st1" d="M152.2,35.8c1.1,2-20.6,16.7-48.8,33s-51.8,27.7-53,25.8"/>
	<path class="st1" d="M110.1,139.2c0,0-19.7-4.8-28.7-20.3c-4-6.9-1.4-15.6,5.6-19.6c7-4,15.9-1.8,19.8,5
		C115.9,119.6,110.1,139.2,110.1,139.2z"/>
	<path class="st1" d="M135.8,124.9c0,0-19.7-4.8-28.7-20.3c-4-6.9-1.4-15.6,5.6-19.6s15.9-1.8,19.8,5
		C141.5,105.5,135.8,124.9,135.8,124.9z"/>
	<path class="st1" d="M184.6,92c0,0-19.7-4.8-28.7-20.3c-4-6.9-1.4-15.6,5.6-19.6L184.6,92z"/>
	<path class="st1" d="M82.9,150.6c0,0,5.7-19.5-3.2-35c-4-6.9-12.8-9-19.8-5L82.9,150.6z"/>
	<path class="st1" d="M161,109.8c0,0-19.7-4.8-28.7-20.3c-4-6.9-1.4-15.6,5.6-19.6c7-4,15.9-1.8,19.8,5
		C166.7,90.3,161,109.8,161,109.8z"/>
	<path class="st1" d="M106.3,132.7c0,0-19.7-4.8-28.7-20.3c-4-6.9-1.4-15.6,5.6-19.6c7-4,15.9-1.8,19.8,5
		C112.1,113.2,106.3,132.7,106.3,132.7z"/>
	<path class="st1" d="M103.5,127.6c0,0-15.8-3.8-23-16.2C77.4,106,79.4,99,85,95.6c5.7-3.3,12.7-1.5,15.9,4
		C108.1,111.9,103.5,127.6,103.5,127.6z"/>
	<path class="st1" d="M132.1,118.5c0,0-19.7-4.8-28.7-20.3c-4-6.9-1.4-15.6,5.6-19.6c7-4,15.9-1.8,19.8,5
		C137.8,99,132.1,118.5,132.1,118.5z"/>
	<path class="st1" d="M180.9,85.5c0,0-19.7-4.8-28.7-20.3c-4-6.9-1.4-15.6,5.6-19.6L180.9,85.5z"/>
	<path class="st1" d="M79.1,144.3c0,0,5.7-19.5-3.2-35c-4-6.9-12.8-9-19.8-5L79.1,144.3z"/>
	<path class="st1" d="M57.8,107.3c5.6-3.3,12.7-1.5,15.9,4c7.1,12.4,2.5,28,2.5,28L57.8,107.3z"/>
	<path class="st1" d="M129.1,113.3c0,0-15.8-3.8-23-16.2c-3.1-5.4-1.1-12.4,4.5-15.8c5.7-3.3,12.7-1.5,15.9,4
		C133.8,97.8,129.1,113.3,129.1,113.3z"/>
	<path class="st1" d="M177.9,80.4c0,0-15.8-3.8-23-16.2c-3.1-5.4-1.1-12.4,4.5-15.8L177.9,80.4z"/>
	<g>
		<path class="st1" d="M173.5,161.1c5.7,1.9,11.7,3.1,17.8,3.2c3.2-5.5,5.7-11.5,6.9-17.8c-12.9-4.5-24.2-13.5-31.6-26.4
			C173.9,133.2,176,147.7,173.5,161.1z"/>
		<path class="st1" d="M148.4,175.6c6,2,12.2,3.1,18.5,3.2c3.1-5.5,5.2-11.4,6.5-17.6c-13-4.5-24.4-13.5-31.9-26.5
			C148.9,147.6,151,162.1,148.4,175.6z"/>
		<path class="st1" d="M148.4,175.6c-13-4.5-24.4-13.5-31.9-26.5c7.4,12.9,9.5,27.1,7,40.6c6.1,1.9,12.4,3,18.9,2.9
			C145.2,187.2,147.2,181.4,148.4,175.6z"/>
		<path class="st1" d="M173.5,161.1c-1.2,6.2-3.5,12.1-6.5,17.6c4.5,0.1,9-0.4,13.4-1.5c4.3-3.8,7.9-8.1,10.8-12.9
			C185.1,164.2,179.1,163.1,173.5,161.1z"/>
		<path class="st1" d="M158.9,189.6c3.4-1.2,6.9-2.6,10.2-4.5l2.2-1.3c3.3-1.9,6.4-4.1,9-6.6c-4.4,1.1-9,1.5-13.4,1.5
			C164.7,182.6,162.1,186.3,158.9,189.6z"/>
		<path class="st1" d="M148.4,175.6c-1.2,5.9-3.1,11.7-6.1,17c5.5-0.2,11.2-1,16.6-2.9c3.2-3.3,5.8-7,8-10.9
			C160.6,178.7,154.3,177.7,148.4,175.6z"/>
	</g>
	<path class="st1" d="M94.9,108.3c1.1-1.6,1.3-3.7,0.3-5.5c-0.5-0.9-1.2-1.5-1.9-1.9c-0.1,1.7-0.9,3.5-2.5,4.4
		c-1.6,0.9-3.5,0.8-5.1,0c0,0.9,0.3,1.7,0.7,2.6c1.1,1.8,3,2.7,4.9,2.5c-1.1,1.6-1.3,3.7-0.3,5.5c1.4,2.4,4.5,3.3,7,1.9
		c2.4-1.4,3.3-4.5,1.9-7C98.7,109,96.8,108,94.9,108.3z"/>
	<path class="st1" d="M157.3,103.3c0,0-19.7-4.8-28.7-20.3c-4-6.9-1.4-15.6,5.6-19.6c7-4,15.9-1.8,19.8,5
		C163,83.9,157.3,103.3,157.3,103.3z"/>
	<path class="st1" d="M154.3,98.2c0,0-15.8-3.8-23-16.2c-3.1-5.4-1.1-12.4,4.5-15.8c5.6-3.3,12.7-1.5,15.9,4
		C158.9,82.6,154.3,98.2,154.3,98.2z"/>
	<path class="st1" d="M145.8,79c1.1-1.6,1.3-3.7,0.3-5.5c-0.5-0.9-1.2-1.5-1.9-1.9c-0.1,1.7-0.9,3.5-2.5,4.4s-3.5,0.8-5.1,0
		c0,0.9,0.3,1.7,0.7,2.6c1.1,1.8,3,2.7,4.9,2.5c-1.1,1.6-1.3,3.7-0.3,5.5c1.4,2.4,4.5,3.3,7,1.9c2.4-1.4,3.3-4.5,1.9-7
		C149.6,79.7,147.6,78.7,145.8,79z"/>
	<path class="st1" d="M120.4,94.1c1.1-1.6,1.3-3.7,0.3-5.5c-0.5-0.9-1.2-1.5-1.9-1.9c-0.1,1.7-0.9,3.5-2.5,4.4s-3.5,0.8-5.1,0
		c0,0.9,0.3,1.7,0.7,2.6c1.1,1.8,3,2.7,4.9,2.5c-1.1,1.6-1.3,3.7-0.3,5.5c1.4,2.4,4.5,3.3,7,1.9c2.4-1.4,3.3-4.5,1.9-7
		C124.3,94.9,122.4,93.9,120.4,94.1z"/>
	<g>
		<path class="st1" d="M160.1,58.2c0,0.9,0.3,1.7,0.7,2.6c1.1,1.8,3,2.7,4.9,2.5c-1.1,1.6-1.3,3.7-0.3,5.5c1.4,2.4,4.5,3.3,7,1.9
			l-7.1-12.4C163.5,59.1,161.5,59.1,160.1,58.2z"/>
	</g>
	<path class="st1" d="M67.5,119.9c1.1-1.6,1.3-3.7,0.3-5.5c-0.5-0.9-1.2-1.5-1.9-1.9c-0.1,1.7-0.9,3.5-2.5,4.4l7.1,12.4
		c2.4-1.4,3.3-4.5,1.9-7C71.4,120.6,69.5,119.6,67.5,119.9z"/>
	
		<ellipse transform="matrix(0.2588 -0.9659 0.9659 0.2588 -58.345 222.9834)" class="st3" cx="116.1" cy="149.5" rx="3.1" ry="3.1"/>
	
		<ellipse transform="matrix(0.2588 -0.9659 0.9659 0.2588 -89.6733 205.2544)" class="st3" cx="88.9" cy="161.1" rx="3.1" ry="3.1"/>
	<circle class="st3" cx="190.6" cy="102.4" r="3.1"/>
	<circle class="st3" cx="141.8" cy="135.3" r="3.1"/>
	<circle class="st3" cx="167" cy="120.2" r="3.1"/>
	<g>
		<path class="st3" d="M203.9,242.9c-9.9,5.7-15.7,4.4-16.6,4c-1.9-0.6-2.9-2.5-2.3-4.6c0.6-1.8,2.5-2.9,4.4-2.4
			c0.3,0.1,4,0.6,10.9-3.4c7.2-4.2,8.4-7.8,8.4-7.8c0.4-2,2.4-3.1,4.3-2.7c2,0.4,3.2,2.5,2.7,4.3
			C215.5,231.6,213.9,237.2,203.9,242.9z"/>
	</g>
</g>
</svg>
