<?xml version="1.0" encoding="utf-8"?>
<!-- Generator: Adobe Illustrator 26.3.1, SVG Export Plug-In . SVG Version: 6.00 Build 0)  -->
<svg version="1.1" id="레이어_1" xmlns="http://www.w3.org/2000/svg" xmlns:xlink="http://www.w3.org/1999/xlink" x="0px"
	 y="0px" viewBox="0 0 300 300" style="enable-background:new 0 0 300 300;" xml:space="preserve">
<style type="text/css">
	.st0{fill:#B24232;stroke:#E9BC00;stroke-width:3;stroke-linecap:round;stroke-linejoin:round;stroke-miterlimit:10;}
	.st1{fill:#B24232;stroke:#E9BC00;stroke-width:3;stroke-linecap:round;stroke-linejoin:round;stroke-miterlimit:9.9999;}
	.st2{fill:#B24232;stroke:#E9BC00;stroke-width:3;stroke-miterlimit:10;}
</style>
<g>
	<path class="st0" d="M186.2,269.2l3.9,3.9c4.5,4.5,26.7-10.5,49.6-33.4s37.9-45.1,33.4-49.6l-3.9-3.9"/>
	
		<ellipse transform="matrix(0.7071 -0.7071 0.7071 0.7071 -94.3149 227.6978)" class="st1" cx="227.7" cy="227.7" rx="58.7" ry="11.4"/>
	<path class="st0" d="M177.7,177.7l-7,7c25.3,21.1,42.4,43.5,42.4,47.8l9.7-9.7l0,0l9.7-9.7c-4.3,0-26.7-17-47.8-42.4
		C184.7,170.6,177.7,177.7,177.7,177.7L177.7,177.7z"/>
	<path class="st0" d="M178.4,178.4L178.4,178.4c-22.9,22.9-60.1,23-83.1,0l-69.2-69.2l83.1-83.1l69.2,69.2
		C201.4,118.3,201.4,155.4,178.4,178.4z"/>
	<ellipse transform="matrix(0.7071 -0.7071 0.7071 0.7071 -28.0311 67.6994)" class="st1" cx="67.7" cy="67.7" rx="58.7" ry="4.2"/>
	<path class="st0" d="M118.5,35.4c1.6,1.6-15.6,21.5-38.6,44.5S37,120.1,35.4,118.5"/>
	<path class="st0" d="M122.5,39.4c1.6,1.6-15.6,21.5-38.6,44.5S41,124.1,39.4,122.5"/>
	<path class="st0" d="M108.6,150.2c0,0-20.3,0.5-33-12.2c-5.6-5.6-5.4-14.7,0.3-20.4c5.7-5.7,14.9-5.9,20.4-0.3
		C109.1,129.8,108.6,150.2,108.6,150.2z"/>
	<path class="st0" d="M129.7,129.7c0,0-20.3,0.5-33-12.2c-5.6-5.6-5.4-14.7,0.3-20.4s14.9-5.9,20.4-0.3
		C130.2,109.5,129.7,129.7,129.7,129.7z"/>
	<path class="st0" d="M168.3,85.3c0,0-20.3,0.5-33-12.2c-5.6-5.6-5.4-14.7,0.3-20.4L168.3,85.3z"/>
	<path class="st0" d="M85.3,168.3c0,0,0.5-20.3-12.2-33c-5.6-5.6-14.7-5.4-20.4,0.3L85.3,168.3z"/>
	<path class="st0" d="M150.2,108.6c0,0-20.3,0.5-33-12.2c-5.6-5.6-5.4-14.7,0.3-20.4c5.7-5.7,14.9-5.9,20.4-0.3
		C150.6,88.3,150.2,108.6,150.2,108.6z"/>
	<path class="st0" d="M103.3,144.9c0,0-20.3,0.5-33-12.2c-5.6-5.6-5.4-14.7,0.3-20.4c5.7-5.7,14.9-5.9,20.4-0.3
		C103.8,124.6,103.3,144.9,103.3,144.9z"/>
	<path class="st0" d="M99.2,140.7c0,0-16.3,0.4-26.4-9.7c-4.4-4.4-4.3-11.7,0.3-16.4s11.9-4.7,16.4-0.3
		C99.6,124.4,99.2,140.7,99.2,140.7z"/>
	<path class="st0" d="M124.5,124.5c0,0-20.3,0.5-33-12.2c-5.6-5.6-5.4-14.7,0.3-20.4s14.9-5.9,20.4-0.3
		C125,104.2,124.5,124.5,124.5,124.5z"/>
	<path class="st0" d="M163.1,80c0,0-20.3,0.5-33-12.2c-5.6-5.6-5.4-14.7,0.3-20.4L163.1,80z"/>
	<path class="st0" d="M80,163.1c0,0,0.5-20.3-12.2-33c-5.6-5.6-14.7-5.4-20.4,0.3L80,163.1z"/>
	<path class="st0" d="M49.8,132.9c4.6-4.6,11.9-4.7,16.4-0.3c10.1,10.1,9.7,26.4,9.7,26.4L49.8,132.9z"/>
	<path class="st0" d="M120.3,120.3c0,0-16.3,0.4-26.4-9.7c-4.4-4.4-4.3-11.7,0.3-16.4s11.9-4.7,16.4-0.3
		C120.8,104.1,120.3,120.3,120.3,120.3z"/>
	<path class="st0" d="M158.9,75.9c0,0-16.3,0.4-26.4-9.7c-4.4-4.4-4.3-11.7,0.3-16.4L158.9,75.9z"/>
	<g>
		<path class="st0" d="M175.5,155c6,0.4,12.1,0,18-1.5c1.7-6.1,2.5-12.6,2.1-19c-13.6-1-26.9-6.8-37.4-17.3
			C168.7,127.9,174.5,141.3,175.5,155z"/>
		<path class="st0" d="M155,175.5c6.3,0.4,12.6-0.2,18.7-1.7c1.6-6.1,2.1-12.4,1.7-18.7c-13.7-1-27.1-6.7-37.7-17.3
			C148.3,148.3,154,161.7,155,175.5z"/>
		<path class="st0" d="M155,175.5c-13.7-1-27.1-6.7-37.7-17.3c10.5,10.5,16.2,23.7,17.3,37.4c6.4,0.3,12.8-0.3,19-2.1
			C154.9,187.5,155.4,181.4,155,175.5z"/>
		<path class="st0" d="M175.5,155c0.4,6.3-0.2,12.6-1.7,18.7c4.4-1.1,8.6-2.7,12.6-4.9c3.2-4.8,5.5-9.9,7.1-15.3
			C187.5,154.9,181.4,155.4,175.5,155z"/>
		<path class="st0" d="M168.8,186.3c3-2,6-4.3,8.7-7l1.8-1.8c2.7-2.7,5.1-5.6,7-8.7c-4,2.2-8.3,3.8-12.6,4.9
			C172.6,178,171,182.2,168.8,186.3z"/>
		<path class="st0" d="M155,175.5c0.4,6,0,12.1-1.5,18c5.3-1.6,10.5-3.9,15.3-7.1c2.2-4,3.8-8.3,4.9-12.6
			C167.6,175.3,161.3,175.9,155,175.5z"/>
	</g>
	<path class="st0" d="M85.9,124.3c0.7-1.8,0.3-3.9-1.1-5.4c-0.7-0.7-1.5-1.1-2.3-1.3c0.4,1.7,0,3.6-1.3,4.9s-3.2,1.7-4.9,1.3
		c0.2,0.9,0.7,1.6,1.3,2.3c1.5,1.5,3.6,1.8,5.4,1.1c-0.7,1.8-0.3,3.9,1.1,5.4c2,2,5.2,2,7.2,0s2-5.2,0-7.2
		C89.8,124,87.7,123.5,85.9,124.3z"/>
	<path class="st0" d="M144.9,103.3c0,0-20.3,0.5-33-12.2c-5.6-5.6-5.4-14.7,0.3-20.4s14.9-5.9,20.4-0.3
		C145.4,83.1,144.9,103.3,144.9,103.3z"/>
	<path class="st0" d="M140.7,99.2c0,0-16.3,0.4-26.4-9.7c-4.4-4.4-4.3-11.7,0.3-16.4c4.6-4.6,11.9-4.7,16.4-0.3
		C141.1,82.9,140.7,99.2,140.7,99.2z"/>
	<path class="st0" d="M127.5,82.8c0.7-1.8,0.3-3.9-1.1-5.4c-0.7-0.7-1.5-1.1-2.3-1.3c0.4,1.7,0,3.6-1.3,4.9s-3.2,1.7-4.9,1.3
		c0.2,0.9,0.7,1.6,1.3,2.3c1.5,1.5,3.6,1.8,5.4,1.1c-0.7,1.8-0.3,3.9,1.1,5.4c2,2,5.2,2,7.2,0s2-5.2,0-7.2
		C131.4,82.5,129.2,82.1,127.5,82.8z"/>
	<path class="st0" d="M106.9,104c0.7-1.8,0.3-3.9-1.1-5.4c-0.7-0.7-1.5-1.1-2.3-1.3c0.4,1.7,0,3.6-1.3,4.9s-3.2,1.7-4.9,1.3
		c0.2,0.9,0.7,1.6,1.3,2.3c1.5,1.5,3.6,1.8,5.4,1.1c-0.7,1.8-0.3,3.9,1.1,5.4c2,2,5.2,2,7.2,0s2-5.2,0-7.2
		C110.9,103.7,108.8,103.3,106.9,104z"/>
	<g>
		<path class="st0" d="M135.9,59c0.2,0.9,0.7,1.6,1.3,2.3c1.5,1.5,3.6,1.8,5.4,1.1c-0.7,1.8-0.3,3.9,1.1,5.4c2,2,5.2,2,7.2,0
			l-10.1-10.1C139.5,59,137.5,59.5,135.9,59z"/>
	</g>
	<path class="st0" d="M62.5,142.6c0.7-1.8,0.3-3.9-1.1-5.4c-0.7-0.7-1.5-1.1-2.3-1.3c0.4,1.7,0,3.6-1.3,4.9l10.1,10.1
		c2-2,2-5.2,0-7.2C66.4,142.3,64.3,141.8,62.5,142.6z"/>
	<circle class="st2" cx="117.1" cy="158.6" r="3.1"/>
	<circle class="st2" cx="93.8" cy="176.8" r="3.1"/>
	<circle class="st2" cx="176.8" cy="93.8" r="3.1"/>
	<circle class="st2" cx="138.2" cy="138.2" r="3.1"/>
	<circle class="st2" cx="158.6" cy="117.1" r="3.1"/>
	<g>
		<path class="st2" d="M226.1,226.1c-8.1,8.1-14,8.3-15,8.2c-2-0.1-3.5-1.7-3.4-3.8c0.1-1.9,1.7-3.5,3.6-3.4c0.3,0,4-0.4,9.7-6.1
			c5.9-5.9,6.1-9.7,6.1-9.7c-0.1-2,1.5-3.6,3.5-3.7c2-0.1,3.7,1.6,3.7,3.5C234.3,212.2,234.2,218,226.1,226.1z"/>
	</g>
</g>
</svg>
