<?xml version="1.0" encoding="utf-8"?>
<!-- Generator: Adobe Illustrator 26.3.1, SVG Export Plug-In . SVG Version: 6.00 Build 0)  -->
<svg version="1.1" id="레이어_1" xmlns="http://www.w3.org/2000/svg" xmlns:xlink="http://www.w3.org/1999/xlink" x="0px"
	 y="0px" viewBox="0 0 300 300" style="enable-background:new 0 0 300 300;" xml:space="preserve">
<style type="text/css">
	.st0{fill:none;stroke:#000000;stroke-width:3;stroke-linecap:round;stroke-linejoin:round;stroke-miterlimit:10;}
	.st1{fill:#FFFFFF;stroke:#000000;stroke-width:3;stroke-linecap:round;stroke-linejoin:round;stroke-miterlimit:10;}
	.st2{fill:#FFFFFF;stroke:#231815;stroke-width:3;stroke-linecap:round;stroke-linejoin:round;stroke-miterlimit:10;}
	.st3{fill:none;stroke:#231815;stroke-width:3;stroke-linecap:round;stroke-linejoin:round;stroke-miterlimit:10;}
	.st4{fill:#231815;}
	.st5{fill:#FFFFFF;stroke:#000000;stroke-width:3;stroke-miterlimit:10;}
</style>
<g>
	<ellipse class="st0" cx="150.5" cy="242.3" rx="50.8" ry="9.9"/>
	<path class="st1" d="M150.5,181.1c0,0-8.6,0-8.6,0c2.6,28.4-0.7,52.5-3.3,55.2h11.9h0h11.9c-2.6-2.6-5.9-26.7-3.3-55.2
		C159.1,181.1,150.5,181.1,150.5,181.1L150.5,181.1z"/>
	<path class="st2" d="M150.5,182L150.5,182c-28,0-50.8-22.7-50.8-50.8V46.6h101.6v84.6C201.3,159.3,178.6,182,150.5,182z"/>
	<ellipse class="st2" cx="150.5" cy="46.6" rx="50.8" ry="3.6"/>
	<path class="st3" d="M201.3,53.9c0,2-22.7,3.6-50.8,3.6s-50.8-1.6-50.8-3.6"/>
	<path class="st3" d="M201.3,64.8c0,2-22.7,3.6-50.8,3.6s-50.8-1.6-50.8-3.6"/>
	<g>
		<g>
			<g>
				<path class="st4" d="M193.8,61.3c1.8-0.2,2.4-2.5,2.6-4.7c0.1-2.2-0.2-4.3-0.2-4.3s0.4,2.1,1.3,4.1c0.4,1,1,2,1.7,2.6
					c0.3,0.3,0.7,0.6,1.1,0.7c0.2,0.1,0.4,0.1,0.6,0c0.2,0,0.4-0.1,0.4-0.4c0,0.2-0.2,0.4-0.4,0.5c-0.1,0.2-0.3,0.3-0.4,0.5
					c-0.3,0.3-0.5,0.8-0.7,1.2c-0.4,0.9-0.6,2.1-0.7,3.2c-0.2,2.2,0,4.3,0,4.3s-0.5-2.1-1.5-4.1C196.8,63.1,195.5,61.1,193.8,61.3z"
					/>
				<path class="st4" d="M185.2,62.1c3.5-0.2,3.2-8.8,3.2-8.8s0.3,2.1,1,4.2c0.7,2.1,1.9,4.1,3.7,3.9c-1.7,0.2-2.5,2.4-2.9,4.6
					c-0.4,2.2-0.3,4.3-0.3,4.3S188.7,61.9,185.2,62.1z"/>
				<path class="st4" d="M176.6,62.6c3.5-0.2,3.5-8.7,3.5-8.7s0.9,8.5,4.4,8.3c-3.5,0.2-3.5,8.7-3.5,8.7S180.1,62.4,176.6,62.6z"/>
				<path class="st4" d="M168,62.9c3.5-0.1,3.7-8.6,3.7-8.6s0.7,8.5,4.2,8.4c-3.5,0.1-3.7,8.7-3.7,8.7S171.5,62.8,168,62.9z"/>
				<path class="st4" d="M159.4,63c3.5,0,3.8-8.6,3.8-8.6s0.6,8.5,4.1,8.4c-3.5,0.1-3.8,8.6-3.8,8.6S163,63,159.4,63z"/>
				<path class="st4" d="M150.8,63.1c3.5,0,3.9-8.5,3.9-8.5s0.5,8.5,4,8.5c-3.5,0-3.9,8.6-3.9,8.6S154.4,63.1,150.8,63.1z"/>
				<path class="st4" d="M142.2,63c3.5,0,4-8.5,4-8.5s0.4,8.5,3.9,8.5c-3.5,0-4,8.5-4,8.5S145.8,63.1,142.2,63z"/>
				<path class="st4" d="M133.7,62.9c3.5,0.1,4.1-8.4,4.1-8.4s0.3,8.5,3.8,8.6c-3.5,0-4.1,8.5-4.1,8.5S137.2,63,133.7,62.9z"/>
				<path class="st4" d="M125.1,62.6c3.5,0.1,4.2-8.4,4.2-8.4s0.1,8.5,3.7,8.6c-3.5-0.1-4.2,8.4-4.2,8.4S128.6,62.7,125.1,62.6z"/>
				<path class="st4" d="M116.5,62.1c3.5,0.2,4.4-8.3,4.4-8.3s0,8.5,3.5,8.7c-3.5-0.2-4.4,8.3-4.4,8.3S120,62.4,116.5,62.1z"/>
				<path class="st4" d="M107.9,61.4c1.8,0.2,2.9-1.9,3.7-3.9c0.7-2.1,1-4.2,1-4.2s-0.3,8.5,3.2,8.8c-3.5-0.2-4.7,8.2-4.7,8.2
					s0.1-2.1-0.3-4.3C110.4,63.8,109.6,61.6,107.9,61.4z"/>
				<path class="st4" d="M99.7,59.5c0,0.2,0.3,0.3,0.4,0.4c0.2,0,0.4,0,0.6,0c0.4-0.1,0.8-0.3,1.1-0.7c0.7-0.7,1.2-1.6,1.7-2.6
					c0.9-2,1.3-4.1,1.3-4.1s-0.3,2.1-0.2,4.3c0.1,2.2,0.8,4.4,2.6,4.7c-1.7-0.2-3,1.8-4,3.8c-0.9,2-1.5,4.1-1.5,4.1s0.2-2.1,0-4.3
					c-0.1-1.1-0.3-2.2-0.7-3.2c-0.2-0.5-0.4-0.9-0.7-1.2c-0.1-0.2-0.3-0.3-0.4-0.5C99.9,59.8,99.7,59.7,99.7,59.5z"/>
			</g>
		</g>
	</g>
	<path class="st2" d="M125.1,122.1c0,0-12.7-12.1-12.7-27.6c0-6.8,5.7-12.3,12.7-12.3c7,0,12.7,5.5,12.7,12.3
		C137.8,109.9,125.1,122.1,125.1,122.1z"/>
	<path class="st2" d="M150.5,122.5c0,0-12.7-12.1-12.7-27.6c0-6.8,5.7-12.3,12.7-12.3s12.7,5.5,12.7,12.3
		C163.2,110.4,150.5,122.5,150.5,122.5z"/>
	<path class="st2" d="M201.3,118.9c0,0-12.7-12.1-12.7-27.6c0-6.8,5.7-12.3,12.7-12.3V118.9z"/>
	<path class="st2" d="M99.7,118.9c0,0,12.7-12.1,12.7-27.6c0-6.8-5.7-12.3-12.7-12.3V118.9z"/>
	<path class="st2" d="M175.9,122.1c0,0-12.7-12.1-12.7-27.6c0-6.8,5.7-12.3,12.7-12.3s12.7,5.5,12.7,12.3
		C188.6,109.9,175.9,122.1,175.9,122.1z"/>
	<path class="st2" d="M125.1,115.6c0,0-12.7-12.1-12.7-27.6c0-6.8,5.7-12.3,12.7-12.3c7,0,12.7,5.5,12.7,12.3
		C137.8,103.5,125.1,115.6,125.1,115.6z"/>
	<path class="st2" d="M125.1,110.5c0,0-10.2-9.7-10.2-22.1c0-5.4,4.5-9.8,10.2-9.8s10.2,4.4,10.2,9.8
		C135.3,100.8,125.1,110.5,125.1,110.5z"/>
	<path class="st2" d="M150.5,116.1c0,0-12.7-12.1-12.7-27.6c0-6.8,5.7-12.3,12.7-12.3s12.7,5.5,12.7,12.3
		C163.2,104,150.5,116.1,150.5,116.1z"/>
	<path class="st2" d="M201.3,112.5c0,0-12.7-12.1-12.7-27.6c0-6.8,5.7-12.3,12.7-12.3V112.5z"/>
	<path class="st2" d="M99.7,112.5c0,0,12.7-12.1,12.7-27.6c0-6.8-5.7-12.3-12.7-12.3V112.5z"/>
	<path class="st2" d="M99.7,75.5c5.6,0,10.2,4.4,10.2,9.8c0,12.4-10.2,22.1-10.2,22.1V75.5z"/>
	<path class="st2" d="M150.5,111c0,0-10.2-9.7-10.2-22.1c0-5.4,4.5-9.8,10.2-9.8s10.2,4.4,10.2,9.8C160.7,101.3,150.5,111,150.5,111
		z"/>
	<path class="st2" d="M201.3,107.4c0,0-10.2-9.7-10.2-22.1c0-5.4,4.5-9.8,10.2-9.8V107.4z"/>
	<g>
		<path class="st3" d="M163,165.9c3.4,3.9,7.4,7.4,11.9,10.1c4.8-2.7,9.2-6.2,12.9-10.3c-7.7-8.9-12.3-20.6-12.3-33.4
			C175.5,145.2,170.8,156.9,163,165.9z"/>
		<path class="st3" d="M138,165.9c3.6,4.1,7.8,7.6,12.5,10.4c4.7-2.8,8.9-6.3,12.5-10.4c-7.8-9-12.5-20.7-12.5-33.6
			C150.5,145.2,145.8,156.9,138,165.9z"/>
		<path class="st3" d="M138,165.9c-7.8-9-12.5-20.7-12.5-33.6c0,12.8-4.6,24.4-12.3,33.4c3.7,4.1,8,7.6,12.9,10.3
			C130.6,173.2,134.6,169.8,138,165.9z"/>
		<path class="st3" d="M163,165.9c-3.6,4.1-7.8,7.6-12.5,10.4c3.4,2,6.9,3.6,10.7,4.7c4.9-1,9.4-2.7,13.7-5
			C170.4,173.2,166.4,169.8,163,165.9z"/>
		<path class="st3" d="M139.8,181c3.1,0.6,6.3,1,9.6,1h2.2c3.3,0,6.5-0.3,9.6-1c-3.8-1.1-7.4-2.7-10.7-4.7
			C147.2,178.2,143.6,179.8,139.8,181z"/>
		<path class="st3" d="M138,165.9c-3.4,3.9-7.4,7.4-11.9,10.1c4.2,2.3,8.8,4,13.7,5c3.8-1.1,7.4-2.7,10.7-4.7
			C145.8,173.5,141.6,170,138,165.9z"/>
	</g>
	<path class="st1" d="M127,92.4c1.5-0.7,2.6-2.2,2.6-4c0-0.8-0.2-1.6-0.6-2.2c-0.8,1.3-2.2,2.2-3.8,2.2c-1.6,0-3-0.9-3.8-2.2
		c-0.4,0.7-0.6,1.4-0.6,2.2c0,1.8,1.1,3.3,2.6,4c-1.5,0.7-2.6,2.2-2.6,4c0,2.4,2,4.4,4.4,4.4c2.4,0,4.4-2,4.4-4.4
		C129.6,94.6,128.6,93,127,92.4z"/>
	<path class="st2" d="M175.9,115.6c0,0-12.7-12.1-12.7-27.6c0-6.8,5.7-12.3,12.7-12.3s12.7,5.5,12.7,12.3
		C188.6,103.5,175.9,115.6,175.9,115.6z"/>
	<path class="st2" d="M175.9,110.5c0,0-10.2-9.7-10.2-22.1c0-5.4,4.5-9.8,10.2-9.8c5.6,0,10.2,4.4,10.2,9.8
		C186.1,100.8,175.9,110.5,175.9,110.5z"/>
	<path class="st1" d="M177.8,92.4c1.5-0.7,2.6-2.2,2.6-4c0-0.8-0.2-1.6-0.6-2.2c-0.8,1.3-2.2,2.2-3.8,2.2c-1.6,0-3-0.9-3.8-2.2
		c-0.4,0.7-0.6,1.4-0.6,2.2c0,1.8,1.1,3.3,2.6,4c-1.5,0.7-2.6,2.2-2.6,4c0,2.4,2,4.4,4.4,4.4c2.4,0,4.4-2,4.4-4.4
		C180.4,94.6,179.3,93,177.8,92.4z"/>
	<path class="st1" d="M152.3,92.8c1.5-0.7,2.6-2.2,2.6-4c0-0.8-0.2-1.6-0.6-2.2c-0.8,1.3-2.2,2.2-3.8,2.2c-1.6,0-3-0.9-3.8-2.2
		c-0.4,0.7-0.6,1.4-0.6,2.2c0,1.8,1.1,3.3,2.6,4c-1.5,0.7-2.6,2.2-2.6,4c0,2.4,2,4.4,4.4,4.4c2.4,0,4.4-2,4.4-4.4
		C154.9,95.1,153.9,93.5,152.3,92.8z"/>
	<g>
		<path class="st1" d="M197.5,83c-0.4,0.7-0.6,1.4-0.6,2.2c0,1.8,1.1,3.3,2.6,4c-1.5,0.7-2.6,2.2-2.6,4c0,2.4,2,4.4,4.4,4.4V85.2
			C199.7,85.2,198.2,84.3,197.5,83z"/>
	</g>
	<path class="st1" d="M101.5,89.2c1.5-0.7,2.6-2.2,2.6-4c0-0.8-0.2-1.6-0.6-2.2c-0.8,1.3-2.2,2.2-3.8,2.2v12.4c2.4,0,4.4-2,4.4-4.4
		C104.1,91.4,103.1,89.9,101.5,89.2z"/>
	<circle class="st5" cx="125.1" cy="132.4" r="2.7"/>
	<circle class="st5" cx="99.7" cy="129.3" r="2.7"/>
	<circle class="st5" cx="201.3" cy="129.3" r="2.7"/>
	<circle class="st5" cx="150.5" cy="132.9" r="2.7"/>
	<circle class="st5" cx="175.9" cy="132.4" r="2.7"/>
	<g>
		<path class="st5" d="M150.5,240.4c-9.9,0-13.6-3.5-14.2-4.2c-1.2-1.3-1.1-3.2,0.2-4.4c1.2-1.1,3.2-1.1,4.3,0.1
			c0.2,0.2,2.7,2.2,9.7,2.2c7.2,0,9.7-2.2,9.7-2.2c1.2-1.3,3.1-1.3,4.4-0.1c1.3,1.2,1.3,3.2,0.1,4.4
			C164,236.9,160.4,240.4,150.5,240.4z"/>
	</g>
	<path class="st0" d="M99.7,242.3v4.8c0,5.5,22.7,9.9,50.8,9.9s50.8-4.4,50.8-9.9v-4.8"/>
</g>
</svg>
