<?xml version="1.0" encoding="utf-8"?>
<!-- Generator: Adobe Illustrator 26.3.1, SVG Export Plug-In . SVG Version: 6.00 Build 0)  -->
<svg version="1.1" id="레이어_1" xmlns="http://www.w3.org/2000/svg" xmlns:xlink="http://www.w3.org/1999/xlink" x="0px"
	 y="0px" viewBox="0 0 300 300" style="enable-background:new 0 0 300 300;" xml:space="preserve">
<style type="text/css">
	.st0{fill:#E9BC00;}
	.st1{fill:#388684;stroke:#E9BC00;stroke-width:3;stroke-miterlimit:10;}
	.st2{fill:#388684;stroke:#E9BC00;stroke-width:3;stroke-linecap:round;stroke-linejoin:round;stroke-miterlimit:10;}
</style>
<g>
	<path class="st0" d="M40.3,277.1c-4.7,0-9-1.8-12.3-5.1c-6.7-6.7-6.8-16.4-0.5-26.6c2.3-4.6,46.7-93,65.5-111.8
		c9.8-9.8,22.8-15.2,36.7-15.2c14.5,0,28-7.2,36.1-19.2c0.4-0.8,0.9-1.7,1.4-2.5c1.8-2.8,3.6-7.4,4.9-12.1c0.7-3.2,1.1-6.4,1.1-9.7
		c0-13.9,5.4-26.9,15.2-36.7c9.8-9.8,22.9-15.2,36.7-15.2c13.9,0,26.9,5.4,36.7,15.2c9.8,9.8,15.2,22.9,15.2,36.7
		c0,13.8-5.4,26.9-15.2,36.7c-9.8,9.8-22.9,15.2-36.7,15.2c-3.3,0-6.6,0.4-9.9,1.2c-4.5,1.2-9,3.1-11.9,4.8c-0.9,0.5-1.7,1-2.6,1.4
		c-12,8.1-19.2,21.6-19.2,36.1c0,13.8-5.4,26.8-15.1,36.7c-15.5,15.5-76,47.4-110.8,65l-1,0.5C49.7,275.5,44.9,277.1,40.3,277.1z
		 M218.4,102.8c-0.2,0-0.3,0.1-0.5,0.2c-0.1,0.1-0.1,0.1-0.1,0.1c0,0.8,1.7,2.5,7.9,3.5c0.9,0.1,1.8,0.2,2.7,0.2
		c7.9,0,14.8-5.5,18.2-8.7c5.2-5,8.6-11.1,9.7-17.7c1.8-10.3-1.4-20.6-8.8-28.1c-6-6-13.9-9.2-22.4-9.2c-1.9,0-3.8,0.2-5.7,0.5
		c-6.7,1.1-12.8,4.5-17.7,9.7c-3.8,4-10,12-8.5,21c1,6.1,2.6,7.7,3.4,7.8c0.1,0,0.1,0,0.1-0.1c0.1-0.1,0.2-0.3,0.2-0.5
		c-0.3-3.9,0.3-7.7,2-11.3c3.7-8.2,11.6-13.7,20.3-14.1c0.4,0,0.7,0,1,0c6.2,0,12.1,2.4,16.5,6.8c4.6,4.5,7.1,10.9,6.8,17.5
		c-0.4,8.6-5.9,16.6-14.1,20.3c-3,1.4-6.1,2-9.3,2C219.7,102.9,219.1,102.9,218.4,102.8L218.4,102.8z"/>
	<path class="st0" d="M225.2,24.4c13.5,0,26.2,5.2,35.6,14.7c9.5,9.5,14.8,22.2,14.8,35.6c0,13.4-5.3,26.1-14.8,35.6
		c-9.5,9.5-22.2,14.8-35.6,14.8c-3.5,0-7,0.4-10.3,1.2c-4.6,1.3-9.3,3.2-12.3,5c-0.8,0.5-1.7,1-2.5,1.4c-12,8.1-20,21.8-20,37.4
		c0,13.4-5.2,26.1-14.7,35.6C150,221.3,89.6,253,55,270.6l-1.1,0.6c-4.8,2.9-9.4,4.4-13.6,4.4c-4.3,0-8.2-1.6-11.3-4.7
		c-6.1-6.1-6.2-15.2-0.2-24.8c2.3-4.6,46.5-92.8,65.3-111.5c9.5-9.5,22.1-14.7,35.6-14.7c15.6,0,29.3-7.9,37.4-20
		c0.4-0.9,0.9-1.7,1.4-2.5c2.2-3.5,4-8.6,5.1-12.5c0.7-3.2,1.1-6.6,1.1-10.1c0-13.5,5.2-26.2,14.7-35.6
		C199,29.7,211.7,24.4,225.2,24.4 M196.9,83.6c0.6,0,1-0.3,1.2-0.5c0.4-0.4,0.6-1.1,0.6-1.7c-0.3-3.6,0.3-7.2,1.8-10.5
		c3.5-7.7,10.9-12.8,19-13.2c0.3,0,0.7,0,1,0c5.8,0,11.3,2.3,15.4,6.4c4.3,4.2,6.7,10.2,6.4,16.4c-0.4,8.1-5.5,15.5-13.2,19
		c-2.8,1.3-5.7,1.9-8.7,1.9c-0.6,0-1.2,0-1.8-0.1c-0.1,0-0.1,0-0.2,0c-0.6,0-1.1,0.2-1.5,0.6c-0.3,0.2-0.5,0.7-0.5,1.3v0
		c0.1,2.2,3.3,3.9,9.1,5c1,0.2,2,0.2,3,0.2c8.3,0,15.5-5.5,19.3-9.1c5.5-5.2,9-11.6,10.2-18.5c1.9-10.8-1.4-21.5-9.2-29.4
		c-6.3-6.3-14.6-9.7-23.4-9.7c-2,0-3.9,0.2-5.9,0.5c-7,1.2-13.4,4.7-18.5,10.2c-4,4.2-10.5,12.6-8.9,22.3
		C192.9,80.3,194.7,83.6,196.9,83.6C196.8,83.6,196.9,83.6,196.9,83.6 M225.2,21.4c-14.2,0-27.7,5.6-37.8,15.7
		c-10.1,10.1-15.6,23.5-15.6,37.8c0,3.1-0.4,6.3-1.1,9.3c-1.2,4.6-3,8.9-4.7,11.6c-0.5,0.9-1,1.7-1.5,2.6
		c-7.9,11.6-20.9,18.5-34.8,18.5c-14.3,0-27.7,5.5-37.8,15.6c-8,8-21.2,28.8-39.3,61.7c-13.5,24.6-24.9,47.3-26.5,50.4
		c-6.6,10.7-6.3,21.3,0.8,28.4c3.6,3.6,8.3,5.5,13.4,5.5c4.8,0,9.8-1.6,15-4.8l1-0.5c34.8-17.7,95.5-49.6,111.1-65.3
		c10.1-10.1,15.6-23.6,15.6-37.8c0-14,6.9-27,18.5-34.8c0.8-0.4,1.7-0.9,2.6-1.5c2.7-1.7,7.1-3.5,11.5-4.7c3.1-0.7,6.3-1.1,9.5-1.1
		c14.2,0,27.7-5.6,37.8-15.7c10.1-10.1,15.7-23.5,15.7-37.8c0-14.2-5.6-27.7-15.7-37.8C252.9,26.9,239.4,21.4,225.2,21.4L225.2,21.4
		z M195.7,77.5c-0.3-0.9-0.5-2-0.8-3.4c-1.4-8.4,4.5-15.9,8.1-19.7c4.7-5,10.5-8.2,16.9-9.3c1.8-0.3,3.6-0.5,5.4-0.5
		c8.1,0,15.6,3.1,21.3,8.8c7.1,7.1,10.1,16.9,8.4,26.7c-1.1,6.3-4.3,12.1-9.3,16.9c-3.3,3.1-9.9,8.3-17.2,8.3
		c-0.8,0-1.7-0.1-2.5-0.2c-1.5-0.3-2.7-0.6-3.6-0.9c2.7-0.2,5.4-0.9,7.9-2.1c8.7-3.9,14.6-12.4,15-21.6c0.3-7.1-2.4-13.9-7.3-18.7
		c-4.7-4.7-10.9-7.3-17.5-7.3c-0.4,0-0.7,0-1.1,0c-9.2,0.4-17.7,6.3-21.6,15C196.6,72.2,195.9,74.9,195.7,77.5L195.7,77.5z"/>
</g>
<g>
	<path class="st1" d="M178.6,170.3c0-25.7,20.8-46.6,46.6-46.6c13.1,0,25.3-5.1,34.6-14.4c9.3-9.3,14.4-21.5,14.4-34.6
		c0-13.5-5.4-25.7-14.4-34.6c-8.8-8.8-21.1-14.3-34.6-14.3c-13.1,0-25.3,5.1-34.6,14.4c-9.2,9.2-14.3,21.5-14.3,34.6
		c0,25.7-20.8,46.6-46.6,46.6l0,0c-12.5,0-25.1,4.8-34.6,14.3c-18,18-60,101.1-65,111.1c-4.8,7.6-6.4,16.7,0,23s15.4,4.8,23,0
		c10-5.1,93.1-47,111.1-65C173.8,195.3,178.6,182.8,178.6,170.3L178.6,170.3z M214.9,103.2c-0.1-2,1.8-3.6,3.8-3.4
		c3.1,0.3,6.4-0.2,9.8-1.7c7-3.1,12-10,12.3-17.7c0.3-5.9-2-11.5-5.9-15.3c-3.9-3.9-9.3-6.2-15.3-5.9c-7.6,0.3-14.5,5.4-17.7,12.3
		c-1.5,3.4-2,6.7-1.7,9.8c0.2,2-1.4,3.9-3.4,3.8c-2.3-0.1-4.9-2.2-6.3-10.3c-1.4-8.7,3.1-17.2,9.3-23.5c5.2-5.5,11.9-9.3,19.4-10.6
		c12-2,23.1,2,30.7,9.6c7.6,7.6,11.7,18.7,9.6,30.7c-1.3,7.5-5.1,14.1-10.6,19.4c-6.5,6.1-14.9,10.7-23.5,9.3
		C217.1,108.2,214.9,105.5,214.9,103.2z"/>
	<path class="st2" d="M216.4,124.5c-4.8,1.1-10.7,3.2-14.6,5.7c-4.9,3.1-10.5,5.3-16.7-0.9c-4.4-4.4-3.4-11,1.3-15.6
		c-4.7,4.7-11.2,5.7-15.6,1.3c-6.2-6.2-4-11.8-0.9-16.7c2.5-3.9,4.6-9.9,5.7-14.6"/>
	<path class="st2" d="M91.1,173.9c0-11.2,4.6-21.4,11.9-28.8c14.4-14.4,37.6-14.4,51.8,0c14.3,14.4,14.4,37.6,0,51.8
		c-12.7,12.7-33.4,12.7-46.1,0s-12.7-33.4,0-46.1c11.1-11.1,29.2-11.1,40.4,0c11.1,11.1,11.1,29.2,0,40.4c-9.5,9.5-25,9.5-34.6,0
		c-9.5-9.5-9.5-25,0-34.6c8-8,20.8-8,28.8,0c8,8,8,20.8,0,28.8c-6.4,6.4-16.7,6.4-23,0c-6.4-6.4-6.4-16.7,0-23
		c4.8-4.8,12.5-4.8,17.3,0s4.8,12.5,0,17.3c-3.1,3.1-8.3,3.1-11.6,0c-3.2-3.1-3.1-8.3,0-11.6c1.6-1.6,4.2-1.6,5.8,0
		c1.6,1.6,1.6,4.2,0,5.8"/>
	<path class="st2" d="M106.8,209.5c-0.6,1.1-1.3,2.2-2.2,3.1c-4.8,4.8-12.5,4.8-17.3,0c-4.8-4.8-4.8-12.5,0-17.3
		c0.9-0.9,2-1.6,3.1-2.2c-4.2,0-8.3,1.6-11.5,4.8c-6.4,6.4-6.4,16.7,0,23s16.7,6.4,23,0C105.2,217.8,106.8,213.6,106.8,209.5z"/>
	<path class="st2" d="M70.4,235.4c-1.6,1.6-4.2,1.6-5.8,0c-1.6-1.6-1.6-4.2,0-5.8c1.6-1.6,10.8-5,10.8-5S72,233.8,70.4,235.4z"/>
	<g>
		<path class="st2" d="M64.1,221.8c-1.6,1.6-4.2,1.6-5.8,0c-1.6-1.6-1.6-4.2,0-5.8c1.6-1.6,10.8-5,10.8-5S65.7,220.2,64.1,221.8z"/>
		<path class="st2" d="M83.9,241.6c-1.6,1.6-4.2,1.6-5.8,0c-1.6-1.6-1.6-4.2,0-5.8c1.6-1.6,10.8-5,10.8-5S85.5,240,83.9,241.6z"/>
	</g>
</g>
</svg>
