<?xml version="1.0" encoding="utf-8"?>
<!-- Generator: Adobe Illustrator 26.3.1, SVG Export Plug-In . SVG Version: 6.00 Build 0)  -->
<svg version="1.1" id="레이어_1" xmlns="http://www.w3.org/2000/svg" xmlns:xlink="http://www.w3.org/1999/xlink" x="0px"
	 y="0px" viewBox="0 0 300 300" style="enable-background:new 0 0 300 300;" xml:space="preserve">
<style type="text/css">
	.st0{fill:#FFFFFF;stroke:#000000;stroke-width:3;stroke-miterlimit:10;}
	.st1{fill:#FFFFFF;stroke:#000000;stroke-width:3;stroke-linecap:round;stroke-linejoin:round;stroke-miterlimit:10;}
</style>
<g>
	<path class="st0" d="M181.7,173.9c0-30.3,24.5-54.8,54.8-54.8c15.4,0,29.8-6,40.7-16.9c10.9-10.9,16.9-25.3,16.9-40.7
		c0-15.9-6.4-30.2-16.9-40.7C266.8,10.4,252.4,4,236.5,4c-15.4,0-29.8,6-40.7,16.9C185,31.7,179,46.2,179,61.6
		c0,30.3-24.5,54.8-54.8,54.8l0,0c-14.7,0-29.5,5.6-40.7,16.8C62.3,154.4,12.9,252.2,7,264c-5.6,9-7.5,19.6,0,27.1
		c7.5,7.5,18.1,5.6,27.1,0c11.8-6,109.6-55.3,130.8-76.5C176.1,203.3,181.7,188.6,181.7,173.9L181.7,173.9z M224.4,95
		c-0.1-2.4,2.1-4.2,4.5-4c3.6,0.3,7.5-0.2,11.5-2c8.2-3.7,14.1-11.8,14.5-20.8c0.3-7-2.4-13.5-7-18c-4.6-4.6-11-7.3-18-7
		c-9,0.4-17.1,6.3-20.8,14.5c-1.8,4-2.3,7.9-2,11.5c0.2,2.4-1.6,4.6-4,4.5c-2.7-0.1-5.8-2.6-7.4-12.1c-1.7-10.2,3.7-20.2,10.9-27.7
		c6.1-6.5,14-11,22.8-12.5c14.1-2.4,27.2,2.4,36.1,11.3c8.9,9,13.8,22,11.3,36.1c-1.5,8.8-6,16.6-12.5,22.8
		c-7.6,7.2-17.5,12.6-27.7,10.9C227,100.8,224.5,97.7,224.4,95z"/>
	<path class="st1" d="M226.2,120c-5.6,1.3-12.6,3.8-17.2,6.7c-5.8,3.6-12.4,6.2-19.7-1.1c-5.2-5.2-4-12.9,1.5-18.3
		c-5.5,5.5-13.2,6.7-18.3,1.5c-7.3-7.3-4.7-13.9-1.1-19.7c2.9-4.6,5.4-11.7,6.7-17.2"/>
	<path class="st1" d="M78.8,178.1c0-13.2,5.4-25.2,14-33.9c16.9-16.9,44.2-16.9,61,0s16.9,44.2,0,61c-15,15-39.3,15-54.2,0
		s-15-39.3,0-54.2c13.1-13.1,34.4-13.1,47.5,0c13.1,13.1,13.1,34.4,0,47.5c-11.2,11.2-29.4,11.2-40.7,0c-11.2-11.2-11.2-29.4,0-40.7
		c9.4-9.4,24.5-9.4,33.9,0c9.4,9.4,9.4,24.5,0,33.9c-7.5,7.5-19.6,7.5-27.1,0c-7.5-7.5-7.5-19.6,0-27.1c5.6-5.6,14.7-5.6,20.3,0
		c5.6,5.6,5.6,14.7,0,20.3c-3.7,3.7-9.8,3.7-13.6,0s-3.7-9.8,0-13.6c1.9-1.9,4.9-1.9,6.8,0c1.9,1.9,1.9,4.9,0,6.8"/>
	<path class="st1" d="M97.3,220c-0.7,1.3-1.5,2.6-2.6,3.7c-5.6,5.6-14.7,5.6-20.3,0c-5.6-5.6-5.6-14.7,0-20.3
		c1.1-1.1,2.4-1.9,3.7-2.6c-4.9,0-9.8,1.9-13.5,5.6c-7.5,7.5-7.5,19.6,0,27.1c7.5,7.5,19.6,7.5,27.1,0
		C95.4,229.8,97.3,224.9,97.3,220z"/>
	<path class="st1" d="M54.4,250.5c-1.9,1.9-4.9,1.9-6.8,0c-1.9-1.9-1.9-4.9,0-6.8c1.9-1.9,12.7-5.9,12.7-5.9S56.3,248.6,54.4,250.5z
		"/>
	<g>
		<path class="st1" d="M47,234.5c-1.9,1.9-4.9,1.9-6.8,0c-1.9-1.9-1.9-4.9,0-6.8s12.7-5.9,12.7-5.9S48.9,232.6,47,234.5z"/>
		<path class="st1" d="M70.3,257.8c-1.9,1.9-4.9,1.9-6.8,0c-1.9-1.9-1.9-4.9,0-6.8c1.9-1.9,12.7-5.9,12.7-5.9S72.2,255.9,70.3,257.8
			z"/>
	</g>
</g>
</svg>
