<?xml version="1.0" encoding="utf-8"?>
<!-- Generator: Adobe Illustrator 26.3.1, SVG Export Plug-In . SVG Version: 6.00 Build 0)  -->
<svg version="1.1" id="레이어_1" xmlns="http://www.w3.org/2000/svg" xmlns:xlink="http://www.w3.org/1999/xlink" x="0px"
	 y="0px" viewBox="0 0 300 300" style="enable-background:new 0 0 300 300;" xml:space="preserve">
<style type="text/css">
	.st0{fill:#E9BC00;}
	.st1{fill:#967905;stroke:#E9BC00;stroke-width:3;stroke-linecap:round;stroke-linejoin:round;stroke-miterlimit:10;}
	.st2{fill:#967905;stroke:#463219;stroke-width:3;stroke-linecap:round;stroke-linejoin:round;stroke-miterlimit:10;}
	.st3{fill:none;stroke:#463219;stroke-width:3;stroke-linecap:round;stroke-linejoin:round;stroke-miterlimit:10;}
	.st4{fill:none;stroke:#CC660A;stroke-width:6;stroke-linecap:round;stroke-linejoin:round;stroke-miterlimit:10;}
</style>
<g>
	<path class="st0" d="M109.1,60.6c-3.3-8.2-11.8-13.9-20.7-13.9C81.8,47.3,82.3,57,89,56.8c2.5-0.1,5.1,0.3,7.4,1.6
		c8.5,4.5,8.6,14.8,6,23.1c-2,6.7-6.4,12.4-12.1,16.4c10-11.6,4.5-31.7-12.9-34.9c-3.5-0.6-8.5-0.4-12-0.6
		c-5.7-0.2-17.1-0.5-22.7-0.7c-1.1,0-2.4,0-3.5-0.3C25.5,58.6,27,38.8,41.3,39.2c9.5-0.6,9.1-14.2-0.4-14.3
		C24,25.1,12.2,42.7,18.8,58.2c3.4,8.3,11.7,14.1,20.6,14.4c2.2,0.1,12.2-0.3,14.6-0.4c5.2-0.2,14.8-0.4,19.9-0.6
		c10.4-0.6,17.4,11,12.4,20.1c-2.1,4.1-6.5,7-11.1,7.5c0,0-2.8,0.2-2.8,0.2c-13.7,0.9-25.2,13.7-24.5,27.3c0.1,2.3,3.4,2.2,3.5,0
		c0.2-7.1,3.8-13.8,9.5-17.7c3.5-2.5,7.6-3.9,11.9-3.9c0.1,0,0.1,0,0.2,0c0,0,0,0,0,0c3.5,0.1,7.1-0.2,10.6-1
		c10.6-2.8,19.7-10.4,24.2-20.7C110.7,76.4,112.3,67.9,109.1,60.6z"/>
	<g>
		<g>
			<path class="st0" d="M33.8,276.6c-1.4,0-2.5-0.9-2.9-2.2l-2.1-7.7c-0.2-0.6-0.1-1.2,0.1-1.8l3.7-20.4c0.2-1.1,1.1-2.1,2.2-2.4
				L218,193c5.5-1.5,10.8-3.8,15.8-7l-1.3-0.4c-0.4,0.2-0.8,0.4-1.2,0.5c-0.4,0.1-0.8,0.2-1.2,0.2c-0.4,0-0.9-0.1-1.3-0.2l-179-54.4
				c-2.4-0.7-3.7-3.2-3-5.6c0.6-1.9,2.3-3.2,4.3-3.2c0.4,0,0.9,0.1,1.3,0.2l179,54.4c1.2,0.4,2.2,1.3,2.8,2.4l5.7,1.7
				c10.6-8.5,15.8-17.9,15.9-18c0.4-0.8,1.1-1.3,2-1.5c0.2,0,0.4-0.1,0.6-0.1c0.7,0,1.4,0.2,1.9,0.7l17.9,14.8
				c0.7,0.4,1.3,1.1,1.5,1.9l2.1,7.7c0.2,0.9,0,1.9-0.6,2.7c0,0-1.1,1.3-3.1,3.4l4.2,1.3c0.8,0.2,1.4,0.8,1.8,1.5
				c0.4,0.7,0.5,1.5,0.2,2.3c-0.3,1-1.1,1.8-2.1,2c-0.2,0.1-0.5,0.1-0.8,0.1c-0.3,0-0.6,0-0.9-0.1l-7.4-2.2
				c-8.6,7.9-25.8,21.4-48.4,27.4l-190.4,51C34.3,276.6,34.1,276.6,33.8,276.6z"/>
			<path class="st0" d="M51.2,124.5c0.3,0,0.6,0,0.9,0.1l179,54.4c1.1,0.3,1.8,1.2,2,2.2l7.2,2.2c11.2-8.8,16.8-18.8,16.9-19
				c0.2-0.4,0.6-0.7,1-0.8c0.1,0,0.2,0,0.3,0c0.3,0,0.7,0.1,1,0.3l18,14.9c0.4,0.2,0.7,0.5,0.9,1l2.1,7.7c0.1,0.5,0,1-0.3,1.3
				c-0.1,0.1-1.7,2.1-4.8,5.1l6.6,2c0.8,0.2,1.2,1.1,1,1.9c-0.2,0.5-0.6,0.9-1,1c-0.1,0-0.3,0.1-0.4,0.1c-0.1,0-0.3,0-0.4-0.1
				l-8.2-2.5c-9,8.4-26,21.7-48.4,27.7l-190.4,51c-0.1,0-0.3,0.1-0.4,0.1c-0.7,0-1.3-0.4-1.4-1.1l-2.1-7.7c-0.1-0.3,0-0.7,0.1-1
				l3.7-20.5c0.1-0.6,0.5-1,1.1-1.2l183.2-49.1c7.3-2,13.6-5.2,18.9-8.9l-5.1-1.5c-0.4,0.3-0.8,0.6-1.3,0.7
				c-0.2,0.1-0.5,0.1-0.8,0.1c-0.3,0-0.6,0-0.9-0.1l-179-54.4c-1.6-0.5-2.5-2.2-2-3.7C48.7,125.3,49.9,124.5,51.2,124.5 M51.2,121.5
				L51.2,121.5c-2.7,0-5,1.7-5.7,4.3c-0.5,1.5-0.3,3.2,0.4,4.6c0.8,1.4,2,2.4,3.5,2.9l178.8,54.3c-3.4,1.7-7,3.1-10.6,4.1
				L34.4,240.7c-1.7,0.4-3,1.8-3.3,3.5l-3.7,20.2c-0.3,0.8-0.3,1.7-0.1,2.6l2.1,7.7c0.5,2,2.3,3.3,4.3,3.3c0.4,0,0.8-0.1,1.2-0.2
				l190.4-51c22.4-6,39.5-19.1,48.4-27.2l6.5,2c0.4,0.1,0.9,0.2,1.3,0.2c0.4,0,0.8-0.1,1.2-0.2c1.5-0.4,2.7-1.5,3.1-3
				c0.3-1.1,0.2-2.4-0.3-3.4c-0.6-1.1-1.5-1.8-2.7-2.2l-1.9-0.6c1-1.1,1.5-1.7,1.5-1.7c0.9-1.1,1.2-2.6,0.9-4l-2.1-7.7
				c-0.3-1.2-1.1-2.1-2.1-2.7l-17.8-14.7c-0.8-0.7-1.8-1-2.9-1c-0.3,0-0.6,0-0.8,0.1l0,0l0,0c-1.3,0.3-2.4,1.1-3,2.2
				c0,0.1-5.1,9-14.9,17.1l-4.4-1.3c-0.8-1.2-1.9-2.2-3.3-2.6l-179-54.4C52.3,121.6,51.8,121.5,51.2,121.5L51.2,121.5z"/>
		</g>
		<g>
			<path class="st1" d="M31.8,265.2c0,0,156.5-41.9,190.4-51s54.8-34.6,54.8-34.6l-18.4-15.3c0,0-12.9,23.7-39.7,30.9
				S35.6,244.3,35.6,244.3L31.8,265.2z"/>
			<g>
				<path class="st0" d="M260.4,179.7c0.4-0.6,0.5-1.2,0.4-1.9c-0.1-0.5-0.4-1-0.9-1.4l0,0c-0.5-0.3-0.6-1-0.3-1.5
					c0.3-0.5,1-0.6,1.5-0.3c0.5,0.3,0.7,1,0.4,1.5c-0.3,0.5-1,0.7-1.5,0.3c0.5,0.3,0.8,0.8,1,1.4c0.6-0.1,1.2-0.5,1.6-1.1
					c0.7-1.1,0.4-2.6-0.7-3.2l0,0l0,0l0,0l0,0l0,0c-1.1-0.6-2.5-0.3-3.1,0.7c-0.4,0.5-0.4,1.2-0.3,1.8c0.1,0.5,0.4,1,0.9,1.4l0,0
					c0.5,0.3,0.6,1,0.2,1.5c-0.4,0.5-1,0.6-1.5,0.2c-0.5-0.4-0.6-1-0.3-1.5c0.3-0.5,1-0.6,1.5-0.3c-0.5-0.3-0.8-0.8-0.9-1.4
					c-0.6,0.1-1.2,0.4-1.6,0.9c-0.7,1-0.5,2.4,0.5,3.2l0,0l0,0l0,0l0,0l0,0C258.2,181,259.7,180.8,260.4,179.7z"/>
				<path class="st0" d="M255.2,186.1c0.5-0.5,0.7-1.2,0.6-1.8c-0.1-0.6-0.3-1.1-0.8-1.5l0,0c-0.5-0.4-0.5-1.1-0.1-1.5
					c0.4-0.5,1.1-0.5,1.5-0.1c0.5,0.4,0.5,1.1,0.2,1.5c-0.4,0.5-1.1,0.6-1.6,0.2c0.5,0.4,0.7,0.9,0.8,1.5c0.6,0,1.3-0.3,1.7-0.9
					c0.8-1,0.6-2.5-0.4-3.2l0,0l0,0l0,0l0,0l0,0c-1-0.8-2.4-0.6-3.2,0.3c-0.4,0.5-0.6,1.1-0.5,1.8c0.1,0.6,0.3,1.1,0.8,1.5l0,0
					c0.5,0.4,0.5,1.1,0.1,1.6c-0.4,0.5-1.1,0.5-1.6,0.1c-0.4-0.4-0.5-1.1-0.1-1.5c0.4-0.4,1.1-0.5,1.6-0.1c-0.5-0.4-0.7-0.9-0.8-1.5
					c-0.6,0-1.2,0.3-1.7,0.8c-0.8,0.9-0.7,2.3,0.2,3.2l0,0l0,0l0,0l0,0l0,0C252.9,187.2,254.3,187.1,255.2,186.1z"/>
				<path class="st0" d="M249.3,191.9c0.5-0.5,0.8-1.1,0.8-1.7c0-0.6-0.2-1.1-0.6-1.5l0,0c-0.4-0.4-0.4-1.1,0-1.6
					c0.4-0.4,1.1-0.4,1.5,0c0.4,0.4,0.4,1.1,0,1.6c-0.4,0.4-1.1,0.4-1.6,0c0.4,0.4,0.6,1,0.6,1.5c0.6,0.1,1.3-0.2,1.8-0.7
					c0.9-0.9,0.9-2.4,0-3.2l0,0l0,0l0,0l0,0l0,0c-0.9-0.9-2.4-0.9-3.2,0c-0.5,0.5-0.7,1.1-0.7,1.7c0,0.5,0.2,1.1,0.6,1.5l0,0
					c0.4,0.4,0.4,1.1-0.1,1.6c-0.5,0.4-1.2,0.4-1.5-0.1c-0.4-0.5-0.4-1.2,0.1-1.6c0.4-0.4,1.1-0.4,1.6,0.1c-0.4-0.4-0.6-1-0.6-1.5
					c-0.6-0.1-1.3,0.1-1.7,0.6c-0.9,0.8-1,2.3-0.2,3.2l0,0l0,0l0,0l0,0l0,0C246.9,192.7,248.3,192.8,249.3,191.9z"/>
				<path class="st0" d="M242.8,197c0.6-0.4,0.9-1,1-1.6c0.1-0.5-0.1-1.1-0.4-1.6l0,0c-0.4-0.5-0.3-1.2,0.2-1.6
					c0.5-0.4,1.2-0.3,1.5,0.2c0.4,0.5,0.3,1.2-0.2,1.6c-0.5,0.4-1.2,0.3-1.5-0.2c0.4,0.5,0.5,1,0.5,1.6c0.6,0.1,1.3-0.1,1.8-0.5
					c1-0.8,1.2-2.3,0.4-3.2l0,0l0,0l0,0l0,0l0,0c-0.8-0.9-2.2-1.1-3.2-0.4c-0.5,0.4-0.8,1-0.9,1.6c-0.1,0.5,0.1,1.1,0.4,1.6l0,0
					c0.4,0.5,0.2,1.2-0.3,1.5c-0.5,0.4-1.2,0.2-1.5-0.3c-0.3-0.5-0.2-1.2,0.3-1.5c0.5-0.3,1.2-0.2,1.5,0.2c-0.4-0.5-0.5-1-0.5-1.6
					c-0.6-0.1-1.3,0-1.8,0.4c-1,0.7-1.2,2.1-0.5,3.2l0,0l0,0l0,0l0,0l0,0C240.3,197.5,241.7,197.8,242.8,197z"/>
				<path class="st0" d="M235.7,201.4c0.6-0.3,1.1-0.8,1.2-1.5c0.1-0.6,0.1-1.1-0.2-1.7l0,0c-0.3-0.5-0.1-1.2,0.4-1.5
					c0.5-0.3,1.2-0.1,1.5,0.4c0.3,0.5,0.2,1.2-0.4,1.5c-0.5,0.3-1.2,0.2-1.5-0.4c0.3,0.5,0.4,1.1,0.3,1.7c0.6,0.2,1.3,0.1,1.9-0.3
					c1.1-0.7,1.4-2.1,0.8-3.1l0,0l0,0l0,0l0,0l0,0c-0.7-1-2.1-1.4-3.1-0.8c-0.6,0.3-0.9,0.9-1,1.5c-0.1,0.6,0,1.1,0.2,1.6l0,0
					c0.3,0.5,0.1,1.2-0.5,1.5c-0.6,0.3-1.2,0.1-1.5-0.5c-0.3-0.5-0.1-1.2,0.4-1.5c0.5-0.3,1.2-0.1,1.5,0.5c-0.3-0.5-0.4-1.1-0.3-1.6
					c-0.6-0.2-1.2-0.2-1.8,0.1c-1.1,0.6-1.5,1.9-0.9,3.1l0,0l0,0l0,0l0,0l0,0C233.1,201.5,234.5,202,235.7,201.4z"/>
				<path class="st0" d="M228.1,204.8c0.7-0.3,1.1-0.8,1.4-1.4c0.2-0.5,0.2-1.1,0-1.7l0,0c-0.2-0.6,0-1.2,0.6-1.4
					c0.5-0.2,1.2,0,1.5,0.6c0.3,0.5,0,1.2-0.6,1.4c-0.6,0.2-1.2,0-1.5-0.6c0.2,0.5,0.2,1.1,0,1.7c0.6,0.3,1.3,0.3,1.9,0
					c1.2-0.5,1.7-1.9,1.1-3.1l0,0l0,0l0,0l0,0l0,0c-0.6-1.1-1.9-1.5-3-1.1c-0.6,0.2-1,0.7-1.2,1.3c-0.2,0.5-0.2,1.1,0,1.7l0,0
					c0.2,0.6-0.1,1.2-0.6,1.5c-0.6,0.2-1.2-0.1-1.4-0.7c-0.2-0.6,0.1-1.2,0.6-1.4c0.5-0.2,1.2,0,1.4,0.6c-0.2-0.6-0.2-1.1,0-1.7
					c-0.6-0.3-1.2-0.3-1.8,0c-1.1,0.4-1.7,1.7-1.4,2.9l0,0l0,0l0,0l0,0l0,0C225.5,204.5,226.9,205.2,228.1,204.8z"/>
				<path class="st0" d="M220.2,207.2c0.7-0.2,1.2-0.6,1.5-1.2c0.3-0.5,0.3-1.1,0.2-1.7l0,0c-0.2-0.6,0.2-1.2,0.8-1.4
					c0.6-0.2,1.2,0.1,1.3,0.7c0.2,0.6-0.1,1.2-0.7,1.4c-0.6,0.2-1.2-0.1-1.4-0.7c0.2,0.6,0.1,1.2-0.2,1.7c0.5,0.3,1.2,0.4,1.9,0.2
					c1.2-0.4,1.9-1.7,1.5-2.9l0,0l0,0l0,0l0,0l0,0c-0.4-1.2-1.7-1.9-2.8-1.5c-0.6,0.2-1.1,0.6-1.4,1.2c-0.3,0.5-0.3,1.1-0.2,1.7l0,0
					c0.2,0.6-0.2,1.2-0.8,1.4c-0.6,0.2-1.2-0.2-1.3-0.8c-0.2-0.6,0.2-1.2,0.8-1.4c0.6-0.2,1.2,0.2,1.4,0.8c-0.2-0.6-0.1-1.2,0.2-1.7
					c-0.5-0.3-1.2-0.4-1.8-0.3c-1.2,0.3-1.9,1.6-1.6,2.8l0,0l0,0l0,0l0,0l0,0C217.7,206.8,219,207.5,220.2,207.2z"/>
				<path class="st0" d="M212.5,209.2c0.7-0.2,1.2-0.6,1.5-1.2c0.3-0.5,0.3-1.1,0.2-1.7l0,0c-0.2-0.6,0.2-1.2,0.8-1.4
					c0.6-0.2,1.2,0.2,1.3,0.8c0.2,0.6-0.2,1.2-0.8,1.4c-0.6,0.2-1.2-0.2-1.4-0.8c0.2,0.6,0.1,1.2-0.2,1.7c0.5,0.3,1.2,0.4,1.8,0.3
					c1.2-0.3,1.9-1.6,1.6-2.8l0,0l0,0l0,0l0,0l0,0c-0.3-1.2-1.6-1.9-2.8-1.6c-0.7,0.2-1.2,0.6-1.5,1.2c-0.3,0.5-0.3,1.1-0.2,1.7l0,0
					c0.2,0.6-0.2,1.2-0.8,1.4c-0.6,0.2-1.2-0.2-1.3-0.8c-0.2-0.6,0.2-1.2,0.8-1.4c0.6-0.2,1.2,0.2,1.4,0.8c-0.2-0.6-0.1-1.2,0.2-1.7
					c-0.5-0.3-1.2-0.4-1.8-0.3c-1.2,0.3-1.9,1.6-1.6,2.8l0,0l0,0l0,0l0,0l0,0C210,208.8,211.2,209.6,212.5,209.2z"/>
				<path class="st0" d="M204.7,211.3c0.7-0.2,1.2-0.6,1.5-1.2c0.3-0.5,0.3-1.1,0.2-1.7l0,0c-0.2-0.6,0.2-1.2,0.8-1.4
					c0.6-0.2,1.2,0.2,1.3,0.8c0.2,0.6-0.2,1.2-0.8,1.4c-0.6,0.2-1.2-0.2-1.4-0.8c0.2,0.6,0.1,1.2-0.2,1.7c0.5,0.3,1.2,0.4,1.8,0.3
					c1.2-0.3,1.9-1.6,1.6-2.8l0,0l0,0l0,0l0,0l0,0c-0.3-1.2-1.6-1.9-2.8-1.6c-0.7,0.2-1.2,0.6-1.5,1.2c-0.3,0.5-0.3,1.1-0.2,1.7l0,0
					c0.2,0.6-0.2,1.2-0.8,1.4c-0.6,0.2-1.2-0.2-1.3-0.8c-0.2-0.6,0.2-1.2,0.8-1.4c0.6-0.2,1.2,0.2,1.4,0.8c-0.2-0.6-0.1-1.2,0.2-1.7
					c-0.5-0.3-1.2-0.4-1.8-0.3c-1.2,0.3-1.9,1.6-1.6,2.8l0,0l0,0l0,0l0,0l0,0C202.2,210.9,203.5,211.6,204.7,211.3z"/>
				<path class="st0" d="M197,213.4c0.7-0.2,1.2-0.6,1.5-1.2c0.3-0.5,0.3-1.1,0.2-1.7l0,0c-0.2-0.6,0.2-1.2,0.8-1.4
					c0.6-0.2,1.2,0.2,1.3,0.8c0.2,0.6-0.2,1.2-0.8,1.4c-0.6,0.2-1.2-0.2-1.4-0.8c0.2,0.6,0.1,1.2-0.2,1.7c0.5,0.3,1.2,0.4,1.8,0.3
					c1.2-0.3,1.9-1.6,1.6-2.8l0,0l0,0l0,0l0,0l0,0c-0.3-1.2-1.6-1.9-2.8-1.6c-0.7,0.2-1.2,0.6-1.5,1.2c-0.3,0.5-0.3,1.1-0.2,1.7l0,0
					c0.2,0.6-0.2,1.2-0.8,1.4c-0.6,0.2-1.2-0.2-1.3-0.8c-0.2-0.6,0.2-1.2,0.8-1.4c0.6-0.2,1.2,0.2,1.4,0.8c-0.2-0.6-0.1-1.2,0.2-1.7
					c-0.5-0.3-1.2-0.4-1.8-0.3c-1.2,0.3-1.9,1.6-1.6,2.8l0,0l0,0l0,0l0,0l0,0C194.5,213,195.7,213.7,197,213.4z"/>
				<path class="st0" d="M189.2,215.5c0.7-0.2,1.2-0.6,1.5-1.2c0.3-0.5,0.3-1.1,0.2-1.7l0,0c-0.2-0.6,0.2-1.2,0.8-1.4
					c0.6-0.2,1.2,0.2,1.3,0.8c0.2,0.6-0.2,1.2-0.8,1.4c-0.6,0.2-1.2-0.2-1.4-0.8c0.2,0.6,0.1,1.2-0.2,1.7c0.5,0.3,1.2,0.4,1.8,0.3
					c1.2-0.3,1.9-1.6,1.6-2.8l0,0l0,0l0,0l0,0l0,0c-0.3-1.2-1.6-1.9-2.8-1.6c-0.7,0.2-1.2,0.6-1.5,1.2c-0.3,0.5-0.3,1.1-0.2,1.7l0,0
					c0.2,0.6-0.2,1.2-0.8,1.4c-0.6,0.2-1.2-0.2-1.3-0.8c-0.2-0.6,0.2-1.2,0.8-1.4c0.6-0.2,1.2,0.2,1.4,0.8c-0.2-0.6-0.1-1.2,0.2-1.7
					c-0.5-0.3-1.2-0.4-1.8-0.3c-1.2,0.3-1.9,1.6-1.6,2.8l0,0l0,0l0,0l0,0l0,0C186.7,215.1,188,215.8,189.2,215.5z"/>
				<path class="st0" d="M181.5,217.5c0.7-0.2,1.2-0.6,1.5-1.2c0.3-0.5,0.3-1.1,0.2-1.7l0,0c-0.2-0.6,0.2-1.2,0.8-1.4
					c0.6-0.2,1.2,0.2,1.3,0.8c0.2,0.6-0.2,1.2-0.8,1.4c-0.6,0.2-1.2-0.2-1.4-0.8c0.2,0.6,0.1,1.2-0.2,1.7c0.5,0.3,1.2,0.4,1.8,0.3
					c1.2-0.3,1.9-1.6,1.6-2.8l0,0l0,0l0,0v0l0,0c-0.3-1.2-1.6-1.9-2.8-1.6c-0.7,0.2-1.2,0.6-1.5,1.2c-0.3,0.5-0.3,1.1-0.2,1.7l0,0
					c0.2,0.6-0.2,1.2-0.8,1.4c-0.6,0.2-1.2-0.2-1.3-0.8c-0.2-0.6,0.2-1.2,0.8-1.4c0.6-0.2,1.2,0.2,1.4,0.8c-0.2-0.6-0.1-1.2,0.2-1.7
					c-0.5-0.3-1.2-0.4-1.8-0.3c-1.2,0.3-1.9,1.6-1.6,2.8l0,0l0,0l0,0l0,0l0,0C179,217.2,180.2,217.9,181.5,217.5z"/>
				<path class="st0" d="M173.7,219.6c0.7-0.2,1.2-0.6,1.5-1.2c0.3-0.5,0.3-1.1,0.2-1.7l0,0c-0.2-0.6,0.2-1.2,0.8-1.4
					c0.6-0.2,1.2,0.2,1.3,0.8c0.2,0.6-0.2,1.2-0.8,1.4c-0.6,0.2-1.2-0.2-1.4-0.8c0.2,0.6,0.1,1.2-0.2,1.7c0.5,0.3,1.2,0.4,1.8,0.3
					c1.2-0.3,1.9-1.6,1.6-2.8l0,0l0,0l0,0l0,0l0,0c-0.3-1.2-1.6-1.9-2.8-1.6c-0.7,0.2-1.2,0.6-1.5,1.2c-0.3,0.5-0.3,1.1-0.2,1.7l0,0
					c0.2,0.6-0.2,1.2-0.8,1.4c-0.6,0.2-1.2-0.2-1.3-0.8c-0.2-0.6,0.2-1.2,0.8-1.4c0.6-0.2,1.2,0.2,1.4,0.8c-0.2-0.6-0.1-1.2,0.2-1.7
					c-0.5-0.3-1.2-0.4-1.8-0.3c-1.2,0.3-1.9,1.6-1.6,2.8l0,0l0,0l0,0l0,0l0,0C171.2,219.2,172.5,219.9,173.7,219.6z"/>
				<path class="st0" d="M166,221.7c0.7-0.2,1.2-0.6,1.5-1.2c0.3-0.5,0.3-1.1,0.2-1.7l0,0c-0.2-0.6,0.2-1.2,0.8-1.4
					c0.6-0.2,1.2,0.2,1.3,0.8c0.2,0.6-0.2,1.2-0.8,1.4c-0.6,0.2-1.2-0.2-1.4-0.8c0.2,0.6,0.1,1.2-0.2,1.7c0.5,0.3,1.2,0.4,1.8,0.3
					c1.2-0.3,1.9-1.6,1.6-2.8l0,0l0,0l0,0l0,0l0,0c-0.3-1.2-1.6-1.9-2.8-1.6c-0.7,0.2-1.2,0.6-1.5,1.2c-0.3,0.5-0.3,1.1-0.2,1.7l0,0
					c0.2,0.6-0.2,1.2-0.8,1.4c-0.6,0.2-1.2-0.2-1.3-0.8c-0.2-0.6,0.2-1.2,0.8-1.4c0.6-0.2,1.2,0.2,1.4,0.8c-0.2-0.6-0.1-1.2,0.2-1.7
					c-0.5-0.3-1.2-0.4-1.8-0.3c-1.2,0.3-1.9,1.6-1.6,2.8l0,0l0,0l0,0l0,0l0,0C163.5,221.3,164.7,222,166,221.7z"/>
				<path class="st0" d="M158.2,223.8c0.7-0.2,1.2-0.6,1.5-1.2c0.3-0.5,0.3-1.1,0.2-1.7l0,0c-0.2-0.6,0.2-1.2,0.8-1.4
					c0.6-0.2,1.2,0.2,1.3,0.8c0.2,0.6-0.2,1.2-0.8,1.4c-0.6,0.2-1.2-0.2-1.4-0.8c0.2,0.6,0.1,1.2-0.2,1.7c0.5,0.3,1.2,0.4,1.8,0.3
					c1.2-0.3,1.9-1.6,1.6-2.8l0,0l0,0l0,0l0,0l0,0c-0.3-1.2-1.6-1.9-2.8-1.6c-0.7,0.2-1.2,0.6-1.5,1.2c-0.3,0.5-0.3,1.1-0.2,1.7l0,0
					c0.2,0.6-0.2,1.2-0.8,1.4c-0.6,0.2-1.2-0.2-1.3-0.8c-0.2-0.6,0.2-1.2,0.8-1.4c0.6-0.2,1.2,0.2,1.4,0.8c-0.2-0.6-0.1-1.2,0.2-1.7
					c-0.5-0.3-1.2-0.4-1.8-0.3c-1.2,0.3-1.9,1.6-1.6,2.8l0,0l0,0l0,0l0,0l0,0C155.7,223.4,157,224.1,158.2,223.8z"/>
				<path class="st0" d="M150.5,225.9c0.7-0.2,1.2-0.6,1.5-1.2c0.3-0.5,0.3-1.1,0.2-1.7l0,0c-0.2-0.6,0.2-1.2,0.8-1.4
					c0.6-0.2,1.2,0.2,1.3,0.8c0.2,0.6-0.2,1.2-0.8,1.4c-0.6,0.2-1.2-0.2-1.4-0.8c0.2,0.6,0.1,1.2-0.2,1.7c0.5,0.3,1.2,0.4,1.8,0.3
					c1.2-0.3,1.9-1.6,1.6-2.8l0,0l0,0l0,0l0,0l0,0c-0.3-1.2-1.6-1.9-2.8-1.6c-0.7,0.2-1.2,0.6-1.5,1.2c-0.3,0.5-0.3,1.1-0.2,1.7l0,0
					c0.2,0.6-0.2,1.2-0.8,1.4c-0.6,0.2-1.2-0.2-1.3-0.8c-0.2-0.6,0.2-1.2,0.8-1.4c0.6-0.2,1.2,0.2,1.4,0.8c-0.2-0.6-0.1-1.2,0.2-1.7
					c-0.5-0.3-1.2-0.4-1.8-0.3c-1.2,0.3-1.9,1.6-1.6,2.8l0,0l0,0l0,0l0,0l0,0C148,225.5,149.2,226.2,150.5,225.9z"/>
				<path class="st0" d="M142.7,227.9c0.7-0.2,1.2-0.6,1.5-1.2c0.3-0.5,0.3-1.1,0.2-1.7l0,0c-0.2-0.6,0.2-1.2,0.8-1.4
					c0.6-0.2,1.2,0.2,1.3,0.8c0.2,0.6-0.2,1.2-0.8,1.4c-0.6,0.2-1.2-0.2-1.4-0.8c0.2,0.6,0.1,1.2-0.2,1.7c0.5,0.3,1.2,0.4,1.8,0.3
					c1.2-0.3,1.9-1.6,1.6-2.8l0,0l0,0l0,0l0,0l0,0c-0.3-1.2-1.6-1.9-2.8-1.6c-0.7,0.2-1.2,0.6-1.5,1.2c-0.3,0.5-0.3,1.1-0.2,1.7l0,0
					c0.2,0.6-0.2,1.2-0.8,1.4c-0.6,0.2-1.2-0.2-1.3-0.8c-0.2-0.6,0.2-1.2,0.8-1.4c0.6-0.2,1.2,0.2,1.4,0.8c-0.2-0.6-0.1-1.2,0.2-1.7
					c-0.5-0.3-1.2-0.4-1.8-0.3c-1.2,0.3-1.9,1.6-1.6,2.8l0,0l0,0l0,0l0,0l0,0C140.2,227.5,141.5,228.3,142.7,227.9z"/>
				<path class="st0" d="M135,230c0.7-0.2,1.2-0.6,1.5-1.2c0.3-0.5,0.3-1.1,0.2-1.7l0,0c-0.2-0.6,0.2-1.2,0.8-1.4
					c0.6-0.2,1.2,0.2,1.3,0.8c0.2,0.6-0.2,1.2-0.8,1.4c-0.6,0.2-1.2-0.2-1.4-0.8c0.2,0.6,0.1,1.2-0.2,1.7c0.5,0.3,1.2,0.4,1.8,0.3
					c1.2-0.3,1.9-1.6,1.6-2.8l0,0l0,0l0,0v0l0,0c-0.3-1.2-1.6-1.9-2.8-1.6c-0.7,0.2-1.2,0.6-1.5,1.2c-0.3,0.5-0.3,1.1-0.2,1.7l0,0
					c0.2,0.6-0.2,1.2-0.8,1.4c-0.6,0.2-1.2-0.2-1.3-0.8c-0.2-0.6,0.2-1.2,0.8-1.4c0.6-0.2,1.2,0.2,1.4,0.8c-0.2-0.6-0.1-1.2,0.2-1.7
					c-0.5-0.3-1.2-0.4-1.8-0.3c-1.2,0.3-1.9,1.6-1.6,2.8l0,0l0,0l0,0l0,0l0,0C132.5,229.6,133.7,230.3,135,230z"/>
				<path class="st0" d="M127.2,232.1c0.7-0.2,1.2-0.6,1.5-1.2c0.3-0.5,0.3-1.1,0.2-1.7l0,0c-0.2-0.6,0.2-1.2,0.8-1.4
					c0.6-0.2,1.2,0.2,1.3,0.8c0.2,0.6-0.2,1.2-0.8,1.4c-0.6,0.2-1.2-0.2-1.4-0.8c0.2,0.6,0.1,1.2-0.2,1.7c0.5,0.3,1.2,0.4,1.8,0.3
					c1.2-0.3,1.9-1.6,1.6-2.8l0,0l0,0l0,0l0,0l0,0c-0.3-1.2-1.6-1.9-2.8-1.6c-0.7,0.2-1.2,0.6-1.5,1.2c-0.3,0.5-0.3,1.1-0.2,1.7l0,0
					c0.2,0.6-0.2,1.2-0.8,1.4c-0.6,0.2-1.2-0.2-1.3-0.8c-0.2-0.6,0.2-1.2,0.8-1.4c0.6-0.2,1.2,0.2,1.4,0.8c-0.2-0.6-0.1-1.2,0.2-1.7
					c-0.5-0.3-1.2-0.4-1.8-0.3c-1.2,0.3-1.9,1.6-1.6,2.8l0,0l0,0l0,0l0,0l0,0C124.7,231.7,126,232.4,127.2,232.1z"/>
				<path class="st0" d="M119.5,234.2c0.7-0.2,1.2-0.6,1.5-1.2c0.3-0.5,0.3-1.1,0.2-1.7l0,0c-0.2-0.6,0.2-1.2,0.8-1.4
					c0.6-0.2,1.2,0.2,1.3,0.8c0.2,0.6-0.2,1.2-0.8,1.4c-0.6,0.2-1.2-0.2-1.4-0.8c0.2,0.6,0.1,1.2-0.2,1.7c0.5,0.3,1.2,0.4,1.8,0.3
					c1.2-0.3,1.9-1.6,1.6-2.8l0,0l0,0l0,0l0,0l0,0c-0.3-1.2-1.6-1.9-2.8-1.6c-0.7,0.2-1.2,0.6-1.5,1.2c-0.3,0.5-0.3,1.1-0.2,1.7l0,0
					c0.2,0.6-0.2,1.2-0.8,1.4c-0.6,0.2-1.2-0.2-1.3-0.8c-0.2-0.6,0.2-1.2,0.8-1.4c0.6-0.2,1.2,0.2,1.4,0.8c-0.2-0.6-0.1-1.2,0.2-1.7
					c-0.5-0.3-1.2-0.4-1.8-0.3c-1.2,0.3-1.9,1.6-1.6,2.8l0,0l0,0l0,0l0,0l0,0C117,233.8,118.2,234.5,119.5,234.2z"/>
				<path class="st0" d="M111.7,236.2c0.7-0.2,1.2-0.6,1.5-1.2c0.3-0.5,0.3-1.1,0.2-1.7l0,0c-0.2-0.6,0.2-1.2,0.8-1.4
					c0.6-0.2,1.2,0.2,1.3,0.8c0.2,0.6-0.2,1.2-0.8,1.4c-0.6,0.2-1.2-0.2-1.4-0.8c0.2,0.6,0.1,1.2-0.2,1.7c0.5,0.3,1.2,0.4,1.8,0.3
					c1.2-0.3,1.9-1.6,1.6-2.8l0,0l0,0l0,0l0,0l0,0c-0.3-1.2-1.6-1.9-2.8-1.6c-0.7,0.2-1.2,0.6-1.5,1.2c-0.3,0.5-0.3,1.1-0.2,1.7l0,0
					c0.2,0.6-0.2,1.2-0.8,1.4c-0.6,0.2-1.2-0.2-1.3-0.8c-0.2-0.6,0.2-1.2,0.8-1.4c0.6-0.2,1.2,0.2,1.4,0.8c-0.2-0.6-0.1-1.2,0.2-1.7
					c-0.5-0.3-1.2-0.4-1.8-0.3c-1.2,0.3-1.9,1.6-1.6,2.8l0,0l0,0l0,0l0,0l0,0C109.2,235.8,110.5,236.6,111.7,236.2z"/>
				<path class="st0" d="M104,238.3c0.7-0.2,1.2-0.6,1.5-1.2c0.3-0.5,0.3-1.1,0.2-1.7l0,0c-0.2-0.6,0.2-1.2,0.8-1.4
					c0.6-0.2,1.2,0.2,1.3,0.8c0.2,0.6-0.2,1.2-0.8,1.4c-0.6,0.2-1.2-0.2-1.4-0.8c0.2,0.6,0.1,1.2-0.2,1.7c0.5,0.3,1.2,0.4,1.8,0.3
					c1.2-0.3,1.9-1.6,1.6-2.8l0,0l0,0l0,0l0,0l0,0c-0.3-1.2-1.6-1.9-2.8-1.6c-0.7,0.2-1.2,0.6-1.5,1.2c-0.3,0.5-0.3,1.1-0.2,1.7l0,0
					c0.2,0.6-0.2,1.2-0.8,1.4c-0.6,0.2-1.2-0.2-1.3-0.8c-0.2-0.6,0.2-1.2,0.8-1.4c0.6-0.2,1.2,0.2,1.4,0.8c-0.2-0.6-0.1-1.2,0.2-1.7
					c-0.5-0.3-1.2-0.4-1.8-0.3c-1.2,0.3-1.9,1.6-1.6,2.8l0,0l0,0l0,0l0,0l0,0C101.5,237.9,102.7,238.6,104,238.3z"/>
				<path class="st0" d="M96.2,240.4c0.7-0.2,1.2-0.6,1.5-1.2c0.3-0.5,0.3-1.1,0.2-1.7l0,0c-0.2-0.6,0.2-1.2,0.8-1.4
					c0.6-0.2,1.2,0.2,1.3,0.8c0.2,0.6-0.2,1.2-0.8,1.4c-0.6,0.2-1.2-0.2-1.4-0.8c0.2,0.6,0.1,1.2-0.2,1.7c0.5,0.3,1.2,0.4,1.8,0.3
					c1.2-0.3,1.9-1.6,1.6-2.8l0,0l0,0l0,0l0,0l0,0c-0.3-1.2-1.6-1.9-2.8-1.6c-0.7,0.2-1.2,0.6-1.5,1.2c-0.3,0.5-0.3,1.1-0.2,1.7l0,0
					c0.2,0.6-0.2,1.2-0.8,1.4c-0.6,0.2-1.2-0.2-1.3-0.8c-0.2-0.6,0.2-1.2,0.8-1.4c0.6-0.2,1.2,0.2,1.4,0.8c-0.2-0.6-0.1-1.2,0.2-1.7
					c-0.5-0.3-1.2-0.4-1.8-0.3c-1.2,0.3-1.9,1.6-1.6,2.8l0,0l0,0l0,0l0,0l0,0C93.7,240,95,240.7,96.2,240.4z"/>
				<path class="st0" d="M88.5,242.5c0.7-0.2,1.2-0.6,1.5-1.2c0.3-0.5,0.3-1.1,0.2-1.7l0,0c-0.2-0.6,0.2-1.2,0.8-1.4
					c0.6-0.2,1.2,0.2,1.3,0.8c0.2,0.6-0.2,1.2-0.8,1.4c-0.6,0.2-1.2-0.2-1.4-0.8c0.2,0.6,0.1,1.2-0.2,1.7c0.5,0.3,1.2,0.4,1.8,0.3
					c1.2-0.3,1.9-1.6,1.6-2.8l0,0l0,0l0,0l0,0l0,0c-0.3-1.2-1.6-1.9-2.8-1.6c-0.7,0.2-1.2,0.6-1.5,1.2c-0.3,0.5-0.3,1.1-0.2,1.7l0,0
					c0.2,0.6-0.2,1.2-0.8,1.4c-0.6,0.2-1.2-0.2-1.3-0.8c-0.2-0.6,0.2-1.2,0.8-1.4c0.6-0.2,1.2,0.2,1.4,0.8c-0.2-0.6-0.1-1.2,0.2-1.7
					c-0.5-0.3-1.2-0.4-1.8-0.3c-1.2,0.3-1.9,1.6-1.6,2.8l0,0l0,0l0,0l0,0l0,0C86,242.1,87.2,242.8,88.5,242.5z"/>
				<path class="st0" d="M80.7,244.5c0.7-0.2,1.2-0.6,1.5-1.2c0.3-0.5,0.3-1.1,0.2-1.7l0,0c-0.2-0.6,0.2-1.2,0.8-1.4
					c0.6-0.2,1.2,0.2,1.3,0.8c0.2,0.6-0.2,1.2-0.8,1.4c-0.6,0.2-1.2-0.2-1.4-0.8c0.2,0.6,0.1,1.2-0.2,1.7c0.5,0.3,1.2,0.4,1.8,0.3
					c1.2-0.3,1.9-1.6,1.6-2.8l0,0l0,0l0,0l0,0l0,0c-0.3-1.2-1.6-1.9-2.8-1.6c-0.7,0.2-1.2,0.6-1.5,1.2c-0.3,0.5-0.3,1.1-0.2,1.7l0,0
					c0.2,0.6-0.2,1.2-0.8,1.4c-0.6,0.2-1.2-0.2-1.3-0.8c-0.2-0.6,0.2-1.2,0.8-1.4c0.6-0.2,1.2,0.2,1.4,0.8c-0.2-0.6-0.1-1.2,0.2-1.7
					c-0.5-0.3-1.2-0.4-1.8-0.3c-1.2,0.3-1.9,1.6-1.6,2.8l0,0l0,0l0,0l0,0l0,0C78.2,244.2,79.5,244.9,80.7,244.5z"/>
				<path class="st0" d="M72.9,246.6c0.7-0.2,1.2-0.6,1.5-1.2c0.3-0.5,0.3-1.1,0.2-1.7l0,0c-0.2-0.6,0.2-1.2,0.8-1.4
					c0.6-0.2,1.2,0.2,1.3,0.8c0.2,0.6-0.2,1.2-0.8,1.4c-0.6,0.2-1.2-0.2-1.4-0.8c0.2,0.6,0.1,1.2-0.2,1.7c0.5,0.3,1.2,0.4,1.8,0.3
					c1.2-0.3,1.9-1.6,1.6-2.8l0,0l0,0l0,0l0,0l0,0c-0.3-1.2-1.6-1.9-2.8-1.6c-0.7,0.2-1.2,0.6-1.5,1.2c-0.3,0.5-0.3,1.1-0.2,1.7l0,0
					c0.2,0.6-0.2,1.2-0.8,1.4c-0.6,0.2-1.2-0.2-1.3-0.8c-0.2-0.6,0.2-1.2,0.8-1.4c0.6-0.2,1.2,0.2,1.4,0.8c-0.2-0.6-0.1-1.2,0.2-1.7
					c-0.5-0.3-1.2-0.4-1.8-0.3c-1.2,0.3-1.9,1.6-1.6,2.8l0,0l0,0l0,0l0,0l0,0C70.5,246.2,71.7,246.9,72.9,246.6z"/>
				<path class="st0" d="M65.2,248.7c0.7-0.2,1.2-0.6,1.5-1.2c0.3-0.5,0.3-1.1,0.2-1.7l0,0c-0.2-0.6,0.2-1.2,0.8-1.4
					c0.6-0.2,1.2,0.2,1.3,0.8c0.2,0.6-0.2,1.2-0.8,1.4c-0.6,0.2-1.2-0.2-1.4-0.8c0.2,0.6,0.1,1.2-0.2,1.7c0.5,0.3,1.2,0.4,1.8,0.3
					c1.2-0.3,1.9-1.6,1.6-2.8l0,0l0,0l0,0l0,0l0,0c-0.3-1.2-1.6-1.9-2.8-1.6c-0.7,0.2-1.2,0.6-1.5,1.2c-0.3,0.5-0.3,1.1-0.2,1.7l0,0
					c0.2,0.6-0.2,1.2-0.8,1.4c-0.6,0.2-1.2-0.2-1.3-0.8c-0.2-0.6,0.2-1.2,0.8-1.4c0.6-0.2,1.2,0.2,1.4,0.8c-0.2-0.6-0.1-1.2,0.2-1.7
					c-0.5-0.3-1.2-0.4-1.8-0.3c-1.2,0.3-1.9,1.6-1.6,2.8l0,0l0,0l0,0l0,0l0,0C62.7,248.3,64,249,65.2,248.7z"/>
				<path class="st0" d="M57.4,250.8c0.7-0.2,1.2-0.6,1.5-1.2c0.3-0.5,0.3-1.1,0.2-1.7l0,0c-0.2-0.6,0.2-1.2,0.8-1.4
					c0.6-0.2,1.2,0.2,1.3,0.8c0.2,0.6-0.2,1.2-0.8,1.4c-0.6,0.2-1.2-0.2-1.4-0.8c0.2,0.6,0.1,1.2-0.2,1.7c0.5,0.3,1.2,0.4,1.8,0.3
					c1.2-0.3,1.9-1.6,1.6-2.8l0,0l0,0l0,0l0,0l0,0c-0.3-1.2-1.6-1.9-2.8-1.6c-0.7,0.2-1.2,0.6-1.5,1.2c-0.3,0.5-0.3,1.1-0.2,1.7l0,0
					c0.2,0.6-0.2,1.2-0.8,1.4c-0.6,0.2-1.2-0.2-1.3-0.8c-0.2-0.6,0.2-1.2,0.8-1.4c0.6-0.2,1.2,0.2,1.4,0.8c-0.2-0.6-0.1-1.2,0.2-1.7
					c-0.5-0.3-1.2-0.4-1.8-0.3c-1.2,0.3-1.9,1.6-1.6,2.8l0,0l0,0l0,0l0,0l0,0C55,250.4,56.2,251.1,57.4,250.8z"/>
				<path class="st0" d="M49.7,252.8c0.7-0.2,1.2-0.6,1.5-1.2c0.3-0.5,0.3-1.1,0.2-1.7l0,0c-0.2-0.6,0.2-1.2,0.8-1.4
					c0.6-0.2,1.2,0.2,1.3,0.8c0.2,0.6-0.2,1.2-0.8,1.4c-0.6,0.2-1.2-0.2-1.4-0.8c0.2,0.6,0.1,1.2-0.2,1.7c0.5,0.3,1.2,0.4,1.8,0.3
					c1.2-0.3,1.9-1.6,1.6-2.8l0,0l0,0l0,0l0,0l0,0c-0.3-1.2-1.6-1.9-2.8-1.6c-0.7,0.2-1.2,0.6-1.5,1.2c-0.3,0.5-0.3,1.1-0.2,1.7l0,0
					c0.2,0.6-0.2,1.2-0.8,1.4c-0.6,0.2-1.2-0.2-1.3-0.8c-0.2-0.6,0.2-1.2,0.8-1.4c0.6-0.2,1.2,0.2,1.4,0.8c-0.2-0.6-0.1-1.2,0.2-1.7
					c-0.5-0.3-1.2-0.4-1.8-0.3c-1.2,0.3-1.9,1.6-1.6,2.8l0,0l0,0l0,0l0,0l0,0C47.2,252.5,48.5,253.2,49.7,252.8z"/>
				<path class="st0" d="M41.9,254.9c0.7-0.2,1.2-0.6,1.5-1.2c0.3-0.5,0.3-1.1,0.2-1.7l0,0c-0.2-0.6,0.2-1.2,0.8-1.4
					c0.6-0.2,1.2,0.2,1.3,0.8c0.2,0.6-0.2,1.2-0.8,1.4c-0.6,0.2-1.2-0.2-1.4-0.8c0.2,0.6,0.1,1.2-0.2,1.7c0.5,0.3,1.2,0.4,1.8,0.3
					c1.2-0.3,1.9-1.6,1.6-2.8l0,0l0,0l0,0l0,0l0,0c-0.3-1.2-1.6-1.9-2.8-1.6c-0.7,0.2-1.2,0.6-1.5,1.2c-0.3,0.5-0.3,1.1-0.2,1.7l0,0
					c0.2,0.6-0.2,1.2-0.8,1.4c-0.6,0.2-1.2-0.2-1.3-0.8c-0.2-0.6,0.2-1.2,0.8-1.4c0.6-0.2,1.2,0.2,1.4,0.8c-0.2-0.6-0.1-1.2,0.2-1.7
					c-0.5-0.3-1.2-0.4-1.8-0.3c-1.2,0.3-1.9,1.6-1.6,2.8l0,0l0,0l0,0l0,0l0,0C39.5,254.5,40.7,255.3,41.9,254.9z"/>
			</g>
			<path class="st1" d="M31.7,265.1c0,0,156.5-41.9,190.4-51c33.9-9.1,54.8-34.6,54.8-34.6l2.1,7.7c0,0-21,25.6-54.8,34.6
				c-33.9,9.1-190.4,51-190.4,51L31.7,265.1z"/>
			<line class="st2" x1="272.6" y1="193.9" x2="281.5" y2="196.7"/>
			<line class="st3" x1="230.2" y1="181.1" x2="255.9" y2="188.9"/>
			<line class="st4" x1="230.2" y1="181.1" x2="51.2" y2="126.7"/>
		</g>
	</g>
</g>
</svg>
