<?xml version="1.0" encoding="utf-8"?>
<!-- Generator: Adobe Illustrator 26.3.1, SVG Export Plug-In . SVG Version: 6.00 Build 0)  -->
<svg version="1.1" id="레이어_1" xmlns="http://www.w3.org/2000/svg" xmlns:xlink="http://www.w3.org/1999/xlink" x="0px"
	 y="0px" viewBox="0 0 300 300" style="enable-background:new 0 0 300 300;" xml:space="preserve">
<style type="text/css">
	.st0{fill:#E9BC00;}
	.st1{fill:#AC4266;stroke:#E9BC00;stroke-width:3;stroke-miterlimit:10;}
	.st2{fill:#D6A1B3;}
	.st3{fill:#967905;stroke:#E9BC00;stroke-width:3;stroke-linecap:round;stroke-linejoin:round;stroke-miterlimit:10;}
	.st4{fill:#967905;stroke:#E9BC00;stroke-width:3;stroke-linecap:round;stroke-linejoin:round;stroke-miterlimit:9.9997;}
	.st5{fill:url(#SVGID_1_);stroke:#E9BC00;stroke-width:3;stroke-linecap:round;stroke-linejoin:round;stroke-miterlimit:10;}
	.st6{fill:#FFFFFF;stroke:#E9BC00;stroke-width:3;stroke-linecap:round;stroke-linejoin:round;stroke-miterlimit:10;}
	.st7{fill:#E0E1F0;stroke:#E9BC00;stroke-width:3;stroke-linecap:round;stroke-linejoin:round;stroke-miterlimit:10;}
	.st8{fill:none;stroke:#E9BC00;stroke-width:3;stroke-linecap:round;stroke-linejoin:round;stroke-miterlimit:10;}
	.st9{fill:#AC4266;stroke:#E9BC00;stroke-width:3;stroke-linecap:round;stroke-linejoin:round;stroke-miterlimit:10;}
</style>
<g>
	<path class="st0" d="M14.6,288.5c-0.8,0-1.6-0.3-2.1-0.9c-0.7-0.7-1-1.8-0.8-2.8v-0.2c0,0,0.1-0.2,0.1-0.3c0-0.1,0.1-0.3,0.2-0.4
		c0.3-0.5,27-49.6,99.5-122.2c57.5-57.5,62.5-82.1,62.6-82.4c0-0.1,0.1-0.3,0.1-0.4v-0.1l0.1-0.1c0.2-0.6,0.6-1.1,1.2-1.4
		c0.5-0.3,1.1-0.5,1.6-0.5c0.3,0,0.5,0,0.8,0.1l21.5,5.8c0.3-0.6,0.7-1.2,1.1-1.7c0.1-0.1,0.1-0.1,0.2-0.2c1.1-1,2.4-1.6,3.8-1.7
		c0.1-0.8,0.1-1.9-0.3-3.4l-2-2c-1.3-1.3-2.2-3-2.5-4.8c-0.4-2.3-1.4-4.3-2.9-5.7c-7.9-7.6-15.2-12.2-20.7-13
		c-1,0.9-2.3,1.4-3.7,1.4c-1.5,0-2.9-0.6-4-1.6c-1.1-1.1-1.6-2.5-1.6-4s0.6-2.9,1.6-4l0,0c-2.4-4.2-1.7-9.5,1.8-13
		c2.1-2.1,4.8-3.2,7.7-3.2c1.9,0,3.7,0.5,5.3,1.4l0,0c1.1-1.1,2.5-1.6,4-1.6s2.9,0.6,4,1.6c2.1,2.1,2.2,5.5,0.2,7.7
		c0.8,5.4,5.4,12.7,13,20.7c1.5,1.5,3.5,2.6,5.7,2.9c1.8,0.3,3.5,1.2,4.8,2.5l2,2c1,0.2,1.8,0.3,2.6,0.3c0.3,0,0.5,0,0.7,0
		c0.1-1.4,0.7-2.7,1.7-3.8c0-0.1,0.1-0.1,0.2-0.2c1.1-1,2.6-1.6,4.2-1.6c0.6,0,1.2,0.1,1.7,0.2l1.6-1.6c-0.7-2.1-0.1-4.3,1.4-6
		c0.1-0.1,0.2-0.2,0.3-0.3c1.1-0.9,2.6-1.4,4-1.4c0.1,0,0.1,0,0.2,0c1.9-2.3,3.6-5.3,3.3-7.8c-2-2.4-1.9-5.8,0.3-8.1
		c0.1-0.1,0.2-0.2,0.2-0.2c0.9-0.7,1.9-1.2,3-1.5c1.7-11.3,11.3-19.6,22.8-19.6c12.7,0,23,10.3,23,23c0,11.5-8.3,21.1-19.5,22.8
		c-0.2,1.1-0.8,2.2-1.6,3.1c-1.2,1.2-2.7,1.9-4.4,1.9c-1.4,0-2.8-0.5-3.9-1.4c-0.1,0-0.3,0-0.4,0c-2.8,0-5.8,2.1-7.3,3.2
		c0.1,1.6-0.5,3.2-1.7,4.5c-1.2,1.2-2.7,1.9-4.4,1.9c-0.6,0-1.2-0.1-1.8-0.3l-1.6,1.6c0.6,2.1,0.1,4.3-1.4,6
		c-1.1,1.1-2.5,1.7-3.9,1.8c-0.1,0.7-0.1,1.8,0.3,3.3l2,2c1.3,1.3,2.2,3,2.5,4.8c0.4,2.3,1.4,4.3,2.9,5.7c7.9,7.6,15.2,12.2,20.7,13
		c1-0.9,2.3-1.4,3.7-1.4c1.5,0,2.9,0.6,4,1.6c1.1,1.1,1.6,2.5,1.6,4s-0.6,2.9-1.6,4l0,0c2.4,4.2,1.7,9.5-1.8,13
		c-2.1,2.1-4.8,3.2-7.7,3.2c-1.9,0-3.7-0.5-5.3-1.4l0,0c-1.1,1.1-2.5,1.6-4,1.6s-2.9-0.6-4-1.6c-1.1-1.1-1.6-2.5-1.6-4
		c0-1.4,0.5-2.7,1.4-3.7c-0.8-5.4-5.4-12.7-13-20.7c-1.5-1.5-3.5-2.6-5.7-2.9c-1.8-0.3-3.5-1.2-4.8-2.5l-2-2c-1-0.2-1.8-0.3-2.6-0.3
		c-0.3,0-0.6,0-0.8,0c-0.1,1.4-0.7,2.7-1.7,3.8c-0.5,0.5-1.1,1-1.8,1.3l5.8,21.5c0.2,0.8,0.1,1.7-0.4,2.4c-0.3,0.5-0.8,0.9-1.4,1.1
		c-0.4,0.2-0.7,0.3-1.1,0.3c-3.4,0.9-28.3,8.8-81.9,62.4c-68.3,68.3-115.6,95.9-121.6,99.3C16.1,288.2,15.4,288.5,14.6,288.5z"/>
	<path class="st0" d="M265.4,13c11.9,0,21.5,9.7,21.5,21.5c0,11.2-8.5,20.4-19.4,21.4c0.1,1.2-0.4,2.4-1.3,3.4
		c-0.9,0.9-2.1,1.4-3.3,1.4c-1.1,0-2.3-0.4-3.2-1.3l0,0c-0.3-0.1-0.7-0.1-1-0.1c-3.7,0-7.4,2.8-8.9,4.1c0.3,1.4-0.1,2.9-1.2,4.1
		c-0.9,0.9-2.1,1.4-3.3,1.4c-0.7,0-1.5-0.2-2.2-0.6l-3,3c0.9,1.7,0.7,3.8-0.8,5.3c-0.9,0.9-2.1,1.4-3.3,1.4c-0.3,0-0.5,0-0.8-0.1
		c-0.3,0.9-0.6,2.7,0.1,5.7l2.3,2.3c1.1,1.1,1.8,2.5,2.1,4c0.5,2.6,1.6,4.9,3.4,6.6c8.5,8.2,16.4,13,22.2,13.5l0.3-0.3
		c0.8-0.8,1.9-1.2,2.9-1.2s2.1,0.4,2.9,1.2c1.6,1.6,1.6,4.2,0,5.8l-0.9,0.9c2.6,3.7,2.3,8.8-1,12.1c-1.8,1.8-4.2,2.7-6.6,2.7
		c-1.9,0-3.9-0.6-5.5-1.8l-0.9,0.9c-0.8,0.8-1.9,1.2-2.9,1.2c-1.1,0-2.1-0.4-2.9-1.2c-1.6-1.6-1.6-4.2,0-5.8l0.3-0.3
		c-0.5-5.9-5.3-13.7-13.5-22.2c-1.7-1.8-4-2.9-6.6-3.4c-1.5-0.3-2.9-1-4-2.1l-2.3-2.3c-1.4-0.4-2.5-0.5-3.4-0.5
		c-1.1,0-1.8,0.2-2.3,0.4c0.2,1.4-0.2,2.8-1.2,4c-0.7,0.7-1.6,1.2-2.5,1.3l6.2,22.9c0.1,0.4,0,0.9-0.2,1.2c-0.2,0.3-0.4,0.5-0.7,0.6
		c-0.2,0.1-0.4,0.2-0.7,0.2l0,0c-3.2,0.8-28.2,8.3-82.8,62.9c-69,69-116.6,96.4-121.4,99.2l-0.1,0.1c-0.3,0.3-0.7,0.4-1.1,0.4
		c-0.4,0-0.8-0.1-1.1-0.4c-0.4-0.4-0.5-0.9-0.4-1.4V285c0-0.1,0-0.1,0.1-0.2c0-0.1,0-0.2,0.1-0.2c0.3-0.5,26.9-49.4,99.3-121.8
		c58.4-58.4,62.9-82.9,63-83.2c0-0.1,0-0.2,0.1-0.3l0,0c0.1-0.3,0.3-0.6,0.6-0.7c0.2-0.2,0.5-0.2,0.8-0.2c0.1,0,0.3,0,0.4,0.1
		l22.9,6.2c0.1-0.9,0.6-1.7,1.2-2.5l0.1-0.1c0.9-0.8,2.1-1.3,3.3-1.3l0,0c0.2,0,0.5,0,0.7,0.1c0.3-0.9,0.7-2.7-0.1-5.7l-2.3-2.3
		c-1.1-1.1-1.8-2.5-2.1-4c-0.5-2.6-1.6-4.9-3.4-6.6c-8.5-8.2-16.4-13-22.2-13.5l-0.3,0.3c-0.8,0.8-1.9,1.2-2.9,1.2
		c-1.1,0-2.1-0.4-2.9-1.2c-1.6-1.6-1.6-4.2,0-5.8l0.9-0.9c-2.6-3.7-2.3-8.8,1-12.1c1.8-1.8,4.2-2.7,6.6-2.7c1.9,0,3.9,0.6,5.5,1.8
		l0.9-0.9c0.8-0.8,1.9-1.2,2.9-1.2c1.1,0,2.1,0.4,2.9,1.2c1.6,1.6,1.6,4.2,0,5.8l-0.3,0.3c0.5,5.9,5.3,13.7,13.5,22.2
		c1.7,1.8,4,2.9,6.6,3.4c1.5,0.3,2.9,1,4,2.1l2.3,2.3c1.4,0.4,2.5,0.5,3.4,0.5c1,0,1.8-0.2,2.3-0.3c-0.2-1.4,0.2-2.8,1.2-3.9
		l0.1-0.1c0.9-0.8,2-1.2,3.2-1.2c0.7,0,1.5,0.2,2.1,0.5l3-3c-0.9-1.7-0.7-3.8,0.8-5.3c0.1-0.1,0.1-0.1,0.2-0.2
		c0.9-0.7,2-1.1,3.1-1.1c0.3,0,0.5,0,0.8,0.1c1.3-1.4,4.8-6,4.1-10l0,0c-1.8-1.8-1.8-4.5,0-6.4l0.1-0.1c0.9-0.8,2.1-1.2,3.2-1.2
		c0.1,0,0.1,0,0.2,0C245,21.6,254.2,13,265.4,13 M265.4,10c-11.9,0-21.9,8.4-24.1,19.9c-1,0.3-1.9,0.8-2.7,1.5
		c-0.1,0.1-0.3,0.2-0.4,0.4c-2.6,2.8-2.8,6.8-0.7,9.7c0,1.8-1.3,4-2.6,5.8c-1.6,0.1-3.1,0.7-4.4,1.7c-0.2,0.1-0.4,0.3-0.5,0.5
		c-1.7,1.9-2.4,4.3-2,6.6l-0.4,0.4c-0.4-0.1-0.8-0.1-1.3-0.1c-2,0-3.8,0.7-5.2,2c-0.1,0.1-0.2,0.2-0.3,0.3c-0.9,0.9-1.5,2.1-1.8,3.3
		c-0.4,0-0.9-0.1-1.3-0.2L216,60c-1.5-1.5-3.5-2.6-5.6-2.9c-2-0.3-3.7-1.2-4.9-2.5c-7-7.3-11.5-14.2-12.5-19.2
		c2-2.8,1.7-6.7-0.8-9.2c-1.3-1.3-3.1-2.1-5-2.1c-1.6,0-3,0.5-4.3,1.4c-1.6-0.7-3.3-1.1-5.1-1.1c-3.3,0-6.4,1.3-8.7,3.6
		c-3.7,3.7-4.6,9.2-2.5,13.8c-2.1,2.8-1.8,6.8,0.7,9.3c1.3,1.3,3.1,2.1,5,2.1c1.5,0,2.9-0.5,4.1-1.3c5,1,11.9,5.5,19.2,12.5
		c1.3,1.3,2.2,3,2.5,4.9c0.4,2.1,1.4,4.1,2.9,5.7l1.7,1.7c0.1,0.5,0.2,1,0.2,1.4c-1.2,0.3-2.4,1-3.4,1.8c-0.1,0.1-0.2,0.2-0.2,0.2
		c-0.3,0.3-0.5,0.6-0.8,0.9l-20.4-5.5c-0.4-0.1-0.8-0.2-1.2-0.2c-0.9,0-1.7,0.3-2.5,0.7c-0.8,0.5-1.4,1.3-1.7,2.1l-0.1,0.2v0.1
		c-0.1,0.2-0.1,0.3-0.1,0.5c-0.1,0.3-1.4,6.4-9.6,19.4c-13.8,21.8-36.2,45.8-52.5,62.2c-72.7,72.8-99.5,122-99.8,122.5
		c-0.1,0.3-0.2,0.5-0.3,0.7c0,0.1-0.1,0.2-0.1,0.2v0.1v0.2v0.1c-0.3,1.5,0.1,3,1.2,4.1c0.8,0.8,2,1.3,3.2,1.3c1.1,0,2.1-0.4,3-1.1
		c6.6-3.8,53.8-31.6,121.7-99.5c52.8-52.8,77.4-61,81.1-62c0.5,0,1-0.2,1.5-0.4c0.8-0.4,1.5-0.9,2-1.7c0.7-1.1,0.9-2.4,0.6-3.6
		L219,101c0.4-0.3,0.7-0.6,1.1-0.9l0,0l0,0c0.9-1,1.5-2.1,1.9-3.4c0.4,0,0.9,0.1,1.4,0.2l1.7,1.7c1.5,1.5,3.5,2.6,5.6,2.9
		c2,0.3,3.7,1.2,4.9,2.5c7,7.3,11.5,14.2,12.5,19.2c-0.9,1.2-1.3,2.6-1.3,4.1c0,1.9,0.7,3.7,2.1,5c1.3,1.3,3.1,2.1,5,2.1
		c1.6,0,3-0.5,4.2-1.4c1.6,0.7,3.3,1.1,5.1,1.1c3.3,0,6.4-1.3,8.8-3.6c3.7-3.7,4.6-9.2,2.5-13.8c0.9-1.2,1.4-2.7,1.4-4.2
		c0-1.9-0.7-3.7-2.1-5c-1.3-1.3-3.1-2.1-5-2.1c-1.5,0-2.9,0.5-4.1,1.3c-5-1-11.9-5.5-19.2-12.5c-1.3-1.3-2.2-3-2.5-4.9
		c-0.4-2.2-1.4-4.1-2.9-5.6l-1.7-1.7c-0.1-0.5-0.2-1-0.2-1.3c1.3-0.3,2.5-1,3.5-2l0,0l0,0c1.7-1.8,2.4-4.3,2-6.6l0.4-0.4
		c0.4,0.1,0.9,0.1,1.3,0.1c2,0,3.9-0.8,5.4-2.3l0,0l0,0c1.2-1.3,2-3,2.1-4.8c1.8-1.3,3.9-2.4,5.7-2.5c1.3,0.9,2.8,1.4,4.4,1.4
		c2,0,3.9-0.8,5.4-2.3l0,0l0,0c0.8-0.8,1.3-1.8,1.7-2.8c11.5-2.2,19.8-12.2,19.8-24.1C289.9,21,278.9,10,265.4,10L265.4,10z"/>
</g>
<g>
	<circle class="st1" cx="265.4" cy="34.6" r="20"/>
	<circle class="st2" cx="265.4" cy="26.6" r="6"/>
	<path class="st3" d="M223.6,65.3c0,0-2.2,2.1-8.2,0.5l9.4,9.4l9.4,9.4c-1.7-5.9,0.5-8.2,0.5-8.2L223.6,65.3z"/>
	<path class="st3" d="M217.4,93.5c0,0,2.2-2.1,8.2-0.5l-9.4-9.4l-9.4-9.4c1.7,5.9-0.5,8.2-0.5,8.2L217.4,93.5z"/>
	<path class="st3" d="M248.1,63c0,0,6.6-6.4,12.5-4.8l-9.4-9.4l-9.5-9.5c1.7,5.9-4.8,12.5-4.8,12.5L248.1,63z"/>
	<path class="st3" d="M245.9,34.8L265.1,54c1.2,1.2,1.2,3.1,0,4.4l0,0c-1.2,1.2-3.1,1.2-4.4,0l-19.2-19.2c-1.2-1.2-1.2-3.1,0-4.4
		l0,0C242.8,33.7,244.8,33.7,245.9,34.8z"/>
	<path class="st3" d="M228.6,61.6l9.7,9.7c1.2,1.2,1.2,3.1,0,4.4l0,0c-1.2,1.2-3.1,1.2-4.4,0l-9.7-9.7c-1.2-1.2-1.2-3.1,0-4.4l0,0
		C225.4,60.5,227.5,60.5,228.6,61.6z"/>
	<path class="st3" d="M237.7,52.6l9.7,9.7c1.2,1.2,1.2,3.1,0,4.4l0,0c-1.2,1.2-3.1,1.2-4.4,0l-9.7-9.7c-1.2-1.2-1.2-3.1,0-4.4l0,0
		C234.7,51.4,236.6,51.4,237.7,52.6z"/>
	
		<rect x="232.4" y="57.3" transform="matrix(0.7071 -0.7071 0.7071 0.7071 23.7746 185.531)" class="st4" width="6.9" height="13.5"/>
	<path class="st3" d="M207,83.2l9.7,9.7c1.2,1.2,1.2,3.1,0,4.4l0,0c-1.2,1.2-3.1,1.2-4.4,0l-9.7-9.7c-1.2-1.2-1.2-3.1,0-4.4l0,0
		C204,81.9,205.8,81.9,207,83.2z"/>
	
		<linearGradient id="SVGID_1_" gradientUnits="userSpaceOnUse" x1="14.6" y1="117.35" x2="220.1" y2="117.35" gradientTransform="matrix(1 0 0 -1 0 300)">
		<stop  offset="0" style="stop-color:#6268B6"/>
		<stop  offset="1" style="stop-color:#C4D0D8"/>
	</linearGradient>
	<path class="st5" d="M207.5,92.2L207.5,92.2l-5.7-5.7L177,79.9c0,0-3.6,24.2-63.4,84c-73,73.1-99,121.5-99,121.5
		s48.3-26,121.5-99.1c59.8-59.8,84-63.4,84-63.4l-6.7-24.7l-5.8-5.8l0.1,0.1"/>
	<path class="st6" d="M186.5,113.4"/>
	<path class="st7" d="M207.6,92.3L207.6,92.3c0.1,0.1-9,9-30.5-12.3c0,0,21.1,21.8,9.5,33.5c11.7-11.7,33.5,9.5,33.5,9.5
		C198.6,101.6,207.6,92.3,207.6,92.3L207.6,92.3"/>
	<line class="st8" x1="14.6" y1="285.5" x2="186.5" y2="113.3"/>
	<path class="st3" d="M242.3,97.7c-2-2-3.3-4.6-3.8-7.4c-0.2-1.2-0.8-2.3-1.7-3.2l-23.9-23.9c-0.9-0.9-2.1-1.5-3.2-1.7
		c-2.8-0.5-5.4-1.8-7.4-3.8c-5.9-6.1-13.7-15.7-14-23.9l-6.7,6.7l-6.7,6.7c8.2,0.3,17.7,8.1,23.9,14c2,2,3.3,4.6,3.8,7.4
		c0.2,1.2,0.8,2.3,1.7,3.2l23.9,23.9c0.9,0.9,2.1,1.5,3.2,1.7c2.8,0.5,5.4,1.8,7.4,3.8c5.9,6.1,13.7,15.7,14,23.9l6.7-6.7l6.7-6.7
		C257.9,111.4,248.4,103.6,242.3,97.7z"/>
	<path class="st3" d="M252,129.5L252,129.5c-1-1-1-2.7,0-3.7l14.9-14.9c1-1,2.7-1,3.7,0l0,0c1,1,1,2.7,0,3.7l-14.9,14.9
		C254.7,130.5,253,130.5,252,129.5z"/>
	<path class="st9" d="M268.7,116.5c3.1,3.1,3.1,8.1,0,11.2c-3.1,3.1-8.1,3.1-11.2,0L268.7,116.5z"/>
	<path class="st3" d="M189.1,29.3L189.1,29.3c1,1,1,2.7,0,3.7l-14.9,14.9c-1,1-2.7,1-3.7,0l0,0c-1-1-1-2.7,0-3.7l14.9-14.9
		C186.4,28.3,188,28.3,189.1,29.3z"/>
	<path class="st9" d="M172.3,42.4c-3.1-3.1-3.1-8.1,0-11.2s8.1-3.1,11.2,0L172.3,42.4z"/>
</g>
</svg>
