<?xml version="1.0" encoding="utf-8"?>
<!-- Generator: Adobe Illustrator 26.3.1, SVG Export Plug-In . SVG Version: 6.00 Build 0)  -->
<svg version="1.1" id="레이어_1" xmlns="http://www.w3.org/2000/svg" xmlns:xlink="http://www.w3.org/1999/xlink" x="0px"
	 y="0px" viewBox="0 0 300 300" style="enable-background:new 0 0 300 300;" xml:space="preserve">
<style type="text/css">
	.st0{fill:#FFFFFF;stroke:#000000;stroke-width:3;stroke-miterlimit:10;}
	.st1{fill:#FFFFFF;stroke:#000000;stroke-width:3;stroke-linecap:round;stroke-linejoin:round;stroke-miterlimit:10;}
	.st2{fill:#FFFFFF;stroke:#000000;stroke-width:3;stroke-linecap:round;stroke-linejoin:round;stroke-miterlimit:9.9999;}
	.st3{fill:none;stroke:#000000;stroke-width:3;stroke-linecap:round;stroke-linejoin:round;stroke-miterlimit:10;}
</style>
<g>
	<circle class="st0" cx="274.3" cy="25.6" r="21.6"/>
	<path class="st1" d="M222.7,89.2c0,0,7.1-6.9,13.5-5.2L226,73.9l-10.1-10.1c1.8,6.4-5.2,13.5-5.2,13.5L222.7,89.2z"/>
	<path class="st1" d="M229.4,58.8c0,0-2.4,2.3-8.8,0.5l10.1,10.1l10.1,10.1c-1.8-6.4,0.5-8.8,0.5-8.8L229.4,58.8z"/>
	<path class="st1" d="M220.3,59L241,79.7c1.3,1.3,1.3,3.3,0,4.7l0,0c-1.3,1.3-3.3,1.3-4.7,0l-20.7-20.7c-1.3-1.3-1.3-3.3,0-4.7l0,0
		C216.9,57.8,219,57.8,220.3,59z"/>
	<path class="st1" d="M255.8,56.3c0,0,7.1-6.9,13.5-5.2l-10.1-10.1L249,30.8c1.8,6.4-5.2,13.5-5.2,13.5L255.8,56.3z"/>
	<path class="st1" d="M253.3,25.9L274,46.6c1.3,1.3,1.3,3.3,0,4.7l0,0c-1.3,1.3-3.3,1.3-4.7,0l-20.7-20.7c-1.3-1.3-1.3-3.3,0-4.7
		l0,0C250,24.7,252.1,24.7,253.3,25.9z"/>
	<path class="st1" d="M234.7,54.8l10.5,10.5c1.3,1.3,1.3,3.3,0,4.7l0,0c-1.3,1.3-3.3,1.3-4.7,0L230,59.5c-1.3-1.3-1.3-3.3,0-4.7l0,0
		C231.3,53.6,233.5,53.6,234.7,54.8z"/>
	<path class="st1" d="M244.5,45L255,55.4c1.3,1.3,1.3,3.3,0,4.7l0,0c-1.3,1.3-3.3,1.3-4.7,0l-10.5-10.5c-1.3-1.3-1.3-3.3,0-4.7l0,0
		C241.2,43.8,243.3,43.8,244.5,45z"/>
	
		<rect x="238.9" y="50.2" transform="matrix(0.7071 -0.7071 0.7071 0.7071 30.4069 188.3745)" class="st2" width="7.4" height="14.5"/>
	<path class="st1" d="M211.5,78.1L222,88.5c1.3,1.3,1.3,3.3,0,4.7l0,0c-1.3,1.3-3.3,1.3-4.7,0l-10.5-10.5c-1.3-1.3-1.3-3.3,0-4.7
		l0,0C208.2,76.7,210.2,76.7,211.5,78.1z"/>
	<path class="st1" d="M212,87.8l0.1,0.1l-6.2-6.2l-26.7-7.2c0,0-3.9,26.1-68.3,90.5C32.2,243.8,4.2,295.9,4.2,295.9
		s52-28,130.9-106.8c64.4-64.4,90.5-68.3,90.5-68.3l-7.2-26.6l-6.2-6.2l0.1,0.1"/>
	<path class="st1" d="M189.4,110.6"/>
	<path class="st1" d="M211.9,87.7l0.1,0.1c0,0-9.8,9.6-33-13.4c0,0,22.7,23.5,10.2,36.1c12.6-12.6,36.1,10.2,36.1,10.2
		c-23-23-13.4-33-13.4-33l0.1,0.1"/>
	<line class="st3" x1="4.1" y1="296" x2="189.3" y2="110.5"/>
</g>
</svg>
