<?xml version="1.0" encoding="utf-8"?>
<!-- Generator: Adobe Illustrator 26.3.1, SVG Export Plug-In . SVG Version: 6.00 Build 0)  -->
<svg version="1.1" id="레이어_1" xmlns="http://www.w3.org/2000/svg" xmlns:xlink="http://www.w3.org/1999/xlink" x="0px"
	 y="0px" viewBox="0 0 300 300" style="enable-background:new 0 0 300 300;" xml:space="preserve">
<style type="text/css">
	.st0{fill:none;}
	.st1{fill:none;stroke:#E9BC00;stroke-width:2;stroke-linecap:round;stroke-linejoin:round;}
	.st2{fill:#C8776E;}
	.st3{fill:#E9BC00;}
	.st4{fill:#967905;stroke:#E9BC00;stroke-width:2.9998;stroke-linecap:round;stroke-linejoin:round;stroke-miterlimit:9.9994;}
	.st5{fill:#967905;stroke:#E9BC00;stroke-width:3;stroke-linecap:round;stroke-linejoin:round;stroke-miterlimit:10;}
	.st6{fill:#C8776E;stroke:#E9BC00;stroke-width:3;stroke-linecap:round;stroke-linejoin:round;stroke-miterlimit:10;}
	.st7{fill:url(#SVGID_1_);stroke:#E9BC00;stroke-width:3;stroke-linecap:round;stroke-linejoin:round;stroke-miterlimit:10;}
	
		.st8{fill:url(#SVGID_00000101792636589680738060000010236837230293440911_);stroke:#E9BC00;stroke-width:3;stroke-linecap:round;stroke-linejoin:round;stroke-miterlimit:10;}
	
		.st9{fill:url(#SVGID_00000119829298660491281050000004554710419483109034_);stroke:#E9BC00;stroke-width:3;stroke-linecap:round;stroke-linejoin:round;stroke-miterlimit:10;}
	
		.st10{fill:url(#SVGID_00000071552756470065551070000005538455736714091150_);stroke:#E9BC00;stroke-width:3;stroke-linecap:round;stroke-linejoin:round;stroke-miterlimit:10;}
	
		.st11{fill:url(#SVGID_00000109742036084785648300000004630124779014154647_);stroke:#E9BC00;stroke-width:3;stroke-linecap:round;stroke-linejoin:round;stroke-miterlimit:10;}
	
		.st12{fill:url(#SVGID_00000042705569111723765400000007946801644980505498_);stroke:#E9BC00;stroke-width:3;stroke-linecap:round;stroke-linejoin:round;stroke-miterlimit:10;}
</style>
<pattern  y="300" width="72" height="72" patternUnits="userSpaceOnUse" id="주름" viewBox="17.1 -87.9 72 72" style="overflow:visible;">
	<g>
		<rect x="17.1" y="-87.9" class="st0" width="72" height="72"/>
		<g>
			<rect x="17.1" y="-87.9" class="st0" width="72" height="72"/>
			<g>
				<rect x="17.1" y="-87.9" class="st0" width="72" height="72"/>
				<g>
					<path class="st1" d="M72.2-1c0,0,4.1-0.9,2.4-4.4s0-4.4,2.5-4.7c2.5-0.3,4.1-2.1,2.7-5"/>
					<path class="st1" d="M34.1-15.2c0,0,4.2,0.2,3,3.9C36-7.5,37.9-6.9,40.4-7s4.4,1.4,3.5,4.5"/>
					<path class="st1" d="M18.3-2.7c0,0,4.2-0.2,3-3.9c-1.1-3.7,0.7-4.3,3.2-4.2c2.6,0.1,4.4-1.5,3.5-4.5"/>
				</g>
				<g>
					<path class="st1" d="M97.5-23.7c0,0,1,4.1-2.9,4s-3.9,1.9-3.1,4.3s-0.2,4.6-3.3,4.6"/>
				</g>
				<g>
					<rect x="17.1" y="-87.9" class="st2" width="72" height="72"/>
					<path class="st1" d="M30.4-72.3c0,0,3.8-1.7,4.5,2.1c0.7,3.8,2.6,3.5,4.8,2.2c2.2-1.3,4.6-0.7,5.1,2.4"/>
					<path class="st1" d="M83.1-59.1c0,0-2.6,3.3-5,0.2s-3.9-1.9-5.3,0.2c-1.4,2.1-3.7,2.7-5.7,0.2"/>
					<path class="st1" d="M56.1-58.8c0,0-3.8-1.7-1.5-4.7c2.4-3.1,0.9-4.3-1.6-5.1c-2.4-0.8-3.6-2.9-1.7-5.4"/>
					<path class="st1" d="M58.2-63.1c0,0,4.1-0.9,2.4-4.4c-1.7-3.5,0-4.4,2.5-4.7c2.5-0.3,4.1-2.1,2.7-5"/>
					<path class="st1" d="M72.2-73c0,0,4.1-0.9,2.4-4.4s0-4.4,2.5-4.7c2.5-0.3,4.1-2.1,2.7-5"/>
					<path class="st1" d="M44.4-53.7c0,0,3.7-2,1.1-4.8c-2.6-2.9-1.2-4.2,1.1-5.2c2.4-1,3.4-3.2,1.2-5.5"/>
					<path class="st1" d="M27.4-64.9c0,0,1.3,4-2.6,4.2c-3.9,0.3-3.8,2.2-2.8,4.5s0.2,4.6-2.9,4.8"/>
					<path class="st1" d="M24.6-46.7c0,0-2-3.6,1.7-4.6c3.8-1,3.3-2.9,1.8-5c-1.4-2.1-1.1-4.5,2-5.3"/>
					<path class="st1" d="M37.5-70.9c0,0,1.3-3.9,4.6-1.8s4.3,0.5,4.9-2c0.6-2.5,2.6-3.8,5.3-2.1"/>
					<path class="st1" d="M29.4-43.4c0,0-1.8-3.8,2-4.5s3.5-2.6,2.2-4.8c-1.3-2.2-0.8-4.6,2.3-5.2"/>
					<path class="st1" d="M41.1-49.2c0,0-3.4-2.4-0.5-4.9c2.9-2.6,1.7-4-0.5-5.3s-3-3.5-0.6-5.6"/>
					<path class="st1" d="M28.1-28.2c0,0,0.3-4.2,4-2.9c3.7,1.2,4.3-0.6,4.3-3.1c-0.1-2.6,1.6-4.4,4.6-3.4"/>
					<path class="st1" d="M46.6-35c0,0-0.4,4.2-4,2.9c-3.7-1.3-4.3,0.5-4.3,3.1s-1.6,4.3-4.6,3.3"/>
					<path class="st1" d="M36.7-60.6c0,0-4.2,0.2-3.4-3.6c0.8-3.8-1.1-4.2-3.6-3.9c-2.5,0.3-4.5-1-3.9-4.1"/>
					<path class="st1" d="M49.8-59.9c0,0-1.5,3.9,2.4,4.4s3.7,2.4,2.5,4.7c-1.1,2.3-0.4,4.6,2.7,5"/>
					<path class="st1" d="M20.4-42.2c0,0,1.9,3.7,4.8,1.1c2.9-2.6,4.2-1.2,5.2,1.2s3.1,3.4,5.5,1.3"/>
					<path class="st1" d="M68.1-4.5c0,0-1.9-3.7,1.9-4.6c3.8-0.8,3.4-2.7,2.1-4.9s-0.9-4.5,2.2-5.2"/>
					<path class="st1" d="M81.6-77.9c0,0,2.5,3.4-1.1,4.8c-3.6,1.5-2.9,3.3-1.2,5.2c1.7,1.9,1.6,4.3-1.3,5.5"/>
					<path class="st1" d="M77-73.6c0,0-4.1,0.8-2.4,4.3s0,4.4-2.6,4.6c-2.5,0.3-4.1,2.1-2.7,5"/>
					<path class="st1" d="M34.1-87.2c0,0,4.2,0.2,3,3.9c-1.1,3.7,0.7,4.3,3.3,4.2c2.5-0.1,4.4,1.4,3.5,4.5"/>
					<path class="st1" d="M56.5-72.2c0,0-4-1-2.2-4.4c1.8-3.4,0.1-4.4-2.4-4.7c-2.5-0.4-4-2.3-2.6-5.1"/>
					<path class="st1" d="M35.1-80c0,0-4-1.3-4.2,2.6s-2.2,3.8-4.5,2.8s-4.6-0.2-4.8,3"/>
					<path class="st1" d="M25.5-23.7c0,0,1,4.1-2.9,4s-3.9,1.9-3.1,4.3s-0.2,4.6-3.3,4.6"/>
					<path class="st1" d="M87.4-54.4c0,0-2.3,3.5-4.9,0.7s-4.1-1.6-5.3,0.7c-1.2,2.3-3.5,3.1-5.6,0.7"/>
					<path class="st1" d="M67.4-86.3c0,0,1,4.1-2.9,4s-3.9,1.9-3.1,4.3c0.8,2.4-0.2,4.6-3.3,4.6"/>
					<path class="st1" d="M60.9-56.1c0,0-1.6-3.8,2.2-4.4c3.8-0.6,3.6-2.5,2.4-4.8c-1.2-2.2-0.6-4.6,2.5-5.1"/>
					<path class="st1" d="M91.9-54.3c0,0-4.1-0.4-2.8-4.1c1.3-3.6-0.5-4.3-3-4.4c-2.6,0-4.3-1.7-3.2-4.7"/>
					<path class="st1" d="M79.2-49.7c0,0,3.5-2.3,4.8,1.3c1.3,3.7,3.1,3,5.1,1.4s4.4-1.5,5.5,1.5"/>
					<path class="st1" d="M88.7-25.1c0,0-0.8,4.1-4.3,2.5s-4.4,0.1-4.6,2.7c-0.2,2.5-2,4.2-4.9,2.8"/>
					<path class="st1" d="M45.8-43.9c0,0,4.1,0.6,2.7,4.2c-1.4,3.6,0.3,4.4,2.9,4.5c2.6,0.1,4.3,1.8,3.1,4.7"/>
					<path class="st1" d="M31.9-44.4c0,0,1.2,4,4.5,2c3.3-2,4.3-0.4,4.9,2.1c0.5,2.5,2.5,3.9,5.2,2.3"/>
					<path class="st1" d="M18.9-27.9c0,0,1.2,4,4.5,2s4.3-0.4,4.9,2.1c0.5,2.5,2.5,3.9,5.2,2.3"/>
					<path class="st1" d="M54.9-18.9c0,0,4.2-0.4,2.9-4c-1.3-3.7,0.5-4.3,3.1-4.3s4.3-1.6,3.3-4.6"/>
					<path class="st1" d="M51.6-27.8c0,0,3.2,2.7,0.1,5c-3.1,2.3-2,3.9,0.1,5.3s2.6,3.8,0.1,5.7"/>
					<path class="st1" d="M67.9-24.3c0,0-3.4-2.5-0.4-4.9c3-2.5,1.8-4-0.4-5.3c-2.2-1.3-2.9-3.6-0.4-5.6"/>
					<path class="st1" d="M73-28.4c0,0,2.8-3.1,5,0.2c2.1,3.2,3.8,2.2,5.3,0.2s3.9-2.5,5.7,0.2"/>
					<path class="st1" d="M57.2-55.4c0,0,4.2,0.2,3,3.9s0.7,4.3,3.2,4.2c2.6-0.1,4.4,1.5,3.4,4.5"/>
					<path class="st1" d="M48.7-47.5c0,0-0.4,4.2,3.4,3.6c3.8-0.6,4.2,1.3,3.7,3.8s0.8,4.6,3.9,4.1"/>
					<path class="st1" d="M36.5-45.2c0,0,1.1-4,4.5-2.2c3.4,1.9,4.4,0.2,4.8-2.3c0.4-2.5,2.3-4,5.1-2.5"/>
					<path class="st1" d="M18.3-74.7c0,0,4.2-0.2,3-3.9c-1.1-3.7,0.7-4.3,3.2-4.2c2.6,0.1,4.4-1.5,3.5-4.5"/>
					<path class="st1" d="M52.7-30.2c0,0-3.8-1.7-4.5,2.2c-0.6,3.8-2.5,3.5-4.8,2.3c-2.2-1.2-4.6-0.7-5.1,2.5"/>
					<path class="st1" d="M100.9-35.1c0,0-1.6-3.9-4.7-1.5c-3.1,2.3-4.3,0.8-5-1.7c-0.8-2.4-2.8-3.6-5.4-1.8"/>
					<path class="st1" d="M84.8-39c0,0-1,4-4.4,2.2C77-38.6,76-37,75.6-34.4c-0.4,2.5-2.3,4-5.1,2.5"/>
					<path class="st1" d="M76.7-27.1c0,0-0.1,4.2-3.9,3.1c-3.7-1.1-4.3,0.8-4.1,3.3c0.2,2.5-1.4,4.4-4.4,3.6"/>
					<path class="st1" d="M68.4-39.9c0,0,2-3.6,4.9-1c2.8,2.7,4.2,1.3,5.2-1.1c1-2.3,3.2-3.3,5.5-1.1"/>
					<path class="st1" d="M58.3-28.8c0,0-2-3.7,1.8-4.6s3.3-2.8,1.9-4.9c-1.4-2.1-1-4.5,2.1-5.3"/>
					<path class="st1" d="M79.1-4.3c0,0-1.3-4,2.6-4.2c3.9-0.3,3.8-2.2,2.8-4.5s-0.2-4.6,2.9-4.8"/>
					<path class="st1" d="M63.5-53.9c0,0,4.1-0.8,3.9,3.1s1.7,4,4.2,3.3c2.4-0.7,4.6,0.3,4.4,3.5"/>
					<path class="st1" d="M83.6-75.1c0,0,4.1-0.5,3.7,3.3c-0.5,3.9,1.4,4.1,3.9,3.6c2.5-0.6,4.6,0.7,4.2,3.8"/>
					<path class="st1" d="M82.1-34c0,0,2.4,3.4,4.9,0.5c2.5-3,4-1.7,5.3,0.5s3.6,2.9,5.6,0.5"/>
					<path class="st1" d="M62.5-25c0,0-3.7,1.9-1.2,4.8S62.4-16,60-15c-2.4,0.9-3.4,3.1-1.4,5.5"/>
					<path class="st1" d="M45.3-7.6c0,0-3.6-2.2-0.8-4.9s1.4-4.1-0.9-5.2c-2.3-1.1-3.2-3.4-0.9-5.6"/>
					<path class="st1" d="M37-22.2c0,0,1.2,4-2.7,4.2s-3.8,2.1-2.9,4.5c1,2.4,0.1,4.6-3.1,4.8"/>
				</g>
				<g>
					<path class="st1" d="M19.9-54.3c0,0-4.1-0.4-2.8-4.1c1.3-3.6-0.5-4.3-3-4.4c-2.6,0-4.3-1.7-3.2-4.7"/>
					<path class="st1" d="M7.2-49.7c0,0,3.5-2.3,4.8,1.3c1.3,3.7,3.1,3,5.1,1.4s4.4-1.5,5.5,1.5"/>
					<path class="st1" d="M16.7-25.1c0,0-0.8,4.1-4.3,2.5S8-22.5,7.8-19.9c-0.2,2.5-2,4.2-4.9,2.8"/>
					<path class="st1" d="M1-28.4c0,0,2.8-3.1,5,0.2C8.1-25,9.8-26,11.3-28s3.9-2.5,5.7,0.2"/>
					<path class="st1" d="M28.9-35.1c0,0-1.6-3.9-4.7-1.5c-3.1,2.3-4.3,0.8-5-1.7c-0.8-2.4-2.8-3.6-5.4-1.8"/>
					<path class="st1" d="M11.6-75.1c0,0,4.1-0.5,3.7,3.3c-0.5,3.9,1.4,4.1,3.9,3.6c2.5-0.6,4.6,0.7,4.2,3.8"/>
					<path class="st1" d="M10.1-34c0,0,2.4,3.4,4.9,0.5c2.5-3,4-1.7,5.3,0.5s3.6,2.9,5.6,0.5"/>
				</g>
				<g>
					<path class="st1" d="M97.5-95.7c0,0,1,4.1-2.9,4s-3.9,1.9-3.1,4.3s-0.2,4.6-3.3,4.6"/>
				</g>
				<g>
					<path class="st1" d="M68.1-76.5c0,0-1.9-3.7,1.9-4.6c3.8-0.8,3.4-2.7,2.1-4.9c-1.3-2.2-0.9-4.5,2.2-5.2"/>
					<path class="st1" d="M25.5-95.7c0,0,1,4.1-2.9,4s-3.9,1.9-3.1,4.3s-0.2,4.6-3.3,4.6"/>
					<path class="st1" d="M88.7-97.1c0,0-0.8,4.1-4.3,2.5c-3.5-1.6-4.4,0.1-4.6,2.7c-0.2,2.5-2,4.2-4.9,2.8"/>
					<path class="st1" d="M51.6-99.8c0,0,3.2,2.7,0.1,5c-3.1,2.3-2,3.9,0.1,5.3c2.1,1.4,2.6,3.8,0.1,5.7"/>
					<path class="st1" d="M76.7-99.1c0,0-0.1,4.2-3.9,3.1c-3.7-1.1-4.3,0.8-4.1,3.3c0.2,2.5-1.4,4.4-4.4,3.6"/>
					<path class="st1" d="M79.1-76.3c0,0-1.3-4,2.6-4.2c3.9-0.3,3.8-2.2,2.8-4.5c-1-2.3-0.2-4.6,2.9-4.8"/>
					<path class="st1" d="M62.5-97c0,0-3.7,1.9-1.2,4.8S62.4-88,60-87c-2.4,0.9-3.4,3.1-1.4,5.5"/>
					<path class="st1" d="M45.3-79.6c0,0-3.6-2.2-0.8-4.9c2.8-2.7,1.4-4.1-0.9-5.2c-2.3-1.1-3.2-3.4-0.9-5.6"/>
					<path class="st1" d="M37-94.2c0,0,1.2,4-2.7,4.2c-3.9,0.2-3.8,2.1-2.9,4.5c1,2.4,0.1,4.6-3.1,4.8"/>
				</g>
				<g>
					<path class="st1" d="M16.7-97.1c0,0-0.8,4.1-4.3,2.5c-3.5-1.6-4.4,0.1-4.6,2.7c-0.2,2.5-2,4.2-4.9,2.8"/>
				</g>
			</g>
		</g>
	</g>
</pattern>
<g>
	<path class="st3" d="M170.3,225.7c-11.6,0-24.8-1.9-38.4-5.5c-30.2-8.1-52.8-22-56.9-34.9c-10.9-5.6-20.6-11.5-29-17.8
		c-23-17.2-33.5-35.1-29.4-50.3c2.4-9,9.8-16.4,21.5-21.5c8.3-4.4,19.3-7.3,32.8-8.6c5.8-0.6,11.9-0.9,18.3-0.9
		c9.8,0,20.2,0.7,31.1,2c5.5-7.2,17.6-12.4,31.9-13.7c2.1-0.2,4.1-0.3,6.1-0.3c18.1,0,31.4,7,32.2,17c0.1,0.7,0.1,1.4,0,2.1l0.4,4.4
		c0.1,0.8,0.1,1.6,0,2.4c8.4,3.1,15.4,7.6,19.7,12.7c15.7,6.8,29.3,14.4,40.6,22.5c11.2,8,19.3,16.2,24.3,24.2
		c7.5,10.3,10,20.1,7.6,29.1c-4.1,15.2-22,25.4-50.6,28.9c-6.9,0.8-14.2,1.2-21.9,1.2c-3.9,0-7.9-0.1-12.1-0.3
		c-4.1,3.8-11.3,6.2-21,7C175.4,225.6,172.9,225.7,170.3,225.7z"/>
	<path class="st3" d="M158.5,75.8c16.9,0,29.9,6.4,30.7,15.6l0,0c0.1,0.7,0,1.3,0,1.9l0.4,4.5c0.1,1.1,0,2.2-0.3,3.3
		c9,3.2,16.3,7.8,20.5,12.9c15.5,6.7,29.3,14.3,40.7,22.5c11.1,8,19.1,16,23.9,23.8c7.1,9.8,9.7,19.3,7.4,27.9
		c-3.9,14.6-21.4,24.4-49.3,27.8c-6.9,0.8-14.1,1.2-21.8,1.2c-4.1,0-8.3-0.1-12.6-0.4c-3.7,3.8-10.8,6.2-20.5,7
		c-2.3,0.2-4.7,0.3-7.3,0.3c-11.3,0-24.5-1.9-38-5.5c-30.3-8.1-52.8-22.3-56-34.5c-10.9-5.5-20.8-11.6-29.3-17.9
		c-22.5-16.8-32.8-34.1-28.9-48.7C20.5,109,27.6,102,38.8,97c8-4.2,18.9-7.1,32.3-8.5c5.8-0.6,11.8-0.9,18.2-0.9
		c10,0,20.7,0.7,31.8,2.1c4.8-7,16.7-12.5,31.4-13.8C154.5,75.9,156.5,75.8,158.5,75.8 M158.5,72.8c-2.1,0-4.2,0.1-6.2,0.3
		c-14.3,1.2-26.5,6.4-32.5,13.6c-10.6-1.3-20.8-1.9-30.4-1.9c-6.4,0-12.7,0.3-18.5,0.9C57.2,87,46,89.9,37.5,94.3
		c-12.1,5.3-19.8,13.1-22.3,22.5c-4.2,15.8,6.4,34.3,30,51.9c8.3,6.2,17.9,12.1,28.7,17.6c4.7,13.2,27.6,27.2,57.7,35.3
		c13.7,3.7,27.1,5.6,38.8,5.6c2.6,0,5.1-0.1,7.5-0.3c9.7-0.8,16.9-3.1,21.4-7c4,0.2,7.8,0.3,11.5,0.3c7.8,0,15.2-0.4,22.1-1.2
		c29.2-3.5,47.6-14.1,51.9-30c2.5-9.3-0.2-19.8-7.8-30.3c-5.1-8.1-13.4-16.4-24.7-24.5s-24.9-15.7-40.6-22.5c-4.3-5-11-9.3-19-12.4
		c0-0.5,0-1,0-1.5l-0.4-4.3c0.1-0.7,0.1-1.5,0-2.2C191.3,80.3,177.4,72.8,158.5,72.8L158.5,72.8z"/>
</g>
<g>
	<g>
		
			<ellipse transform="matrix(0.2588 -0.9659 0.9659 0.2588 -86.0991 278.7223)" class="st4" cx="138.6" cy="195.5" rx="22.5" ry="63"/>
		<ellipse transform="matrix(0.2588 -0.9659 0.9659 0.2588 -36.5251 258.1864)" class="st4" cx="150" cy="152.9" rx="54" ry="135"/>
		
			<ellipse transform="matrix(0.2588 -0.9659 0.9659 0.2588 -30.4494 255.7123)" class="st4" cx="151.4" cy="147.7" rx="49.5" ry="130.5"/>
		
			<ellipse transform="matrix(0.2588 -0.9659 0.9659 0.2588 -26.9564 254.3325)" class="st4" cx="152.2" cy="144.7" rx="41.4" ry="117.5"/>
		<path class="st5" d="M160.7,112.9c58.7,15.7,102.8,44.4,103.3,66.1c0.8-1.3,1.3-2.6,1.7-4c5.9-22.1-40.1-53.6-102.8-70.4
			S44.7,92.2,38.7,114.3c-0.4,1.4-0.5,2.8-0.5,4.3C49.5,100,102,97.2,160.7,112.9z"/>
	</g>
	<path class="st6" d="M72.4,124.9c-2.4,9,10.2,20.2,28.3,25.1c18,4.8,34.6,1.4,37-7.6l1.7-6.3l-65.3-17.5L72.4,124.9z"/>
	<pattern  id="SVGID_1_" xlink:href="#二쇰" patternTransform="matrix(1 0 0 1 56.7088 17132.7773)">
	</pattern>
	<path class="st7" d="M139.4,136.2c-2.4,9-19,12.4-37,7.6c-18-4.8-30.7-16.1-28.3-25.1s19-12.4,37-7.6
		C129.1,115.9,141.8,127.2,139.4,136.2z"/>
	<path class="st6" d="M168.1,141.8c-2.4,9,10.2,20.2,28.3,25.1c18,4.8,34.6,1.4,37-7.6l1.7-6.3l-65.3-17.5L168.1,141.8z"/>
	
		<pattern  id="SVGID_00000055683440893911281320000009400703167479441848_" xlink:href="#二쇰" patternTransform="matrix(1 0 0 1 152.4088 17115.877)">
	</pattern>
	
		<path style="fill:url(#SVGID_00000055683440893911281320000009400703167479441848_);stroke:#E9BC00;stroke-width:3;stroke-linecap:round;stroke-linejoin:round;stroke-miterlimit:10;" d="
		M235.1,153.1c-2.4,9-19,12.4-37,7.6c-18-4.8-30.7-16.1-28.3-25.1s19-12.4,37-7.6C224.8,132.8,237.5,144,235.1,153.1z"/>
	<path class="st6" d="M103.8,121.4c-1.6,9.2,12.1,19.2,30.5,22.3s34.6-1.8,36.2-11l1.1-6.4L104.9,115L103.8,121.4z"/>
	
		<pattern  id="SVGID_00000033344274498100374740000004813458195949494920_" xlink:href="#二쇰" patternTransform="matrix(1 0 0 1 87.673 17138.6289)">
	</pattern>
	
		<path style="fill:url(#SVGID_00000033344274498100374740000004813458195949494920_);stroke:#E9BC00;stroke-width:3;stroke-linecap:round;stroke-linejoin:round;stroke-miterlimit:10;" d="
		M171.6,126.3c-1.6,9.2-17.7,14.1-36.2,11c-18.4-3.1-32.1-13.1-30.5-22.3s17.7-14.1,36.2-11S173.1,117.1,171.6,126.3z"/>
	<path class="st6" d="M145.1,114.8c-2.4,9,10.2,20.2,28.3,25.1c18,4.8,34.6,1.4,37-7.6l1.7-6.3l-65.3-17.5L145.1,114.8z"/>
	
		<pattern  id="SVGID_00000006675749286807834580000001258401463054427044_" xlink:href="#二쇰" patternTransform="matrix(1 0 0 1 129.4088 17142.877)">
	</pattern>
	
		<path style="fill:url(#SVGID_00000006675749286807834580000001258401463054427044_);stroke:#E9BC00;stroke-width:3;stroke-linecap:round;stroke-linejoin:round;stroke-miterlimit:10;" d="
		M212.1,126.1c-2.4,9-19,12.4-37,7.6s-30.7-16.1-28.3-25.1s19-12.4,37-7.6C201.9,105.8,214.5,117,212.1,126.1z"/>
	<path class="st6" d="M120.8,103.7c0.8,9.3,16.5,15.5,35.1,14c18.6-1.6,33-10.4,32.2-19.7l-0.6-6.5l-67.4,5.8L120.8,103.7z"/>
	
		<pattern  id="SVGID_00000063628179462052247620000003594468701741749677_" xlink:href="#二쇰" patternTransform="matrix(1 0 0 1 103.2682 17164.4473)">
	</pattern>
	
		<path style="fill:url(#SVGID_00000063628179462052247620000003594468701741749677_);stroke:#E9BC00;stroke-width:3;stroke-linecap:round;stroke-linejoin:round;stroke-miterlimit:10;" d="
		M187.7,91.5c0.8,9.3-13.6,18.1-32.2,19.7s-34.3-4.7-35.1-14s13.6-18.1,32.2-19.7S186.9,82.2,187.7,91.5z"/>
	<path class="st6" d="M141.4,145.3c-4.6,8.1,4.8,22.2,21,31.4s33.1,10.2,37.7,2.1l3.2-5.6l-58.7-33.5L141.4,145.3z"/>
	
		<pattern  id="SVGID_00000028297054000443076420000001031523720958887306_" xlink:href="#二쇰" patternTransform="matrix(1 0 0 1 126.3323 17107.5234)">
	</pattern>
	
		<path style="fill:url(#SVGID_00000028297054000443076420000001031523720958887306_);stroke:#E9BC00;stroke-width:3;stroke-linecap:round;stroke-linejoin:round;stroke-miterlimit:10;" d="
		M203.3,173.2c-4.6,8.1-21.5,7.2-37.7-2.1s-25.6-23.3-21-31.4c4.6-8.1,21.5-7.2,37.7,2.1S207.9,165.1,203.3,173.2z"/>
</g>
</svg>
