<?xml version="1.0" encoding="utf-8"?>
<!-- Generator: Adobe Illustrator 26.3.1, SVG Export Plug-In . SVG Version: 6.00 Build 0)  -->
<svg version="1.1" id="레이어_1" xmlns="http://www.w3.org/2000/svg" xmlns:xlink="http://www.w3.org/1999/xlink" x="0px"
	 y="0px" viewBox="0 0 300 300" style="enable-background:new 0 0 300 300;" xml:space="preserve">
<style type="text/css">
	.st0{fill:none;}
	.st1{fill:none;stroke:#E9BC00;stroke-width:2;stroke-linecap:round;stroke-linejoin:round;}
	.st2{fill:#C8776E;}
	.st3{fill:#967905;stroke:#E9BC00;stroke-width:3;stroke-linecap:round;stroke-linejoin:round;stroke-miterlimit:10;}
	.st4{fill:#C8776E;stroke:#E9BC00;stroke-width:3;stroke-linecap:round;stroke-linejoin:round;stroke-miterlimit:10;}
	.st5{fill:url(#주름);stroke:#E9BC00;stroke-width:3;stroke-linecap:round;stroke-linejoin:round;stroke-miterlimit:10;}
</style>
<pattern  y="300" width="72" height="72" patternUnits="userSpaceOnUse" id="주름" viewBox="17.1 -87.9 72 72" style="overflow:visible;">
	<g>
		<rect x="17.1" y="-87.9" class="st0" width="72" height="72"/>
		<g>
			<path class="st1" d="M72.2-1c0,0,4.1-0.9,2.4-4.4c-1.7-3.5,0-4.4,2.5-4.7c2.5-0.3,4.1-2.1,2.7-5"/>
			<path class="st1" d="M34.1-15.2c0,0,4.2,0.2,3,3.9C36-7.5,37.9-6.9,40.4-7c2.5-0.1,4.4,1.4,3.5,4.5"/>
			<path class="st1" d="M18.3-2.7c0,0,4.2-0.2,3-3.9c-1.1-3.7,0.7-4.3,3.2-4.2c2.6,0.1,4.4-1.5,3.5-4.5"/>
		</g>
		<g>
			<path class="st1" d="M97.5-23.7c0,0,1,4.1-2.9,4c-3.9-0.1-3.9,1.9-3.1,4.3s-0.2,4.6-3.3,4.6"/>
		</g>
		<g>
			<rect x="17.1" y="-87.9" class="st2" width="72" height="72"/>
			<path class="st1" d="M30.4-72.3c0,0,3.8-1.7,4.5,2.1c0.7,3.8,2.6,3.5,4.8,2.2c2.2-1.3,4.6-0.7,5.1,2.4"/>
			<path class="st1" d="M83.1-59.1c0,0-2.6,3.3-5,0.2c-2.4-3.1-3.9-1.9-5.3,0.2c-1.4,2.1-3.7,2.7-5.7,0.2"/>
			<path class="st1" d="M56.1-58.8c0,0-3.8-1.7-1.5-4.7c2.4-3.1,0.9-4.3-1.6-5.1c-2.4-0.8-3.6-2.9-1.7-5.4"/>
			<path class="st1" d="M58.2-63.1c0,0,4.1-0.9,2.4-4.4c-1.7-3.5,0-4.4,2.5-4.7c2.5-0.3,4.1-2.1,2.7-5"/>
			<path class="st1" d="M72.2-73c0,0,4.1-0.9,2.4-4.4c-1.7-3.5,0-4.4,2.5-4.7c2.5-0.3,4.1-2.1,2.7-5"/>
			<path class="st1" d="M44.4-53.7c0,0,3.7-2,1.1-4.8c-2.6-2.9-1.2-4.2,1.1-5.2c2.4-1,3.4-3.2,1.2-5.5"/>
			<path class="st1" d="M27.4-64.9c0,0,1.3,4-2.6,4.2c-3.9,0.3-3.8,2.2-2.8,4.5c1,2.3,0.2,4.6-2.9,4.8"/>
			<path class="st1" d="M24.6-46.7c0,0-2-3.6,1.7-4.6c3.8-1,3.3-2.9,1.8-5c-1.4-2.1-1.1-4.5,2-5.3"/>
			<path class="st1" d="M37.5-70.9c0,0,1.3-3.9,4.6-1.8c3.3,2.1,4.3,0.5,4.9-2c0.6-2.5,2.6-3.8,5.3-2.1"/>
			<path class="st1" d="M29.4-43.4c0,0-1.8-3.8,2-4.5c3.8-0.7,3.5-2.6,2.2-4.8c-1.3-2.2-0.8-4.6,2.3-5.2"/>
			<path class="st1" d="M41.1-49.2c0,0-3.4-2.4-0.5-4.9c2.9-2.6,1.7-4-0.5-5.3c-2.2-1.3-3-3.5-0.6-5.6"/>
			<path class="st1" d="M28.1-28.2c0,0,0.3-4.2,4-2.9c3.7,1.2,4.3-0.6,4.3-3.1c-0.1-2.6,1.6-4.4,4.6-3.4"/>
			<path class="st1" d="M46.6-35c0,0-0.4,4.2-4,2.9c-3.7-1.3-4.3,0.5-4.3,3.1c0,2.6-1.6,4.3-4.6,3.3"/>
			<path class="st1" d="M36.7-60.6c0,0-4.2,0.2-3.4-3.6c0.8-3.8-1.1-4.2-3.6-3.9c-2.5,0.3-4.5-1-3.9-4.1"/>
			<path class="st1" d="M49.8-59.9c0,0-1.5,3.9,2.4,4.4c3.9,0.5,3.7,2.4,2.5,4.7c-1.1,2.3-0.4,4.6,2.7,5"/>
			<path class="st1" d="M20.4-42.2c0,0,1.9,3.7,4.8,1.1c2.9-2.6,4.2-1.2,5.2,1.2c1,2.4,3.1,3.4,5.5,1.3"/>
			<path class="st1" d="M68.1-4.5c0,0-1.9-3.7,1.9-4.6c3.8-0.8,3.4-2.7,2.1-4.9c-1.3-2.2-0.9-4.5,2.2-5.2"/>
			<path class="st1" d="M81.6-77.9c0,0,2.5,3.4-1.1,4.8c-3.6,1.5-2.9,3.3-1.2,5.2c1.7,1.9,1.6,4.3-1.3,5.5"/>
			<path class="st1" d="M77-73.6c0,0-4.1,0.8-2.4,4.3c1.7,3.5,0,4.4-2.6,4.6c-2.5,0.3-4.1,2.1-2.7,5"/>
			<path class="st1" d="M34.1-87.2c0,0,4.2,0.2,3,3.9c-1.1,3.7,0.7,4.3,3.3,4.2c2.5-0.1,4.4,1.4,3.5,4.5"/>
			<path class="st1" d="M56.5-72.2c0,0-4-1-2.2-4.4c1.8-3.4,0.1-4.4-2.4-4.7c-2.5-0.4-4-2.3-2.6-5.1"/>
			<path class="st1" d="M35.1-80c0,0-4-1.3-4.2,2.6c-0.2,3.9-2.2,3.8-4.5,2.8c-2.3-1-4.6-0.2-4.8,3"/>
			<path class="st1" d="M25.5-23.7c0,0,1,4.1-2.9,4c-3.9-0.1-3.9,1.9-3.1,4.3s-0.2,4.6-3.3,4.6"/>
			<path class="st1" d="M87.4-54.4c0,0-2.3,3.5-4.9,0.7c-2.6-2.8-4.1-1.6-5.3,0.7c-1.2,2.3-3.5,3.1-5.6,0.7"/>
			<path class="st1" d="M67.4-86.3c0,0,1,4.1-2.9,4c-3.9-0.1-3.9,1.9-3.1,4.3c0.8,2.4-0.2,4.6-3.3,4.6"/>
			<path class="st1" d="M60.9-56.1c0,0-1.6-3.8,2.2-4.4c3.8-0.6,3.6-2.5,2.4-4.8c-1.2-2.2-0.6-4.6,2.5-5.1"/>
			<path class="st1" d="M91.9-54.3c0,0-4.1-0.4-2.8-4.1c1.3-3.6-0.5-4.3-3-4.4c-2.6,0-4.3-1.7-3.2-4.7"/>
			<path class="st1" d="M79.2-49.7c0,0,3.5-2.3,4.8,1.3c1.3,3.7,3.1,3,5.1,1.4c2-1.6,4.4-1.5,5.5,1.5"/>
			<path class="st1" d="M88.7-25.1c0,0-0.8,4.1-4.3,2.5c-3.5-1.6-4.4,0.1-4.6,2.7c-0.2,2.5-2,4.2-4.9,2.8"/>
			<path class="st1" d="M45.8-43.9c0,0,4.1,0.6,2.7,4.2c-1.4,3.6,0.3,4.4,2.9,4.5c2.6,0.1,4.3,1.8,3.1,4.7"/>
			<path class="st1" d="M31.9-44.4c0,0,1.2,4,4.5,2c3.3-2,4.3-0.4,4.9,2.1c0.5,2.5,2.5,3.9,5.2,2.3"/>
			<path class="st1" d="M18.9-27.9c0,0,1.2,4,4.5,2c3.3-2,4.3-0.4,4.9,2.1c0.5,2.5,2.5,3.9,5.2,2.3"/>
			<path class="st1" d="M54.9-18.9c0,0,4.2-0.4,2.9-4c-1.3-3.7,0.5-4.3,3.1-4.3c2.6,0,4.3-1.6,3.3-4.6"/>
			<path class="st1" d="M51.6-27.8c0,0,3.2,2.7,0.1,5c-3.1,2.3-2,3.9,0.1,5.3c2.1,1.4,2.6,3.8,0.1,5.7"/>
			<path class="st1" d="M67.9-24.3c0,0-3.4-2.5-0.4-4.9c3-2.5,1.8-4-0.4-5.3c-2.2-1.3-2.9-3.6-0.4-5.6"/>
			<path class="st1" d="M73-28.4c0,0,2.8-3.1,5,0.2c2.1,3.2,3.8,2.2,5.3,0.2c1.5-2,3.9-2.5,5.7,0.2"/>
			<path class="st1" d="M57.2-55.4c0,0,4.2,0.2,3,3.9c-1.2,3.7,0.7,4.3,3.2,4.2c2.6-0.1,4.4,1.5,3.4,4.5"/>
			<path class="st1" d="M48.7-47.5c0,0-0.4,4.2,3.4,3.6c3.8-0.6,4.2,1.3,3.7,3.8c-0.5,2.5,0.8,4.6,3.9,4.1"/>
			<path class="st1" d="M36.5-45.2c0,0,1.1-4,4.5-2.2c3.4,1.9,4.4,0.2,4.8-2.3c0.4-2.5,2.3-4,5.1-2.5"/>
			<path class="st1" d="M18.3-74.7c0,0,4.2-0.2,3-3.9c-1.1-3.7,0.7-4.3,3.2-4.2c2.6,0.1,4.4-1.5,3.5-4.5"/>
			<path class="st1" d="M52.7-30.2c0,0-3.8-1.7-4.5,2.2c-0.6,3.8-2.5,3.5-4.8,2.3c-2.2-1.2-4.6-0.7-5.1,2.5"/>
			<path class="st1" d="M100.9-35.1c0,0-1.6-3.9-4.7-1.5c-3.1,2.3-4.3,0.8-5-1.7c-0.8-2.4-2.8-3.6-5.4-1.8"/>
			<path class="st1" d="M84.8-39c0,0-1,4-4.4,2.2c-3.4-1.8-4.4-0.2-4.8,2.4c-0.4,2.5-2.3,4-5.1,2.5"/>
			<path class="st1" d="M76.7-27.1c0,0-0.1,4.2-3.9,3.1c-3.7-1.1-4.3,0.8-4.1,3.3c0.2,2.5-1.4,4.4-4.4,3.6"/>
			<path class="st1" d="M68.4-39.9c0,0,2-3.6,4.9-1c2.8,2.7,4.2,1.3,5.2-1.1c1-2.3,3.2-3.3,5.5-1.1"/>
			<path class="st1" d="M58.3-28.8c0,0-2-3.7,1.8-4.6c3.8-0.9,3.3-2.8,1.9-4.9c-1.4-2.1-1-4.5,2.1-5.3"/>
			<path class="st1" d="M79.1-4.3c0,0-1.3-4,2.6-4.2c3.9-0.3,3.8-2.2,2.8-4.5c-1-2.3-0.2-4.6,2.9-4.8"/>
			<path class="st1" d="M63.5-53.9c0,0,4.1-0.8,3.9,3.1c-0.2,3.9,1.7,4,4.2,3.3c2.4-0.7,4.6,0.3,4.4,3.5"/>
			<path class="st1" d="M83.6-75.1c0,0,4.1-0.5,3.7,3.3c-0.5,3.9,1.4,4.1,3.9,3.6c2.5-0.6,4.6,0.7,4.2,3.8"/>
			<path class="st1" d="M82.1-34c0,0,2.4,3.4,4.9,0.5c2.5-3,4-1.7,5.3,0.5c1.3,2.2,3.6,2.9,5.6,0.5"/>
			<path class="st1" d="M62.5-25c0,0-3.7,1.9-1.2,4.8c2.5,2.9,1.1,4.2-1.3,5.2c-2.4,0.9-3.4,3.1-1.4,5.5"/>
			<path class="st1" d="M45.3-7.6c0,0-3.6-2.2-0.8-4.9c2.8-2.7,1.4-4.1-0.9-5.2c-2.3-1.1-3.2-3.4-0.9-5.6"/>
			<path class="st1" d="M37-22.2c0,0,1.2,4-2.7,4.2c-3.9,0.2-3.8,2.1-2.9,4.5c1,2.4,0.1,4.6-3.1,4.8"/>
		</g>
		<g>
			<path class="st1" d="M19.9-54.3c0,0-4.1-0.4-2.8-4.1c1.3-3.6-0.5-4.3-3-4.4c-2.6,0-4.3-1.7-3.2-4.7"/>
			<path class="st1" d="M7.2-49.7c0,0,3.5-2.3,4.8,1.3c1.3,3.7,3.1,3,5.1,1.4c2-1.6,4.4-1.5,5.5,1.5"/>
			<path class="st1" d="M16.7-25.1c0,0-0.8,4.1-4.3,2.5c-3.5-1.6-4.4,0.1-4.6,2.7c-0.2,2.5-2,4.2-4.9,2.8"/>
			<path class="st1" d="M1-28.4c0,0,2.8-3.1,5,0.2c2.1,3.2,3.8,2.2,5.3,0.2c1.5-2,3.9-2.5,5.7,0.2"/>
			<path class="st1" d="M28.9-35.1c0,0-1.6-3.9-4.7-1.5c-3.1,2.3-4.3,0.8-5-1.7c-0.8-2.4-2.8-3.6-5.4-1.8"/>
			<path class="st1" d="M11.6-75.1c0,0,4.1-0.5,3.7,3.3c-0.5,3.9,1.4,4.1,3.9,3.6c2.5-0.6,4.6,0.7,4.2,3.8"/>
			<path class="st1" d="M10.1-34c0,0,2.4,3.4,4.9,0.5c2.5-3,4-1.7,5.3,0.5c1.3,2.2,3.6,2.9,5.6,0.5"/>
		</g>
		<g>
			<path class="st1" d="M97.5-95.7c0,0,1,4.1-2.9,4c-3.9-0.1-3.9,1.9-3.1,4.3s-0.2,4.6-3.3,4.6"/>
		</g>
		<g>
			<path class="st1" d="M68.1-76.5c0,0-1.9-3.7,1.9-4.6c3.8-0.8,3.4-2.7,2.1-4.9c-1.3-2.2-0.9-4.5,2.2-5.2"/>
			<path class="st1" d="M25.5-95.7c0,0,1,4.1-2.9,4c-3.9-0.1-3.9,1.9-3.1,4.3s-0.2,4.6-3.3,4.6"/>
			<path class="st1" d="M88.7-97.1c0,0-0.8,4.1-4.3,2.5c-3.5-1.6-4.4,0.1-4.6,2.7c-0.2,2.5-2,4.2-4.9,2.8"/>
			<path class="st1" d="M51.6-99.8c0,0,3.2,2.7,0.1,5c-3.1,2.3-2,3.9,0.1,5.3c2.1,1.4,2.6,3.8,0.1,5.7"/>
			<path class="st1" d="M76.7-99.1c0,0-0.1,4.2-3.9,3.1c-3.7-1.1-4.3,0.8-4.1,3.3c0.2,2.5-1.4,4.4-4.4,3.6"/>
			<path class="st1" d="M79.1-76.3c0,0-1.3-4,2.6-4.2c3.9-0.3,3.8-2.2,2.8-4.5c-1-2.3-0.2-4.6,2.9-4.8"/>
			<path class="st1" d="M62.5-97c0,0-3.7,1.9-1.2,4.8c2.5,2.9,1.1,4.2-1.3,5.2c-2.4,0.9-3.4,3.1-1.4,5.5"/>
			<path class="st1" d="M45.3-79.6c0,0-3.6-2.2-0.8-4.9c2.8-2.7,1.4-4.1-0.9-5.2c-2.3-1.1-3.2-3.4-0.9-5.6"/>
			<path class="st1" d="M37-94.2c0,0,1.2,4-2.7,4.2c-3.9,0.2-3.8,2.1-2.9,4.5c1,2.4,0.1,4.6-3.1,4.8"/>
		</g>
		<g>
			<path class="st1" d="M16.7-97.1c0,0-0.8,4.1-4.3,2.5c-3.5-1.6-4.4,0.1-4.6,2.7c-0.2,2.5-2,4.2-4.9,2.8"/>
		</g>
	</g>
</pattern>
<g>
	
		<ellipse transform="matrix(0.2588 -0.9659 0.9659 0.2588 -86.1414 278.7759)" class="st3" cx="138.6" cy="195.5" rx="22.5" ry="63"/>
	<ellipse transform="matrix(0.2588 -0.9659 0.9659 0.2588 -36.5234 258.2235)" class="st3" cx="150" cy="152.9" rx="54" ry="135"/>
	
		<ellipse transform="matrix(0.2588 -0.9659 0.9659 0.2588 -30.4477 255.7068)" class="st3" cx="151.4" cy="147.7" rx="49.5" ry="130.5"/>
	
		<ellipse transform="matrix(0.2588 -0.9659 0.9659 0.2588 -26.9112 254.242)" class="st3" cx="152.2" cy="144.7" rx="41.4" ry="117.5"/>
	<path class="st3" d="M160.7,112.9c58.7,15.7,102.8,44.4,103.3,66.1c0.8-1.3,1.3-2.6,1.7-4c5.9-22.1-40.1-53.6-102.8-70.4
		S44.7,92.2,38.7,114.3c-0.4,1.4-0.5,2.8-0.5,4.3C49.5,100,102,97.2,160.7,112.9z"/>
</g>
<path class="st4" d="M72.4,124.9c-2.4,9,10.2,20.2,28.3,25.1c18,4.8,34.6,1.4,37-7.6l1.7-6.3l-65.3-17.5L72.4,124.9z"/>
<path class="st5" d="M139.4,136.2c-2.4,9-19,12.4-37,7.6c-18-4.8-30.7-16.1-28.3-25.1s19-12.4,37-7.6
	C129.1,115.9,141.8,127.2,139.4,136.2z"/>
<path class="st4" d="M168.1,141.8c-2.4,9,10.2,20.2,28.3,25.1c18,4.8,34.6,1.4,37-7.6l1.7-6.3l-65.3-17.5L168.1,141.8z"/>
<path class="st5" d="M235.1,153.1c-2.4,9-19,12.4-37,7.6c-18-4.8-30.7-16.1-28.3-25.1c2.4-9,19-12.4,37-7.6S237.5,144,235.1,153.1z"
	/>
<path class="st4" d="M103.8,121.4c-1.6,9.2,12.1,19.2,30.5,22.3s34.6-1.8,36.2-11l1.1-6.4L104.9,115L103.8,121.4z"/>
<path class="st5" d="M171.6,126.3c-1.6,9.2-17.7,14.1-36.2,11c-18.4-3.1-32.1-13.1-30.5-22.3s17.7-14.1,36.2-11
	S173.1,117.1,171.6,126.3z"/>
<path class="st4" d="M145.1,114.8c-2.4,9,10.2,20.2,28.3,25.1c18,4.8,34.6,1.4,37-7.6l1.7-6.3l-65.3-17.5L145.1,114.8z"/>
<path class="st5" d="M212.1,126.1c-2.4,9-19,12.4-37,7.6c-18-4.8-30.7-16.1-28.3-25.1c2.4-9,19-12.4,37-7.6
	C201.9,105.8,214.5,117,212.1,126.1z"/>
<path class="st4" d="M120.8,103.7c0.8,9.3,16.5,15.5,35.1,14c18.6-1.6,33-10.4,32.2-19.7l-0.6-6.5l-67.4,5.8L120.8,103.7z"/>
<path class="st5" d="M187.7,91.5c0.8,9.3-13.6,18.1-32.2,19.7c-18.6,1.6-34.3-4.7-35.1-14s13.6-18.1,32.2-19.7
	S186.9,82.2,187.7,91.5z"/>
<path class="st4" d="M141.4,145.3c-4.6,8.1,4.8,22.2,21,31.4s33.1,10.2,37.7,2.1l3.2-5.6l-58.7-33.5L141.4,145.3z"/>
<path class="st5" d="M203.3,173.2c-4.6,8.1-21.5,7.2-37.7-2.1s-25.6-23.3-21-31.4c4.6-8.1,21.5-7.2,37.7,2.1
	S207.9,165.1,203.3,173.2z"/>
</svg>
