<?xml version="1.0" encoding="utf-8"?>
<!-- Generator: Adobe Illustrator 26.3.1, SVG Export Plug-In . SVG Version: 6.00 Build 0)  -->
<svg version="1.1" id="레이어_1" xmlns="http://www.w3.org/2000/svg" xmlns:xlink="http://www.w3.org/1999/xlink" x="0px"
	 y="0px" viewBox="0 0 300 300" style="enable-background:new 0 0 300 300;" xml:space="preserve">
<style type="text/css">
	.st0{fill:#E9BC00;}
	.st1{fill:#967905;stroke:#E9BC00;stroke-width:3;stroke-linecap:round;stroke-linejoin:round;stroke-miterlimit:10;}
	.st2{fill:#804F55;stroke:#E9BC00;stroke-width:3;stroke-linecap:round;stroke-linejoin:round;stroke-miterlimit:10;}
	.st3{fill:#8A80B2;stroke:#E9BC00;stroke-width:3;stroke-miterlimit:10;}
	.st4{fill:url(#SVGID_1_);stroke:#E9BC00;stroke-width:3;stroke-linecap:round;stroke-linejoin:round;stroke-miterlimit:10;}
	
		.st5{fill:url(#SVGID_00000134953297559224454290000013365922412133309112_);stroke:#E9BC00;stroke-width:3;stroke-linecap:round;stroke-linejoin:round;stroke-miterlimit:10;}
</style>
<g>
	<path class="st0" d="M169,284.4c-2.5,0-4.8-1.3-6-3.5c-1.9-3.3-0.8-7.6,2.5-9.5l0,0c-0.7-1.7-0.7-3.6-0.2-5.3
		c-1.6,0.2-3.1,0.3-4.7,0.3c-6.6,0-12.9-1.5-19.3-4.6c-33.6-16.3-35.1-55.9-34.7-67.6c0.1-3.3,0.4-7,0.8-10.9
		c1.4-15.8,3.3-37.4-8.7-58.3c-8.5-14.8-17-17.9-22.7-17.9c-1.4,0-2.6,0.2-3.4,0.4c-0.7,0.7-1.6,1.2-2.5,1.5
		c-0.8,0.3-1.6,0.4-2.4,0.4c-1.1,0-2.1-0.2-3.1-0.7c-1.7-0.8-3-2.3-3.7-4.1c-0.3-0.8-2.8-8.5,1.4-15.5c2.9-4.9,8-7.9,15.2-9
		c0,0,3.4-0.5,4.3-0.7c-2.7-2.8-4.4-3.8-4.4-3.8c-0.2-0.1-0.5-0.3-0.7-0.5L76.6,75c-0.2-0.2-0.4-0.4-0.5-0.6l0,0
		C76,74.3,76,74.3,76,74.2l-1.2-2c-1.3-2.3-1.4-4.9-0.4-7.2c-0.4-0.4-0.7-0.8-0.9-1.2c-0.6-1.1-0.9-2.2-0.9-3.5
		c-3.2-1.3-7.9-4-11.3-10c-5.3-9.2-1.6-29.7-1.1-32.1V18c0,0,0.1-0.2,0.1-0.3c0.1-0.2,0.1-0.3,0.2-0.4c0.3-0.6,0.8-1.1,1.4-1.5
		c0.5-0.3,1.1-0.5,1.7-0.5c0.1,0,0.2,0,0.3,0s0.2,0,0.3,0c0.1,0,0.4,0.1,0.4,0.1l0.2,0.1c2.2,0.8,21.9,7.8,27.2,17
		c3.4,5.9,3.5,11.3,3,14.8c1,0.6,1.9,1.5,2.5,2.5c0.2,0.3,0.3,0.7,0.5,1c2.8,0.1,5.4,1.6,6.8,4l1.2,2.1l0.1,0.2
		c0.1,0.2,0.2,0.4,0.2,0.6v0.2c0,0.3,0.1,0.5,0.1,0.8v0.1c0,0,0,1.9,1,5.4c0.4-0.5,2.2-2.7,2.2-2.7c4.5-5.6,9.7-8.5,15.4-8.6h0.2
		c1.6,0,3.1,0.2,4.7,0.7c3.8-1.7,7.7-2.6,11.9-2.6c2.5,0,5,0.3,7.4,1c14,3.8,22.4,17.7,20.4,34l-3.3,26c-1.1,8.4,0.9,15.6,5.8,21.3
		c4.2,2.2,8.3,4.1,11.9,5.8c3.6,1.7,6.9,3.2,9.8,4.8c10.3,5.6,43.8,26.6,41.2,63.9c-0.6,8.7-3.3,16.3-8.2,22.9
		c1.7,0.4,3.3,1.4,4.4,2.8l0,0c1.1-0.6,2.3-0.9,3.5-0.9c2.5,0,4.8,1.3,6,3.5c0.9,1.6,1.2,3.5,0.7,5.3s-1.6,3.3-3.2,4.2l-65.7,37.9
		C171.4,284.1,170.2,284.4,169,284.4z M135.6,71.1c-3.3,3.4-8.7,12.6,2.1,31.3c3.7,6.4,8.3,12.1,14,17.2c-0.2-3-0.1-6.2,0.3-9.4
		l3.3-26c1-7.6-1.7-16.2-9.9-18.4c-1.2-0.3-2.4-0.5-3.6-0.5c-0.4,0-0.8,0-1.2,0c-0.3,1.6-1.1,3.1-2.4,4.2c-0.3,0.3-0.7,0.5-1.1,0.7
		C136.6,70.7,136.1,71,135.6,71.1z"/>
	<path class="st0" d="M63.5,17.6L63.5,17.6c0.2,0,0.2,0,0.3,0c0.1,0,0.1,0,0.2,0c0,0,0,0,0.1,0C65,17.9,85.2,25,90.2,33.7
		c3.7,6.4,3.1,12.2,2.4,15c1.2,0.3,2.4,1.1,3.1,2.3c0.4,0.7,0.6,1.4,0.6,2.2c0.5-0.1,0.9-0.2,1.4-0.2c2.1,0,4.2,1.1,5.3,3l1.2,2l0,0
		v0.1c0,0.1,0.1,0.2,0.1,0.3v0.1c0,0.1,0,0.2,0,0.4l0,0c0,0-0.2,3.3,2.3,9.6c1.1-1.3,2.2-2.7,3.5-4.4l1-1.2
		c4.1-5.2,8.8-7.8,13.9-7.9c0.1,0,0.1,0,0.2,0c1.8,0,3.4,0.3,4.8,0.8c3.7-1.8,7.7-2.8,11.7-2.8c2.3,0,4.6,0.3,6.9,0.9
		c13.1,3.5,20.8,16.6,18.9,31.8l-3.3,26c-1.4,11,2.4,18.5,6.5,23.1c4.3,2.3,8.5,4.2,12.3,6c3.5,1.6,6.9,3.2,9.7,4.7
		c10.1,5.4,42.7,25.9,40.1,62c-0.8,11-5,19.1-10.7,25.4c0.8-0.4,1.8-0.6,2.6-0.6c2.1,0,4.2,1.1,5.3,3l0.4,0.7l1.7-1
		c0.8-0.4,1.6-0.7,2.5-0.7c1.7,0,3.4,0.9,4.3,2.5c1.4,2.4,0.6,5.4-1.8,6.8l-65.7,37.9c-0.8,0.4-1.6,0.7-2.5,0.7
		c-1.7,0-3.4-0.9-4.3-2.5c-1.4-2.4-0.6-5.4,1.8-6.8l1.7-1l-0.4-0.7c-1.6-2.8-0.8-6.3,1.8-8.1c-2.9,0.6-5.9,1-9,1
		c-5.8,0-11.9-1.3-18.4-4.4c-32.5-15.8-34-54.3-33.6-65.7c0.1-3.3,0.4-6.9,0.8-10.8c1.4-16.1,3.4-38.1-9-59.5
		c-9.1-15.8-18.5-18.9-24.4-18.9c-1.9,0-3.4,0.3-4.5,0.6c-0.6,0.6-1.2,1.1-2.1,1.4c-0.6,0.2-1.2,0.3-1.7,0.3c-0.8,0-1.5-0.2-2.2-0.5
		c-1.2-0.6-2.2-1.6-2.6-2.9c-0.3-0.8-2.5-7.5,1.2-13.8c2.6-4.4,7.2-7.1,13.7-8.1l1.5-0.2c2.4-0.4,4.5-0.7,6.4-1
		c-4.3-5.4-7.3-7-7.4-7l0,0c-0.1-0.1-0.2-0.1-0.3-0.2l0,0c-0.1-0.1-0.2-0.2-0.2-0.3l0,0c0,0,0,0,0-0.1l-1.2-2
		c-1.3-2.2-1-4.8,0.4-6.7c-0.7-0.4-1.3-1-1.8-1.8c-0.7-1.2-0.8-2.6-0.5-3.8c-2.8-0.8-8-3.2-11.7-9.6c-5-8.7-1-29.8-0.9-30.7
		c0,0,0,0,0-0.1s0-0.1,0-0.2c0,0,0-0.1,0.1-0.1c0.1-0.3,0.3-0.5,0.6-0.7C63,17.6,63.3,17.6,63.5,17.6 M154.4,124.6
		c-0.8-4.1-1.1-8.7-0.4-14l3.3-26c1.1-8.4-2-18.1-11.3-20.6c-1.4-0.4-2.8-0.5-4.2-0.5c-1,0-2.1,0.1-3.1,0.3c0,0.3,0,0.6,0,0.9
		c-0.1,1.4-0.8,2.6-1.8,3.5c-0.2,0.2-0.5,0.4-0.8,0.5c-0.5,0.3-1,0.5-1.6,0.6c-3.3,3.1-10.7,13.3,1.4,34.1
		C141.1,112.4,147.6,119.2,154.4,124.6 M63.5,13.6c-1,0-1.9,0.3-2.7,0.7c-0.9,0.5-1.7,1.4-2.2,2.4c-0.1,0.2-0.1,0.3-0.2,0.5l0,0l0,0
		c0,0.1-0.1,0.2-0.1,0.3c-0.1,0.2-0.1,0.3-0.1,0.5c-0.7,3.9-4.2,23.8,1.3,33.4c3.3,5.7,7.7,8.8,11.1,10.3c0.2,1.1,0.5,2.1,1.1,3.1
		c0.1,0.2,0.3,0.4,0.4,0.6c-0.8,2.6-0.5,5.4,1,7.9l1.2,2l0.1,0.2l0.1,0.2l0,0c0.2,0.3,0.5,0.6,0.8,0.9l0.1,0.1
		c0.4,0.3,0.7,0.5,1.1,0.7c0.1,0,0.4,0.2,1,0.7h-0.2c-7.8,1.2-13.3,4.5-16.6,10c-4.6,7.7-2.1,15.7-1.5,17.2c0.8,2.3,2.5,4.1,4.7,5.2
		c1.2,0.6,2.6,0.9,3.9,0.9c1.1,0,2.1-0.2,3.1-0.5c1-0.4,1.9-0.9,2.7-1.6c0.7-0.1,1.5-0.3,2.5-0.3c5.1,0,12.9,2.9,20.9,16.9
		c11.8,20.4,9.9,41.6,8.5,57.2c-0.4,3.9-0.7,7.7-0.8,11c-0.4,12,1.2,52.6,35.9,69.5c6.6,3.2,13.4,4.8,20.1,4.8c0.8,0,1.5,0,2.3-0.1
		c0,0.8,0.1,1.5,0.2,2.2c-3.3,2.7-4.2,7.5-2,11.3c1.6,2.8,4.6,4.5,7.8,4.5c1.6,0,3.1-0.4,4.5-1.2l65.7-37.9
		c4.3-2.5,5.7-7.9,3.3-12.2c-1.6-2.8-4.6-4.5-7.8-4.5c-1,0-2.1,0.2-3,0.5c-0.6-0.5-1.2-1-1.8-1.3c4.2-6.4,6.5-13.6,7.1-21.8
		c1.2-16.5-4.3-31.8-16.3-45.4c-9.4-10.6-20.3-17.3-25.9-20.4c-3-1.6-6.3-3.2-9.9-4.8c-3.5-1.6-7.4-3.5-11.5-5.6
		c-4.4-5.2-6.1-11.7-5.1-19.4l3.3-26c2.2-17.3-6.8-32.1-21.8-36.2c-2.6-0.7-5.3-1.1-7.9-1.1c-4.2,0-8.2,0.8-12,2.5
		c-1.5-0.4-3-0.6-4.5-0.6h-0.3c-6.1,0.1-11.7,3.1-16.5,8.8c0-0.4-0.1-0.7-0.1-0.8v-0.3v-0.2c0-0.3,0-0.5-0.1-0.8
		c0-0.1,0-0.2-0.1-0.4c-0.1-0.3-0.2-0.6-0.3-0.9c0,0,0-0.1-0.1-0.1c-0.1-0.1-0.1-0.3-0.2-0.4l-1.1-2c-1.5-2.7-4.2-4.5-7.3-4.9
		c0,0,0-0.1-0.1-0.1c-0.6-1-1.3-1.8-2.1-2.5c0.3-3.7-0.1-9.1-3.4-14.8c-5.6-9.6-24.5-16.6-28.3-17.9L65,13.7h-0.2
		c-0.1,0-0.2,0-0.3-0.1l0,0l0,0c-0.1,0-0.3-0.1-0.5-0.1C63.8,13.6,63.7,13.6,63.5,13.6L63.5,13.6z M136.7,72.9
		c0.5-0.2,1-0.4,1.4-0.7c0.5-0.3,0.9-0.6,1.3-0.9c1.2-1,2.1-2.3,2.7-3.8c0.9,0,1.9,0.2,2.8,0.4c7,1.9,9.3,9.5,8.4,16.2l-3.3,26
		c-0.2,1.6-0.3,3.2-0.4,4.8c-4-4.1-7.3-8.5-10.2-13.4C129.7,84.5,133.8,76.1,136.7,72.9L136.7,72.9z"/>
</g>
<path class="st1" d="M84,53.8l7-4c0,0,3-7.1-1.8-15.4S63.9,18.9,63.9,18.9s-4.1,21.3,0.7,29.6c4.8,8.3,12.5,9.3,12.5,9.3L84,53.8z"
	/>
<path class="st1" d="M84,53.8l3.4-2c1.1-18.9-23.6-32.9-23.6-32.9s-0.2,28.4,16.7,36.9C80.6,55.7,84,53.8,84,53.8z"/>
<path class="st1" d="M93.4,56.3l-11.9,6.9c-1.6,1-3.8,0.4-4.7-1.3l0,0c-1-1.6-0.4-3.8,1.3-4.7L90,50.3c1.6-1,3.8-0.4,4.7,1.3l0,0
	C95.6,53.2,95.1,55.3,93.4,56.3z"/>
<path class="st1" d="M103.2,58.6L79.3,72.4l-1.2-2c-1.3-2.2-0.5-5,1.7-6.3l15.9-9.2c2.2-1.3,5-0.5,6.3,1.7L103.2,58.6z"/>
<path class="st2" d="M79.3,72.4c0,0,6.1,2.9,13.5,15.7l8.6-5l8.6-5c-7.4-12.8-6.9-19.5-6.9-19.5L79.3,72.4z"/>
<g>
	<path class="st3" d="M176.4,149.6c-0.2-0.1-24.2-10.5-20.6-39l3.3-26c1.2-9.1-2.2-19.5-12.4-22.2c-4.6-1.2-9.3-0.6-13.4,1.8
		c-4.1,2.4-7,6.2-8.3,10.8l-7-1.9c1.7-6.5,5.9-11.9,11.7-15.2c5.8-3.3,12.5-4.2,19-2.5c12.3,3.3,19.6,15.7,17.8,30.2l-3.3,26
		c-2.9,22.8,15.4,31,16.2,31.3L176.4,149.6z"/>
</g>
<linearGradient id="SVGID_1_" gradientUnits="userSpaceOnUse" x1="97.9571" y1="77.9117" x2="196.978" y2="249.421">
	<stop  offset="0" style="stop-color:#8A80B2"/>
	<stop  offset="0.147" style="stop-color:#8A80AE"/>
	<stop  offset="0.2995" style="stop-color:#8B7FA1"/>
	<stop  offset="0.4544" style="stop-color:#8D7E8D"/>
	<stop  offset="0.6111" style="stop-color:#8F7D70"/>
	<stop  offset="0.7692" style="stop-color:#917C4A"/>
	<stop  offset="0.9262" style="stop-color:#947A1D"/>
	<stop  offset="1" style="stop-color:#967905"/>
</linearGradient>
<path class="st4" d="M197,249.4c15.3-8.8,33.1-18.4,34.7-42c2.3-32.3-24.5-52.6-39.3-60.6S150.6,131,135,104s0.4-37.3,0.4-37.3
	s-8.7-10.3-18.5,1.9c-6.5,8.1-9.8,12.4-15.3,15.6s-10.9,3.9-21.2,5.5c-15.4,2.4-10.9,15-10.9,15S86.4,96,102,123s8.9,54.3,8.4,71.1
	s3.7,50.2,32.8,64.4C164.5,268.8,181.7,258.2,197,249.4z"/>
<path class="st1" d="M236.7,242.4L171,280.3c-1.6,1-3.8,0.4-4.7-1.3l0,0c-1-1.6-0.4-3.8,1.3-4.7l65.7-37.9c1.6-1,3.8-0.4,4.7,1.3
	l0,0C238.9,239.3,238.3,241.4,236.7,242.4z"/>
<path class="st1" d="M230.3,238.1l-59.7,34.5l-1.2-2c-1.3-2.2-0.5-5,1.7-6.3l51.7-29.9c2.2-1.3,5-0.5,6.3,1.7L230.3,238.1z"/>
<linearGradient id="SVGID_00000131338436193494982050000017976999868664112555_" gradientUnits="userSpaceOnUse" x1="117.387" y1="111.4564" x2="184.1022" y2="227.0105">
	<stop  offset="0" style="stop-color:#8A80B2"/>
	<stop  offset="0.147" style="stop-color:#8A80AE"/>
	<stop  offset="0.2995" style="stop-color:#8B7FA1"/>
	<stop  offset="0.4544" style="stop-color:#8D7E8D"/>
	<stop  offset="0.6111" style="stop-color:#8F7D70"/>
	<stop  offset="0.7692" style="stop-color:#917C4A"/>
	<stop  offset="0.9262" style="stop-color:#947A1D"/>
	<stop  offset="1" style="stop-color:#967905"/>
</linearGradient>
<path style="fill:url(#SVGID_00000131338436193494982050000017976999868664112555_);stroke:#E9BC00;stroke-width:3;stroke-linecap:round;stroke-linejoin:round;stroke-miterlimit:10;" d="
	M80.4,89.7c10.3-1.6,15.7-2.3,21.2-5.5c5.5-3.2,8.8-7.5,15.3-15.6c0,0-4.9,16,9.9,41.5s35.7,39,47.2,46.3
	c24.6,15.5,38.3,38.1,39.9,55.5c1,11.1-0.1,27.7-16.9,37.4c-16.8,9.7-31.8,2.4-40.9-4c-14.2-10.1-27-33.3-28.1-62.3
	c-0.5-13.6-1.7-38.4-16.5-64S80.4,89.7,80.4,89.7z"/>
<g>
	<path class="st3" d="M135.7,67.2c-1.5,0.9-3.4,0.6-4.6-0.8c-0.1-0.1-2.6-2.9-5.8-2.8c-2.3,0.1-4.7,1.6-7.1,4.6l-0.9,1.2
		c-6,7.5-9.6,12-15.4,15.3s-11.5,4.2-21,5.7l-1.5,0.2c-3.8,0.6-6.3,1.9-7.5,3.9c-1.6,2.7-0.5,6.3-0.5,6.3c0.7,1.9-0.3,4-2.2,4.7
		c-1.9,0.7-4-0.3-4.7-2.2c-0.2-0.7-2.3-6.9,1.1-12.5c2.4-4,6.6-6.4,12.7-7.4l1.5-0.2c9.2-1.4,13.8-2.1,18.4-4.8s7.6-6.3,13.4-13.6
		l0.9-1.2c3.8-4.8,8.1-7.2,12.7-7.3c6.6-0.1,10.9,4.8,11.4,5.3c1.3,1.5,1.1,3.8-0.4,5.1C136.1,67,135.9,67.1,135.7,67.2z"/>
</g>
</svg>
