<?xml version="1.0" encoding="utf-8"?>
<!-- Generator: Adobe Illustrator 26.3.1, SVG Export Plug-In . SVG Version: 6.00 Build 0)  -->
<svg version="1.1" id="레이어_1" xmlns="http://www.w3.org/2000/svg" xmlns:xlink="http://www.w3.org/1999/xlink" x="0px"
	 y="0px" viewBox="0 0 300 300" style="enable-background:new 0 0 300 300;" xml:space="preserve">
<style type="text/css">
	.st0{fill:#FFFFFF;stroke:#000000;stroke-width:3;stroke-miterlimit:10;}
	.st1{fill:#FFFFFF;stroke:#000000;stroke-width:3;stroke-linecap:round;stroke-linejoin:round;stroke-miterlimit:10;}
</style>
<g>
	
		<rect x="83.9" y="137" transform="matrix(0.9659 -0.2588 0.2588 0.9659 -34.6012 28.1329)" class="st0" width="11.3" height="16.9"/>
	<g>
		<g>
			<path class="st0" d="M100.6,133.8l-26.4,7.1c-1.7,0.5-3.5-0.6-4-2.3l-2.1-7.8l32.7-8.8l2.1,7.8
				C103.3,131.5,102.3,133.3,100.6,133.8z"/>
		</g>
		<g>
			<path class="st0" d="M94.7,135.3l-14.7,4c-1.3,0.4-2.7-0.4-3.1-1.8l-2.3-8.5l19.6-5.3l2.3,8.5C96.9,133.6,96.1,135,94.7,135.3z"
				/>
		</g>
		<g>
			<path class="st0" d="M90,136.6l-5.2,1.4c-0.7,0.2-1.5-0.2-1.7-1l-2.6-9.6l7.8-2.1l2.6,9.6C91.1,135.7,90.7,136.4,90,136.6z"/>
		</g>
	</g>
	<g>
		<g>
			<path class="st0" d="M104.9,150.1l-26.4,7.1c-1.7,0.5-2.8,2.2-2.3,4l2.1,7.8l32.7-8.8l-2.1-7.8
				C108.5,150.7,106.7,149.6,104.9,150.1z"/>
		</g>
		<g>
			<path class="st0" d="M99.1,151.7l-14.7,4c-1.3,0.4-2.1,1.7-1.8,3.1l2.3,8.5l19.6-5.3l-2.3-8.5
				C101.8,152.1,100.5,151.3,99.1,151.7z"/>
		</g>
		<g>
			<path class="st0" d="M94.4,152.9l-5.2,1.4c-0.7,0.2-1.1,0.9-1,1.7l2.6,9.6l7.8-2.1l-2.6-9.6C95.8,153.2,95.1,152.8,94.4,152.9z"
				/>
		</g>
	</g>
	<path class="st0" d="M105.3,120.8L63.5,132c-0.5,0.1-1-0.2-1.1-0.7l-1-3.6c-0.1-0.5,0.2-1,0.7-1.1l41.8-11.2c0.5-0.1,1,0.2,1.1,0.7
		l1,3.6C106.1,120.2,105.8,120.7,105.3,120.8z"/>
	<path class="st0" d="M100.3,145.5l-20,5.4c-0.5,0.1-1-0.2-1.1-0.7l-1-3.6c-0.1-0.5,0.2-1,0.7-1.1l20-5.4c0.5-0.1,1,0.2,1.1,0.7
		l1,3.6C101.1,144.9,100.8,145.4,100.3,145.5z"/>
	<path class="st0" d="M117,164.4l-41.8,11.2c-0.5,0.1-1-0.2-1.1-0.7l-1-3.6c-0.1-0.5,0.2-1,0.7-1.1l41.8-11.2c0.5-0.1,1,0.2,1.1,0.7
		l1,3.6C117.8,163.7,117.5,164.3,117,164.4z"/>
	<g>
		<polygon class="st1" points="70,185.8 77.2,175.1 96.1,170 115,164.9 126.6,170.6 		"/>
		<polygon class="st1" points="84.1,182 86.7,172.5 96.1,170 105.5,167.5 112.5,174.4 		"/>
		<polygon class="st1" points="129.9,296 131,278.5 120.1,281.4 		"/>
		<polygon class="st1" points="129.9,296 120.2,281.4 113.3,283.3 		"/>
		<polygon class="st1" points="129.9,296 131,278.5 137.9,276.7 		"/>
		<polygon class="st1" points="112.5,174.4 131,278.5 120.1,281.4 84.1,182 		"/>
		<polygon class="st1" points="70,185.8 113.3,283.3 120.1,281.4 84.1,182 		"/>
		<polygon class="st1" points="126.6,170.6 137.9,276.7 131,278.5 112.5,174.4 		"/>
	</g>
	<path class="st1" d="M106.1,76.6l-8.2,2.2C93.6,67.9,82.2,61.3,70.5,63l-2.2-8.2l-5.8,1.5l2.2,8.2C53.8,68.9,47.2,80.3,49,92
		l-8.2,2.2l1.5,5.8l8.2-2.2c4.4,10.9,15.7,17.5,27.4,15.8l2.2,8.2l5.8-1.5l-2.2-8.2c10.9-4.4,17.5-15.7,15.8-27.4l8.2-2.2
		L106.1,76.6z M92.1,80.4l-15.8,4.2l-4.2-15.8C80.5,67.9,88.7,72.6,92.1,80.4z M66.3,70.4l4.2,15.8l-15.8,4.2
		C53.9,81.9,58.6,73.8,66.3,70.4z M56.3,96.2l15.8-4.2l4.2,15.8C67.9,108.6,59.7,103.9,56.3,96.2z M82.1,106.2l-4.2-15.8l15.8-4.2
		C94.6,94.6,89.9,102.7,82.1,106.2z"/>
</g>
<g>
	<g>
		<g>
			<path class="st0" d="M211.7,72.3l-26.4-7.1c-1.7-0.5-2.8-2.2-2.3-4l2.1-7.8l32.7,8.8l-2.1,7.8C215.2,71.8,213.4,72.8,211.7,72.3z
				"/>
		</g>
		<g>
			<path class="st0" d="M205.9,70.8l-14.7-4c-1.3-0.4-2.1-1.7-1.8-3.1l2.3-8.5l19.6,5.3l-2.3,8.5C208.6,70.3,207.2,71.1,205.9,70.8z
				"/>
		</g>
		<g>
			<path class="st0" d="M201.1,69.5l-5.2-1.4c-0.7-0.2-1.1-0.9-1-1.7l2.6-9.6l7.8,2.1l-2.6,9.6C202.6,69.3,201.8,69.7,201.1,69.5z"
				/>
		</g>
	</g>
	<g>
		<g>
			<path class="st0" d="M207.3,88.7l-26.4-7.1c-1.7-0.5-3.5,0.6-4,2.3l-2.1,7.8l32.7,8.8l2.1-7.8C210.1,90.9,209,89.2,207.3,88.7z"
				/>
		</g>
		<g>
			<path class="st0" d="M201.5,87.1l-14.7-4c-1.3-0.4-2.7,0.4-3.1,1.8l-2.3,8.5l19.6,5.3l2.3-8.5C203.6,88.9,202.8,87.5,201.5,87.1z
				"/>
		</g>
		<g>
			<path class="st0" d="M196.7,85.9l-5.2-1.4c-0.7-0.2-1.5,0.2-1.7,1l-2.6,9.6l7.8,2.1l2.6-9.6C197.9,86.8,197.4,86,196.7,85.9z"/>
		</g>
	</g>
	
		<rect x="190.7" y="68.5" transform="matrix(0.9659 0.2588 -0.2588 0.9659 26.6124 -48.1822)" class="st0" width="11.3" height="16.9"/>
	<path class="st0" d="M222.3,63.5l-41.8-11.2c-0.5-0.1-0.8-0.6-0.7-1.1l1-3.6c0.1-0.5,0.6-0.8,1.1-0.7l41.8,11.2
		c0.5,0.1,0.8,0.6,0.7,1.1l-1,3.6C223.3,63.3,222.8,63.6,222.3,63.5z"/>
	<path class="st0" d="M205.6,82.4l-20-5.4c-0.5-0.1-0.8-0.6-0.7-1.1l1-3.6c0.1-0.5,0.6-0.8,1.1-0.7l20,5.4c0.5,0.1,0.8,0.6,0.7,1.1
		l-1,3.6C206.6,82.2,206.1,82.5,205.6,82.4z"/>
	<path class="st0" d="M210.6,107.1l-41.8-11.2c-0.5-0.1-0.8-0.6-0.7-1.1l1-3.6c0.1-0.5,0.6-0.8,1.1-0.7l41.8,11.2
		c0.5,0.1,0.8,0.6,0.7,1.1l-1,3.6C211.6,106.9,211.1,107.2,210.6,107.1z"/>
	<g>
		<polygon class="st1" points="159.2,102.1 170.9,96.4 189.7,101.5 208.6,106.6 215.8,117.3 		"/>
		<polygon class="st1" points="173.4,105.9 180.3,99 189.7,101.5 199.2,104 201.7,113.5 		"/>
		<polygon class="st1" points="156,227.5 165.7,212.9 154.8,210 		"/>
		<polygon class="st1" points="156,227.5 154.8,210 148,208.2 		"/>
		<polygon class="st1" points="156,227.5 165.7,212.9 172.5,214.8 		"/>
		<polygon class="st1" points="201.7,113.5 165.7,212.9 154.8,210 173.4,105.9 		"/>
		<polygon class="st1" points="159.2,102.1 148,208.2 154.8,210 173.4,105.9 		"/>
		<polygon class="st1" points="215.8,117.3 172.5,214.8 165.7,212.9 201.7,113.5 		"/>
	</g>
	<path class="st1" d="M222,25.7l-7.5-0.4c3.1-2.7,7.1-6.7,7.9-9.6c1.3-5-1.6-10.1-6.6-11.4s-10.1,1.6-11.4,6.6
		c-0.8,2.9,0.7,8.4,2.1,12.2l-6.7-3.4l-2,7.3l9.5,0.5l-8.7,23.7l8.7,2.3l4.3-24.9L220,33L222,25.7z M214.7,8.4
		c2.7,0.7,4.4,3.5,3.6,6.3c-0.5,1.8-4.2,5.4-7.5,8.3c-1.5-4.1-2.9-9.2-2.4-10.9C209.1,9.3,211.9,7.6,214.7,8.4z"/>
</g>
</svg>
