<?xml version="1.0" encoding="utf-8"?>
<!-- Generator: Adobe Illustrator 26.3.1, SVG Export Plug-In . SVG Version: 6.00 Build 0)  -->
<svg version="1.1" id="레이어_1" xmlns="http://www.w3.org/2000/svg" xmlns:xlink="http://www.w3.org/1999/xlink" x="0px"
	 y="0px" viewBox="0 0 300 300" style="enable-background:new 0 0 300 300;" xml:space="preserve">
<style type="text/css">
	.st0{fill:#E9BC00;}
	.st1{fill:#4664BE;stroke:#E9BC00;stroke-width:3;stroke-miterlimit:10;}
	.st2{fill:#4634A0;}
	.st3{fill:#A8C6EA;}
	.st4{fill:#967905;stroke:#E9BC00;stroke-width:2.9999;stroke-miterlimit:9.9998;}
	.st5{fill:#967905;stroke:#E9BC00;stroke-width:3;stroke-miterlimit:10;}
	.st6{fill:url(#SVGID_1_);stroke:#E9BC00;stroke-width:3;stroke-linecap:round;stroke-linejoin:round;stroke-miterlimit:10;}
	
		.st7{fill:url(#SVGID_00000106829359700340011140000018441240258667549346_);stroke:#E9BC00;stroke-width:3;stroke-linecap:round;stroke-linejoin:round;stroke-miterlimit:10;}
	
		.st8{fill:url(#SVGID_00000025415534337852226080000014436043085527746495_);stroke:#E9BC00;stroke-width:3;stroke-linecap:round;stroke-linejoin:round;stroke-miterlimit:10;}
	
		.st9{fill:url(#SVGID_00000130624088458593074270000002474556689639769772_);stroke:#E9BC00;stroke-width:3;stroke-linecap:round;stroke-linejoin:round;stroke-miterlimit:10;}
	
		.st10{fill:url(#SVGID_00000039817812151875627510000003417832017475109285_);stroke:#E9BC00;stroke-width:3;stroke-linecap:round;stroke-linejoin:round;stroke-miterlimit:10;}
	
		.st11{fill:url(#SVGID_00000140710137608205584820000015122894420058421164_);stroke:#E9BC00;stroke-width:3;stroke-linecap:round;stroke-linejoin:round;stroke-miterlimit:10;}
	
		.st12{fill:url(#SVGID_00000075865667125196636650000013597084077157809831_);stroke:#E9BC00;stroke-width:3;stroke-linecap:round;stroke-linejoin:round;stroke-miterlimit:10;}
	
		.st13{fill:url(#SVGID_00000079477329639037436960000011768866246866695822_);stroke:#E9BC00;stroke-width:3;stroke-linecap:round;stroke-linejoin:round;stroke-miterlimit:10;}
</style>
<g>
	<path class="st0" d="M67.2,287.6L67.2,287.6c-0.2,0-0.4-0.1-0.5-0.1h-0.2l-0.6-0.3l-0.3-0.2l-0.1-0.1l-0.2-0.1l-0.1-0.1
		c-0.1-0.1-0.2-0.2-0.2-0.2c-0.1-0.1-0.1-0.1-0.2-0.2s-0.2-0.2-0.2-0.3l-0.1-0.2v-0.1c-0.1-0.2-0.1-0.3-0.2-0.5v-0.1l-0.1-0.1
		l-3.9-29.8V255c0-0.1,0-0.2,0-0.3c0-0.2,0-0.4,0.1-0.6V254l0.1-0.3L114.6,113c0,0,0.1-0.3,0.2-0.3c0.1-0.2,0.2-0.4,0.4-0.5v-0.1
		l0.1-0.1c0.2-0.2,0.5-0.4,0.7-0.6h0.1l0.1-0.1c0.1-0.1,0.2-0.1,0.3-0.2c0.1,0,0.2-0.1,0.3-0.1c0.1,0,0.1,0,0.2-0.1l12.4-2.4
		c-0.2-1.3,0.1-2.6,0.8-3.8l1.4-2.4c0.8-1.4,2.1-2.4,3.7-2.8c0.5-0.1,1.1-0.2,1.6-0.2c1.1,0,2.1,0.3,3,0.8l1.6,0.9l1-1.7
		c1.9-3.2,4.9-5.5,8.4-6.5c1.2-0.3,2.4-0.5,3.6-0.5c2.4,0,4.8,0.6,6.9,1.9l1.7,1l0.5-0.8l-1.6-0.9c-1.4-0.8-2.4-2.1-2.8-3.7
		c-0.4-1.6-0.2-3.2,0.6-4.6l1.4-2.4c1.1-1.9,3.1-3.1,5.3-3.1c1.1,0,2.1,0.3,3,0.8l1.6,0.9l0.5-0.8l-1.7-1c-6.6-3.8-8.9-12.4-5.1-19
		l1-1.7l-1.6-0.9c-2.9-1.7-3.9-5.4-2.2-8.3l1.4-2.4c0.8-1.4,2.1-2.4,3.7-2.8c0.2-0.1,0.5-0.1,0.7-0.1c0.5-4.9,2.1-9.6,4.6-14
		c6.4-11.1,18.4-18,31.2-18c6.3,0,12.5,1.7,17.9,4.8C230,22,236,29.7,238.5,39s1.2,19-3.6,27.3c-2.5,4.3-5.8,8-9.8,11
		c0.1,0.2,0.2,0.5,0.2,0.7c0.4,1.6,0.2,3.2-0.6,4.6l-1.4,2.4c-0.8,1.4-2.1,2.4-3.7,2.8c-0.5,0.1-1.1,0.2-1.6,0.2
		c-1.1,0-2.1-0.3-3-0.8l-1.6-0.9l-1,1.7c-2.5,4.3-7.1,7-12.1,7c-2.4,0-4.8-0.6-6.9-1.9l-1.7-1l-0.5,0.8l1.6,0.9
		c1.4,0.8,2.4,2.1,2.8,3.7c0.4,1.6,0.2,3.2-0.6,4.6l-1.4,2.4c-1.1,1.9-3.1,3.1-5.3,3.1c-1.1,0-2.1-0.3-3-0.8l-1.6-0.9l-0.5,0.8
		l1.7,1c6.6,3.8,8.9,12.4,5.1,19l-1,1.7l1.6,0.9c2.9,1.7,3.9,5.4,2.2,8.3l-1.4,2.4c-0.7,1.2-1.7,2-2.9,2.6l4.2,12.1v0.1
		c0,0.1,0,0.1,0.1,0.2c0,0.1,0,0.3,0,0.4c0,0,0,0.1,0,0.2c0,0.3,0,0.6-0.1,0.9v0.1l-0.1,0.1c-0.1,0.2-0.2,0.4-0.3,0.6
		c0,0.1-0.1,0.1-0.1,0.2c-0.1,0.1-0.1,0.2-0.2,0.2L97.5,275c-0.1,0.1-0.2,0.3-0.4,0.4l-0.1,0.1l-0.1,0.1c-0.2,0.1-0.3,0.2-0.5,0.3
		h-0.1l-27.6,11.5l-0.2,0.1h-0.1c-0.3,0.1-0.6,0.1-0.9,0.1H67.2z"/>
	<path class="st0" d="M203.8,14.4c5.8,0,11.6,1.5,16.9,4.5c7.9,4.5,13.5,11.9,15.8,20.6c2.4,8.8,1.1,17.9-3.4,25.8
		c-2.7,4.8-6.5,8.6-10.8,11.4c0.5,0.5,0.8,1.1,1,1.8c0.3,1.1,0.1,2.2-0.4,3.1l-1.4,2.4c-0.5,0.9-1.4,1.6-2.5,1.9
		c-0.4,0.1-0.7,0.1-1.1,0.1c-0.7,0-1.4-0.2-2-0.6l-3.3-1.9l-2,3.5c-2.2,3.8-6.2,6-10.3,6c-2,0-4.1-0.5-5.9-1.6l0,0l-3.5-2l-2.5,4.3
		l3.3,1.9c2,1.1,2.6,3.6,1.5,5.6l-1.4,2.4c-0.8,1.3-2.1,2.1-3.6,2.1c-0.7,0-1.4-0.2-2-0.5l-3.3-1.9l-2.5,4.3l3.5,2
		c5.7,3.3,7.6,10.6,4.4,16.3l-2,3.5l3.3,1.9c2,1.1,2.6,3.6,1.5,5.6l-1.4,2.4c-0.8,1.3-2.1,2.1-3.6,2.1c-0.1,0-0.1,0-0.2,0l4.9,14.1
		c0,0,0,0,0,0.1s0,0.1,0,0.2c0,0.1,0,0.1,0,0.2v0.1c0,0.1,0,0.3,0,0.4c0,0,0,0,0,0.1s-0.1,0.2-0.1,0.3c0,0,0,0.1-0.1,0.1
		c0,0,0,0.1-0.1,0.1L96,273.8c-0.1,0.1-0.1,0.1-0.2,0.2l0,0c-0.1,0.1-0.2,0.1-0.3,0.2l0,0l-27.2,11.3l0,0l0,0l0,0
		c-0.2,0.1-0.3,0.1-0.5,0.1l0,0l0,0l0,0c0,0,0,0-0.1,0c0,0,0,0-0.1,0s-0.2,0-0.3,0h-0.1l0,0h-0.1H67l0,0c0,0,0,0-0.1,0
		s-0.1-0.1-0.2-0.1l0,0c0,0,0,0-0.1-0.1l-0.1-0.1l-0.1-0.1l0,0v-0.1c0-0.1-0.1-0.2-0.1-0.2c0-0.1,0-0.1,0-0.2l0,0l0,0l0,0l-3.8-29.2
		v-0.1c0-0.1,0-0.1,0-0.2c0-0.1,0-0.2,0.1-0.4v-0.1l54.1-140.5v-0.1c0,0,0-0.1,0.1-0.1c0.1-0.1,0.1-0.2,0.2-0.3c0,0,0,0,0-0.1
		c0.1-0.1,0.2-0.2,0.3-0.2h0.1c0.1,0,0.1-0.1,0.2-0.1c0,0,0.1,0,0.2,0c0,0,0,0,0.1,0l14.6-2.8c-0.8-1.3-0.9-2.9-0.1-4.3l1.4-2.4
		c0.5-0.9,1.4-1.6,2.5-1.9c0.4-0.1,0.7-0.1,1.1-0.1c0.7,0,1.4,0.2,2,0.6l3.3,1.9l2-3.5c1.6-2.8,4.2-4.7,7.2-5.5
		c1-0.3,2.1-0.4,3.1-0.4c2.1,0,4.1,0.5,5.9,1.6l3.5,2l2.5-4.3l-3.3-1.9c-0.9-0.5-1.6-1.4-1.9-2.5c-0.3-1.1-0.1-2.2,0.4-3.1l1.4-2.4
		c0.8-1.3,2.1-2.1,3.6-2.1c0.7,0,1.4,0.2,2,0.5l3.3,1.9l2.5-4.3l-3.5-2c-5.7-3.3-7.6-10.6-4.4-16.3l2-3.5l-3.3-1.9
		c-2-1.1-2.6-3.6-1.5-5.6l1.4-2.4c0.5-0.9,1.4-1.6,2.5-1.9c0.3-0.1,0.7-0.1,1-0.1s0.7,0,1,0.1c0.3-5.1,1.7-10.3,4.5-15
		C180.6,20.5,192,14.4,203.8,14.4 M203.8,10.4c-13.6,0-26.2,7.3-33,19c-2.4,4.2-4,8.7-4.7,13.4c-1.8,0.6-3.4,1.9-4.3,3.6l-1.4,2.4
		c-2.2,3.8-0.9,8.7,2.8,11l0,0c-3.5,6-2.6,13.3,1.7,18.3c-2.2,0.5-4.1,1.9-5.3,3.9l-1.4,2.4c-1.1,1.9-1.4,4.1-0.8,6.1
		c0,0.1,0.1,0.2,0.1,0.3c-0.9-0.2-1.9-0.3-2.9-0.3c-1.4,0-2.8,0.2-4.1,0.5c-4.1,1.1-7.5,3.7-9.7,7.4l0,0c-1.2-0.7-2.6-1-3.9-1
		c-0.7,0-1.4,0.1-2.1,0.3c-2.1,0.6-3.8,1.9-4.9,3.8l-1.4,2.4c-0.6,1-0.9,2-1,3.1l-10.8,2.1l-0.4,0.1l-0.1,0.1c-0.1,0-0.1,0-0.2,0.1
		c-0.2,0.1-0.4,0.2-0.6,0.2c-0.1,0.1-0.2,0.1-0.3,0.2c-0.4,0.2-0.8,0.5-1.2,0.9l-0.2,0.2l-0.1,0.1c-0.2,0.3-0.4,0.5-0.6,0.8
		c0,0.1-0.1,0.2-0.1,0.3c-0.1,0.1-0.1,0.3-0.2,0.5L58.6,252.9l-0.2,0.5v0.3c-0.1,0.3-0.1,0.6-0.1,0.9c0,0.1,0,0.3,0,0.4
		c0,0.2,0,0.4,0,0.7l3.8,29.2l0,0l0,0l0.1,0.5l0.1,0.3v0.1c0.1,0.2,0.1,0.5,0.3,0.9c0,0,0,0,0,0.1c0.1,0.1,0.1,0.3,0.2,0.4
		c0.2,0.2,0.3,0.4,0.4,0.6c0.1,0.1,0.1,0.2,0.2,0.2c0.1,0.1,0.2,0.2,0.3,0.3l0.2,0.2l0.2,0.1l0.1,0.1c0.1,0.1,0.3,0.2,0.4,0.3
		l0.3,0.2l0.2,0.1c0.1,0,0.1,0.1,0.2,0.1h0.1l0,0c0.1,0.1,0.3,0.1,0.5,0.2c0.3,0.1,0.5,0.1,0.7,0.1c0.1,0,0.3,0,0.4,0s0.2,0,0.2,0
		c0.4,0,0.9-0.1,1.3-0.2h0.2l0.4-0.1l0,0c0.1,0,0.1,0,0.2-0.1L96.6,278l0.4-0.2l0.1-0.1c0.3-0.2,0.5-0.3,0.8-0.5l0.2-0.2l0.1-0.1
		c0.2-0.1,0.3-0.3,0.5-0.6l94.6-117.1c0.1-0.2,0.2-0.3,0.3-0.4c0-0.1,0.1-0.1,0.1-0.2c0.2-0.3,0.3-0.6,0.5-1c0-0.1,0.1-0.2,0.1-0.4
		c0.1-0.5,0.2-1,0.2-1.4c0-0.1,0-0.2,0-0.4s0-0.4-0.1-0.6c0-0.2-0.1-0.3-0.1-0.4c0-0.1-0.1-0.2-0.1-0.4l-3.6-10.4
		c0.9-0.6,1.6-1.5,2.2-2.4l1.4-2.4c2.2-3.8,0.9-8.7-2.8-11l0,0c3.5-6,2.6-13.3-1.7-18.3c2.2-0.5,4.1-1.9,5.3-3.9l1.4-2.4
		c1.1-1.9,1.4-4.1,0.8-6.1c0-0.1-0.1-0.2-0.1-0.3c0.9,0.2,1.9,0.3,2.9,0.3c5.7,0,11-3,13.8-8l0,0c1.2,0.7,2.6,1,3.9,1
		c0.7,0,1.4-0.1,2.1-0.3c2.1-0.6,3.8-1.9,4.9-3.8l1.4-2.4c1-1.7,1.3-3.6,0.9-5.6c3.7-3,6.8-6.5,9.2-10.7c5.1-8.8,6.4-19,3.8-28.8
		c-2.6-9.8-8.9-18-17.7-23.1C217,12.1,210.4,10.4,203.8,10.4L203.8,10.4z"/>
</g>
<g>
	<circle class="st1" cx="203.7" cy="48.4" r="32.5"/>
	<circle class="st2" cx="205.5" cy="45.3" r="20"/>
	<circle class="st3" cx="217.5" cy="45.3" r="12.5"/>
	<rect x="165.6" y="85.8" transform="matrix(0.5 -0.866 0.866 0.5 7.5691 200.6298)" class="st4" width="23.9" height="15.9"/>
	<g>
		<g>
			<path class="st5" d="M195.2,90.1l-23.3-13.5c-5-2.9-6.7-9.2-3.8-14.2l2.8-4.8l41.4,23.9l-2.8,4.8C206.5,91.3,200.1,93,195.2,90.1
				z"/>
		</g>
		<g>
			<path class="st5" d="M187.8,85.9l-8.6-5c-4.5-2.6-6-8.3-3.4-12.8l3.3-5.7l24.8,14.3l-3.3,5.7C198,86.9,192.3,88.5,187.8,85.9z"/>
		</g>
		<g>
			<path class="st5" d="M185.2,84.4l-3.4-2c-1.8-1-2.4-3.3-1.4-5.1l6.1-10.5l9.9,5.7L190.3,83C189.3,84.8,187,85.4,185.2,84.4z"/>
		</g>
	</g>
	<g>
		<g>
			<path class="st5" d="M159.9,97.3l23.3,13.5c5,2.9,6.7,9.2,3.8,14.2l-2.8,4.8l-41.4-23.9l2.8-4.8
				C148.5,96.2,154.9,94.5,159.9,97.3z"/>
		</g>
		<g>
			<path class="st5" d="M167.3,101.6l8.6,5c4.5,2.6,6,8.3,3.4,12.8L176,125l-24.8-14.3l3.3-5.7C157.1,100.5,162.8,99,167.3,101.6z"
				/>
		</g>
		<g>
			<path class="st5" d="M169.8,103.1l3.4,2c1.8,1,2.4,3.3,1.4,5.1l-6.1,10.5l-9.9-5.7l6.1-10.5C165.8,102.7,168,102.1,169.8,103.1z"
				/>
		</g>
	</g>
	<path class="st5" d="M216.8,84.2L166.1,55c-1.2-0.7-1.7-2.3-1-3.6l1.4-2.4c0.7-1.2,2.3-1.7,3.6-1l50.6,29.2c1.2,0.7,1.7,2.3,1,3.6
		l-1.4,2.4C219.6,84.5,218,85,216.8,84.2z"/>
	<path class="st5" d="M187.1,103.8L164,90.5c-1.2-0.7-1.7-2.3-1-3.6l1.4-2.4c0.7-1.2,2.3-1.7,3.6-1L191,97c1.2,0.7,1.7,2.3,1,3.6
		l-1.4,2.4C189.9,104.1,188.3,104.6,187.1,103.8z"/>
	<path class="st5" d="M184.9,139.4l-50.6-29.2c-1.2-0.7-1.7-2.3-1-3.6l1.4-2.4c0.7-1.2,2.3-1.7,3.6-1l50.6,29.2
		c1.2,0.7,1.7,2.3,1,3.6l-1.4,2.4C187.8,139.7,186.2,140.1,184.9,139.4z"/>
	<g>
		
			<linearGradient id="SVGID_1_" gradientUnits="userSpaceOnUse" x1="117.8" y1="166.6" x2="189.4208" y2="166.6" gradientTransform="matrix(1 0 0 -1 0 300)">
			<stop  offset="0" style="stop-color:#0099CC"/>
			<stop  offset="0.9994" style="stop-color:#4634A0"/>
		</linearGradient>
		<polygon class="st6" points="117.8,114.4 135.7,111 159.6,124.8 183.5,138.5 189.5,155.8 		"/>
		
			<linearGradient id="SVGID_00000140708813250094497610000006165554462866874768_" gradientUnits="userSpaceOnUse" x1="135.7443" y1="168.35" x2="171.5547" y2="168.35" gradientTransform="matrix(1 0 0 -1 0 300)">
			<stop  offset="0" style="stop-color:#0099CC"/>
			<stop  offset="0.9994" style="stop-color:#4634A0"/>
		</linearGradient>
		
			<polygon style="fill:url(#SVGID_00000140708813250094497610000006165554462866874768_);stroke:#E9BC00;stroke-width:3;stroke-linecap:round;stroke-linejoin:round;stroke-miterlimit:10;" points="
			135.7,124.8 147.7,117.9 159.6,124.8 171.6,131.6 171.6,145.4 		"/>
		
			<linearGradient id="SVGID_00000000214380181821516120000012233618762094083491_" gradientUnits="userSpaceOnUse" x1="67.6" y1="27.95" x2="86.2" y2="27.95" gradientTransform="matrix(1 0 0 -1 0 300)">
			<stop  offset="0" style="stop-color:#0099CC"/>
			<stop  offset="0.9994" style="stop-color:#4634A0"/>
		</linearGradient>
		
			<polygon style="fill:url(#SVGID_00000000214380181821516120000012233618762094083491_);stroke:#E9BC00;stroke-width:3;stroke-linecap:round;stroke-linejoin:round;stroke-miterlimit:10;" points="
			67.6,284.2 86.2,267.9 72.4,259.9 		"/>
		
			<linearGradient id="SVGID_00000034806265204763922330000009602686280646160306_" gradientUnits="userSpaceOnUse" x1="63.7651" y1="30.45" x2="72.4426" y2="30.45" gradientTransform="matrix(1 0 0 -1 0 300)">
			<stop  offset="0" style="stop-color:#0099CC"/>
			<stop  offset="0.9994" style="stop-color:#4634A0"/>
		</linearGradient>
		
			<polygon style="fill:url(#SVGID_00000034806265204763922330000009602686280646160306_);stroke:#E9BC00;stroke-width:3;stroke-linecap:round;stroke-linejoin:round;stroke-miterlimit:10;" points="
			67.6,284.2 72.4,259.9 63.8,254.9 		"/>
		
			<linearGradient id="SVGID_00000062150535991744546560000017044617827642869912_" gradientUnits="userSpaceOnUse" x1="67.6" y1="24" x2="94.8339" y2="24" gradientTransform="matrix(1 0 0 -1 0 300)">
			<stop  offset="0" style="stop-color:#0099CC"/>
			<stop  offset="0.9994" style="stop-color:#4634A0"/>
		</linearGradient>
		
			<polygon style="fill:url(#SVGID_00000062150535991744546560000017044617827642869912_);stroke:#E9BC00;stroke-width:3;stroke-linecap:round;stroke-linejoin:round;stroke-miterlimit:10;" points="
			67.6,284.2 86.2,267.8 94.8,272.8 		"/>
		
			<linearGradient id="SVGID_00000056396500444485678280000007293701996062257574_" gradientUnits="userSpaceOnUse" x1="72.4" y1="103.65" x2="171.6" y2="103.65" gradientTransform="matrix(1 0 0 -1 0 300)">
			<stop  offset="0" style="stop-color:#0099CC"/>
			<stop  offset="0.9994" style="stop-color:#4634A0"/>
		</linearGradient>
		
			<polygon style="fill:url(#SVGID_00000056396500444485678280000007293701996062257574_);stroke:#E9BC00;stroke-width:3;stroke-linecap:round;stroke-linejoin:round;stroke-miterlimit:10;" points="
			171.6,145.4 86.2,267.9 72.4,259.9 135.7,124.8 		"/>
		
			<linearGradient id="SVGID_00000078003523625721136660000003952239285618469767_" gradientUnits="userSpaceOnUse" x1="63.8" y1="112.85" x2="135.7792" y2="112.85" gradientTransform="matrix(1 0 0 -1 0 300)">
			<stop  offset="0" style="stop-color:#0099CC"/>
			<stop  offset="0.9994" style="stop-color:#4634A0"/>
		</linearGradient>
		
			<polygon style="fill:url(#SVGID_00000078003523625721136660000003952239285618469767_);stroke:#E9BC00;stroke-width:3;stroke-linecap:round;stroke-linejoin:round;stroke-miterlimit:10;" points="
			117.8,114.4 63.8,254.9 72.4,259.9 135.7,124.8 		"/>
		
			<linearGradient id="SVGID_00000088118240325394964600000014653080717459812496_" gradientUnits="userSpaceOnUse" x1="86.2" y1="90.9" x2="189.5" y2="90.9" gradientTransform="matrix(1 0 0 -1 0 300)">
			<stop  offset="0" style="stop-color:#0099CC"/>
			<stop  offset="0.9994" style="stop-color:#4634A0"/>
		</linearGradient>
		
			<polygon style="fill:url(#SVGID_00000088118240325394964600000014653080717459812496_);stroke:#E9BC00;stroke-width:3;stroke-linecap:round;stroke-linejoin:round;stroke-miterlimit:10;" points="
			189.5,155.8 94.8,272.8 86.2,267.9 171.6,145.4 		"/>
	</g>
</g>
</svg>
