<?xml version="1.0" encoding="utf-8"?>
<!-- Generator: Adobe Illustrator 26.3.1, SVG Export Plug-In . SVG Version: 6.00 Build 0)  -->
<svg version="1.1" id="레이어_1" xmlns="http://www.w3.org/2000/svg" xmlns:xlink="http://www.w3.org/1999/xlink" x="0px"
	 y="0px" viewBox="0 0 300 300" style="enable-background:new 0 0 300 300;" xml:space="preserve">
<style type="text/css">
	.st0{fill:#E9BC00;}
	.st1{fill:#80C080;stroke:#008000;stroke-width:3;stroke-linecap:round;stroke-linejoin:round;stroke-miterlimit:10;}
</style>
<g>
	<g>
		<path class="st0" d="M108.6,297.5c-5.4,0-13.6-1.8-21.6-10.3c-3.9-4.1-6.9-6.4-10.4-8c-0.4-0.1-0.7-0.3-1.1-0.4
			c-0.4-0.1-0.7-0.3-1.1-0.4c-4.3-1.4-9.8-1.9-17.7-2.6c-6.2-0.1-12-0.6-17.6-1.4c-0.1,0-0.2,0-0.3-0.1c-0.7-0.2-2-0.6-3-1.6
			c-1.4-1.4-2.1-3.3-1.8-5.1c0.3-1.6,1.1-3,2.3-3.9c1-0.8,2.3-1.2,3.6-1.2c0.3,0,0.6,0,1,0.1c3.5,0.5,7.1,0.8,10.4,1
			c18.1-2.5,30.3-9.7,36.6-21.3c-0.9-3.8-1.7-7.5-2.3-11.5c-1.6-7.3-2.9-12.8-5-16.9c-0.2-0.3-0.4-0.7-0.6-1.1
			c-0.2-0.3-0.4-0.7-0.5-1c-2-3.1-4.7-5.8-9.5-9.3c-13.3-9.4-13.6-21.1-13.4-24.4c0-0.1,0-0.2,0-0.4c0.5-3,2.9-5.1,5.8-5.1
			c0.3,0,0.6,0,0.9,0.1c0.5,0,0.9,0.1,1.3,0.3c-3.1-15.7-1-24.6-0.7-25.8c0.7-2.6,3-4.5,5.8-4.5c0.5,0,1,0.1,1.5,0.2
			c1.6,0.4,2.9,1.4,3.7,2.7c0.8,1.3,1,2.9,0.7,4.4l0,0.1c-0.4,1.9-1.1,7.6,0.3,16.9c0.5-3.2,1.1-5.5,1.5-6.7c0,0,0-0.2,0.1-0.2
			c0.5-1.5,1.6-2.8,3-3.5c0.8-0.4,1.7-0.6,2.6-0.6c0.7,0,1.3,0.1,2,0.3c1.5,0.5,2.8,1.6,3.5,3c0.7,1.4,0.8,3,0.3,4.6
			c0,0.1,0,0.1-0.1,0.2c-0.2,0.6-2,6.8-1.7,16.5c0.1-0.7,0.3-1.3,0.4-2c0-0.8,0.2-1.5,0.6-2.2c0.8-3,1.6-6,2.5-8.9
			c-0.2-0.6-0.3-1.2-0.3-1.8c0,0,0-0.1,0-0.3c0.2-2.8,0.5-12.5-0.9-21.4c-1,0.1-1.8,0.3-1.8,0.3c-0.7,0.2-1.4,0.3-2,0.3
			c-2.4,0-4.6-1.4-5.6-3.7c0-0.1-0.1-0.2-0.1-0.3c-1-3,0.4-6.2,3.4-7.6l0,0c0.3-0.1,1.3-0.5,2.6-0.7c0,0-0.1-0.1-0.1-0.1
			c-3.4-5.6-4-12-1.8-18.5c2.3-6.8,6.6-11.1,7.9-12.3c1.2-1,2.6-1.6,4.1-1.6l0.2,0c1.6,0,3.2,0.7,4.3,1.9c1,1.1,1.6,2.7,1.5,4.3
			c0,1.7-0.7,3.2-1.9,4.3c-0.2,0.2-2.3,2.4-3.8,5.4c-1.9,3.9-1.9,7.3,0,10.4c1.4,2.3,2.7,5.3,3.7,8.6c1.4,1,2.7,2.3,3.7,3.7
			c0.2-0.4,0.5-0.8,0.8-1.3c11.2-37.7-5-58.1-6.9-60.3c-1-1.2-1.5-2.7-1.4-4.3c0.1-1.4,0.6-2.7,1.6-3.7c0.7-1.1,1.9-1.9,3.2-2.2
			c0.3-0.1,0.6-0.1,0.9-0.1c1.1,0,2.3,0.4,3.2,1l0.2-0.1l1,1.1c0.1,0.1,1,1.1,1,1.1l0,0c2.1,2.8,6.9,10,10,21.2
			c-0.4-5.9-1.7-10-1.7-10.1c0,0-0.1-0.1-0.1-0.3c-0.8-3.2,0.9-6.3,4-7.3c0.6-0.2,1.3-0.3,1.9-0.3c2.6,0,4.8,1.6,5.6,4.1
			c0,0.1,0,0.2,0.1,0.2l0,0.1c1.4,5,3.9,16.8,1.2,29.2c14.5-26.7,2.7-40.4,0.2-42.9c-1.1-1-1.8-2.4-1.9-4c-0.1-1.6,0.4-3.1,1.5-4.3
			c1-1.2,2.5-1.9,4.1-2c0.1,0,0.3,0,0.4,0c1.5,0,2.8,0.5,3.9,1.5c1,1,7.4,7.3,9.9,18.7c0-2.4-0.2-4.9-0.5-7.5
			c-2.1-18,4.3-29.4,6.2-31.6c0.9-1.2,2.3-2,3.8-2.2c0.3,0,0.6-0.1,0.8-0.1c1.4,0,2.6,0.5,3.7,1.3c2.3,1.8,2.9,4.8,1.8,7.2
			c0.8-0.4,1.6-0.6,2.5-0.6c3.4,0,6.1,2.7,6.1,6l0,0.1c0,0.8,0,2.1,0,3.6c0.1-1.3,0.2-2.6,0.2-3.9c0.1-8.7-3-13.8-4-15.2
			c-1-1.1-1.5-2.7-1.4-4.3c0.1-1.6,0.9-3.1,2.2-4.1c1-0.9,2.4-1.4,3.8-1.4c0.2,0,0.5,0,0.7,0c1.6,0.2,3,1,3.9,2.3
			c0.9,1.1,8.3,10.6,6.5,27.7c2.9-5.5,2.2-9.4,2.2-9.6c-0.5-3.3,1.4-6.4,4.5-7.1c0.1,0,0.2,0,0.2,0c0.3-0.1,0.7-0.1,1-0.1
			c2.9,0,5.3,1.9,6,4.6l0.4,1.5l-0.1,0c0.3,2.2,0.4,6.4-1.3,11.5c9.3-18.6,4.6-35.6,2.7-41l0-0.1C196.6,7.8,198,4.4,201,3
			c0.7-0.3,1.5-0.5,2.4-0.5c0.8,0,1.6,0.2,2.3,0.5c1.4,0.6,2.6,1.7,3.2,3.1c0.1,0.1,4.6,10.9,3.7,26c0.2-0.4,0.3-0.7,0.3-0.8l0-0.1
			c0.9-2.4,3.2-3.9,5.7-3.9c0.7,0,1.3,0.1,2,0.3c3.1,1.1,4.7,4.6,3.6,7.7c-0.2,0.6-1.9,4.9-7,12.1c2.8-0.5,5.7-0.7,8.5-0.7
			c5.5,0,8.8,0.9,8.8,0.9c1.5,0.4,2.8,1.3,3.6,2.7c0.8,1.4,1,3,0.7,4.5c-0.7,2.7-3.1,4.5-5.8,4.5c-0.5,0-1-0.1-1.5-0.2
			c-0.1,0-0.1,0-0.2-0.1c0,0,0,0,0,0c0,0-2.1-0.5-5.4-0.5c-7,0-17.8,2-28.8,11.4c-5.8,5.5-12.4,11.1-19.6,16.6
			c6.8,1,12.2,2.9,13.5,3.4c1.5,0.6,2.7,1.7,3.3,3.2c0.6,1.4,0.7,3,0.2,4.5c-0.5,1.6-1.7,2.8-3.2,3.5c-0.8,0.3-1.6,0.5-2.4,0.5
			c-0.7,0-1.4-0.1-2-0.3l-0.2-0.1c-2.9-1-10.3-3.2-17.8-3.2c-3.7,0-6.9,0.5-9.6,1.6c-2.1,1.4-4.2,2.8-6.4,4.2
			c1.3,0.6,2.6,1.3,3.8,2.1l0.1,0.1c0.2,0.1,0.4,0.2,0.5,0.4c1.2,1.1,1.9,2.5,2.1,4.1c0.1,1.6-0.4,3.1-1.4,4.3
			c-1.2,1.3-2.8,2.1-4.5,2.1l-0.2,0c-0.9,0-1.9-0.2-2.7-0.7c0.2,0.5,0.3,1.1,0.3,1.7c0,3.4-2.7,6.1-6,6.1c0,0-1.5,0.1-3.7,0.4
			c0.4,0.2,0.7,0.4,1.1,0.6c16.4-2.8,25.2-15.4,25.3-15.5c0,0,0,0,0,0c0,0,0-0.1,0.1-0.1c0.9-1.3,2.3-2.2,3.8-2.5
			c0.4-0.1,0.8-0.1,1.2-0.1c1.2,0,2.4,0.4,3.4,1.1c1.3,0.9,2.2,2.3,2.5,3.8c0.3,1.6,0,3.2-0.9,4.5l-0.2,0.2
			c-2.3,3.1-10.6,13.2-24.6,18.3c3.2,4.2,5,8.1,5.8,10.2c1.1,3.2-0.5,6.7-3.5,7.8c-0.7,0.2-1.4,0.3-2,0.3c-2.6,0-4.9-1.6-5.7-3.9
			c-0.7-1.6-3.4-7.4-8.1-11.7l-3.1,0.2c-13,1-16.3,1.3-20.6,5.8c5.5-2,9.5-2.3,10.1-2.3c0.1,0,0.2,0,0.4,0c1.5,0,2.9,0.6,4,1.6
			c1.2,1.1,1.9,2.6,1.9,4.2c0.1,1.5-0.5,3.1-1.6,4.2c-1,1.1-2.4,1.8-3.9,1.9l-0.2,0c-3.2,0.4-10.4,1.9-17.9,8.5
			c12.6-5.4,25.2-6.6,34.3-6.6c7.5,0,12.4,0.9,12.4,0.9c3.2,0.5,5.4,3.6,4.8,6.9c-0.5,2.9-3,5-5.9,5c-0.3,0-0.7,0-1-0.1l-0.2,0
			c-1.6-0.2-5.1-0.5-9.6-0.5c-8.2,0-18.6,1.1-28.7,5.1c1.4,0.5,2.6,1.4,3.3,2.8c0.8,1.3,1,2.9,0.6,4.5c0,0.1-0.1,0.2-0.1,0.3
			c8.4-3.4,15.2-3.5,15.3-3.5c3.1,0,5.8,2.5,6.1,5.7c0,0.1,0,0.2,0,0.2c0,3.1-2.5,5.8-5.7,6.1c-0.1,0-0.2,0-0.2,0
			c-0.1,0-7.6,0.1-15.7,4.7c1.5,0.7,2.8,2,3.3,3.7c0.8,2.6,6.6,23.3,1,45.5c4.8-8.2,5-15.1,4.9-17.4l0-0.1c-0.1-1.5,0.4-3,1.4-4.2
			c1-1.2,2.5-2,4.1-2.1c0.2,0,0.3,0,0.5,0c1.4,0,2.7,0.5,3.8,1.4c1.2,1,2,2.5,2.1,4.1c0,0.1,0,0.3,0,0.3c0.1,2.2,0,5.9-1.1,10.7
			c4.6-5.4,4.5-8.4,3.6-22l-0.2-2.7c-0.7-0.6-1.3-1.1-2-1.6c-4.4-3.1-9.2-4.6-11.1-5.1l-0.2,0c-3-0.8-5-3.8-4.4-7
			c0-0.1,0-0.2,0.1-0.2c0.7-2.7,3.1-4.6,6-4.6c0.4,0,0.7,0,1.1,0.1c3.8,0.9,7.9,2.5,11.5,4.6c3.5-17.3,15-27.4,15.1-27.5
			c1-0.9,2.3-1.4,3.8-1.4c0.1,0,0.3,0,0.4,0c1.6,0.1,3,0.8,4.1,2c1.1,1.2,1.6,2.7,1.5,4.3c-0.1,1.6-0.8,3-2,4.1
			c-1,1-9.1,9.2-11.3,22c0.7-2.2,2.5-3.8,4.8-4.2l0.2,0c0.2,0,0.4,0,0.6,0c0.6,0,1.1,0.1,1.6,0.2c-0.7-0.9-1.2-2-1.3-3.1
			c-0.1-1.6,0.4-3.3,1.6-4.6c1.1-1.2,2.7-1.9,4.4-1.9c1.5,0,2.9,0.6,4.1,1.6l1.1,1l-0.1,0.1c0.7,0.7,1.4,1.7,2.1,2.8
			c0.8-1.7,1.6-3.5,2.4-5.2c0.3-0.6,0.6-1.2,0.9-1.8c2.7-11.6-5.2-26.8-5.3-27l0-0.1c-0.8-1.4-1-3.1-0.5-4.6
			c0.5-1.5,1.5-2.8,2.9-3.5c0.9-0.5,1.9-0.7,2.9-0.7c2.2,0,4.2,1.2,5.2,3.1l0.1,0.2c0.8,1.5,3.2,6.5,5,12.7
			c3.4-6,6.9-11.7,10.4-16.9c0.2-0.6,0.5-1.2,0.8-1.7c15.2-20.8,8.4-38.4,8.3-38.5c-0.7-1.5-0.7-3.2-0.1-4.7
			c0.6-1.4,1.7-2.6,3.1-3.2c0.7-0.3,1.5-0.5,2.4-0.5c2.4,0,4.5,1.4,5.5,3.6c0,0.1,3,7,2.5,17.6c6.2-5.9,10.4-8.4,11.3-8.9
			c0.8-0.5,1.8-0.8,2.9-0.8c0.5,0,1.1,0.1,1.6,0.2c1.6,0.4,2.9,1.5,3.7,2.9c0.7,1.2,0.9,2.9,0.5,4.4c-0.4,1.5-1.4,2.8-2.8,3.6
			l-0.1,0.1c-0.3,0.2-0.7,0.5-1,0.7c4.4-0.9,8.9-1.3,13.4-1.3c7.9,0,12.9,1.4,13,1.4c1.5,0.4,2.8,1.4,3.6,2.7c0.8,1.4,1,3,0.6,4.5
			c-0.4,1.6-1.4,2.9-2.7,3.7c-0.9,0.5-2,0.8-3,0.8c-0.5,0-1-0.1-1.5-0.2c-1.4-0.3-5.1-1-10.2-1c-7.7,0-18.3,1.7-28.8,8.5
			c4.3-1.9,7.9-2.3,10.3-2.3c0.2,0,0.6,0,0.6,0c0,0,0.2,0,0.3,0c1.6,0.1,3,0.9,4.1,2.1c1,1.2,1.5,2.8,1.4,4.3
			c-0.3,3.1-2.9,5.5-6,5.5c-0.1,0-0.3,0-0.4,0c-1.3,0-5.4,0.4-10.2,4.2c4.4-1.2,8.7-1.8,12.8-1.8c10.2,0,16.3,3.6,16.9,4
			c1.4,1,2.3,2.3,2.7,3.8c0.4,1.7,0.1,3.3-0.8,4.7c-1.2,1.6-3.1,2.6-5.1,2.6c-1.1,0-2.1-0.3-3-0.8c-1.3-0.7-5-2.3-10.8-2.3
			c-2.7,0-5.4,0.3-8.3,1c0.9-0.2,1.8-0.3,2.5-0.4l0.4-0.1c0.1,0,0.2,0,0.3,0c0.2,0,0.4,0,0.5,0c3,0,5.6,2.1,6.1,5.1
			c0,0.1,0,0.1,0,0.2c0.1,1-0.1,1.9-0.4,2.7c0.9-0.7,2-1.1,3.2-1.1l0.2,0c1.6,0,3.1,0.7,4.3,1.8c1.1,0.9,1.7,2.4,1.8,4
			c0,1.6-0.6,3.2-1.8,4.4c-1,1-10.5,9.9-30.3,10.3c-2.5,0.1-4.9,0.2-7.2,0.5c9.3,0.7,15.7,4.4,18.4,6.2l0,0l1.3,1
			c1.2,0.9,2,2.4,2.1,4c0.2,1.7-0.4,3.3-1.5,4.5c-1.1,1.2-2.5,1.9-4.1,2c-0.1,0-0.3,0-0.4,0c-1.5,0-2.8-0.5-3.9-1.5
			c-0.2-0.2-5.5-4.5-15-4.5c-8.7,0-18,3.6-27.6,10.8c7.6-2.8,15.3-3.5,20.8-3.5c3.7,0,6.8,0.3,8.6,0.6l0.2,0c1.7,0.3,3.1,1.2,4,2.5
			c0.9,1.3,1.2,2.9,1,4.4c-0.5,2.9-3,5-5.9,5c-0.3,0-0.7,0-1-0.1l-0.1,0c-1.1-0.1-3.5-0.4-6.6-0.4c-1.4,0-3,0.1-4.7,0.2
			c14.7,1.7,23.3,7.2,24.4,7.9c2.9,1.8,3.1,5.2,3.1,6.2c0,0.6-0.2,1.2-0.5,1.7c-0.9,1.3-2.3,2.2-3.8,2.5c-0.4,0.1-0.8,0.1-1.2,0.1
			c-1.2,0-2.4-0.4-3.4-1.1c-1.7-1-11.1-6.4-26.6-6.4c-11,0-22.4,2.7-34,8.1c0,0-0.7,0.5-1,0.8c1.7,0.9,3.2,2.1,4.4,3.5
			c0.1,0.1,0.3,0.3,0.4,0.5c2.7,0.5,5.1,1.2,7.2,2c1.2,0.5,2.5,0.8,3.8,0.8c5.6,0,10.2-5.3,11.5-7l0.1-0.1c0.9-1.3,2.4-2.2,4-2.4
			c0.3,0,0.6-0.1,0.8-0.1c1.3,0,2.6,0.4,3.6,1.3c1.2,0.8,2,2.2,2.3,3.8c0.2,1.6-0.1,3.1-1,4.4c-3.1,4.5-11.1,12-21.3,12
			c-2.4,0-4.9-0.4-7.2-1.3c0,0,0,0.1,0,0.1l0.1,0l-0.4,1.5c-0.4,1.5-1.3,2.8-2.7,3.7c-1,0.6-2.1,0.9-3.2,0.9c-0.4,0-0.9-0.1-1.3-0.2
			c-1.5-0.3-2.9-1.2-3.8-2.5c-0.9-1.3-1.2-3-0.8-4.6c0-0.2,0.1-0.8,0.1-1.5c-0.9,0-1.8-0.1-2.7-0.1c-7.2,0-14.7,1.1-19,1.8l0,0
			l-1.5,0.2c-0.2,0-0.5,0.1-0.7,0.1c-2.7,1.3-5.4,2.5-8.2,3.6c-0.7,0.4-1.4,0.7-2.2,0.8c-0.7,0.3-1.5,0.6-2.2,0.8
			c9.8-1.2,15.6-4,15.6-4c0.8-0.4,1.7-0.7,2.6-0.7c0.7,0,1.3,0.1,1.9,0.3c1.4,0.5,2.7,1.5,3.4,2.9c0.8,1.5,0.9,3.1,0.4,4.7
			c-0.5,1.4-1.5,2.7-2.9,3.4c-0.1,0-0.2,0.1-0.2,0.1l-0.1,0c-1.2,0.6-3.2,1.4-5.7,2.2c0.5,0,1.1,0,1.6,0c9.6,0,14.8-1.8,15.3-2l0,0
			c0.7-0.3,1.5-0.5,2.4-0.5c2.4,0,4.5,1.4,5.5,3.6c0.7,1.5,0.7,3.1,0,4.7c-0.6,1.4-1.7,2.6-3.1,3.2c-0.1,0-0.2,0.1-0.3,0.1l-0.1,0
			c-2.4,0.9-9.1,2.9-20,2.9c-1.8,0-3.7-0.1-5.6-0.2c0.2,0.4,0.4,0.9,0.6,1.4c0.4,1.6,0.2,3.2-0.6,4.5c-0.8,1.4-2.1,2.4-3.7,2.7
			C112.9,297.1,111.1,297.5,108.6,297.5z M106.2,251.1c-1.2,1.7-2.7,3.5-4.5,5.3c0.7-0.2,1.3-0.5,2-0.7
			C104.5,254.2,105.4,252.7,106.2,251.1z M104.6,236c0.8,0,1.6,0.2,2.4,0.5c1.6,0.7,2.7,2,3.3,3.6c5.2-20.2-0.6-39.3-0.7-39.5
			c0,0,0-0.1-0.1-0.2c0-0.1-0.1-0.3-0.1-0.4c-4,4.4-7,10-8.8,16.7c1.7,0.9,2.9,2.5,3.2,4.4l0.2,1.5l-0.1,0c0.1,2.4,0.2,7.6-1.3,13.9
			C103.3,236.2,103.9,236,104.6,236z M153.5,205.9c0-1.9-0.1-3.3-0.1-3.7c0-0.2,0-0.4,0-0.6c-0.2,1.2-0.2,2.4-0.3,3.7
			C153.2,205.5,153.3,205.7,153.5,205.9z M98.5,182.9c1-1.3,2-2.5,3-3.5c-0.9,0.7-1.8,1.4-2.7,2.1C98.7,181.9,98.6,182.4,98.5,182.9
			z M227,178.3c-2.6,0.4-8.4,1.4-15.1,3.4C218.6,181.4,223.6,179.9,227,178.3z M158.2,48.8c-0.9,3.5-1.6,8-1.1,13.8
			C157.9,56.7,158.1,51.7,158.2,48.8z"/>
		<path class="st0" d="M203.3,4c0.6,0,1.2,0.1,1.7,0.4c1.1,0.5,1.9,1.3,2.4,2.4c0.1,0.2,5.9,14.1,2.7,32.3c2.9-4.4,4-6.9,4.1-7.2
			c0,0,0-0.1,0-0.1c0.6-1.8,2.4-2.9,4.3-2.9c0.5,0,1,0.1,1.5,0.2c2.3,0.8,3.5,3.4,2.7,5.8c-0.2,0.5-2.3,5.9-9.1,14.8
			c4.6-1.2,8.7-1.5,12-1.5c5.1,0,8.3,0.9,8.4,0.9c2.3,0.6,3.8,3,3.2,5.4c-0.5,2-2.3,3.4-4.4,3.4c-0.4,0-0.7,0-1.1-0.1
			c0,0-0.1,0-0.1,0c-0.1,0-2.3-0.5-5.9-0.5c-6.6,0-18.1,1.8-29.8,11.8c-6.1,5.8-13.5,12.1-22.5,18.8c8.4,0.7,15.6,3.2,16.8,3.7
			c1.1,0.4,2,1.2,2.5,2.4c0.5,1.1,0.5,2.3,0.1,3.4c-0.4,1.2-1.2,2.1-2.4,2.6c-0.6,0.2-1.2,0.4-1.8,0.4c-0.5,0-1-0.1-1.6-0.3
			c-0.1,0-0.2-0.1-0.3-0.1c-2.8-1-10.4-3.2-18.2-3.2c-3.5,0-7.1,0.5-10.3,1.7c-2.4,1.6-4.8,3.2-7.3,4.8c-0.5,0.3-1.1,0.7-1.6,1.1
			c2.1,0.7,4.2,1.7,6.2,3l0.1,0.1c0.1,0.1,0.2,0.1,0.3,0.2c1.9,1.7,2.1,4.5,0.5,6.3c-0.9,1-2.1,1.6-3.4,1.6c0,0-0.1,0-0.1,0
			c-1,0-2-0.4-2.7-1.1c-0.4-0.3-3.1-2.3-7-2.3c-2.2,0-4.7,0.6-7.5,2.5c0,0-0.1,0.1-0.1,0.1c5.1-1.1,8.7-1.2,8.8-1.2
			c2.5,0,4.6,2,4.6,4.5c0,2.5-2,4.6-4.5,4.6c-0.1,0-3.7,0.1-8.5,1.4c2,0.7,3.8,1.6,5.5,2.7c17.2-2.7,26.6-15.8,26.9-16.2
			c0,0,0-0.1,0.1-0.1c0.7-1,1.7-1.6,2.9-1.9c0.3-0.1,0.6-0.1,0.9-0.1c0.9,0,1.8,0.3,2.5,0.8c1,0.7,1.6,1.7,1.9,2.9
			c0.2,1.2,0,2.4-0.7,3.4l-0.2,0.2c-2.6,3.6-11.3,13.9-25.9,18.4c3.3,3.9,5.6,8.1,6.9,11.5c0.8,2.4-0.4,5-2.6,5.9
			c-0.5,0.2-1,0.3-1.5,0.3c-1.9,0-3.6-1.1-4.3-2.9c-0.8-2-3.8-8.2-9-12.7l-3.7,0.3c-16.7,1.3-18,1.4-25.7,11.3
			c8-4.3,14.5-4.8,15.4-4.8c0.1,0,0.2,0,0.3,0c1.1,0,2.1,0.4,3,1.2c0.9,0.8,1.4,1.9,1.4,3.1c0.1,1.2-0.3,2.3-1.2,3.2
			c-0.8,0.8-1.8,1.3-3,1.5c-0.1,0-0.2,0-0.3,0c-4.2,0.5-14.7,2.9-24.2,14.6c0,0.1-0.1,0.3-0.1,0.4c14.6-8.4,30.4-10.1,40.9-10.1
			c7.3,0,12,0.8,12.1,0.8c2.4,0.4,4,2.7,3.6,5.2c-0.4,2.2-2.3,3.7-4.5,3.7c-0.2,0-0.5,0-0.7-0.1c-0.1,0-0.1,0-0.2,0
			c-1.6-0.2-5.1-0.6-9.8-0.6c-11.7,0-30.8,2.2-45.4,14.8c-0.7,3-1.3,6.1-1.7,9.3c5.3-10.1,13.1-15,14.2-15.7
			c0.7-0.4,1.5-0.6,2.3-0.6c0.4,0,0.8,0.1,1.2,0.2c1.2,0.3,2.1,1.1,2.7,2.1c0.6,1,0.8,2.2,0.4,3.4c-0.3,1.2-1.1,2.1-2.1,2.7
			c-0.1,0-2.5,1.4-5.4,4.5c11.7-8.1,24-8.5,24.2-8.5c2.4,0,4.4,1.9,4.6,4.3c0,0,0,0.1,0,0.1c0,2.4-1.9,4.4-4.3,4.6c0,0-0.1,0-0.1,0
			c-0.1,0-13.4,0.1-23.9,10.6c-5.1,5.1-8.6,11.8-10.6,19.9c1.7,0.4,3.2,1.8,3.5,3.7l0,0c0.2,1.6,0.9,11.2-3.4,21.8c0,0,0,0,0,0
			c0.7-1.2,1.2-2.1,1.5-2.8l0.1-0.1c0.5-1,1.3-1.9,2.4-2.3c0.6-0.2,1.2-0.4,1.7-0.4c0.6,0,1.2,0.1,1.7,0.4c2.3,1,3.4,3.7,2.4,5.9
			c-0.2,0.5-3.8,9.3-13.7,16.4c3.2-0.9,6.5-2,9.6-3.2c15.9-25,6.6-56.1,6.4-56.9c0-0.1,0-0.1,0-0.2c-0.6-2.4,0.7-4.8,3-5.6
			c0,0,0.1,0,0.1,0c0.4-0.1,0.8-0.1,1.2-0.1c2,0,3.7,1.2,4.4,3.1c0.9,3,8,28.4-1.7,53.3c10.3-11.5,10.8-22.4,10.6-25.7l0-0.1
			c-0.1-1.2,0.3-2.3,1-3.2c0.8-0.9,1.8-1.5,3-1.6c0.1,0,0.3,0,0.4,0c1,0,2,0.4,2.9,1c0.9,0.8,1.5,1.8,1.6,3c0,0,0,0.1,0,0.1l0,0.1
			c0.1,2.9-0.1,9-2.9,16.4c9.6-9.8,9.5-10.7,8.5-27.9l-0.2-3.3c-0.8-0.7-1.7-1.5-2.6-2.1c-4.6-3.3-9.6-4.8-11.6-5.4l-0.2,0
			c-2.3-0.6-3.8-2.9-3.4-5.3c0,0,0-0.1,0-0.1c0.5-2.1,2.4-3.5,4.5-3.5c0.3,0,0.5,0,0.8,0.1c3.7,0.9,8.4,2.7,12.8,5.5
			c2.8-17.9,14.8-28.6,14.9-28.7c0.8-0.7,1.8-1.1,2.9-1.1c0.1,0,0.2,0,0.3,0c1.2,0.1,2.3,0.6,3.1,1.5c1.6,1.8,1.4,4.7-0.4,6.3
			c-1.3,1.3-12.2,12.3-12.4,29.2c1.2,1.4,2.2,3,3.1,4.6c0.5-4.3,0.3-7.6,0.2-8.4c0,0,0,0,0-0.1h0c-0.2-2.4,1.4-4.6,3.8-5
			c0,0,0.1,0,0.1,0c0.1,0,0.3,0,0.4,0c2.3,0,4.2,1.6,4.6,3.8c0,0.1,0.5,4.1-0.1,9.8c0.2-0.3,0.5-0.7,0.7-1
			c3.8-7.7-0.4-12.9-1.9-14.4c-0.8-0.7-1.4-1.7-1.4-2.8c-0.1-1.2,0.3-2.5,1.2-3.5c0.8-1,2-1.4,3.2-1.4c1.1,0,2.2,0.4,3.1,1.2l0,0
			c1.3,0.9,3,3.3,4.3,6c0.3-0.6,0.6-1.2,0.9-1.8c0.9-2.1,1.9-4.1,2.8-6.1c0.3-0.6,0.6-1.3,0.9-1.9c2.9-12.1-5.1-27.6-5.4-28.2
			c0,0,0-0.1-0.1-0.1c-0.6-1.1-0.7-2.3-0.4-3.4c0.3-1.1,1.1-2.1,2.2-2.6c0.7-0.4,1.4-0.6,2.2-0.6c1.6,0,3.1,0.9,3.9,2.4l0.1,0.1
			c1,2,4.1,8.4,5.8,16c4.2-7.7,8.4-14.4,12.3-20.3c0.1-0.5,0.4-1,0.7-1.5c15.7-21.4,8.5-39.8,8.4-40c-0.5-1.2-0.5-2.4-0.1-3.5
			c0.5-1.1,1.3-1.9,2.4-2.4c0.6-0.3,1.2-0.4,1.7-0.4c1.7,0,3.4,1,4.1,2.7c0.1,0.2,3.5,8.5,2.1,20.8c7.6-7.7,12.8-10.9,13.8-11.5
			c0.6-0.4,1.4-0.6,2.1-0.6c0.4,0,0.8,0.1,1.2,0.2c1.2,0.3,2.2,1.1,2.8,2.2c0.6,0.9,0.7,2.1,0.4,3.3c-0.3,1.2-1.1,2.2-2.1,2.8
			c-0.1,0-0.1,0.1-0.2,0.1c-2,1.3-4.3,3.1-6.6,5.1c7.4-2.4,14.3-3.1,19.8-3.1c7.5,0,12.5,1.3,12.6,1.3c1.1,0.3,2.1,1,2.7,2
			c0.6,1,0.8,2.2,0.5,3.4c-0.3,1.2-1,2.2-2.1,2.8c-0.7,0.4-1.5,0.6-2.3,0.6c-0.4,0-0.7,0-1.1-0.1c-1.6-0.4-5.4-1.1-10.6-1.1
			c-10.1,0-25.4,2.8-39.1,16.4c-4.9,6.8-9.5,14.1-13.8,21.8c1.2-0.9,2.4-1.8,3.6-2.6c0-0.1,0.1-0.3,0.1-0.4
			c4.7-11,11.1-18.7,19-22.9c5-2.6,9.3-3.1,11.6-3.1c0.2,0,0.4,0,0.5,0c0,0,0.2,0,0.2,0c1.2,0.1,2.3,0.7,3,1.6
			c0.8,0.9,1.1,2.1,1,3.3c-0.2,2.3-2.2,4.1-4.5,4.1c-0.1,0-0.2,0-0.3,0c0,0,0,0-0.1,0c-1.9,0-8.9,0.6-15.7,9.1
			c7.1-2.8,13.2-3.8,18.3-3.8c9.8,0,15.7,3.5,16.1,3.8c1,0.7,1.7,1.7,2,2.9c0.3,1.2,0.1,2.5-0.6,3.5c-0.9,1.3-2.4,2-3.9,2
			c-0.8,0-1.6-0.2-2.3-0.6l-0.1,0c-1.5-0.8-5.4-2.5-11.5-2.5c-6,0-14.2,1.7-24,7.7c7.4-2.2,14.2-3.4,18.5-4.1c0.2,0,0.4-0.1,0.5-0.1
			c0,0,0.1,0,0.1,0c0.1,0,0.3,0,0.4,0c2.3,0,4.2,1.6,4.6,3.8c0,0,0,0.1,0,0.1c0.2,2.4-1.4,4.6-3.8,5c0,0-0.1,0-0.1,0
			c-0.3,0-8.6,1.1-18.5,4.1c-3.2,1-6.2,2.1-9,3.3c3.1-0.4,6.3-0.7,9.8-0.8c15.3-0.4,22.6-6.8,23.1-7.3c0.8-0.8,1.8-1.3,3-1.4
			c0,0,0.1,0,0.1,0c1.1,0,2.3,0.5,3.2,1.3c0.8,0.7,1.3,1.8,1.3,3c0,1.2-0.5,2.4-1.3,3.3c-1,1-10,9.5-29.3,9.9
			c-10.5,0.3-18.9,2.2-25.1,5.9c5.4-1.8,10.3-2.5,14.6-2.5c12.9,0,20.9,6,22,7l0,0c0.9,0.7,1.4,1.8,1.6,3c0.1,1.3-0.3,2.5-1.1,3.4
			c-0.8,0.9-1.9,1.4-3.1,1.5c-0.1,0-0.2,0-0.3,0c-1.1,0-2.1-0.4-2.9-1.1c-0.4-0.3-6.1-4.9-16-4.9c-7.6,0-17.7,2.7-29.8,12.1
			c-0.9,1.4-1.8,2.8-3.1,4.2c9-4.9,18.9-6.1,26.1-6.1c3.7,0,6.6,0.3,8.4,0.5l0.2,0c1.3,0.2,2.3,0.9,3,1.9c0.7,1,0.9,2.2,0.7,3.3
			c-0.4,2.2-2.3,3.7-4.5,3.7c-0.2,0-0.5,0-0.7-0.1c0,0-0.1,0-0.1,0c-1.1-0.1-3.6-0.4-6.8-0.4c-4.7,0-10.9,0.5-17.1,2.8
			c1.2-0.1,2.3-0.1,3.4-0.1c19.6,0,31.5,7.5,32.5,8.1c2.3,1.4,2.4,4.1,2.4,4.9c0,0.3-0.1,0.6-0.3,0.9c-0.7,1-1.7,1.6-2.9,1.9
			c-0.3,0.1-0.6,0.1-0.9,0.1c-0.9,0-1.8-0.3-2.5-0.8c-1.6-1-11.4-6.7-27.4-6.7c-9.5,0-21.2,2-34.7,8.2c0,0-0.1,0-0.1,0.1
			c-0.9,0.7-1.7,1.3-2.6,2c-0.2,0.1-0.4,0.3-0.5,0.4c2.5,0.9,4.6,2.3,6.2,4.1c0.2,0.3,0.5,0.6,0.7,0.8c2.7,0.4,5.2,1.1,7.4,2
			c1.5,0.6,3,0.9,4.3,0.9c6.2,0,11.1-5.5,12.7-7.5c0,0,0,0,0.1-0.1c0.7-1,1.8-1.7,3-1.8c0.2,0,0.4,0,0.6,0c1,0,1.9,0.3,2.7,0.9
			c0.9,0.6,1.6,1.7,1.7,2.9c0.2,1.2-0.1,2.4-0.8,3.3c-3.2,4.6-10.7,11.4-20,11.4c-2.5,0-5.2-0.5-7.9-1.7c-0.2-0.1-0.5-0.2-0.7-0.3
			c0,1.6-0.2,2.9-0.4,3.5l0,0c-0.3,1.2-1,2.2-2,2.8c-0.7,0.5-1.6,0.7-2.4,0.7c-0.3,0-0.7,0-1-0.1c-1.2-0.2-2.2-0.9-2.9-1.9
			c-0.7-1-0.9-2.3-0.6-3.4c0,0,0,0,0,0c0,0,0,0,0,0c0,0,0,0,0,0c0,0,0.3-1.6,0-3.3c-1.3-0.1-2.7-0.1-4.1-0.1c-7.8,0-15.9,1.2-20.1,2
			c-0.2,0-0.4,0.1-0.5,0.1l0,0c-0.2,0-0.4,0-0.6,0c-0.1,0-0.1,0-0.2,0c-2.8,1.3-5.7,2.6-8.5,3.7c-0.6,0.4-1.2,0.6-1.9,0.7
			c-4.3,1.7-8.8,3.1-13.4,4.3c0.8,0,1.5,0,2.2,0c15.7,0,25.5-4.7,25.7-4.7c0.6-0.3,1.3-0.5,2-0.5c0.5,0,1,0.1,1.4,0.2
			c1.1,0.4,2,1.2,2.6,2.2c0.6,1.1,0.7,2.3,0.3,3.5c-0.4,1.1-1.2,2-2.2,2.6c0,0-0.1,0-0.1,0.1l-0.1,0.1c-2.4,1.1-7.4,3.1-14.6,4.4
			c4.2,0.5,7.9,0.7,11.1,0.7c10.2,0,15.5-2,15.9-2.1c0,0,0,0,0.1,0c0.6-0.3,1.2-0.4,1.7-0.4c1.7,0,3.4,1,4.1,2.7
			c0.5,1.1,0.5,2.3,0,3.5c-0.5,1.1-1.3,1.9-2.4,2.4c0,0-0.1,0-0.1,0.1l-0.1,0c-2.5,0.9-9,2.8-19.5,2.8c-6.1,0-13.6-0.6-22.4-2.5
			c3.6,2.1,6.7,2.5,8.6,2.5c1.1,0,1.8-0.2,1.8-0.2c0.4-0.1,0.8-0.1,1.2-0.1c2,0,3.9,1.4,4.4,3.4c0.3,1.2,0.1,2.4-0.5,3.4
			c-0.6,1-1.6,1.8-2.8,2.1v0c-0.4,0.1-2,0.5-4.4,0.5c-4.8,0-12.7-1.5-20.5-9.8c-4-4.3-7.2-6.7-11-8.4c-0.4-0.1-0.8-0.3-1.1-0.4
			c-0.4-0.1-0.7-0.3-1.1-0.4c-4.4-1.4-10-2-18.1-2.6c-6.2-0.1-12-0.6-17.5-1.4c-0.1,0-0.1,0-0.2,0c-0.6-0.1-1.6-0.5-2.3-1.2
			c-1-1-1.6-2.5-1.4-3.8c0.2-1.2,0.8-2.2,1.7-3c0.8-0.6,1.7-0.9,2.6-0.9c0.2,0,0.5,0,0.7,0.1c3.5,0.5,7.2,0.8,10.7,1.1
			c18.9-2.6,31.7-10.2,38.1-22.6c-0.9-3.8-1.7-7.7-2.4-12c-1.6-7.4-3-13.1-5.1-17.4c-0.2-0.3-0.4-0.7-0.6-1.1
			c-0.2-0.4-0.4-0.7-0.6-1c-2.1-3.3-5-6.2-9.9-9.7c-12.7-9-13-20-12.8-23.1c0-0.1,0-0.2,0-0.3c0.4-2.3,2.2-3.8,4.4-3.8
			c0.2,0,0.4,0,0.7,0c2.4,0.2,4.2,2.4,4,4.9c0,0,0,0,0,0.1c-0.1,1.4,0.2,5.4,3.6,9.9c-9.2-25.6-5.7-40.1-5.3-41.5
			c0.5-2,2.3-3.4,4.4-3.4c0.4,0,0.7,0,1.1,0.1c1.2,0.3,2.2,1,2.8,2.1c0.6,1,0.8,2.2,0.5,3.3c0,0,0,0.1,0,0.1
			c-0.5,2.4-1.7,11.8,2.4,27.2c0.2-8.5,1.7-14.4,2.3-16.3c0,0,0-0.1,0-0.2c0.4-1.2,1.2-2.1,2.2-2.6c0.6-0.3,1.3-0.5,2-0.5
			c0.5,0,1,0.1,1.5,0.2c1.2,0.4,2.1,1.2,2.6,2.2c0.5,1.1,0.6,2.3,0.2,3.4c0,0,0,0.1-0.1,0.1c-0.2,0.6-3.5,11.8-0.7,28.4
			c0.6-4.3,1.3-8.7,2.3-13.2c0-0.7,0.2-1.3,0.5-2c0.8-3.2,1.7-6.3,2.7-9.4c-0.2-0.6-0.3-1.2-0.3-1.8c0,0,0-0.1,0-0.2
			c0.2-2.8,0.6-13.5-1.1-23c-0.2,0-0.4,0-0.5,0c-1.6,0-3,0.5-3,0.5c-0.5,0.2-1,0.3-1.5,0.3c-1.8,0-3.4-1-4.2-2.8c0,0,0-0.1-0.1-0.1
			c-0.8-2.3,0.3-4.7,2.6-5.7c0,0,1.7-0.7,4.2-1c-0.3-0.7-0.7-1.4-1.1-2.1c-3.1-5.2-3.7-11.2-1.7-17.3c2.1-6.4,6.3-10.6,7.5-11.7
			c0.8-0.7,1.9-1.2,3.1-1.2c0.1,0,0.1,0,0.2,0c1.2,0,2.4,0.5,3.2,1.4c0.8,0.9,1.2,2,1.2,3.2c0,1.2-0.5,2.4-1.4,3.2
			c-0.2,0.2-2.6,2.6-4.2,5.9c-2.1,4.3-2.1,8.3,0,11.9c1.5,2.4,2.7,5.3,3.7,8.8c0,0,0.1,0,0.1,0.1c2.1,1.4,3.7,3.3,5,5.6
			c0.7-1.2,1.3-2.3,2.1-3.5c0,0,0,0,0-0.1c11.5-38.5-5.2-59.5-7.1-61.8c-0.8-0.9-1.2-2-1.1-3.2c0.1-1.1,0.5-2.1,1.3-2.9
			c0.5-0.9,1.3-1.4,2.3-1.6c0.2,0,0.4-0.1,0.6-0.1c1.1,0,2.3,0.5,3.2,1.4c0,0,0.1,0.1,0.1,0.1l-1.1,1l1.1-1
			c1.4,1.6,10.9,13.4,12.9,34.3c2.3-11.8-1-23-1.1-23.4c0-0.1,0-0.1-0.1-0.2c-0.6-2.4,0.7-4.8,3-5.6c0.5-0.2,1-0.2,1.5-0.2
			c1.9,0,3.6,1.2,4.2,3.1c0,0,0,0.1,0,0.1l0.1,0.2c1.5,5.2,4.8,20.4-0.7,34.8c1.2-1.3,2.5-2.5,3.7-3.5c16.5-28.8,3.6-43.7,0.9-46.4
			c-0.9-0.8-1.4-1.9-1.5-3.1c-0.1-1.2,0.3-2.3,1.1-3.2c0.8-0.9,1.9-1.4,3.1-1.5c0.1,0,0.2,0,0.3,0c1.1,0,2.1,0.4,2.9,1.1
			c1.6,1.5,13.7,13.6,9.5,35.8c2.7-6.6,3.5-15.3,2.4-25.8c-2-17.8,4.3-28.7,5.9-30.5c0.7-0.9,1.7-1.5,2.9-1.7c0.2,0,0.4,0,0.6,0
			c1,0,2,0.3,2.8,1c2,1.6,2.3,4.2,0.9,6.2c0,0-0.1,0.1-0.1,0.1c-1.7,2.8-5.5,10.7-4,23.9c0.4,3.1,0.6,6.1,0.6,9
			c3.4-13.3,3.3-26.7,3.3-27.6c0-2.6,2-4.6,4.5-4.6c2.5,0,4.6,2,4.6,4.5l0,0.1c0,2.7-0.1,10.5-1.5,19.7c0.2-0.4,0.4-0.8,0.5-1.2
			c2.7-6.6,4.1-13,4.2-18.8c0.1-9.3-3.3-14.7-4.3-16.1c-0.7-0.8-1.1-2-1-3.2c0.1-1.2,0.7-2.3,1.7-3.1c0.7-0.7,1.8-1,2.9-1
			c0.2,0,0.4,0,0.5,0c1.2,0.1,2.2,0.7,2.9,1.7c0.9,1.1,9.8,12.4,5.1,33c7.6-8.5,6.3-15.7,6.2-16.1c-0.4-2.5,1.1-4.8,3.4-5.4
			c0,0,0.1,0,0.1,0c0.3,0,0.5-0.1,0.8-0.1c2.1,0,4,1.4,4.5,3.5l0,0c0.5,2,3.5,19.7-21.1,34.6c-0.8,1.5-1.5,3-2.4,4.6
			c7.1-5.5,13.7-11.1,19.6-16.8c16.8-22.5,10.7-44.9,8.4-51.2l-0.1-0.1c-1-2.2,0.1-4.8,2.4-5.8C202.1,4.1,202.7,4,203.3,4 M203.3,1
			L203.3,1c-1,0-2,0.2-3,0.6c-3.7,1.7-5.5,6-3.9,9.6l0,0.1c1.5,4.1,4.6,15.1,1.5,28.3l-0.3-1.2c-0.8-3.4-3.9-5.7-7.5-5.7
			c-0.4,0-0.9,0-1.3,0.1c-0.1,0-0.2,0-0.4,0.1c-2.5,0.6-4.4,2.4-5.2,4.7c-1.6-9-5.5-14.1-6.4-15.2c-1.2-1.5-3-2.6-4.9-2.8
			c-0.3,0-0.6-0.1-0.9-0.1c-1.8,0-3.5,0.6-4.8,1.8c-1.6,1.3-2.6,3.1-2.7,5.1c-0.2,1.9,0.4,3.9,1.7,5.3c0.6,0.8,2.3,3.6,3.2,8.2
			c-1.2-0.8-2.7-1.3-4.3-1.3c-0.1,0-0.3,0-0.4,0c0.2-2.3-0.8-4.7-2.9-6.3c-1.3-1.1-3-1.7-4.7-1.7c-0.4,0-0.7,0-1.1,0.1
			c-1.9,0.3-3.6,1.3-4.8,2.8c-2.3,2.7-7.8,13-6.8,29.2c-2.7-5.1-5.6-8.1-6.5-8.9l0,0l0,0c-1.4-1.2-3.1-1.9-4.9-1.9
			c-0.2,0-0.3,0-0.5,0c-2,0.1-3.8,1-5.1,2.5c-1.3,1.5-2,3.4-1.8,5.4c0.1,1.9,1,3.7,2.4,5c2.2,2.2,10.9,12.5,3.5,32.4
			c0.3-8.9-1.4-16.5-2.4-20.3l0-0.1c0-0.1-0.1-0.2-0.1-0.3c-1-3-3.8-5.1-7-5.1c-0.8,0-1.6,0.1-2.4,0.4c-2.8,0.9-4.6,3.2-5.1,5.9
			c-1.7-3.4-3.4-6-4.6-7.8l0.1-0.1l-1.5-1.8c-0.2-0.2-0.3-0.4-0.4-0.5l-1.9-2.3l-0.5,0.4c-1-0.5-2-0.7-3.1-0.7c-0.4,0-0.8,0-1.2,0.1
			c-1.7,0.3-3.2,1.3-4.1,2.7c-1.1,1.2-1.8,2.8-1.9,4.5c-0.1,2,0.5,3.9,1.8,5.4c1.9,2.2,17.2,21.6,6.9,57.8c-0.6-0.7-1.3-1.3-2.1-1.9
			c-1-3.3-2.2-6.2-3.7-8.5c-1.6-2.6-1.5-5.6,0.1-9c1.3-2.7,3.2-4.7,3.6-5c1.5-1.3,2.3-3.3,2.4-5.3c0-1.9-0.7-3.9-1.9-5.3
			c-1.3-1.5-3.3-2.4-5.4-2.4c0,0-0.1,0-0.2,0c-1.9,0-3.7,0.7-5.1,1.9c-1.4,1.3-6,5.9-8.3,13c-2.1,6.3-1.7,12.6,1.1,18.2
			c-0.4,0.1-0.7,0.2-0.9,0.3l0,0c-3.7,1.7-5.4,5.6-4.2,9.4c0,0.1,0.1,0.3,0.2,0.4c1.3,2.8,4,4.6,7,4.6c0.8,0,1.7-0.1,2.5-0.4l0,0
			c0,0,0,0,0,0c0.6,4.1,0.8,8.3,0.8,11.7c-0.9-1.1-2.1-1.9-3.5-2.4c-0.8-0.3-1.6-0.4-2.4-0.4c-1.1,0-2.3,0.3-3.3,0.8
			c-1.3,0.7-2.4,1.7-3.1,3c-0.1-4.4,0.3-7.1,0.5-7.9c0,0,0-0.1,0-0.1c0.4-1.9,0.1-3.8-0.9-5.5c-1-1.7-2.7-3-4.6-3.4
			c-0.6-0.1-1.2-0.2-1.8-0.2c-3.4,0-6.4,2.3-7.3,5.6c-0.4,1.3-2.3,9.7,0.2,24.3c-0.1,0-0.2,0-0.3,0c-3.7,0-6.7,2.6-7.3,6.4
			c0,0.2-0.1,0.4-0.1,0.6c-0.2,3.6,0.2,15.9,14.1,25.7c4.5,3.3,7.2,5.8,9.1,8.8c0.2,0.3,0.3,0.6,0.5,0.9c0.2,0.4,0.4,0.8,0.6,1.1
			c1.9,4,3.2,9.4,4.8,16.5c0.6,3.8,1.4,7.4,2.2,11c-6,10.8-17.8,17.5-35,20c-3.2-0.2-6.7-0.5-10.1-1c-0.4-0.1-0.8-0.1-1.2-0.1
			c-1.6,0-3.2,0.5-4.5,1.6c-1.5,1.2-2.5,2.9-2.9,4.8l0,0l0,0c-0.3,2.3,0.5,4.7,2.2,6.4c1.2,1.2,2.7,1.7,3.7,2c0.2,0,0.3,0.1,0.5,0.1
			c5.6,0.8,11.4,1.2,17.8,1.4c7.8,0.6,13.2,1.2,17.3,2.5c0.3,0.1,0.7,0.2,1,0.4c0.3,0.1,0.7,0.2,1,0.4c3.3,1.5,6.2,3.8,9.9,7.7
			c8.3,8.9,16.9,10.8,22.6,10.8c2.7,0,4.6-0.4,5.1-0.6c1.9-0.5,3.6-1.7,4.6-3.4c0.9-1.5,1.2-3.3,0.9-5.1c1.2,0,2.3,0.1,3.5,0.1
			c11.1,0,18-2.1,20.5-3l0.1,0c0.1-0.1,0.3-0.1,0.4-0.2c1.7-0.8,3.1-2.2,3.9-4c0.8-1.9,0.8-4,0-5.9c-1.2-2.7-3.9-4.5-6.9-4.5
			c-1,0-2,0.2-3,0.6l0,0c-0.5,0.2-3.3,1.1-8.4,1.6c1.2-0.9,2-2.1,2.5-3.5c0.7-2,0.5-4.1-0.5-5.9c-0.7-1.2-1.7-2.3-2.8-3
			c3.6-0.4,7.7-0.8,11.7-0.8c0.4,0,0.7,0,1.1,0c-0.4,1.9,0,3.9,1.1,5.5c1.1,1.7,2.8,2.8,4.8,3.2c0.5,0.1,1.1,0.2,1.6,0.2
			c1.4,0,2.8-0.4,4-1.2c1.7-1.1,2.8-2.7,3.3-4.6l0-0.1c2,0.6,4,0.8,6,0.8c10,0,18.4-6.8,22.5-12.7c1.1-1.6,1.6-3.6,1.3-5.5
			c-0.3-2-1.4-3.7-2.9-4.8c-1.3-1-2.8-1.5-4.5-1.5c-0.3,0-0.7,0-1,0.1c-2,0.3-3.8,1.4-5,3c0,0,0,0-0.1,0.1
			c-1.1,1.5-5.3,6.3-10.3,6.3c-1.1,0-2.1-0.2-3.2-0.7c-2.1-0.9-4.4-1.5-7-2c0,0,0-0.1-0.1-0.1c-0.8-0.9-1.7-1.7-2.7-2.4
			c11-4.9,21.8-7.4,32.2-7.4c15.2,0,24.5,5.4,25.8,6.2c1.2,0.8,2.7,1.3,4.1,1.3c0.5,0,1,0,1.5-0.1c1.9-0.4,3.6-1.5,4.7-3.1
			c0.5-0.8,0.8-1.6,0.8-2.6c0-1.2-0.3-5.2-3.8-7.4c-0.7-0.5-4.5-2.9-11.1-5c2.9-0.7,5.1-3,5.6-6c0.3-1.9-0.1-3.9-1.2-5.5
			c-1.2-1.7-2.9-2.8-5-3.2l-0.1,0l-0.1,0l-0.2,0c-1.9-0.3-5-0.6-8.8-0.6c-3.4,0-7.5,0.2-11.9,1.1c6.5-3.5,12.7-5.3,18.7-5.3
			c8.7,0,13.6,3.8,14,4.2c1.3,1.2,3.1,1.8,4.9,1.8c0.2,0,0.3,0,0.5,0c2-0.1,3.8-1,5.1-2.5c1.4-1.5,2-3.6,1.8-5.7
			c-0.2-2-1.2-3.9-2.7-5l-2.5-2l-0.1,0.2c-1.7-1-4-2.3-7-3.3c17.9-1.4,26.7-9.6,27.7-10.6c1.5-1.5,2.3-3.5,2.2-5.5
			c-0.1-2-0.9-3.8-2.3-5.1c-1.4-1.4-3.3-2.2-5.3-2.2c-0.1,0-0.1,0-0.2,0c-0.4,0-0.8,0.1-1.3,0.1c0-0.1,0-0.3,0-0.4
			c0-0.1,0-0.3,0-0.4c-0.2-1.5-0.9-2.8-1.8-3.8c4.7,0.2,7.8,1.5,8.9,2.1l0,0c1.1,0.6,2.4,1,3.7,1c2.5,0,4.9-1.2,6.3-3.3
			c1.2-1.7,1.6-3.8,1.1-5.9c-0.5-1.8-1.6-3.5-3.2-4.6l-0.1,0l-0.1,0c-0.7-0.4-6.8-4.1-17-4.2c2.4-1.1,4.2-3.4,4.4-6.2
			c0.2-2-0.4-3.9-1.7-5.4c-1.3-1.6-3.1-2.5-5.1-2.7c-0.1,0-0.2,0-0.4,0v0c-0.1,0-0.1,0-0.2,0c6.7-2.5,13-3.2,18.1-3.2
			c4.9,0,8.5,0.7,9.9,1c0.6,0.1,1.2,0.2,1.8,0.2c1.3,0,2.6-0.4,3.8-1c1.7-1,3-2.7,3.4-4.6c0.5-1.9,0.2-3.9-0.8-5.6
			c-1-1.7-2.7-3-4.6-3.4l0,0c-0.8-0.2-5.8-1.4-13.3-1.4c-2.9,0-5.8,0.2-8.7,0.5c0.3-0.5,0.6-1.1,0.7-1.7c0.5-1.9,0.3-3.9-0.7-5.5
			c-1-1.8-2.7-3.1-4.6-3.6c-0.6-0.2-1.3-0.3-2-0.3c-1.3,0-2.6,0.3-3.6,1c-1.1,0.6-4.3,2.6-9,6.8c-0.2-9-2.6-14.6-2.7-14.7l0,0l0,0
			c-1.2-2.7-3.9-4.5-6.9-4.5c-1,0-2,0.2-3,0.6c-1.8,0.8-3.1,2.2-3.9,4c-0.8,1.9-0.8,4,0.1,5.9c0.3,0.8,6.2,17.5-8.1,37l0,0l0,0
			c-0.4,0.6-0.7,1.2-1,1.9c-2.9,4.4-5.8,9-8.6,13.9c-1.6-4.8-3.4-8.4-4.1-9.7l-0.1-0.1l0,0l0,0c-1.3-2.4-3.8-3.9-6.5-3.9
			c-1.2,0-2.5,0.3-3.6,0.9c-1.8,1-3,2.5-3.6,4.4c-0.6,1.9-0.4,3.9,0.6,5.7c0,0,0,0.1,0.1,0.1c0.5,1,7.6,15,5.2,25.7
			c-0.2,0.5-0.5,1-0.8,1.6l0,0c-0.4,0.9-0.8,1.8-1.3,2.6l-2-1.8c-1.4-1.2-3.2-1.9-5.1-1.9c-2.1,0-4.1,0.9-5.5,2.4
			c-0.2,0.2-0.4,0.4-0.5,0.7c2.8-5.1,5.8-8.2,6.5-8.9c1.5-1.3,2.3-3.1,2.4-5.1c0.1-2-0.5-3.9-1.9-5.4c-1.3-1.5-3.1-2.4-5.1-2.5
			c-0.2,0-0.3,0-0.5,0c-0.3,0-0.6,0-0.9,0.1c0.5-0.8,0.8-1.7,1-2.6c0.6-4.2-2-8-6.1-8.7c-0.1,0-0.2,0-0.3-0.1
			c0.3-0.1,0.5-0.1,0.8-0.2l0,0l0,0c3.8-1.4,5.8-5.7,4.5-9.6l0-0.1l0-0.1c-0.7-1.9-2.2-5.2-4.8-9c12.9-5.2,20.6-14.2,23.5-18.1
			l0.1-0.2l0,0l0,0c1.2-1.7,1.6-3.7,1.2-5.7c-0.4-1.9-1.5-3.6-3.1-4.7c-1.2-0.9-2.7-1.3-4.2-1.3c-0.5,0-1,0.1-1.5,0.1
			c-1.9,0.4-3.6,1.5-4.7,3.1c0,0-0.1,0.1-0.1,0.1c-0.3,0.4-2.9,4-7.8,7.6c0.2-0.2,0.4-0.4,0.5-0.6c1.3-1.5,2-3.4,1.8-5.4
			c-0.2-2-1.1-3.8-2.6-5.1c-0.2-0.2-0.5-0.4-0.7-0.5l0,0c-0.5-0.4-1.1-0.7-1.6-1c1.4-0.9,2.8-1.8,4.1-2.7c2.5-0.9,5.5-1.4,8.9-1.4
			c7.3,0,14.5,2.1,17.3,3.1l0.1,0c0.1,0,0.2,0.1,0.3,0.1c0.8,0.3,1.6,0.4,2.5,0.4c1.1,0,2.1-0.2,3-0.6c1.9-0.8,3.4-2.4,4-4.4
			c0.6-1.8,0.5-3.8-0.2-5.6c-0.8-1.9-2.3-3.3-4.2-4c-1.1-0.5-5.1-1.9-10.4-2.9c6.2-4.8,11.9-9.7,17-14.6c10.7-9.1,21-11,27.8-11
			c2.9,0,4.8,0.4,5.1,0.4c0.1,0,0.1,0,0.2,0c0.6,0.1,1.2,0.2,1.8,0.2c3.4,0,6.4-2.3,7.3-5.7c0.5-1.9,0.2-3.9-0.8-5.7
			c-1-1.7-2.6-2.9-4.6-3.4c-0.6-0.2-4-1-9.1-1c-1.8,0-3.5,0.1-5.3,0.3c3.7-5.7,5.1-9.1,5.2-9.6l0-0.1l0-0.1c1.3-3.9-0.7-8.2-4.5-9.6
			l0,0l0,0c-0.8-0.3-1.6-0.4-2.4-0.4c-1.6,0-3.2,0.5-4.5,1.4c-0.2-12.8-3.9-21.6-3.9-21.7l0,0l0,0c-0.8-1.8-2.2-3.1-4-3.9
			C205.3,1.2,204.3,1,203.3,1L203.3,1z M153.2,118.5c0.1,0,0.2,0,0.3,0c1.1,0,2.3-0.3,3.3-0.9c-1.5,1-3.1,2-4.9,2.8
			c0.2-0.6,0.3-1.3,0.4-2C152.6,118.5,152.9,118.5,153.2,118.5L153.2,118.5z M127.6,140.2c2.2-0.3,5-0.5,8.5-0.7l2.4-0.2
			c4.1,3.9,6.5,9.1,7.2,10.7c0.7,1.8,2,3.2,3.7,4c-2-0.2-4.4-0.3-7.2-0.3c-6.1,0-13.8,0.6-22,2.5c2.5-0.9,4.5-1.2,5.8-1.4l0.2,0
			c1.9-0.2,3.6-1,4.9-2.4c1.4-1.5,2.1-3.4,2-5.4c-0.1-2-0.9-3.8-2.4-5.2C129.9,141,128.8,140.5,127.6,140.2L127.6,140.2z
			 M117.5,172.8c9-3.1,18.1-3.9,25.4-3.9c4.5,0,7.8,0.3,9.4,0.5c0.1,0,0.2,0,0.2,0c0.4,0.1,0.7,0.1,1.1,0.1c0.2,0,0.5,0,0.7,0
			c-3.4,3.6-10.3,12.1-13.3,24.5c-4.2-2.2-7.9-3.2-10-3.7c1.4-0.2,2.2-0.2,2.3-0.2c0,0,0,0,0,0c0.1,0,0.2,0,0.3,0
			c4-0.3,7.1-3.7,7.1-7.6c0-0.1,0-0.2,0-0.3c-0.3-4-3.7-7.1-7.6-7.1c-0.1,0-5.9,0.1-13.5,2.7c-0.1-1.2-0.4-2.3-1-3.3
			C118.4,173.8,117.9,173.3,117.5,172.8L117.5,172.8z M156.5,194.6c0.6-1.8,1.3-3.4,2-4.9c-0.3,1-0.5,2-0.4,3.1
			c0,0.5,0.1,0.9,0.2,1.3c0,0-0.1,0-0.1,0C157.6,194.2,157,194.4,156.5,194.6L156.5,194.6z M120.6,193.4c1.4-0.7,2.8-1.3,4.2-1.7
			c-1.2,1-2.2,2.3-2.6,3.9C121.7,194.8,121.2,194.1,120.6,193.4L120.6,193.4z M125.9,222c0-7.9-1-14.6-1.9-19.2
			c0.9,1,2.2,1.8,3.6,2.2l0.1,0c1.8,0.5,6.5,1.9,10.7,4.9c0.5,0.4,1,0.7,1.4,1.1l0.1,2.1c0.3,5,0.5,8.6,0.4,11.3c0,0,0,0,0-0.1
			l0-0.1c0-0.1,0-0.2,0-0.2c-0.2-2-1.1-3.8-2.7-5.1c-1.4-1.1-3-1.7-4.8-1.7c-0.2,0-0.4,0-0.6,0c-2,0.2-3.8,1.1-5.1,2.7
			C126.6,220.4,126.2,221.2,125.9,222L125.9,222z M102.4,216c1.5-4.9,3.6-9.2,6.3-12.8c1.2,5.1,3.8,18.6,0.9,33.3
			c-0.6-0.5-1.2-0.9-1.9-1.3c-0.9-0.4-1.9-0.6-3-0.6c0,0,0,0-0.1,0c0.9-4.5,1-8.3,0.9-10.7l0.3-0.1l-0.5-2.9
			C104.9,218.9,103.9,217.1,102.4,216L102.4,216z"/>
	</g>
	<g>
		<g>
			<g>
				<path class="st1" d="M110.4,138.6c0.1,0.1,0.3,0.1,0.4,0.3c1.5,0.8,3.2,0.3,4.1-1.1c9.1-16,30.2-16.6,30.3-16.6
					c1.6,0,3-1.4,3-3.1c0-1.6-1.4-3-3.1-3c-0.9,0-24.8,0.7-35.5,19.8C108.9,136,109.2,137.8,110.4,138.6z"/>
			</g>
			<g>
				<path class="st1" d="M87.2,216.7c0.8,0.7,2,0.8,3.1,0.4c1.5-0.7,2.2-2.4,1.5-3.9c-12.7-28.4-5.8-50.1-5.7-50.2
					c0.5-1.6-0.3-3.2-1.9-3.8c-1.6-0.5-3.2,0.3-3.8,1.9c-0.3,0.9-7.8,23.9,6,54.7C86.6,216,86.8,216.4,87.2,216.7z"/>
			</g>
			<g>
				<path class="st1" d="M94.7,207.2c0.3,0.1,0.4,0.1,0.7,0.3c1.6,0.3,3.2-0.8,3.4-2.6c2.6-16.6,14.7-23.9,15.3-24.2
					c1.5-0.8,1.9-2.7,1.1-4.1c-0.8-1.5-2.7-1.9-4.1-1.1c-0.7,0.4-15,8.9-18.1,28.6C92.6,205.3,93.5,206.7,94.7,207.2z"/>
			</g>
			<g>
				<path class="st1" d="M94.7,168.4c0.3,0.1,0.5,0.3,0.8,0.4c1.2,0.4,2.7,0,3.5-1.1c12.2-16.5,26.5-17.2,27.2-17.3
					c1.6-0.1,3-1.5,2.8-3.1c0-1.6-1.5-3-3.1-2.8c-0.7,0-13.7,0.7-26.1,13.1c-0.1-8.7-1.1-21.9-6.1-30c-5.8-9.7,4.3-19.5,4.5-19.6
					c1.2-1.1,1.2-3.1,0.1-4.3c-1.1-1.2-3.1-1.2-4.3-0.1c-4.9,4.5-12.2,16-5.5,27.1c6.6,11,5,34.8,5,35
					C93.5,166.7,94,167.7,94.7,168.4z"/>
			</g>
			<g>
				<path class="st1" d="M120,129.5c0.7,0.9,1.9,1.4,3.1,1.1c18.3-4.5,26.8,16.8,27.2,17.7c0.5,1.5,2.3,2.3,3.9,1.8
					c1.5-0.5,2.3-2.3,1.8-3.9c-3.7-9.3-15.4-26-34.2-21.4c-1.6,0.4-2.6,2-2.2,3.7C119.4,128.7,119.7,129.1,120,129.5z"/>
			</g>
			<g>
				<path class="st1" d="M112.7,123.8c1.2,0.9,3.1,0.8,4.2-0.4c15.6-18.4,7.4-44.4,7.2-45.5c-0.5-1.6-2.2-2.4-3.8-1.9
					c-1.6,0.5-2.4,2.2-2,3.8c0.1,0.3,7.3,23.9-6,39.8C111.2,120.7,111.3,122.6,112.7,123.8C112.7,123.7,112.7,123.7,112.7,123.8z"/>
			</g>
			<g>
				<path class="st1" d="M148.4,99.6c1.2,0.9,3,0.8,4.1-0.3c15.7-16.9,15.2-51.7,15.2-53.2c0-1.6-1.4-3-3.1-3c-1.6,0-3,1.4-3,3.1
					c0,0.3,0.5,33.8-13.5,49c-1.1,1.2-1.1,3.1,0.1,4.3C148.3,99.5,148.3,99.6,148.4,99.6z"/>
			</g>
			<g>
				<path class="st1" d="M169.6,72.4c0.9,0.7,2.3,0.8,3.4,0.1c24.5-14.7,20.8-32.3,20.6-33c-0.4-1.6-2-2.6-3.7-2.3
					c-1.6,0.4-2.6,2-2.3,3.7c0.1,0.7,2.6,14.2-17.9,26.5c-1.5,0.8-1.9,2.7-1.1,4.2C169.1,71.9,169.4,72.2,169.6,72.4z"/>
			</g>
			<g>
				<path class="st1" d="M188.4,70.7c1.2,0.9,3,0.9,4.1-0.1c19.5-18.9,39.2-14.5,40.1-14.2c1.6,0.4,3.2-0.5,3.7-2.2
					s-0.5-3.2-2.2-3.7c-0.9-0.3-23.7-5.7-45.7,15.8c-1.2,1.2-1.2,3.1,0,4.3C188.3,70.5,188.4,70.5,188.4,70.7z"/>
			</g>
			<path class="st1" d="M103.9,70.5c0.8,0.9,17.2,19.9,11.9,54.5c3.1-3.8,6.4-7.6,9.9-11c0-0.1,0.1-0.1,0.1-0.3
				c1.4-1.5,2.7-2.7,3.9-3.8c18.4-31.9,1.4-47.8,0.7-48.4c-1.2-1.1-1.4-3-0.3-4.2c1.1-1.2,3-1.4,4.2-0.3c0.1,0.1,16.8,15.2,6.5,43.6
				c7-7.3,9.6-19.1,7.8-34.9c-2.2-18.9,5.1-29,5.5-29.4c0.9-1.4,2.8-1.6,4.2-0.5c1.4,1.1,1.6,2.8,0.5,4.2c0,0.1-6.2,8.7-4.3,25
				c1.2,10.4,0.7,19.3-1.8,26.8c33.4-40.6,16.9-62,16.2-62.9c-1.1-1.2-0.9-3.1,0.4-4.2c1.2-1.1,3.2-0.9,4.2,0.4
				c0.8,0.9,17.3,21.6-7.6,59c10.8-7.8,19.3-15.2,26.1-21.6c19.3-25.7,9.1-51.7,8.7-52.9c-0.7-1.5,0.1-3.2,1.6-3.9
				c1.5-0.7,3.2,0.1,3.9,1.6c0.4,0.9,7.2,17.9,0.9,38.6c6.6-8.5,8.7-13.5,8.7-13.7c0.5-1.5,2.3-2.3,3.9-1.8c1.5,0.5,2.3,2.3,1.8,3.9
				c-0.4,1.1-9.6,23.8-52.1,54.7c10.6,0,20,3.5,20.6,3.8c1.6,0.5,2.3,2.3,1.8,3.9c-0.5,1.6-2.3,2.3-3.9,1.8
				c-0.1,0-17.6-6.5-29.9-1.5c-2.4,1.6-4.9,3.2-7.4,4.9c-1.5,0.9-3,2-4.5,3c5.5,0.8,9.2,3.8,9.3,3.8c1.2,1.1,1.5,3,0.4,4.2
				s-3,1.6-4.2,0.4c-0.8-0.7-7.8-5.8-16.4,0.1c-6.1,5.4-11.5,11.4-16.4,17.7c4.1-1.2,8.9-1.6,16.5-2.3l3.8-0.3
				c20-1.6,30.9-17,31-17.3c0.9-1.4,2.8-1.8,4.2-0.8c1.4,0.9,1.8,2.8,0.8,4.2c-0.5,0.7-12.4,18.1-35.5,20l-3.8,0.3
				c-17.6,1.4-18.8,1.5-27.9,13.3c-3.8,7-6.8,14.5-9.2,22.1c24.4-16.1,54-11.5,55.5-11.2c1.6,0.3,2.7,1.8,2.4,3.5
				c-0.3,1.6-1.8,2.7-3.5,2.4c-0.4,0-34-5.3-57,14.9c-2.3,10-3.4,20.4-3.2,31c10.3-30.6,39.9-31.4,40.3-31.4c1.6,0,3,1.4,3.1,3
				c0,1.6-1.4,3-3,3.1c-1.5,0-38,1.2-37.9,49.4c0.7,3.7,1.6,7.2,2.6,10.7c0.4,1.6-0.4,3.2-2,3.8c-0.9,0.3-1.9,0-2.7-0.5
				c-0.5-0.4-0.8-0.9-1.1-1.5c-1.6-5.7-2.8-11.4-3.8-17l0,0c-1.8-8-3.1-13.5-5.3-17.9l0,0c-0.4-0.7-0.8-1.5-1.2-2.2
				c-2.3-3.7-5.4-6.6-10.3-10.1c-13.5-9.6-12.2-21.5-12.2-21.9c0.3-1.6,1.6-2.8,3.4-2.6c1.6,0.1,2.8,1.6,2.7,3.4
				c0,0.4-0.7,8.5,8.9,15.8c-12.2-29.4-8-46.1-7.7-47c0.4-1.6,2-2.6,3.7-2.2c1.6,0.4,2.6,2,2.2,3.7c0,0.3-5.1,21,14.3,57.5
				c0.1-9.5,1.4-18.8,3.4-28c0-0.5,0.1-1.1,0.4-1.6c2-8.1,4.7-16.1,8.1-23.7c-0.3-5.8-1.9-9.9-4.5-11.6c-3.4-2.3-7.8-0.7-7.8-0.7
				c-1.6,0.5-3.2-0.3-3.9-1.8c-0.5-1.6,0.3-3.2,1.8-3.9c0.3-0.1,7.3-2.7,13.3,1.2c2.6,1.8,4.5,4.3,5.7,7.7c1.2-2.2,2.3-4.2,3.7-6.4
				v-0.1c12-40.3-6.6-62.2-7.4-63.2c-1.1-1.2-0.9-3.1,0.3-4.2C100.8,69.2,102.7,69.3,103.9,70.5z"/>
		</g>
		<g>
			<g>
				<path class="st1" d="M144.1,238.7c-0.1-0.1-0.1-0.3-0.3-0.3c-0.9-1.4-0.8-3.2,0.5-4.2c14.6-11.2,12.3-32.2,12.3-32.3
					c-0.1-1.6,0.9-3.1,2.6-3.4c1.6-0.1,3.1,0.9,3.4,2.6c0.1,0.9,2.7,24.6-14.6,37.9C146.9,239.8,145.1,239.7,144.1,238.7z"/>
			</g>
			<g>
				<path class="st1" d="M70,272.4c-0.8-0.8-1.1-1.9-0.8-3c0.4-1.6,2.2-2.6,3.8-2c29.9,8.7,50.3-1.2,50.6-1.4
					c1.5-0.8,3.2-0.1,4.1,1.4c0.8,1.5,0.1,3.2-1.4,4.1c-0.9,0.4-22.6,11.1-54.9,1.8C70.9,273,70.5,272.7,70,272.4z"/>
			</g>
			<g>
				<path class="st1" d="M78.4,263.8c-0.1-0.3-0.3-0.4-0.3-0.7c-0.5-1.6,0.4-3.2,2-3.8c16.1-4.9,21.6-17.9,21.9-18.4
					c0.7-1.5,2.4-2.3,3.9-1.6c1.5,0.7,2.3,2.4,1.6,3.9c-0.3,0.7-6.8,16.1-25.7,21.9C80.6,265.5,79.1,264.8,78.4,263.8z"/>
			</g>
			<g>
				<path class="st1" d="M116.9,258.3c-0.3-0.3-0.4-0.4-0.5-0.7c-0.7-1.2-0.4-2.7,0.5-3.5c14.6-14.3,13.4-28.7,13.4-29.4
					c-0.1-1.6,1.1-3.1,2.7-3.2c1.6-0.1,3.1,1.1,3.2,2.7c0,0.7,1.2,13.5-9.3,27.7c8.7-1.1,21.8-1.9,30.6,1.8
					c10.4,4.5,18.7-7,18.8-7.2c0.9-1.4,2.8-1.8,4.2-0.7c1.4,0.9,1.6,2.8,0.7,4.2c-3.8,5.4-14.2,14.3-26.1,9.2
					c-11.8-5-35.2-0.1-35.5-0.1C118.6,259.3,117.5,259,116.9,258.3z"/>
			</g>
			<g>
				<path class="st1" d="M151.9,227.9c-0.9-0.5-1.6-1.6-1.5-2.8c1.9-18.8-20.4-24.2-21.4-24.5c-1.6-0.4-2.6-2-2.3-3.7
					c0.4-1.6,2-2.6,3.7-2.3c9.7,2.3,27.9,11.6,26,30.9c-0.1,1.6-1.6,2.8-3.2,2.7C152.6,228.3,152.2,228.2,151.9,227.9z"/>
			</g>
			<g>
				<path class="st1" d="M158.5,234.3c-1.2-1.1-1.2-3-0.1-4.2c16.1-17.9,42.9-13.5,44.1-13.4c1.6,0.3,2.7,1.9,2.4,3.5
					c-0.3,1.6-1.9,2.7-3.5,2.4c-0.3,0-24.8-3.9-38.6,11.5C161.8,235.3,159.9,235.5,158.5,234.3L158.5,234.3z"/>
			</g>
			<g>
				<path class="st1" d="M177.5,195.7c-1.1-1.1-1.2-2.8-0.3-4.1c14.6-18,49.1-22.2,50.6-22.5c1.6-0.1,3.1,0.9,3.4,2.6
					c0.1,1.6-0.9,3.1-2.6,3.4c-0.3,0-33.6,4.2-46.5,20.2c-1.1,1.4-3,1.5-4.2,0.4C177.6,195.8,177.6,195.7,177.5,195.7z"/>
			</g>
			<g>
				<path class="st1" d="M201.6,170.8c-0.8-0.8-1.2-2.2-0.7-3.4c11.2-26.4,29.1-25,29.9-25c1.6,0.1,2.8,1.6,2.7,3.2
					s-1.6,2.8-3.2,2.7c-0.7,0-14.3-0.7-23.8,21.4c-0.7,1.5-2.4,2.3-3.9,1.6C202.1,171.3,201.7,171.1,201.6,170.8z"/>
			</g>
			<g>
				<path class="st1" d="M200.6,151.9c-1.1-1.1-1.4-2.7-0.4-4.1c16.1-21.9,8.9-40.9,8.5-41.5c-0.7-1.5,0.1-3.2,1.6-3.9
					c1.5-0.7,3.2,0.1,3.9,1.6c0.4,0.9,8.9,22.6-9.3,47.4c-0.9,1.4-2.8,1.6-4.2,0.7C200.8,152,200.8,152,200.6,151.9z"/>
			</g>
			<path class="st1" d="M212.4,235.7c-0.9-0.7-22.1-14.2-55.6-4.3c3.4-3.5,6.6-7.3,9.6-11.4c0.1-0.1,0.1-0.1,0.3-0.1
				c1.4-1.5,2.3-3,3.2-4.5c29.1-22.7,47.1-8,47.9-7.3c1.2,1.1,3.1,0.9,4.2-0.3c1.1-1.2,0.9-3.2-0.3-4.2c-0.1-0.1-17.3-14.6-44.1-0.4
				c6.4-8,17.5-12.2,33.4-12.6c19.1-0.4,27.9-9.1,28.3-9.5c1.2-1.2,1.2-3.1,0-4.2c-1.2-1.2-3.1-1.2-4.2,0c-0.1,0.1-7.7,7.3-24.1,7.7
				c-10.6,0.3-19.3,2-26.2,5.4c35.6-38.7,59-25.3,60.1-24.8c1.4,0.8,3.2,0.4,4.2-0.9c0.9-1.4,0.4-3.2-0.9-4.2
				c-1.1-0.7-23.8-14.1-57.4,15.7c6.2-11.8,12.3-21.2,17.7-28.8c22.7-22.7,49.9-16.1,51.1-15.8c1.6,0.4,3.2-0.5,3.7-2.2
				c0.4-1.6-0.5-3.2-2.2-3.7c-0.9-0.3-18.7-4.6-38.3,4.3c7.4-7.7,12.2-10.4,12.3-10.6c1.5-0.8,2-2.7,1.2-4.1c-0.8-1.5-2.7-2-4.1-1.2
				c-0.9,0.5-22.3,12.7-47,59.1c-1.5-10.4-6.2-19.3-6.5-19.9c-0.8-1.5-2.6-2-4.1-1.2c-1.5,0.8-2,2.6-1.2,4.1
				c0.1,0.1,8.8,16.5,5.5,29.5c-1.2,2.6-2.6,5.3-3.8,8.1c-0.8,1.6-1.5,3.2-2.3,4.9c-1.6-5.4-5-8.7-5.1-8.7c-1.2-1.1-3.1-1.1-4.2,0.1
				c-1.1,1.2-1.2,3.1,0.1,4.2c0.8,0.8,6.8,6.9,2.2,16.2c-4.5,6.8-9.6,13-15.3,18.7c0.7-4.2,0.4-9.1,0-16.6l-0.3-3.8
				c-1.1-20,12.6-32.9,12.9-33.2c1.2-1.1,1.4-3,0.3-4.2c-1.1-1.2-3-1.4-4.2-0.3c-0.7,0.5-16.2,14.9-14.9,37.9l0.3,3.8
				c1.1,17.6,1.1,18.8-9.2,29.4c-6.5,4.7-13.4,8.8-20.6,12.2c12.6-26.4,3.9-55.1,3.5-56.4c-0.5-1.6-2.2-2.4-3.8-2
				c-1.6,0.5-2.4,2.2-2,3.8c0.1,0.3,9.9,32.9-6.8,58.6c-9.6,3.7-19.8,6.2-30.2,7.6c28.8-14.5,25.6-43.8,25.4-44.2
				c-0.3-1.6-1.8-2.8-3.4-2.6c-1.6,0.3-2.8,1.8-2.6,3.4c0.1,1.5,4.1,37.8-43.6,44.2c-3.7-0.3-7.3-0.5-11-1.1
				c-1.6-0.3-3.1,0.9-3.4,2.6c-0.1,0.9,0.3,1.9,0.9,2.6c0.4,0.4,1.1,0.7,1.6,0.8c5.8,0.8,11.6,1.2,17.5,1.4l0,0
				c8.3,0.7,13.8,1.2,18.4,2.7l0,0c0.8,0.3,1.5,0.5,2.3,0.8c3.9,1.8,7.3,4.3,11.5,8.8c11.4,12.2,23,9.1,23.4,8.9
				c1.6-0.4,2.6-2,2.2-3.7s-2-2.6-3.7-2.2c-0.4,0.1-8.4,1.9-16.9-6.8c30.7,8,46.8,1.5,47.6,1.2c1.5-0.7,2.3-2.4,1.6-3.9
				s-2.4-2.3-3.9-1.6c-0.1,0.1-20,8-58.9-6.2c9.3-1.5,18.5-3.9,27.2-7.3c0.5,0,1.1-0.3,1.5-0.5c7.8-3.1,15.3-6.9,22.3-11.4
				c5.8-0.5,10,0.4,12.2,2.8c2.7,3,1.8,7.7,1.8,7.7c-0.4,1.6,0.7,3.2,2.3,3.5c1.6,0.4,3.2-0.7,3.7-2.3c0.1-0.3,1.6-7.7-3.1-13
				c-2-2.3-4.9-3.8-8.4-4.5c1.9-1.5,3.9-3,5.8-4.5h0.1c38.3-17.6,62.5-2,63.6-1.4c1.4,0.9,3.2,0.5,4.2-0.8
				C214.2,238.5,213.9,236.7,212.4,235.7z"/>
		</g>
	</g>
</g>
</svg>
