<?xml version="1.0" encoding="utf-8"?>
<!-- Generator: Adobe Illustrator 26.3.1, SVG Export Plug-In . SVG Version: 6.00 Build 0)  -->
<svg version="1.1" id="레이어_1" xmlns="http://www.w3.org/2000/svg" xmlns:xlink="http://www.w3.org/1999/xlink" x="0px"
	 y="0px" viewBox="0 0 300 300" style="enable-background:new 0 0 300 300;" xml:space="preserve">
<style type="text/css">
	.st0{fill:#FFFFFF;stroke:#000000;stroke-width:3;stroke-miterlimit:10;}
	.st1{fill:#FFFFFF;stroke:#000000;stroke-width:3;stroke-linecap:round;stroke-linejoin:round;stroke-miterlimit:10;}
</style>
<g>
	<circle class="st0" cx="274.8" cy="274.8" r="21.1"/>
	<path class="st1" d="M4.3,5.9l11,18.4c0.4,0.7,1.3,0.8,1.9,0.2l7.4-7.4c0.5-0.5,0.4-1.5-0.2-1.9L5.9,4.3C4.8,3.6,3.6,4.8,4.3,5.9z"
		/>
	<polygon class="st0" points="219.9,208.3 208.3,219.9 25.2,32.2 32.2,25.2 	"/>
	<path class="st1" d="M29.5,29.5c0,0-0.3,0.3-2.5,2.5c-2.2,2.2-7.2-1.1-7.2-1.1s5.6-5.6,5.6-5.6l5.6-5.6c0,0,3.3,5,1.1,7.2
		C29.8,29.1,29.5,29.5,29.5,29.5z"/>
	<path class="st1" d="M28.7,21.9l-6.8,6.8c-1.8,1.8-4.6,1.8-6.3,0l0,0c-1.8-1.8-1.8-4.6,0-6.3l6.8-6.8c1.8-1.8,4.6-1.8,6.3,0l0,0
		C30.5,17.3,30.5,20.1,28.7,21.9z"/>
	<path class="st1" d="M212.8,224.4c0,0,6.8,6.9,5,13.2c0,0,9.9-9.9,9.9-9.9l9.9-9.9c-6.2,1.8-13.2-5-13.2-5L212.8,224.4z"/>
	<path class="st1" d="M242.5,230.9c0,0-2.2-2.4-0.5-8.6c0,0-9.9,9.9-9.9,9.9l-9.9,9.9c6.2-1.8,8.6,0.5,8.6,0.5L242.5,230.9z"/>
	<path class="st1" d="M242.3,222.1l-20.2,20.2c-1.2,1.2-3.3,1.2-4.5,0l0,0c-1.2-1.2-1.2-3.3,0-4.5l20.2-20.2c1.2-1.2,3.3-1.2,4.5,0
		l0,0C243.5,218.8,243.5,220.8,242.3,222.1z"/>
	<path class="st1" d="M245,256.6c0,0,6.8,6.9,5,13.2c0,0,9.9-9.9,9.9-9.9l9.9-9.9c-6.2,1.8-13.2-5-13.2-5L245,256.6z"/>
	<path class="st1" d="M274.5,254.3l-20.2,20.2c-1.2,1.2-3.3,1.2-4.5,0l0,0c-1.2-1.2-1.2-3.3,0-4.5l20.2-20.2c1.2-1.2,3.3-1.2,4.5,0
		l0,0C275.8,251,275.8,253.1,274.5,254.3z"/>
	<path class="st1" d="M246.3,236.1l-10.2,10.2c-1.2,1.2-3.3,1.2-4.5,0l0,0c-1.2-1.2-1.2-3.3,0-4.5l10.2-10.2c1.2-1.2,3.3-1.2,4.5,0
		l0,0C247.6,232.9,247.6,234.9,246.3,236.1z"/>
	<path class="st1" d="M223.7,213.5l-10.2,10.2c-1.2,1.2-3.3,1.2-4.5,0l0,0c-1.2-1.2-1.2-3.3,0-4.5l10.2-10.2c1.2-1.2,3.3-1.2,4.5,0
		l0,0C225,210.3,225,212.3,223.7,213.5z"/>
	<path class="st1" d="M255.9,245.7l-10.2,10.2c-1.2,1.2-3.3,1.2-4.5,0l0,0c-1.2-1.2-1.2-3.3,0-4.5l10.2-10.2c1.2-1.2,3.3-1.2,4.5,0
		l0,0C257.2,242.5,257.2,244.5,255.9,245.7z"/>
	
		<rect x="236.7" y="240.2" transform="matrix(0.7071 -0.7071 0.7071 0.7071 -100.9763 243.7784)" class="st1" width="14.1" height="7.2"/>
</g>
</svg>
