<?xml version="1.0" encoding="utf-8"?>
<!-- Generator: Adobe Illustrator 26.3.1, SVG Export Plug-In . SVG Version: 6.00 Build 0)  -->
<svg version="1.1" id="레이어_1" xmlns="http://www.w3.org/2000/svg" xmlns:xlink="http://www.w3.org/1999/xlink" x="0px"
	 y="0px" viewBox="0 0 300 300" style="enable-background:new 0 0 300 300;" xml:space="preserve">
<style type="text/css">
	.st0{fill:#E9BC00;}
	.st1{fill:#32CCCC;stroke:#E9BC00;stroke-width:3;stroke-miterlimit:10;}
	.st2{fill:#967905;stroke:#E9BC00;stroke-width:3;stroke-linecap:round;stroke-linejoin:round;stroke-miterlimit:10;}
	.st3{fill:#28A3A3;stroke:#E9BC00;stroke-width:3;stroke-miterlimit:10;}
	.st4{fill:#967905;stroke:#E9BC00;stroke-width:3;stroke-linecap:round;stroke-linejoin:round;stroke-miterlimit:9.9998;}
	.st5{fill:#D6F5F5;}
</style>
<g>
	<path class="st0" d="M255.4,281.5c-13,0-24.1-9.8-25.8-22.5c-1.4-0.2-2.6-0.8-3.6-1.8c-1.2-1.2-1.9-2.8-1.9-4.6
		c0-1.6,0.5-3.1,1.5-4.2c0.4-3.1-1.7-6.9-4-9.7c-0.1,0-0.3,0-0.4,0c-1.7,0-3.4-0.7-4.6-1.8c-1.7-1.7-2.2-4.2-1.5-6.5l-2.4-2.4
		c-0.6,0.2-1.3,0.3-2,0.3c-1.7,0-3.4-0.7-4.6-1.8c-1.1-1.1-1.8-2.7-1.8-4.3c-0.4-0.1-0.9-0.1-1.5-0.1c-1,0-2,0.1-3.2,0.4
		c-1.2,1-2.7,1.6-4.3,1.6c-1.7,0-3.4-0.7-4.6-1.9c-2.3-2.3-2.5-6.2-0.4-8.8c0.5-3.1-1.6-7-3.9-9.8c-0.1,0-0.3,0-0.4,0
		c-1.7,0-3.4-0.7-4.6-1.9c-1.2-1.2-1.9-2.8-1.9-4.6c0-0.2,0-0.4,0-0.6L43.9,55.8c-3.2-0.2-6.2-2.1-6.9-2.5c-0.2-0.1-0.4-0.3-0.6-0.5
		c-1.7-0.2-3.3-1.1-4.6-2.4c-1.5-1.5-2.4-3.5-2.3-5.7c0-0.6,0.1-1.2,0.2-1.8L19.1,25l0-0.1c-0.9-1.8-0.6-3.8,0.7-5.1
		c0.8-0.8,1.9-1.3,3-1.3c0.8,0,1.5,0.2,2.2,0.6l18.2,10.7c0.6-0.1,1.2-0.2,1.7-0.2l0.2,0c2,0,4,0.9,5.4,2.4c1.2,1.1,2,2.6,2.3,4.3
		c0.2,0.2,0.4,0.4,0.6,0.7c0.4,0.6,2.4,3.8,2.5,7.1l140.7,135.7c0.2,0,0.4,0,0.6,0c1.7,0,3.4,0.7,4.6,1.8c1.3,1.3,2,3,1.9,4.7
		c0,0.1,0,0.2,0,0.3c1.7,1.4,5.3,4,8.7,4c0.4,0,0.7,0,1.1-0.1c1.1-0.9,2.6-1.4,4-1.4c1.7,0,3.4,0.7,4.6,1.9c2.3,2.3,2.5,6.1,0.4,8.7
		c-0.6,2.3-0.5,3.8-0.3,4.8c1.6,0.1,3.2,0.7,4.3,1.8c1.3,1.3,2,3,1.9,4.7c0,0.7-0.1,1.4-0.4,2l2.3,2.3c0.7-0.2,1.4-0.4,2.2-0.4
		c1.7,0,3.4,0.7,4.5,1.8c1.4,1.4,2.1,3.2,1.9,5.1c1.7,1.4,5.3,4,8.7,4c0.3,0,0.6,0,0.9-0.1c1.1-1,2.7-1.5,4.2-1.5
		c1.7,0,3.4,0.7,4.6,1.8c1,0.9,1.6,2.2,1.9,3.6c12.7,1.8,22.4,12.9,22.4,25.8C281.5,269.8,269.8,281.5,255.4,281.5z"/>
	<path class="st0" d="M22.8,20c0.5,0,1,0.1,1.5,0.4l18.7,11c0.6-0.2,1.3-0.3,1.9-0.3c0,0,0.1,0,0.1,0c1.6,0,3.2,0.7,4.4,1.9
		c1.2,1.1,1.9,2.6,1.9,4.2c0.3,0.1,0.6,0.3,0.8,0.6c0.3,0.5,2.4,3.9,2.3,6.9l141.7,136.6c0.4-0.1,0.7-0.1,1.1-0.1
		c1.3,0,2.6,0.5,3.5,1.4c1,1,1.5,2.3,1.5,3.6c0,0.3,0,0.7-0.1,1c1.5,1.3,6,4.9,10.3,4.9c0.6,0,1.2-0.1,1.7-0.2
		c0.9-0.8,2.1-1.3,3.4-1.3c1.3,0,2.6,0.5,3.5,1.4c1.8,1.8,1.9,4.9,0.1,6.9c-1,3.9-0.5,6.1-0.1,7.1c0.3,0,0.6-0.1,0.9-0.1
		c1.3,0,2.6,0.5,3.5,1.4c1,1,1.5,2.3,1.5,3.6c0,0.9-0.3,1.7-0.7,2.4l3.7,3.7c0.8-0.4,1.6-0.6,2.5-0.6c1.3,0,2.6,0.5,3.5,1.4
		c1.3,1.3,1.7,3,1.4,4.6c1.5,1.3,6,4.9,10.3,4.9c0.5,0,1.1-0.1,1.6-0.2l0,0c0.9-0.9,2.2-1.4,3.5-1.4c1.3,0,2.6,0.5,3.5,1.4
		c0.9,0.9,1.5,2.2,1.5,3.5c0,0.1,0,0.2,0,0.4c12.5,1.1,22.4,11.7,22.4,24.5c0,13.6-11,24.6-24.6,24.6c-12.8,0-23.4-9.9-24.5-22.5
		c-0.1,0-0.2,0-0.3,0c-1.3,0-2.6-0.5-3.5-1.4c-0.9-0.9-1.4-2.2-1.4-3.5c0-1.3,0.5-2.6,1.4-3.5l0,0c1-4.9-3.3-10.4-4.8-12
		c-0.3,0.1-0.7,0.1-1,0.1c-1.3,0-2.6-0.5-3.5-1.4c-1.5-1.5-1.8-4-0.8-5.8l-3.8-3.8c-0.7,0.4-1.5,0.6-2.3,0.6c-1.3,0-2.6-0.5-3.5-1.4
		c-1.1-1.1-1.6-2.8-1.3-4.3c-0.5-0.2-1.5-0.6-3.1-0.6c-1,0-2.3,0.1-3.9,0.6l-0.1,0.1c-0.9,0.9-2.2,1.4-3.5,1.4
		c-1.3,0-2.6-0.5-3.5-1.4c-1.9-1.9-1.9-5.1,0-7c1.1-5-3.3-10.5-4.7-12.1c-0.3,0.1-0.7,0.1-1,0.1c-1.3,0-2.6-0.5-3.5-1.4
		c-0.9-0.9-1.4-2.2-1.4-3.5c0-0.4,0-0.7,0.1-1.1L44.6,54.3c-0.1,0-0.1,0-0.2,0c-2.9,0-6-2-6.5-2.3c-0.2-0.2-0.4-0.4-0.5-0.7
		c-1.6,0-3.2-0.7-4.3-2c-1.2-1.2-1.9-2.9-1.9-4.6c0-0.7,0.1-1.4,0.4-2L20.4,24.3c0,0,0,0,0,0c-0.7-1.1-0.5-2.5,0.4-3.4
		C21.4,20.3,22.1,20,22.8,20 M22.8,17L22.8,17c-1.5,0-3,0.6-4.1,1.7c-1.9,1.9-2.2,4.6-1,6.9l0,0l0.1,0.1l0,0.1l0,0l10.4,17.4
		c-0.1,0.5-0.1,1-0.2,1.5c0,2.5,0.9,4.9,2.8,6.7c1.4,1.4,3.1,2.3,4.9,2.7c0.1,0.1,0.3,0.2,0.4,0.3c0.9,0.6,3.8,2.3,7,2.7
		l134.9,139.9c0,0,0,0,0,0c0,2.1,0.8,4.2,2.3,5.6c1.4,1.4,3.3,2.2,5.4,2.3c1.8,2.3,3.4,5.3,3.2,7.7c-2.3,3.1-2,7.6,0.7,10.4
		c1.5,1.5,3.5,2.3,5.6,2.3c1.8,0,3.6-0.6,5-1.7c0.9-0.2,1.7-0.3,2.5-0.3c0.1,0,0.1,0,0.2,0c0.3,1.5,1,2.9,2.1,4
		c1.5,1.4,3.5,2.3,5.6,2.3c0.5,0,1,0,1.5-0.1l1.2,1.2c-0.5,2.6,0.3,5.3,2.1,7.1c1.4,1.4,3.3,2.2,5.3,2.3c1.8,2.3,3.3,5.2,3.2,7.6
		c-1,1.4-1.6,3-1.6,4.8c0,2.1,0.8,4.2,2.3,5.6c0.9,0.9,2.1,1.6,3.3,2c2.3,12.9,13.8,22.8,27.2,22.8c15.2,0,27.6-12.4,27.6-27.6
		c0-6.9-2.6-13.6-7.3-18.7c-4.1-4.5-9.5-7.4-15.4-8.5c-0.4-1.3-1.1-2.5-2.1-3.4c-1.4-1.4-3.5-2.2-5.6-2.2c-1.8,0-3.5,0.6-4.8,1.6
		c-0.1,0-0.2,0-0.3,0c-2.3,0-5-1.5-7.2-3.2c-0.1-2-0.9-3.9-2.4-5.4c-1.5-1.5-3.5-2.3-5.6-2.3c-0.6,0-1.2,0.1-1.7,0.2l-1-1
		c0.1-0.5,0.2-1,0.2-1.6c0-2.2-0.8-4.2-2.4-5.8c-1.1-1.1-2.5-1.8-4-2.1c0-0.7,0.1-1.6,0.3-2.8c2.3-3.2,2.1-7.6-0.7-10.4
		c-1.5-1.5-3.5-2.3-5.6-2.3c-1.7,0-3.3,0.5-4.6,1.5c-0.1,0-0.3,0-0.5,0c-2.3,0-5-1.5-7.2-3.2c-0.1-2-0.9-3.9-2.4-5.4
		c-1.5-1.5-3.5-2.3-5.6-2.3c0,0,0,0,0,0L57.4,43.3c-0.3-3.3-2.1-6.3-2.7-7.2c-0.1-0.2-0.3-0.4-0.5-0.6c-0.4-1.8-1.3-3.4-2.6-4.7
		c-1.7-1.8-4-2.7-6.4-2.8c0,0-0.1,0-0.2,0c-0.5,0-1,0-1.5,0.1L25.8,17.8C24.9,17.3,23.8,17,22.8,17L22.8,17z"/>
</g>
<g>
	<circle class="st1" cx="255.4" cy="255.4" r="23.1"/>
	<path class="st2" d="M21.7,23.5l12,20.1c0.4,0.8,1.4,0.9,2.1,0.2l8.1-8.1c0.5-0.5,0.4-1.6-0.2-2.1L23.5,21.7
		C22.3,21,21,22.3,21.7,23.5z"/>
	<polygon class="st3" points="195.5,182.8 182.8,195.5 44.6,52.2 52.2,44.6 	"/>
	<path class="st2" d="M49.3,49.3c0,0-0.3,0.3-2.7,2.7s-7.9-1.2-7.9-1.2l6.1-6.1l6.1-6.1c0,0,3.6,5.5,1.2,7.9
		C49.6,48.8,49.3,49.3,49.3,49.3z"/>
	<path class="st2" d="M48.4,41L41,48.4c-2,2-5,2-6.9,0l0,0c-2-2-2-5,0-6.9l7.4-7.4c2-2,5-2,6.9,0l0,0C50.4,35.9,50.4,39,48.4,41z"/>
	<path class="st2" d="M187.7,200.4c0,0,7.4,7.5,5.5,14.4L204,204l10.8-10.8c-6.8,2-14.4-5.5-14.4-5.5L187.7,200.4z"/>
	<path class="st2" d="M220.2,207.5c0,0-2.4-2.6-0.5-9.4l-10.8,10.8L198,219.7c6.8-2,9.4,0.5,9.4,0.5L220.2,207.5z"/>
	<path class="st2" d="M219.9,197.9L197.8,220c-1.3,1.3-3.6,1.3-4.9,0l0,0c-1.3-1.3-1.3-3.6,0-4.9L215,193c1.3-1.3,3.6-1.3,4.9,0l0,0
		C221.2,194.3,221.2,196.5,219.9,197.9z"/>
	<path class="st2" d="M222.9,235.6c0,0,7.4,7.5,5.5,14.4l10.8-10.8l10.8-10.8c-6.8,2-14.4-5.5-14.4-5.5L222.9,235.6z"/>
	<path class="st2" d="M255.1,233L233,255.1c-1.3,1.3-3.6,1.3-4.9,0l0,0c-1.3-1.3-1.3-3.6,0-4.9l22.1-22.1c1.3-1.3,3.6-1.3,4.9,0l0,0
		C256.5,229.4,256.5,231.7,255.1,233z"/>
	<path class="st2" d="M224.3,213.2l-11.1,11.1c-1.3,1.3-3.6,1.3-4.9,0l0,0c-1.3-1.3-1.3-3.6,0-4.9l11.1-11.1c1.3-1.3,3.6-1.3,4.9,0
		l0,0C225.7,209.7,225.7,211.9,224.3,213.2z"/>
	<path class="st2" d="M199.6,188.5l-11.1,11.1c-1.3,1.3-3.6,1.3-4.9,0l0,0c-1.3-1.3-1.3-3.6,0-4.9l11.1-11.1c1.3-1.3,3.6-1.3,4.9,0
		l0,0C201,185,201,187.2,199.6,188.5z"/>
	<path class="st2" d="M234.8,223.7l-11.1,11.1c-1.3,1.3-3.6,1.3-4.9,0l0,0c-1.3-1.3-1.3-3.6,0-4.9l11.1-11.1c1.3-1.3,3.6-1.3,4.9,0
		l0,0C236.2,220.2,236.2,222.3,234.8,223.7z"/>
	
		<rect x="213.9" y="217.7" transform="matrix(0.7071 -0.7071 0.7071 0.7071 -91.8502 221.5843)" class="st4" width="15.4" height="7.9"/>
	<circle class="st5" cx="258.9" cy="245.3" r="7.5"/>
</g>
</svg>
