<?xml version="1.0" encoding="utf-8"?>
<!-- Generator: Adobe Illustrator 26.3.1, SVG Export Plug-In . SVG Version: 6.00 Build 0)  -->
<svg version="1.1" id="레이어_1" xmlns="http://www.w3.org/2000/svg" xmlns:xlink="http://www.w3.org/1999/xlink" x="0px"
	 y="0px" viewBox="0 0 300 300" style="enable-background:new 0 0 300 300;" xml:space="preserve">
<style type="text/css">
	.st0{fill:#32CCCC;stroke:#E9BC00;stroke-width:3;stroke-miterlimit:10;}
	.st1{fill:#967905;stroke:#E9BC00;stroke-width:3;stroke-linecap:round;stroke-linejoin:round;stroke-miterlimit:10;}
	.st2{fill:#28A3A3;stroke:#E9BC00;stroke-width:3;stroke-miterlimit:10;}
	.st3{fill:#967905;stroke:#E9BC00;stroke-width:3;stroke-linecap:round;stroke-linejoin:round;stroke-miterlimit:9.9999;}
	.st4{fill:#D6F5F5;}
</style>
<g>
	<circle class="st0" cx="255.4" cy="255.4" r="23.1"/>
	<path class="st1" d="M21.7,23.5l12,20.1c0.4,0.8,1.4,0.9,2.1,0.2l8.1-8.1c0.5-0.5,0.4-1.6-0.2-2.1L23.5,21.7
		C22.3,21,21,22.3,21.7,23.5z"/>
	<polygon class="st2" points="195.5,182.8 182.8,195.5 44.6,52.2 52.2,44.6 	"/>
	<path class="st1" d="M49.3,49.3c0,0-0.3,0.3-2.7,2.7s-7.9-1.2-7.9-1.2l6.1-6.1l6.1-6.1c0,0,3.6,5.5,1.2,7.9
		C49.6,48.8,49.3,49.3,49.3,49.3z"/>
	<path class="st1" d="M48.4,41L41,48.4c-2,2-5,2-6.9,0l0,0c-2-2-2-5,0-6.9l7.4-7.4c2-2,5-2,6.9,0l0,0C50.4,35.9,50.4,39,48.4,41z"/>
	<path class="st1" d="M187.7,200.4c0,0,7.4,7.5,5.5,14.4L204,204l10.8-10.8c-6.8,2-14.4-5.5-14.4-5.5L187.7,200.4z"/>
	<path class="st1" d="M220.2,207.5c0,0-2.4-2.6-0.5-9.4l-10.8,10.8L198,219.7c6.8-2,9.4,0.5,9.4,0.5L220.2,207.5z"/>
	<path class="st1" d="M219.9,197.9l-22.1,22.1c-1.3,1.3-3.6,1.3-4.9,0l0,0c-1.3-1.3-1.3-3.6,0-4.9L215,193c1.3-1.3,3.6-1.3,4.9,0
		l0,0C221.2,194.3,221.2,196.5,219.9,197.9z"/>
	<path class="st1" d="M222.9,235.6c0,0,7.4,7.5,5.5,14.4l10.8-10.8l10.8-10.8c-6.8,2-14.4-5.5-14.4-5.5L222.9,235.6z"/>
	<path class="st1" d="M255.1,233L233,255.1c-1.3,1.3-3.6,1.3-4.9,0l0,0c-1.3-1.3-1.3-3.6,0-4.9l22.1-22.1c1.3-1.3,3.6-1.3,4.9,0l0,0
		C256.5,229.4,256.5,231.7,255.1,233z"/>
	<path class="st1" d="M224.3,213.2l-11.1,11.1c-1.3,1.3-3.6,1.3-4.9,0l0,0c-1.3-1.3-1.3-3.6,0-4.9l11.1-11.1c1.3-1.3,3.6-1.3,4.9,0
		l0,0C225.7,209.7,225.7,211.9,224.3,213.2z"/>
	<path class="st1" d="M199.6,188.5l-11.1,11.1c-1.3,1.3-3.6,1.3-4.9,0l0,0c-1.3-1.3-1.3-3.6,0-4.9l11.1-11.1c1.3-1.3,3.6-1.3,4.9,0
		l0,0C201,185,201,187.2,199.6,188.5z"/>
	<path class="st1" d="M234.8,223.7l-11.1,11.1c-1.3,1.3-3.6,1.3-4.9,0l0,0c-1.3-1.3-1.3-3.6,0-4.9l11.1-11.1c1.3-1.3,3.6-1.3,4.9,0
		l0,0C236.2,220.2,236.2,222.3,234.8,223.7z"/>
	
		<rect x="213.8" y="217.7" transform="matrix(0.7071 -0.7071 0.7071 0.7071 -91.8006 221.5591)" class="st3" width="15.4" height="7.9"/>
	<circle class="st4" cx="258.9" cy="245.3" r="7.5"/>
</g>
</svg>
