<?xml version="1.0" encoding="utf-8"?>
<!-- Generator: Adobe Illustrator 26.3.1, SVG Export Plug-In . SVG Version: 6.00 Build 0)  -->
<svg version="1.1" id="레이어_1" xmlns="http://www.w3.org/2000/svg" xmlns:xlink="http://www.w3.org/1999/xlink" x="0px"
	 y="0px" viewBox="0 0 600 600" style="enable-background:new 0 0 600 600;" xml:space="preserve">
<style type="text/css">
	.st0{fill:none;stroke:#E9BC00;stroke-width:3;stroke-linecap:round;stroke-linejoin:round;stroke-miterlimit:10;}
	.st1{fill:none;stroke:#E9BC00;stroke-width:3;stroke-miterlimit:10;}
	.st2{fill:none;stroke:#E9BC00;stroke-width:2;stroke-linecap:round;stroke-linejoin:round;stroke-miterlimit:10;}
	.st3{fill:#E9BC00;}
	.st4{enable-background:new    ;}
	.st5{fill:none;stroke:#E9BC00;stroke-width:3;stroke-linecap:round;stroke-linejoin:round;stroke-miterlimit:10.0002;}
	.st6{fill:none;stroke:#E9BC00;stroke-width:3;stroke-linecap:round;stroke-linejoin:round;stroke-miterlimit:10.0005;}
</style>
<g>
	<circle class="st0" cx="300" cy="300" r="288"/>
	<g>
		<path class="st1" d="M300,575.3C148.2,575.3,24.7,451.8,24.7,300S148.2,24.7,300,24.7S575.3,148.2,575.3,300
			S451.8,575.3,300,575.3z M300,35.3C154,35.3,35.3,154,35.3,300S154,564.7,300,564.7S564.7,446,564.7,300S446,35.3,300,35.3z"/>
	</g>
	<circle class="st2" cx="300" cy="300" r="54"/>
	<circle class="st0" cx="300" cy="300" r="186"/>
	<circle class="st0" cx="300" cy="300" r="195"/>
	<g>
		<path class="st3" d="M487.4,297.7c-0.9-19.6-13.2-36.3-30.5-43.5c-7.8-26.6-22.1-50.4-41.1-69.5c-0.1-0.1-0.1-0.2-0.2-0.3
			c-0.1-0.1-0.2-0.2-0.3-0.2c-29.6-29.5-70.4-47.7-115.3-47.7c0,0,0,0,0,0h0c-44.9,0-85.6,18.2-115.2,47.6c-0.1,0.1-0.3,0.1-0.4,0.3
			c-0.1,0.1-0.2,0.2-0.2,0.3c-19.1,19.2-33.4,43-41.2,69.6c-17.2,7.2-29.6,23.9-30.5,43.5c0,0.7-0.1,1.5-0.1,2.2c0,0,0,0,0,0
			s0,0,0,0c0,0.7,0,1.5,0.1,2.2c0.9,19.6,13.2,36.3,30.5,43.5c7.8,26.7,22.2,50.6,41.4,69.8c0,0,0,0,0,0c0,0,0,0,0,0
			c29.6,29.6,70.5,47.9,115.5,47.9h0c0,0,0,0,0,0c44.9,0,85.6-18.2,115.2-47.6c0.1-0.1,0.2-0.1,0.3-0.2c0.1-0.1,0.2-0.2,0.2-0.3
			c19.1-19.2,33.4-43,41.2-69.6c17.2-7.2,29.6-23.9,30.5-43.5c0-0.7,0.1-1.5,0.1-2.2c0,0,0,0,0,0s0,0,0,0
			C487.5,299.2,487.5,298.5,487.4,297.7z M453.5,253c-4.9-1.6-10.1-2.5-15.5-2.5c-3.8,0-7.5,0.4-11.1,1.3l22.9-9.5
			C451.1,245.8,452.3,249.4,453.5,253z M446.7,234.9L369.2,267l45.7-79C428.1,201.6,438.9,217.4,446.7,234.9z M367.7,323.7l-5.1-2.1
			l-3.2-5.6c1.3-4.6,2-9.5,2.1-14.5h27.1c0.2,5.5,1.2,10.8,3.1,15.8L367.7,323.7z M392.8,320.1c4,9.1,10.7,16.7,19,21.9l-39.6-16.4
			L392.8,320.1z M344.5,342.4c3.4-3.5,6.3-7.5,8.8-11.7l6.2-1.7l5.1,2.1l42.9,74.4L344.5,342.4z M405.4,407.6l-74.3-43l-2.1-5
			l1.7-6.4c4.2-2.4,8.1-5.4,11.6-8.7L405.4,407.6z M407.6,194.6l-43,74.3l-5.1,2.1l-6.2-1.7c-2.5-4.3-5.4-8.2-8.8-11.7L407.6,194.6z
			 M342.4,255.5c-3.5-3.3-7.4-6.3-11.6-8.7l-1.7-6.4l2.1-5l74.4-42.9L342.4,255.5z M361.5,298.5c-0.1-5-0.8-9.9-2.1-14.5l3.2-5.6
			l5-2.1l24,6.4c-1.8,4.9-2.9,10.2-3.1,15.8H361.5z M372.2,274.4l39.6-16.4c-8.3,5.2-15,12.8-19,21.9L372.2,274.4z M412.1,185.2
			L333,230.8l32.1-77.5C382.6,161.1,398.5,172,412.1,185.2z M357.7,150.2l-32.1,77.4L302,139.5C321.6,139.8,340.4,143.5,357.7,150.2
			z M301.5,149.4l22.2,82.8l-2.1,5.2l-5.6,3.2c-4.6-1.3-9.5-2-14.5-2.1V149.4z M298,139.5l-23.6,88.3l-32.1-77.5
			C259.6,143.5,278.4,139.8,298,139.5z M298.5,149.4v89.1c-5,0.1-9.8,0.8-14.4,2.1l-5.7-3.3l-2.1-5L298.5,149.4z M192.5,405.4
			l42.9-74.3l5.1-2.1l6.2,1.7c2.5,4.3,5.4,8.2,8.8,11.8L192.5,405.4z M257.6,344.5c3.5,3.4,7.5,6.3,11.7,8.8l1.7,6.2l-2.1,5.2
			l-74.3,42.8L257.6,344.5z M237.4,321.6l-5,2.1l-24-6.4c1.8-4.9,2.9-10.2,3.1-15.8h27.1c0.1,5,0.8,9.9,2.1,14.5L237.4,321.6z
			 M227.8,325.6L188.2,342c8.3-5.2,15-12.9,19.1-21.9L227.8,325.6z M232.4,276.3l5,2.1l3.2,5.6c-1.3,4.6-2,9.5-2.1,14.5h-27.1
			c-0.2-5.5-1.2-10.8-3.1-15.8L232.4,276.3z M207.2,279.9c-4-9.1-10.7-16.7-19.1-21.9l39.6,16.4L207.2,279.9z M240.5,271l-5.1-2.1
			l-42.9-74.4l63,63.1c-3.4,3.5-6.3,7.5-8.8,11.8L240.5,271z M194.6,192.4l74.3,42.9l2.1,5.2l-1.7,6.2c-4.3,2.5-8.2,5.4-11.7,8.8
			L194.6,192.4z M234.9,153.3l32.1,77.4l-79-45.6C201.6,171.9,217.4,161.1,234.9,153.3z M185.2,187.9l45.6,79.1l-77.5-32.1
			C161.1,217.4,172,201.5,185.2,187.9z M150.2,242.3l22.9,9.5c-3.6-0.8-7.3-1.3-11.1-1.3c-5.4,0-10.6,0.9-15.5,2.5
			C147.7,249.4,148.9,245.8,150.2,242.3z M115.5,300c0-15.5,10.3-28.6,24.3-33c-2.2,10.7-3.3,21.7-3.3,33c0,11.3,1.2,22.3,3.3,33
			C125.8,328.6,115.5,315.5,115.5,300z M149.4,301.5h35c-0.1,3.1-0.7,6.1-1.6,8.9L149.4,301.5z M181.8,313.3
			c-5.2,12.5-17.5,21.2-31.8,21.2c-2.4,0-4.7-0.2-6.9-0.7c-2.2-10.3-3.4-20.9-3.6-31.8L181.8,313.3z M149.4,298.5l33.5-8.9
			c0.9,2.8,1.4,5.8,1.6,8.9H149.4z M139.5,298c0.1-10.9,1.4-21.6,3.6-31.8c2.2-0.5,4.5-0.7,6.9-0.7c14.3,0,26.6,8.8,31.8,21.2
			L139.5,298z M133.9,333.9c0.4,0.2,0.8,0.4,1.2,0.5c0.2,0.1,0.4,0.2,0.6,0.3c0.4,0.2,0.8,0.3,1.3,0.5c0.2,0.1,0.4,0.1,0.6,0.2
			c0.6,0.2,1.2,0.4,1.8,0.6c0,0,0.1,0,0.1,0c0.4,0.1,0.7,0.2,1.1,0.3c0.2,0.1,0.5,0.1,0.7,0.2c0.2,0.1,0.4,0.1,0.6,0.1
			c0.4,0.1,0.9,0.2,1.3,0.3c0.2,0,0.4,0.1,0.6,0.1c0,0,0.1,0,0.1,0c0.4,0.1,0.8,0.1,1.3,0.2c0.2,0,0.5,0.1,0.7,0.1
			c0.5,0,0.9,0.1,1.4,0.1c0.2,0,0.4,0,0.7,0c0.7,0,1.4,0.1,2,0.1c15.7,0,29.2-9.7,34.8-23.4c0.4-0.9,0.7-1.9,1-2.8
			c1-3.1,1.5-6.4,1.7-9.7c0-0.5,0-1,0-1.5s0-1,0-1.5c-0.1-3.4-0.7-6.6-1.7-9.7c-0.3-1-0.6-1.9-1-2.8c-5.6-13.7-19-23.4-34.8-23.4
			c-0.7,0-1.4,0-2,0.1c-0.2,0-0.4,0-0.6,0c-0.5,0-0.9,0.1-1.4,0.1c-0.2,0-0.5,0.1-0.7,0.1c-0.4,0.1-0.9,0.1-1.3,0.2c0,0-0.1,0-0.1,0
			c-0.2,0-0.4,0.1-0.6,0.1c-0.4,0.1-0.9,0.2-1.3,0.3c-0.2,0-0.4,0.1-0.6,0.1c-0.2,0.1-0.5,0.1-0.7,0.2c-0.4,0.1-0.8,0.2-1.1,0.3
			c0,0,0,0,0,0c-0.6,0.2-1.2,0.4-1.9,0.6c-0.2,0.1-0.4,0.1-0.5,0.2c-0.4,0.2-0.9,0.3-1.3,0.5c-0.2,0.1-0.4,0.2-0.6,0.3
			c-0.4,0.2-0.8,0.3-1.2,0.5c-0.1,0.1-0.2,0.1-0.4,0.2c2.3-1.5,4.7-2.8,7.3-3.9c1.1-0.4,2.2-0.9,3.4-1.2c3.7-1.1,7.7-1.7,11.7-1.7
			c16.5,0,30.8,10,37.1,24.2c0.4,0.9,0.8,1.9,1.1,2.8c1.3,3.8,2.1,7.8,2.3,12c0,0.5,0,1,0,1.5s0,1,0,1.5c-0.2,4.2-0.9,8.2-2.3,12
			c-0.3,1-0.7,1.9-1.1,2.8c-6.3,14.2-20.5,24.2-37.1,24.2c-4.1,0-8-0.6-11.7-1.7c-1.2-0.4-2.3-0.8-3.4-1.2c-2.6-1-5-2.3-7.3-3.9
			C133.7,333.8,133.8,333.8,133.9,333.9z M142,341.9c-1.9-0.9-3.6-1.9-5.4-3c1.6,0.8,3.4,1.5,5.1,2.2c1.1,0.4,2.2,0.7,3.4,1
			c3.5,0.9,7.1,1.4,10.9,1.4c17.9,0,33.4-10.9,40-26.4c0.4-0.9,0.8-1.9,1.1-2.8c1.4-4,2.2-8.3,2.4-12.7c0-0.5,0-1,0-1.5s0-1,0-1.5
			c-0.2-4.5-1-8.7-2.4-12.7c-0.3-1-0.7-1.9-1.1-2.8c-6.6-15.5-22.1-26.4-40-26.4c-3.8,0-7.4,0.5-10.9,1.4c-1.1,0.3-2.3,0.6-3.4,1
			c-1.8,0.6-3.5,1.3-5.1,2.2c1.7-1.1,3.5-2.1,5.4-3c1.2-0.6,2.3-1.1,3.5-1.5c5.1-2,10.7-3,16.5-3c18.8,0,35,11.2,42.3,27.2
			c0.4,0.9,0.8,1.8,1.2,2.8c1.8,4.7,2.8,9.7,3,15c0,0.5,0,1,0,1.5s0,1,0,1.5c-0.2,5.3-1.2,10.3-3,15c-0.4,0.9-0.8,1.9-1.2,2.8
			c-7.3,16-23.5,27.2-42.3,27.2c-5.8,0-11.4-1.1-16.5-3C144.3,343,143.1,342.5,142,341.9z M146.5,347c4.9,1.6,10.1,2.5,15.5,2.5
			c3.8,0,7.5-0.4,11.1-1.3l-22.9,9.5C148.9,354.2,147.7,350.6,146.5,347z M153.3,365.1l77.5-32.1L185.2,412
			C172,398.5,161.1,382.6,153.3,365.1z M188,414.8l79-45.6l-32.1,77.5C217.4,438.9,201.5,428,188,414.8z M242.3,449.8l32.1-77.5
			l23.6,88.3C278.4,460.2,259.6,456.5,242.3,449.8z M298.5,450.6l-22.2-82.9l2.1-5l5.7-3.3c4.6,1.2,9.5,1.9,14.4,2.1V450.6z
			 M300,358.5c-0.4,0-0.8,0-1.2,0c-4.3-0.1-8.6-0.7-12.6-1.6c-5.8-1.4-11.4-3.7-16.4-6.8c-3.7-2.2-7.1-4.9-10.2-7.9
			c-0.6-0.6-1.2-1.1-1.7-1.7c-3-3.1-5.6-6.5-7.8-10.1c-3-5-5.4-10.5-6.8-16.3c-1-4.1-1.6-8.4-1.7-12.7c0-0.4,0-0.8,0-1.2
			c0-0.4,0-0.8,0-1.2c0.1-4.4,0.7-8.6,1.7-12.7c1.4-5.8,3.7-11.3,6.8-16.3c2.2-3.7,4.9-7,7.8-10.1c0.6-0.6,1.1-1.2,1.7-1.7
			c3.1-3,6.5-5.6,10.2-7.9c5-3,10.5-5.3,16.4-6.8c4.1-1,8.3-1.6,12.6-1.6c0.4,0,0.8,0,1.2,0c0.4,0,0.8,0,1.2,0
			c4.4,0.1,8.6,0.7,12.7,1.7c5.8,1.4,11.3,3.7,16.3,6.8c3.7,2.2,7.1,4.9,10.2,7.8c0.6,0.6,1.2,1.1,1.7,1.7c3,3.1,5.6,6.5,7.9,10.2
			c3,5,5.3,10.5,6.7,16.3c1,4.1,1.6,8.4,1.7,12.7c0,0.4,0,0.8,0,1.2c0,0.4,0,0.8,0,1.2c-0.1,4.4-0.7,8.6-1.7,12.7
			c-1.4,5.8-3.7,11.3-6.7,16.3c-2.2,3.7-4.9,7.1-7.9,10.2c-0.6,0.6-1.1,1.2-1.7,1.7c-3.1,3-6.5,5.6-10.2,7.8c-5,3-10.5,5.3-16.3,6.8
			c-4.1,1-8.4,1.6-12.7,1.7C300.8,358.5,300.4,358.5,300,358.5z M301.5,361.5c5-0.1,9.9-0.8,14.5-2.1l5.6,3.2l2.1,5.2l-22.2,82.8
			V361.5z M302,460.5l23.7-88.1l32.1,77.4C340.4,456.5,321.6,460.2,302,460.5z M365.1,446.7L333,369.2l79,45.7
			C398.4,428.1,382.6,438.9,365.1,446.7z M414.8,412.1L369.2,333l77.5,32.1C438.9,382.6,428,398.5,414.8,412.1z M449.8,357.7
			l-22.9-9.5c3.6,0.8,7.3,1.3,11.1,1.3c5.4,0,10.6-0.9,15.5-2.5C452.3,350.6,451.1,354.2,449.8,357.7z M458,341.9
			c-1.2,0.6-2.3,1.1-3.5,1.5c-5.1,2-10.7,3-16.5,3c-18.8,0-34.9-11.2-42.3-27.2c-0.4-0.9-0.8-1.8-1.2-2.8c-1.8-4.7-2.8-9.7-3-15
			c0-0.5,0-1,0-1.5s0-1,0-1.5c0.2-5.3,1.2-10.3,3-15c0.4-0.9,0.8-1.9,1.2-2.8c7.3-16,23.5-27.2,42.3-27.2c5.8,0,11.4,1.1,16.5,3
			c1.2,0.5,2.4,1,3.5,1.5c1.9,0.9,3.6,1.9,5.4,3c-1.6-0.8-3.4-1.5-5.1-2.2c-1.1-0.4-2.2-0.7-3.4-1c-3.5-0.9-7.1-1.4-10.9-1.4
			c-17.9,0-33.4,10.9-40,26.4c-0.4,0.9-0.8,1.9-1.1,2.8c-1.4,4-2.2,8.3-2.4,12.8c0,0.5,0,1,0,1.5s0,1,0,1.5c0.2,4.5,1,8.7,2.4,12.8
			c0.3,1,0.7,1.9,1.1,2.8c6.7,15.5,22.1,26.4,40,26.4c3.8,0,7.4-0.5,10.9-1.4c1.1-0.3,2.3-0.6,3.4-1c1.8-0.6,3.5-1.3,5.1-2.2
			C461.7,340,459.9,341,458,341.9z M459.1,337.6c-1.1,0.4-2.2,0.9-3.4,1.2c-3.7,1.1-7.7,1.7-11.7,1.7c-16.5,0-30.8-10-37.1-24.2
			c-0.4-0.9-0.8-1.9-1.1-2.8c-1.3-3.8-2.1-7.8-2.3-12c0-0.5,0-1,0-1.5s0-1,0-1.5c0.2-4.2,0.9-8.2,2.3-12c0.3-1,0.7-1.9,1.1-2.8
			c6.3-14.2,20.5-24.2,37.1-24.2c4.1,0,8,0.6,11.7,1.7c1.2,0.4,2.3,0.8,3.4,1.2c2.6,1,5,2.3,7.3,3.9c-0.1-0.1-0.2-0.1-0.4-0.2
			c-0.4-0.2-0.8-0.4-1.2-0.5c-0.2-0.1-0.4-0.2-0.6-0.3c-0.4-0.2-0.8-0.3-1.3-0.5c-0.2-0.1-0.4-0.1-0.5-0.2c-0.6-0.2-1.2-0.4-1.9-0.6
			c0,0,0,0,0,0c-0.4-0.1-0.8-0.2-1.1-0.3c-0.2-0.1-0.5-0.1-0.7-0.2c-0.2,0-0.4-0.1-0.6-0.1c-0.4-0.1-0.9-0.2-1.3-0.3
			c-0.2,0-0.4-0.1-0.6-0.1c0,0-0.1,0-0.1,0c-0.4-0.1-0.8-0.1-1.3-0.2c-0.2,0-0.5-0.1-0.7-0.1c-0.5,0-0.9-0.1-1.4-0.1
			c-0.2,0-0.4,0-0.6,0c-0.7,0-1.4-0.1-2-0.1c-15.7,0-29.2,9.7-34.8,23.4c-0.4,0.9-0.7,1.9-1,2.8c-1,3.1-1.5,6.4-1.7,9.7
			c0,0.5,0,1,0,1.5s0,1,0,1.5c0.1,3.4,0.7,6.6,1.7,9.7c0.3,1,0.6,1.9,1,2.8c5.6,13.7,19,23.4,34.8,23.4c0.7,0,1.4,0,2-0.1
			c0.2,0,0.4,0,0.7,0c0.5,0,0.9-0.1,1.4-0.1c0.2,0,0.5-0.1,0.7-0.1c0.4-0.1,0.8-0.1,1.3-0.2c0,0,0.1,0,0.1,0c0.2,0,0.4-0.1,0.6-0.1
			c0.4-0.1,0.9-0.2,1.3-0.3c0.2,0,0.4-0.1,0.6-0.1c0.2-0.1,0.5-0.1,0.7-0.2c0.4-0.1,0.7-0.2,1.1-0.3c0,0,0.1,0,0.1,0
			c0.6-0.2,1.2-0.4,1.8-0.6c0.2-0.1,0.4-0.1,0.6-0.2c0.4-0.2,0.8-0.3,1.3-0.5c0.2-0.1,0.4-0.2,0.6-0.3c0.4-0.2,0.8-0.3,1.2-0.5
			c0.1-0.1,0.2-0.1,0.4-0.2C464.2,335.2,461.7,336.5,459.1,337.6z M450.6,301.5l-33.5,9c-0.9-2.8-1.5-5.8-1.6-9H450.6z M415.5,298.5
			c0.1-3.1,0.7-6.1,1.6-9l33.5,9H415.5z M460.5,302c-0.1,10.9-1.4,21.6-3.6,31.8c-2.2,0.5-4.5,0.7-6.9,0.7
			c-14.3,0-26.6-8.8-31.8-21.2L460.5,302z M418.2,286.7c5.2-12.4,17.5-21.2,31.8-21.2c2.4,0,4.7,0.2,6.9,0.7
			c2.2,10.3,3.4,20.9,3.6,31.8L418.2,286.7z M460.2,333c2.2-10.7,3.3-21.7,3.3-33c0-11.3-1.2-22.3-3.3-33
			c14.1,4.3,24.3,17.5,24.3,33C484.5,315.5,474.2,328.6,460.2,333z"/>
	</g>
	<path class="st0" d="M465,495H135c-16.6,0-30-13.4-30-30V135c0-16.6,13.4-30,30-30h330c16.6,0,30,13.4,30,30v330
		C495,481.6,481.6,495,465,495z"/>
	<circle class="st0" cx="135" cy="135.1" r="30"/>
	<circle class="st0" cx="465" cy="135.1" r="30"/>
	<circle class="st0" cx="135" cy="465" r="30"/>
	<circle class="st0" cx="465" cy="465" r="30"/>
	<g class="st4">
		<g>
			<path class="st3" d="M466.7,153.6v-3.1c-1.6-0.1-2.9-0.7-4-1.7c-1.1-1.1-1.6-2.4-1.6-3.8c0-1.4,0.7-2.8,1.9-4.1l7.3-7.3
				c0.4-0.4,0.6-0.8,0.6-1.4c0-0.5-0.2-1-0.5-1.3c-0.4-0.4-0.8-0.5-1.3-0.5c-0.6,0-1,0.2-1.4,0.6l-10.1,10.1l-2.5-2.5l10.1-10.1
				c0.4-0.4,0.6-0.8,0.6-1.4s-0.2-1-0.5-1.3c-0.4-0.4-0.8-0.5-1.3-0.5c-0.6,0-1,0.2-1.4,0.6L452.5,136l-2.5-2.5l10.1-10.1
				c1.4-1.4,1-1.9,0.8-2.1l-0.7-0.7l2.4-2.4l0.7,0.7c0.6,0.6,1,1.3,1.2,2.2c0.1,0.3,0.1,0.6,0.1,0.8c0.3,0,0.6,0.1,1,0.2
				c0.9,0.2,1.6,0.7,2.3,1.3c1.1,1.1,1.6,2.3,1.5,3.7c1.3-0.1,2.6,0.5,3.7,1.5c1,1,1.6,2.3,1.6,3.8s-0.5,2.8-1.7,3.9l-7.3,7.3
				c-0.6,0.6-0.9,1.2-1,1.7c0,0.3,0,0.7,0.6,1.3c0.3,0.3,0.5,0.4,0.8,0.6c0.1,0,0.3,0.1,0.7,0.1v-3l4.8,4.8L466.7,153.6z"/>
		</g>
	</g>
	<g class="st4">
		<g>
			<path class="st3" d="M466.6,475.7c-0.2,0-0.5,0-0.7,0c-1.6-0.2-3.3-1.1-4.8-2.7c-0.5-0.5-1.1-1.2-1.6-1.9
				c-0.5-0.7-1.1-1.8-1.9-3.3c-0.7-1.5-1.4-2.5-1.9-3.2s-1-1.3-1.5-1.8c-0.3-0.3-0.7-0.5-1-0.5s-0.5,0.1-0.7,0.3
				c-0.4,0.4-0.7,0.9-0.8,1.2l-0.3,1.9l-2.6-2.6l0.1-0.5c0.1-0.9,0.5-1.7,1.3-2.4c0.9-0.9,1.9-1.3,3.2-1.3l0,0
				c1.3,0,2.4,0.5,3.4,1.5c0.6,0.6,1.1,1.2,1.7,2c0.6,0.8,1.2,1.9,2,3.4c0.7,1.4,1.3,2.5,1.8,3.1s0.9,1.2,1.4,1.7
				c1,1,1.9,1.6,2.7,1.7c0.4,0.1,1.1,0.1,1.8-0.7c0.6-0.6,0.8-1.1,0.8-1.7s-0.3-1.3-1-1.9c-0.7-0.7-1.8-1.4-3.3-2.2
				c-1.6-0.8-2.7-1.6-3.4-2.3c-1.1-1.1-1.7-2.5-1.7-4c0-1.6,0.6-2.9,1.7-4c1.1-1.1,2.5-1.7,4-1.7l0,0c1.6,0,2.9,0.6,4,1.7
				c1.1,1.1,1.7,2.5,1.7,4s-0.6,2.9-1.7,4c-0.2,0.2-0.4,0.4-0.7,0.6c0.7,0.5,1.3,0.9,1.8,1.5c1.3,1.3,1.9,2.7,2,4.3
				c0,1.6-0.6,3-1.9,4.3C469.4,475.1,468.1,475.7,466.6,475.7z M465.2,457.1c-0.6,0-1.1,0.2-1.5,0.6c-0.4,0.4-0.6,0.9-0.6,1.5
				s0.2,1.1,0.7,1.6c0.4,0.4,1,0.7,1.6,0.7c0.6,0,1.1-0.2,1.5-0.6c0.4-0.4,0.6-0.9,0.6-1.5s-0.2-1.1-0.7-1.6
				C466.3,457.4,465.8,457.1,465.2,457.1L465.2,457.1z"/>
		</g>
	</g>
	<g class="st4">
		<g>
			<path class="st3" d="M134.8,479.4l-0.7-0.7c-0.8-0.8-1.4-1.7-1.7-2.6s-0.4-1.7-0.4-2.6c0-0.7,0.1-1.6,0.3-2.6
				c0.3-1.6,0.2-2.2,0.2-2.3c-0.1-0.3-0.2-0.5-0.3-0.6s-0.3-0.2-0.6-0.3c-0.1,0-0.6-0.1-2.3,0.2c-1,0.2-1.9,0.3-2.6,0.3
				c-0.8,0-1.7-0.1-2.6-0.4s-1.8-0.9-2.6-1.7l-0.7-0.7l2.5-2.5l0.7,0.7c0.4,0.4,0.9,0.7,1.4,0.9c0.5,0.2,1,0.2,1.4,0.2
				c0.5,0,1.2-0.1,2-0.2c0.6-0.1,1.1-0.2,1.6-0.2c-0.1-0.8-0.1-1.7,0.1-2.5c0.3-1.3,0.9-2.4,1.8-3.4c1.3-1.3,3-2,4.8-2
				c1.9,0,3.5,0.7,4.8,2s2,3,2,4.8c0,1.9-0.7,3.5-2,4.8c-0.9,0.9-2.1,1.6-3.4,1.8c-0.8,0.2-1.7,0.2-2.5,0.1c0,0.5-0.1,1-0.2,1.6
				c-0.1,0.8-0.2,1.5-0.2,2c0,0.4,0.1,0.9,0.2,1.4c0.2,0.5,0.5,0.9,0.9,1.4l0.7,0.7L134.8,479.4z M137,459.7L137,459.7
				c-1,0-1.8,0.3-2.4,1c-0.7,0.7-1,1.5-1,2.4s0.3,1.7,1,2.4c0.7,0.7,1.4,0.9,2.4,1c0.9,0,1.7-0.3,2.4-1s1-1.5,1-2.4s-0.3-1.7-1-2.3
				C138.7,460.1,137.9,459.7,137,459.7z"/>
		</g>
	</g>
	<g class="st4">
		<g>
			<path class="st3" d="M131.5,148.2l-2.4-2.4l0.7-0.7V145c0,0,0-0.3-0.3-1.1c-0.4-1.2-0.5-2.1-0.3-2.8s0.5-1.2,0.9-1.7
				c0.5-0.5,1-0.8,1.7-0.9c0.7-0.2,1.5,0,2.8,0.3c0.9,0.3,1.1,0.3,1.2,0.3h0.1V139l0,0c0,0,0-0.3-0.3-1.2c-0.4-1.2-0.5-2.1-0.3-2.8
				c0.1-0.7,0.5-1.2,0.9-1.7c0.5-0.5,1-0.8,1.7-0.9c0.7-0.1,1.5,0,2.8,0.3c0.9,0.3,1.1,0.3,1.1,0.3c0.1,0,0.1,0,0.1,0v-0.1
				c0,0,0-0.3-0.3-1.1c-0.4-1.2-0.5-2.1-0.3-2.8c0.1-0.7,0.5-1.2,0.9-1.7l0.7-0.7l2.4,2.4l-0.7,0.7v0.1l0,0c0,0,0,0.3,0.3,1.1
				c0.4,1.2,0.5,2.1,0.3,2.8c-0.1,0.7-0.5,1.2-0.9,1.7c-0.5,0.5-1,0.8-1.7,0.9c-0.7,0.2-1.5,0-2.8-0.3c-0.9-0.3-1.1-0.2-1.2-0.2
				h-0.1v0.1l0,0c0,0,0,0.3,0.3,1.1c0.4,1.2,0.5,2.1,0.3,2.8s-0.5,1.2-0.9,1.7c-0.5,0.5-1,0.8-1.7,0.9c-0.7,0.2-1.5,0-2.8-0.3
				c-0.9-0.3-1.1-0.3-1.2-0.3h-0.1v0.1l0,0c0,0,0,0.3,0.3,1.2c0.4,1.2,0.5,2.1,0.3,2.8s-0.5,1.2-0.9,1.7L131.5,148.2z M126,142.7
				l-2.4-2.4l0.7-0.7v-0.1c0,0,0-0.3-0.3-1.1c-0.4-1.2-0.5-2.1-0.3-2.8s0.5-1.2,0.9-1.7c0.5-0.5,1-0.8,1.7-0.9
				c0.7-0.2,1.5,0,2.8,0.3c0.9,0.3,1.1,0.3,1.2,0.3h0.1v-0.1c0,0,0-0.3-0.3-1.2c-0.4-1.2-0.5-2.1-0.3-2.8c0.1-0.7,0.5-1.2,0.9-1.7
				c0.5-0.5,1-0.8,1.7-0.9c0.7-0.2,1.5,0,2.8,0.3c0.9,0.3,1.1,0.3,1.1,0.3c0.1,0,0.1,0,0.1,0v-0.1l0,0c0,0,0-0.3-0.3-1.1
				c-0.4-1.2-0.5-2.1-0.3-2.8c0.2-0.7,0.5-1.2,0.9-1.7l0.7-0.7l2.4,2.4l-0.7,0.7v0.1c0,0,0,0.3,0.3,1.1c0.4,1.2,0.5,2.1,0.3,2.8
				c-0.2,0.7-0.5,1.2-0.9,1.7c-0.5,0.5-1,0.8-1.7,0.9c-0.7,0.1-1.5,0-2.8-0.3c-0.9-0.3-1.1-0.2-1.2-0.2H133v0.1c0,0,0,0.3,0.3,1.1
				c0.4,1.2,0.5,2.1,0.3,2.8s-0.5,1.2-0.9,1.7c-0.5,0.5-1,0.8-1.7,0.9c-0.7,0.2-1.5,0-2.8-0.3c-0.9-0.3-1.1-0.3-1.2-0.3h-0.1v0.1
				c0,0,0,0.3,0.3,1.2c0.4,1.2,0.5,2.1,0.3,2.8c-0.1,0.7-0.5,1.2-0.9,1.7L126,142.7z"/>
		</g>
	</g>
	<path class="st0" d="M540.4,386.4l-285.8,165c-14.4,8.3-32.7,3.4-41-11l-165-285.8c-8.3-14.4-3.4-32.7,11-41l285.8-165
		c14.4-8.3,32.7-3.4,41,11l165,285.8C559.7,359.7,554.7,378.1,540.4,386.4z"/>
	<circle class="st0" cx="74.6" cy="239.6" r="30"/>
	<circle class="st0" cx="360.4" cy="74.7" r="30"/>
	<ellipse transform="matrix(0.3162 -0.9487 0.9487 0.3162 -334.511 586.4958)" class="st5" cx="239.6" cy="525.3" rx="30" ry="30"/>
	<circle class="st0" cx="525.3" cy="360.4" r="30"/>
	<g class="st4">
		<g>
			<polygon class="st3" points="350.2,82.2 348.4,79.1 356.8,74.2 354.5,70.1 357.6,68.4 359.9,72.5 365.7,69.1 362.1,68.1 
				363,64.7 372.5,67.3 369.9,76.7 366.5,75.8 367.5,72.2 361.7,75.5 364.1,79.6 361,81.4 358.6,77.3 			"/>
		</g>
	</g>
	<g class="st4">
		<g>
			<path class="st3" d="M528.4,374.2c-0.5,0-1.1-0.1-1.6-0.2l-5.2-1.4c-5.4-1.5-8.2-4.4-8.2-8.7l-2.7-0.7l0.9-3.4l2.2,0.6
				c0.1-0.2,0.1-0.5,0.2-0.7l0.3-1l3.4,0.9l-0.3,1c-0.1,0.3-0.1,0.5-0.2,0.7l12.2,3.3c0.5,0.1,1,0.1,1.5-0.2
				c0.5-0.3,0.8-0.6,0.9-1.1c0.1-0.5,0.1-0.9-0.2-1.4s-0.7-0.8-1.2-0.9l-13.8-3.7l0.9-3.4l13.8,3.7c0.5,0.1,1,0.1,1.5-0.2
				c0.5-0.3,0.8-0.6,0.9-1.1c0.1-0.5,0.1-0.9-0.2-1.4s-0.7-0.8-1.2-0.9l-13.8-3.7l0.9-3.4l13.8,3.7c1,0.3,1.5,0.2,1.7,0.1
				s0.3-0.2,0.4-0.5l0.3-1l3.3,0.9l-0.3,1c-0.2,0.8-0.7,1.5-1.3,2.1c-0.2,0.2-0.4,0.4-0.7,0.5c0.1,0.3,0.3,0.6,0.4,0.9
				c0.2,0.9,0.2,1.7,0,2.6c-0.4,1.5-1.2,2.5-2.4,3.1c0.7,1.1,0.9,2.5,0.5,3.9s-1.2,2.5-2.3,3.2c0.2,0.3,0.4,0.6,0.5,0.9
				c0.3,0.7,0.3,1.6,0.1,2.5c-0.4,1.4-1.2,2.4-2.6,3C529.9,374,529.2,374.2,528.4,374.2z M522.4,369.1l5.2,1.4
				c0.6,0.2,1.2,0.2,1.6,0c0.4-0.1,0.6-0.4,0.7-0.8c0.1-0.4,0.1-0.7-0.2-1c-0.3-0.4-0.8-0.7-1.4-0.8l-11.5-3.1
				C517.3,366.8,519.2,368.3,522.4,369.1L522.4,369.1z"/>
		</g>
	</g>
	<g class="st4">
		<g>
			<path class="st3" d="M246,537.9l-1.1-0.5c-2.3-1-4.9-1.9-7.9-2.7s-5.7-1.3-8.1-1.6l-1.1-0.1l0.9-3.3l0.8,0.1
				c0.5,0,1.3,0.2,2.6,0.4l3.2-11.9c-1.1-0.4-1.9-0.7-2.4-0.9l-0.8-0.3l0.9-3.3l1.1,0.5c2.3,1,4.9,1.9,7.9,2.7s5.7,1.3,8.1,1.6
				l1.1,0.1l-0.9,3.3l-0.8-0.1c-0.6-0.1-1.4-0.2-2.6-0.4l-3.2,11.9c1.2,0.4,2,0.7,2.4,1l0.8,0.4L246,537.9z M235.6,530.8
				c0.7,0.2,1.5,0.4,2.4,0.6c0.6,0.2,1.4,0.4,2.4,0.7l3.1-11.5c-0.7-0.2-1.6-0.4-2.4-0.6c-0.6-0.2-1.4-0.4-2.4-0.7L235.6,530.8z"/>
		</g>
	</g>
	<g class="st4">
		<g>
			<path class="st3" d="M81.7,250l-1.2-1.1c-1.5-1.3-3.5-2.4-6.1-3.3l-0.8,3l-3.3-0.9l0.8-3c-2.6-0.5-4.9-0.6-6.9-0.2l-1.6,0.3
				l1-3.6l0.6-0.1c2.2-0.4,4.8-0.4,7.8,0.2l1.2-4.6c-2.9-1-5.2-2.3-6.9-3.7l-0.5-0.4l1-3.6l1.2,1c1.5,1.3,3.6,2.4,6.1,3.3l0.8-3
				l3.3,0.9l-0.8,3c2.6,0.5,4.9,0.5,6.9,0.2l1.6-0.3l-1,3.6l-0.6,0.1c-2.1,0.4-4.8,0.4-7.8-0.2l-1.2,4.6c2.9,1,5.2,2.3,6.9,3.7
				l0.5,0.4L81.7,250z"/>
		</g>
	</g>
	<path class="st0" d="M551.4,254.6l-165,285.8c-8.3,14.3-26.6,19.3-41,11l-285.8-165c-14.3-8.3-19.3-26.6-11-41l165-285.8
		c8.3-14.3,26.6-19.3,41-11l285.8,165C554.7,221.9,559.7,240.3,551.4,254.6z"/>
	<circle class="st0" cx="74.7" cy="360.4" r="30"/>
	<ellipse transform="matrix(0.6 -0.8 0.8 0.6 36.1378 221.6041)" class="st6" cx="239.7" cy="74.7" rx="30" ry="30"/>
	<circle class="st0" cx="360.4" cy="525.4" r="30"/>
	<circle class="st0" cx="525.3" cy="239.6" r="30"/>
	<g class="st4">
		<g>
			<path class="st3" d="M238.7,88.1L226,68.6l2.9-2l6.8,10.4l0.4-10.1l1.3,0.5c0.7,0.3,1.3,0.5,1.9,0.7c-0.1-0.9,0.1-1.8,0.6-2.7
				c0.6-1.1,1.5-1.8,2.8-2.1c1.2-0.3,2.4-0.2,3.4,0.5c1.1,0.6,1.8,1.6,2.1,2.8c0.4,1.4,0.2,2.6-0.4,3.6c-0.4,0.6-0.9,1.1-1.5,1.4
				l0,0c1.7,1.1,2.8,2.1,3.4,2.8c0.6,0.8,1,1.5,1.2,2.3c0.5,2,0.3,3.9-0.6,5.4c-0.9,1.5-2.4,2.6-4.2,3.1l-1,0.3l-0.9-3.3l0.9-0.3
				c1-0.3,1.7-0.8,2.1-1.6c0.4-0.8,0.5-1.7,0.2-2.7c-0.1-0.4-0.4-0.9-0.8-1.4c-0.3-0.4-1-1-2.7-2.2c-1.1-0.8-1.9-1.4-2.4-1.8
				c-0.7-0.1-1.5-0.3-2.2-0.5L238.7,88.1z M243.8,66.5c-0.1,0-0.2,0-0.2,0c-0.3,0.1-0.4,0.2-0.6,0.5c-0.1,0.3-0.2,0.5-0.1,0.9
				c0.1,0.3,0.2,0.6,0.4,0.9c0.4,0,0.7-0.1,0.8-0.1c0.3-0.1,0.5-0.2,0.6-0.4c0.1-0.1,0.2-0.4,0.1-0.9c-0.1-0.3-0.2-0.5-0.5-0.7
				C244.1,66.5,244,66.5,243.8,66.5z"/>
		</g>
	</g>
	<g>
		<g>
			
				<rect x="516.1" y="230.1" transform="matrix(0.9659 -0.2588 0.2588 0.9659 -44.8962 142.2528)" class="st3" width="3.5" height="23.1"/>
		</g>
		<g>
			<path class="st3" d="M525.2,251.6l-2.9-10.7l1.4-0.4v-0.1l0.1,0.1l1.4-0.4l0.4,0.4c0.6,0.7,1.3,1.1,1.9,1.3
				c0.6,0.2,1.3,0.2,2.3-0.1c0.9-0.2,1.5-0.7,1.8-1.4c0.4-0.7,0.4-1.6,0.2-2.5c-0.3-1-0.7-1.7-1.4-2.1c-0.7-0.4-1.4-0.5-2.3-0.3
				c-0.9,0.2-1.6,0.6-2,1.1s-0.8,1.2-1,2.1l-0.1,0.6l-1.4,0.4l-0.1,0.2v-0.1l-1.4,0.4l-2.9-10.7l3.4-0.9l1.5,5.5
				c0.8-0.9,1.9-1.5,3.2-1.9c1.8-0.5,3.5-0.2,5,0.7s2.5,2.3,3,4.2l0,0c0.5,1.8,0.3,3.5-0.5,5.1s-2.2,2.6-4,3.1
				c-1.3,0.4-2.6,0.4-3.7,0l1.5,5.5L525.2,251.6z"/>
		</g>
	</g>
	<g class="st4">
		<g>
			<path class="st3" d="M355.8,536c-1.5,0-2.8-0.1-3.7-0.4l-0.5-0.2l-0.9-3.5l1.6,0.4c1.2,0.3,2.9,0.4,5,0.3
				c2.1-0.1,3.8-0.3,5.2-0.7c0.1,0,0.2,0,0.3-0.1c-0.1-0.1-0.2-0.2-0.3-0.3c-0.6-0.7-1.1-1.5-1.3-2.4c-0.4-1.5-0.2-3,0.6-4.3
				c0.8-1.3,1.9-2.3,3.5-2.7c1.5-0.4,3-0.2,4.3,0.6c1.4,0.8,2.3,1.9,2.7,3.5c0.3,1.2,0.2,2.5-0.3,3.7c-0.5,1.3-1.6,2.4-3.1,3.3
				c-1.5,0.8-3.2,1.6-5.3,2.1c-1.6,0.4-3.5,0.7-5.8,0.8C356.9,536,356.4,536,355.8,536z M366.6,525.3c-0.2,0-0.4,0-0.6,0.1l0,0
				c-0.6,0.2-1,0.5-1.3,1c-0.3,0.6-0.4,1.1-0.2,1.7c0.2,0.6,0.5,1,1,1.4c0.5,0.3,1.1,0.4,1.6,0.2c0.6-0.2,1-0.5,1.3-1
				c0.3-0.6,0.4-1.1,0.2-1.7c-0.2-0.6-0.5-1-1-1.4C367.3,525.4,366.9,525.3,366.6,525.3z M354.4,529.6c-1,0-1.9-0.3-2.8-0.8
				c-1.4-0.8-2.3-2-2.7-3.5c-0.3-1.2-0.2-2.5,0.3-3.7c0.5-1.3,1.6-2.4,3.1-3.3c1.5-0.8,3.2-1.6,5.3-2.1c1.6-0.4,3.5-0.7,5.8-0.8
				c2.4-0.1,4.1,0,5.4,0.3l0.5,0.2l0.9,3.5l-1.6-0.3c-1.2-0.3-2.9-0.3-5-0.2c-2.1,0.1-3.8,0.3-5.3,0.7c-0.1,0-0.2,0-0.3,0.1
				c0.1,0.1,0.2,0.2,0.3,0.3c0.6,0.7,1.1,1.5,1.3,2.4c0.4,1.5,0.2,3-0.6,4.3c-0.8,1.4-1.9,2.3-3.5,2.7
				C355.3,529.5,354.8,529.6,354.4,529.6z M354.4,521.7c-0.2,0-0.4,0-0.6,0.1l0,0c-0.6,0.2-1,0.5-1.3,1c-0.3,0.6-0.4,1.1-0.2,1.7
				c0.2,0.6,0.5,1,1,1.4c0.5,0.3,1.1,0.4,1.6,0.2c0.6-0.2,1-0.5,1.3-1c0.3-0.6,0.4-1.1,0.2-1.7c-0.2-0.6-0.5-1-1-1.4
				C355.1,521.8,354.7,521.7,354.4,521.7z"/>
		</g>
	</g>
	<g class="st4">
		<g>
			<path class="st3" d="M71.4,372c-1,0-1.9-0.2-2.8-0.7c-1.4-0.8-2.4-2-2.9-3.7c-0.4-1.3-0.3-2.6,0.3-3.9c0.2-0.5,0.5-0.9,0.8-1.3
				c-0.5-0.2-0.9-0.4-1.3-0.7c-1.1-0.8-1.8-1.9-2.2-3.2c-0.4-1.7-0.2-3.2,0.6-4.6c0.9-1.4,2.1-2.3,3.8-2.7c1.9-0.5,3.6-0.3,5,0.5
				s2.4,2.2,2.9,4l0.3,1l-3.3,0.9l-0.3-1c-0.2-0.9-0.7-1.5-1.3-1.9c-0.6-0.4-1.4-0.4-2.3-0.2c-0.8,0.2-1.4,0.6-1.8,1.2
				c-0.3,0.6-0.4,1.2-0.2,1.9c0.2,0.8,0.7,1.3,1.5,1.6c0.9,0.4,2.1,0.4,3.4,0l11.8-3.2l0.9,3.4l-11.8,3.2c-1.3,0.3-2.3,0.9-2.9,1.7
				c-0.6,0.7-0.7,1.4-0.5,2.2c0.2,0.7,0.6,1.3,1.2,1.6c0.6,0.3,1.3,0.4,2.2,0.1c1-0.3,1.6-0.7,2-1.3c0.4-0.6,0.4-1.4,0.2-2.2l-0.3-1
				l3.3-0.9l0.3,1c0.5,1.8,0.3,3.5-0.5,4.9s-2.2,2.4-4.1,2.9C72.6,372,72,372,71.4,372z"/>
		</g>
	</g>
	<path class="st3" d="M577.4,56.5c-15.1-10.4-18.9-10.4-33.9,0c10.4-15.1,10.4-18.9,0-33.9c15.1,10.4,18.9,10.4,33.9,0
		C567,37.7,567,41.5,577.4,56.5z"/>
	<path class="st3" d="M324,300c-18,3.3-20.7,6-24,24c-3.3-18-6-20.7-24-24c18-3.3,20.7-6,24-24C303.3,294,306,296.7,324,300z"/>
	<line class="st0" x1="300" y1="270" x2="300" y2="247"/>
	<line class="st0" x1="270" y1="300" x2="247" y2="300"/>
	<line class="st0" x1="300" y1="330" x2="300" y2="353"/>
	<line class="st0" x1="330" y1="300" x2="353" y2="300"/>
	<line class="st0" x1="503.7" y1="96.3" x2="537.7" y2="62.3"/>
	<path class="st3" d="M56.5,22.6c-10.4,15.1-10.4,18.9,0,33.9c-15.1-10.4-18.9-10.4-33.9,0C33,41.4,33,37.6,22.6,22.6
		C37.7,33,41.5,33,56.5,22.6z"/>
	<line class="st0" x1="96.3" y1="96.3" x2="62.4" y2="62.3"/>
	<path class="st3" d="M22.6,543.5c15.1,10.4,18.9,10.4,33.9,0c-10.4,15.1-10.4,18.9,0,33.9c-15.1-10.4-18.9-10.4-33.9,0
		C33,562.3,33,558.5,22.6,543.5z"/>
	<line class="st0" x1="96.3" y1="503.7" x2="62.4" y2="537.7"/>
	<path class="st3" d="M543.5,577.4c10.4-15.1,10.4-18.9,0-33.9c15.1,10.4,18.9,10.4,33.9,0c-10.4,15.1-10.4,18.9,0,33.9
		C562.4,567,558.6,567,543.5,577.4z"/>
	<line class="st0" x1="503.7" y1="503.7" x2="537.7" y2="537.7"/>
</g>
</svg>
