<?xml version="1.0" encoding="utf-8"?>
<!-- Generator: Adobe Illustrator 26.3.1, SVG Export Plug-In . SVG Version: 6.00 Build 0)  -->
<svg version="1.1" id="레이어_1" xmlns="http://www.w3.org/2000/svg" xmlns:xlink="http://www.w3.org/1999/xlink" x="0px"
	 y="0px" viewBox="0 0 600 600" style="enable-background:new 0 0 600 600;" xml:space="preserve">
<style type="text/css">
	.st0{fill:none;stroke:#E9BC00;stroke-width:8;stroke-miterlimit:10;}
	.st1{fill:none;stroke:#E9BC00;stroke-width:3;stroke-linecap:round;stroke-linejoin:round;stroke-miterlimit:10;}
	.st2{fill:none;stroke:#E9BC00;stroke-width:3;stroke-miterlimit:10;}
	.st3{fill:#6B5D00;stroke:#E9BC00;stroke-width:3;stroke-linecap:round;stroke-linejoin:round;stroke-miterlimit:10;}
	.st4{fill:none;stroke:#E9BC00;stroke-width:2;stroke-linecap:round;stroke-linejoin:round;stroke-miterlimit:10;}
	.st5{font-family:'ArialUnicodeMS';}
	.st6{font-size:25.4px;}
	.st7{enable-background:new    ;}
	.st8{fill:#E9BC00;}
	.st9{fill:none;stroke:#E9BC00;stroke-width:3;stroke-linecap:round;stroke-linejoin:round;stroke-miterlimit:10.0002;}
</style>
<g>
	<g>
		<line class="st0" x1="300.1" y1="300" x2="238.1" y2="150.3"/>
		<line class="st0" x1="300.1" y1="300" x2="150.4" y2="238"/>
		<line class="st0" x1="300.1" y1="300" x2="150.4" y2="362"/>
		<line class="st0" x1="300.1" y1="300" x2="238.1" y2="449.7"/>
		<line class="st0" x1="300.1" y1="300" x2="362.1" y2="449.7"/>
		<line class="st0" x1="300.1" y1="300" x2="449.8" y2="362"/>
		<line class="st0" x1="300.1" y1="300" x2="449.8" y2="238"/>
		<line class="st0" x1="300.1" y1="300" x2="362.1" y2="150.3"/>
	</g>
	<circle class="st1" cx="300.1" cy="300" r="288"/>
	<g>
		<path class="st2" d="M300.1,575.3C148.3,575.3,24.8,451.8,24.8,300S148.3,24.7,300.1,24.7S575.4,148.2,575.4,300
			S451.9,575.3,300.1,575.3z M300.1,35.3C154.1,35.3,35.4,154,35.4,300s118.7,264.7,264.7,264.7S564.8,446,564.8,300
			S446.1,35.3,300.1,35.3z"/>
	</g>
	<g>
		<g>
			<polygon class="st1" points="300.1,138 329.8,248.6 270.5,248.6 			"/>
			<line class="st1" x1="300.1" y1="138" x2="300.1" y2="240.7"/>
		</g>
		<g>
			<polygon class="st1" points="185.6,185.4 284.8,242.7 242.8,284.6 			"/>
			<line class="st1" x1="185.6" y1="185.4" x2="258.2" y2="258.1"/>
		</g>
		<g>
			<polygon class="st1" points="138.1,300 248.8,270.4 248.8,329.6 			"/>
			<line class="st1" x1="138.1" y1="300" x2="240.8" y2="300"/>
		</g>
		<g>
			<polygon class="st1" points="185.6,414.5 242.8,315.4 284.8,357.3 			"/>
			<line class="st1" x1="185.6" y1="414.5" x2="258.2" y2="341.9"/>
		</g>
		<g>
			<polygon class="st1" points="300.1,462 270.5,351.4 329.8,351.4 			"/>
			<line class="st1" x1="300.1" y1="462" x2="300.1" y2="359.3"/>
		</g>
		<g>
			<polygon class="st1" points="414.6,414.6 315.5,357.3 357.4,315.4 			"/>
			<line class="st1" x1="414.6" y1="414.6" x2="342" y2="341.9"/>
		</g>
		<g>
			<polygon class="st1" points="462.1,300 351.5,329.6 351.5,270.4 			"/>
			<line class="st1" x1="462.1" y1="300" x2="359.4" y2="300"/>
		</g>
		<g>
			<polygon class="st1" points="414.7,185.5 357.4,284.6 315.5,242.7 			"/>
			<line class="st1" x1="414.7" y1="185.5" x2="342" y2="258.1"/>
		</g>
	</g>
	<circle class="st3" cx="300.1" cy="300" r="60"/>
	<circle class="st4" cx="300.1" cy="300" r="54"/>
	<circle class="st1" cx="300.1" cy="300" r="162"/>
	<circle class="st1" cx="300.1" cy="300" r="186"/>
	<circle class="st1" cx="300.1" cy="300" r="195"/>
	<g>
		<g>
			<g>
				<path class="st3" d="M438.1,348c26.5,0,48-21.5,48-48c0,19.9-16.1,36-36,36s-36-16.1-36-36s16.1-36,36-36s36,16.1,36,36
					c0-26.5-21.5-48-48-48s-48,21.5-48,48S411.6,348,438.1,348z"/>
			</g>
			<g>
				<path class="st3" d="M444.1,342c23.2,0,42-18.8,42-42c0,19.9-16.1,36-36,36s-36-16.1-36-36s16.1-36,36-36s36,16.1,36,36
					c0-23.2-18.8-42-42-42s-42,18.8-42,42S420.9,342,444.1,342z"/>
			</g>
		</g>
		<g>
			<g>
				<path class="st3" d="M162.1,252c-26.5,0-48,21.5-48,48c0-19.9,16.1-36,36-36s36,16.1,36,36s-16.1,36-36,36s-36-16.1-36-36
					c0,26.5,21.5,48,48,48s48-21.5,48-48S188.6,252,162.1,252z"/>
			</g>
			<g>
				<path class="st3" d="M156.1,258c-23.2,0-42,18.8-42,42c0-19.9,16.1-36,36-36s36,16.1,36,36s-16.1,36-36,36s-36-16.1-36-36
					c0,23.2,18.8,42,42,42s42-18.8,42-42S179.3,258,156.1,258z"/>
			</g>
		</g>
	</g>
	<path class="st1" d="M465.1,495h-330c-16.6,0-30-13.4-30-30V135c0-16.6,13.4-30,30-30h330c16.6,0,30,13.4,30,30v330
		C495.1,481.6,481.7,495,465.1,495z"/>
	<circle class="st1" cx="135.1" cy="135.1" r="30"/>
	<circle class="st1" cx="465.1" cy="135.1" r="30"/>
	<circle class="st1" cx="135.1" cy="465" r="30"/>
	<circle class="st1" cx="465.1" cy="465" r="30"/>
	<text transform="matrix(0.7071 0.7071 -0.7071 0.7071 449.3756 131.3314)" class="st5 st6">♏</text>
	<g class="st7">
		<g>
			<path class="st8" d="M466.8,153.6l0-3.1c-1.6-0.1-2.9-0.7-4-1.7c-1.1-1.1-1.6-2.4-1.6-3.8c0-1.4,0.7-2.8,1.9-4.1l7.3-7.3
				c0.4-0.4,0.6-0.8,0.6-1.4c0-0.5-0.2-1-0.5-1.3c-0.4-0.4-0.8-0.5-1.3-0.5c-0.6,0-1,0.2-1.4,0.6l-10.1,10.1l-2.5-2.5l10.1-10.1
				c0.4-0.4,0.6-0.8,0.6-1.4c0-0.6-0.2-1-0.5-1.3c-0.4-0.4-0.8-0.5-1.3-0.5c-0.6,0-1,0.2-1.4,0.6l-10.1,10.1l-2.5-2.5l10.1-10.1
				c1.4-1.4,1-1.9,0.8-2.1l-0.7-0.7l2.4-2.4l0.7,0.7c0.6,0.6,1,1.3,1.2,2.2c0.1,0.3,0.1,0.6,0.1,0.8c0.3,0,0.6,0.1,1,0.2
				c0.9,0.2,1.6,0.7,2.3,1.3c1.1,1.1,1.6,2.3,1.5,3.7c1.3-0.1,2.6,0.5,3.7,1.5c1,1,1.6,2.3,1.6,3.8c0,1.5-0.5,2.8-1.7,3.9l-7.3,7.3
				c-0.6,0.6-0.9,1.2-1,1.7c0,0.3,0,0.7,0.6,1.3c0.3,0.3,0.5,0.4,0.8,0.6c0.1,0,0.3,0.1,0.7,0.1l0-3l4.8,4.8L466.8,153.6z"/>
		</g>
	</g>
	<text transform="matrix(-0.7071 0.7071 -0.7071 -0.7071 466.0683 451.9713)" class="st5 st6">♌</text>
	<g class="st7">
		<g>
			<path class="st8" d="M466.7,475.7c-0.2,0-0.5,0-0.7,0c-1.6-0.2-3.3-1.1-4.8-2.7c-0.5-0.5-1.1-1.2-1.6-1.9
				c-0.5-0.7-1.1-1.8-1.9-3.3c-0.7-1.5-1.4-2.5-1.9-3.2c-0.5-0.7-1-1.3-1.5-1.8c-0.3-0.3-0.7-0.5-1-0.5c-0.3,0-0.5,0.1-0.7,0.3
				c-0.4,0.4-0.7,0.9-0.8,1.2l-0.3,1.9l-2.6-2.6l0.1-0.5c0.1-0.9,0.5-1.7,1.3-2.4c0.9-0.9,1.9-1.3,3.2-1.3c0,0,0,0,0,0
				c1.3,0,2.4,0.5,3.4,1.5c0.6,0.6,1.1,1.2,1.7,2c0.6,0.8,1.2,1.9,2,3.4c0.7,1.4,1.3,2.5,1.8,3.1c0.5,0.6,0.9,1.2,1.4,1.7
				c1,1,1.9,1.6,2.7,1.7c0.4,0.1,1.1,0.1,1.8-0.7c0.6-0.6,0.8-1.1,0.8-1.7c0-0.6-0.3-1.3-1-1.9c-0.7-0.7-1.8-1.4-3.3-2.2
				c-1.6-0.8-2.7-1.6-3.4-2.3c-1.1-1.1-1.7-2.5-1.7-4c0-1.6,0.6-2.9,1.7-4c1.1-1.1,2.5-1.7,4-1.7c0,0,0,0,0,0c1.6,0,2.9,0.6,4,1.7
				c1.1,1.1,1.7,2.5,1.7,4s-0.6,2.9-1.7,4c-0.2,0.2-0.4,0.4-0.7,0.6c0.7,0.5,1.3,0.9,1.8,1.5c1.3,1.3,1.9,2.7,2,4.3
				c0,1.6-0.6,3-1.9,4.3C469.5,475.1,468.2,475.7,466.7,475.7z M465.3,457.1c-0.6,0-1.1,0.2-1.5,0.6c-0.4,0.4-0.6,0.9-0.6,1.5
				c0,0.6,0.2,1.1,0.7,1.6c0.4,0.4,1,0.7,1.6,0.7c0.6,0,1.1-0.2,1.5-0.6c0.4-0.4,0.6-0.9,0.6-1.5c0-0.6-0.2-1.1-0.7-1.6
				C466.4,457.4,465.9,457.1,465.3,457.1C465.3,457.1,465.3,457.1,465.3,457.1z"/>
		</g>
	</g>
	<text transform="matrix(-0.7071 -0.7071 0.7071 -0.7071 148.142 465.9706)" class="st5 st6">♉</text>
	<g class="st7">
		<g>
			<path class="st8" d="M134.9,479.4l-0.7-0.7c-0.8-0.8-1.4-1.7-1.7-2.6c-0.3-0.9-0.4-1.7-0.4-2.6c0-0.7,0.1-1.6,0.3-2.6
				c0.3-1.6,0.2-2.2,0.2-2.3c-0.1-0.3-0.2-0.5-0.3-0.6c-0.1-0.1-0.3-0.2-0.6-0.3c-0.1,0-0.6-0.1-2.3,0.2c-1,0.2-1.9,0.3-2.6,0.3
				c-0.8,0-1.7-0.1-2.6-0.4c-0.9-0.3-1.8-0.9-2.6-1.7l-0.7-0.7l2.5-2.5l0.7,0.7c0.4,0.4,0.9,0.7,1.4,0.9c0.5,0.2,1,0.2,1.4,0.2
				c0.5,0,1.2-0.1,2-0.2c0.6-0.1,1.1-0.2,1.6-0.2c-0.1-0.8-0.1-1.7,0.1-2.5c0.3-1.3,0.9-2.4,1.8-3.4c1.3-1.3,3-2,4.8-2
				c1.9,0,3.5,0.7,4.8,2c1.3,1.3,2,3,2,4.8c0,1.9-0.7,3.5-2,4.8c-0.9,0.9-2.1,1.6-3.4,1.8c-0.8,0.2-1.7,0.2-2.5,0.1
				c0,0.5-0.1,1-0.2,1.6c-0.1,0.8-0.2,1.5-0.2,2c0,0.4,0.1,0.9,0.2,1.4c0.2,0.5,0.5,0.9,0.9,1.4l0.7,0.7L134.9,479.4z M137.1,459.7
				C137.1,459.7,137.1,459.7,137.1,459.7c-1,0-1.8,0.3-2.4,1c-0.7,0.7-1,1.5-1,2.4c0,0.9,0.3,1.7,1,2.4c0.7,0.7,1.4,0.9,2.4,1
				c0.9,0,1.7-0.3,2.4-1s1-1.5,1-2.4c0-0.9-0.3-1.7-1-2.3C138.8,460.1,138,459.7,137.1,459.7z"/>
		</g>
	</g>
	<text transform="matrix(0.7071 -0.7071 0.7071 0.7071 132.8675 149.3031)" class="st5 st6">♒</text>
	<g class="st7">
		<g>
			<path class="st8" d="M131.6,148.2l-2.4-2.4l0.7-0.7c0,0,0-0.1,0-0.1c0,0,0-0.3-0.3-1.1c-0.4-1.2-0.5-2.1-0.3-2.8
				c0.2-0.7,0.5-1.2,0.9-1.7c0.5-0.5,1-0.8,1.7-0.9c0.7-0.2,1.5,0,2.8,0.3c0.9,0.3,1.1,0.3,1.2,0.3c0,0,0.1,0,0.1,0c0,0,0-0.1,0-0.1
				l0,0c0,0,0-0.3-0.3-1.2c-0.4-1.2-0.5-2.1-0.3-2.8c0.1-0.7,0.5-1.2,0.9-1.7c0.5-0.5,1-0.8,1.7-0.9c0.7-0.1,1.5,0,2.8,0.3
				c0.9,0.3,1.1,0.3,1.1,0.3c0.1,0,0.1,0,0.1,0c0,0,0-0.1,0-0.1c0,0,0-0.3-0.3-1.1c-0.4-1.2-0.5-2.1-0.3-2.8
				c0.1-0.7,0.5-1.2,0.9-1.7l0.7-0.7l2.4,2.4l-0.7,0.7c0,0,0,0.1,0,0.1l0,0c0,0,0,0.3,0.3,1.1c0.4,1.2,0.5,2.1,0.3,2.8
				c-0.1,0.7-0.5,1.2-0.9,1.7c-0.5,0.5-1,0.8-1.7,0.9c-0.7,0.2-1.5,0-2.8-0.3c-0.9-0.3-1.1-0.2-1.2-0.2c0,0-0.1,0-0.1,0
				c0,0,0,0.1,0,0.1l0,0c0,0,0,0.3,0.3,1.1c0.4,1.2,0.5,2.1,0.3,2.8c-0.2,0.7-0.5,1.2-0.9,1.7c-0.5,0.5-1,0.8-1.7,0.9
				c-0.7,0.2-1.5,0-2.8-0.3c-0.9-0.3-1.1-0.3-1.2-0.3c0,0-0.1,0-0.1,0c0,0,0,0.1,0,0.1l0,0c0,0,0,0.3,0.3,1.2
				c0.4,1.2,0.5,2.1,0.3,2.8c-0.2,0.7-0.5,1.2-0.9,1.7L131.6,148.2z M126.1,142.7l-2.4-2.4l0.7-0.7c0,0,0-0.1,0-0.1
				c0,0,0-0.3-0.3-1.1c-0.4-1.2-0.5-2.1-0.3-2.8c0.2-0.7,0.5-1.2,0.9-1.7c0.5-0.5,1-0.8,1.7-0.9c0.7-0.2,1.5,0,2.8,0.3
				c0.9,0.3,1.1,0.3,1.2,0.3c0,0,0.1,0,0.1,0c0,0,0-0.1,0-0.1c0,0,0-0.3-0.3-1.2c-0.4-1.2-0.5-2.1-0.3-2.8c0.1-0.7,0.5-1.2,0.9-1.7
				c0.5-0.5,1-0.8,1.7-0.9c0.7-0.2,1.5,0,2.8,0.3c0.9,0.3,1.1,0.3,1.1,0.3c0.1,0,0.1,0,0.1,0c0,0,0-0.1,0-0.1l0,0c0,0,0-0.3-0.3-1.1
				c-0.4-1.2-0.5-2.1-0.3-2.8c0.2-0.7,0.5-1.2,0.9-1.7l0.7-0.7l2.4,2.4l-0.7,0.7c0,0,0,0.1,0,0.1c0,0,0,0.3,0.3,1.1
				c0.4,1.2,0.5,2.1,0.3,2.8c-0.2,0.7-0.5,1.2-0.9,1.7c-0.5,0.5-1,0.8-1.7,0.9c-0.7,0.1-1.5,0-2.8-0.3c-0.9-0.3-1.1-0.2-1.2-0.2
				c0,0-0.1,0-0.1,0c0,0,0,0.1,0,0.1c0,0,0,0.3,0.3,1.1c0.4,1.2,0.5,2.1,0.3,2.8c-0.2,0.7-0.5,1.2-0.9,1.7c-0.5,0.5-1,0.8-1.7,0.9
				c-0.7,0.2-1.5,0-2.8-0.3c-0.9-0.3-1.1-0.3-1.2-0.3c0,0-0.1,0-0.1,0c0,0,0,0.1,0,0.1c0,0,0,0.3,0.3,1.2c0.4,1.2,0.5,2.1,0.3,2.8
				c-0.1,0.7-0.5,1.2-0.9,1.7L126.1,142.7z"/>
		</g>
	</g>
	<path class="st1" d="M540.5,386.4l-285.8,165c-14.4,8.3-32.7,3.4-41-11l-165-285.8c-8.3-14.4-3.4-32.7,11-41l285.8-165
		c14.4-8.3,32.7-3.4,41,11l165,285.8C559.8,359.7,554.8,378.1,540.5,386.4z"/>
	<circle class="st1" cx="74.7" cy="239.6" r="30"/>
	<circle class="st1" cx="360.5" cy="74.7" r="30"/>
	<circle class="st1" cx="239.7" cy="525.3" r="30"/>
	<circle class="st1" cx="525.4" cy="360.4" r="30"/>
	<text transform="matrix(0.9659 0.2588 -0.2588 0.9659 348.4289 80.2019)" class="st5 st6">♐</text>
	<g class="st7">
		<g>
			<polygon class="st8" points="350.3,82.2 348.5,79.1 356.9,74.2 354.6,70.1 357.7,68.4 360,72.5 365.8,69.1 362.2,68.1 
				363.1,64.7 372.6,67.3 370,76.7 366.6,75.8 367.6,72.2 361.8,75.5 364.2,79.6 361.1,81.4 358.7,77.3 			"/>
		</g>
	</g>
	<text transform="matrix(-0.2588 0.9659 -0.9659 -0.2588 520.8025 344.9465)" class="st5 st6">♍</text>
	<g class="st7">
		<g>
			<path class="st8" d="M528.5,374.2c-0.5,0-1.1-0.1-1.6-0.2l-5.2-1.4c-5.4-1.5-8.2-4.4-8.2-8.7l-2.7-0.7l0.9-3.4l2.2,0.6
				c0.1-0.2,0.1-0.5,0.2-0.7l0.3-1l3.4,0.9l-0.3,1c-0.1,0.3-0.1,0.5-0.2,0.7l12.2,3.3c0.5,0.1,1,0.1,1.5-0.2
				c0.5-0.3,0.8-0.6,0.9-1.1c0.1-0.5,0.1-0.9-0.2-1.4c-0.3-0.5-0.7-0.8-1.2-0.9l-13.8-3.7l0.9-3.4l13.8,3.7c0.5,0.1,1,0.1,1.5-0.2
				c0.5-0.3,0.8-0.6,0.9-1.1c0.1-0.5,0.1-0.9-0.2-1.4c-0.3-0.5-0.7-0.8-1.2-0.9l-13.8-3.7l0.9-3.4l13.8,3.7c1,0.3,1.5,0.2,1.7,0.1
				c0.2-0.1,0.3-0.2,0.4-0.5l0.3-1l3.3,0.9l-0.3,1c-0.2,0.8-0.7,1.5-1.3,2.1c-0.2,0.2-0.4,0.4-0.7,0.5c0.1,0.3,0.3,0.6,0.4,0.9
				c0.2,0.9,0.2,1.7,0,2.6c-0.4,1.5-1.2,2.5-2.4,3.1c0.7,1.1,0.9,2.5,0.5,3.9c-0.4,1.4-1.2,2.5-2.3,3.2c0.2,0.3,0.4,0.6,0.5,0.9
				c0.3,0.7,0.3,1.6,0.1,2.5c-0.4,1.4-1.2,2.4-2.6,3C530,374,529.3,374.2,528.5,374.2z M522.5,369.1l5.2,1.4c0.6,0.2,1.2,0.2,1.6,0
				c0.4-0.1,0.6-0.4,0.7-0.8c0.1-0.4,0.1-0.7-0.2-1c-0.3-0.4-0.8-0.7-1.4-0.8l-11.5-3.1C517.4,366.8,519.3,368.3,522.5,369.1
				L522.5,369.1z"/>
		</g>
	</g>
	<text transform="matrix(-0.9659 -0.2588 0.2588 -0.9659 250.9209 519.5642)" class="st5 st6">♊</text>
	<g class="st7">
		<g>
			<path class="st8" d="M246.1,537.9l-1.1-0.5c-2.3-1-4.9-1.9-7.9-2.7c-3-0.8-5.7-1.3-8.1-1.6l-1.1-0.1l0.9-3.3l0.8,0.1
				c0.5,0,1.3,0.2,2.6,0.4l3.2-11.9c-1.1-0.4-1.9-0.7-2.4-0.9l-0.8-0.3l0.9-3.3l1.1,0.5c2.3,1,4.9,1.9,7.9,2.7
				c3,0.8,5.7,1.3,8.1,1.6l1.1,0.1l-0.9,3.3l-0.8-0.1c-0.6-0.1-1.4-0.2-2.6-0.4l-3.2,11.9c1.2,0.4,2,0.7,2.4,1l0.8,0.4L246.1,537.9z
				 M235.7,530.8c0.7,0.2,1.5,0.4,2.4,0.6c0.6,0.2,1.4,0.4,2.4,0.7l3.1-11.5c-0.7-0.2-1.6-0.4-2.4-0.6c-0.6-0.2-1.4-0.4-2.4-0.7
				L235.7,530.8z"/>
		</g>
	</g>
	<text transform="matrix(0.2588 -0.9659 0.9659 0.2588 80.6719 250.337)" class="st5 st6">♓</text>
	<g class="st7">
		<g>
			<path class="st8" d="M81.8,250l-1.2-1.1c-1.5-1.3-3.5-2.4-6.1-3.3l-0.8,3l-3.3-0.9l0.8-3c-2.6-0.5-4.9-0.6-6.9-0.2l-1.6,0.3
				l1-3.6l0.6-0.1c2.2-0.4,4.8-0.4,7.8,0.2l1.2-4.6c-2.9-1-5.2-2.3-6.9-3.7l-0.5-0.4l1-3.6l1.2,1c1.5,1.3,3.6,2.4,6.1,3.3l0.8-3
				l3.3,0.9l-0.8,3c2.6,0.5,4.9,0.5,6.9,0.2l1.6-0.3l-1,3.6l-0.6,0.1c-2.1,0.4-4.8,0.4-7.8-0.2l-1.2,4.6c2.9,1,5.2,2.3,6.9,3.7
				l0.5,0.4L81.8,250z"/>
		</g>
	</g>
	<path class="st1" d="M551.5,254.6l-165,285.8c-8.3,14.3-26.6,19.3-41,11l-285.8-165c-14.3-8.3-19.3-26.6-11-41l165-285.8
		c8.3-14.3,26.6-19.3,41-11l285.8,165C554.8,221.9,559.8,240.3,551.5,254.6z"/>
	<circle class="st1" cx="74.8" cy="360.4" r="30"/>
	<ellipse transform="matrix(0.3162 -0.9487 0.9487 0.3162 93.0914 278.4961)" class="st9" cx="239.7" cy="74.7" rx="30" ry="30"/>
	<circle class="st1" cx="360.5" cy="525.4" r="30"/>
	<circle class="st1" cx="525.4" cy="239.6" r="30"/>
	<text transform="matrix(0.9659 -0.2588 0.2588 0.9659 231.2723 85.7002)" class="st5 st6">♑</text>
	<g class="st7">
		<g>
			<path class="st8" d="M238.8,88.1l-12.7-19.5l2.9-2l6.8,10.4l0.4-10.1l1.3,0.5c0.7,0.3,1.3,0.5,1.9,0.7c-0.1-0.9,0.1-1.8,0.6-2.7
				c0.6-1.1,1.5-1.8,2.8-2.1c1.2-0.3,2.4-0.2,3.4,0.5c1.1,0.6,1.8,1.6,2.1,2.8c0.4,1.4,0.2,2.6-0.4,3.6c-0.4,0.6-0.9,1.1-1.5,1.4
				c0,0,0,0,0,0c1.7,1.1,2.8,2.1,3.4,2.8c0.6,0.8,1,1.5,1.2,2.3c0.5,2,0.3,3.9-0.6,5.4c-0.9,1.5-2.4,2.6-4.2,3.1l-1,0.3l-0.9-3.3
				l0.9-0.3c1-0.3,1.7-0.8,2.1-1.6c0.4-0.8,0.5-1.7,0.2-2.7c-0.1-0.4-0.4-0.9-0.8-1.4c-0.3-0.4-1-1-2.7-2.2
				c-1.1-0.8-1.9-1.4-2.4-1.8c-0.7-0.1-1.5-0.3-2.2-0.5L238.8,88.1z M243.9,66.5c-0.1,0-0.2,0-0.2,0c-0.3,0.1-0.4,0.2-0.6,0.5
				c-0.1,0.3-0.2,0.5-0.1,0.9c0.1,0.3,0.2,0.6,0.4,0.9c0.4,0,0.7-0.1,0.8-0.1c0.3-0.1,0.5-0.2,0.6-0.4c0.1-0.1,0.2-0.4,0.1-0.9
				c-0.1-0.3-0.2-0.5-0.5-0.7C244.2,66.5,244.1,66.5,243.9,66.5z"/>
		</g>
	</g>
	<text transform="matrix(0.2588 0.9659 -0.9659 0.2588 514.3168 230.8334)" class="st5 st6">♎</text>
	<g>
		<g>
			
				<rect x="516.2" y="230.1" transform="matrix(0.9659 -0.2588 0.2588 0.9659 -44.8868 142.2782)" class="st8" width="3.5" height="23.1"/>
		</g>
		<g>
			<path class="st8" d="M525.3,251.6l-2.9-10.7l1.4-0.4l0-0.1l0.1,0.1l1.4-0.4l0.4,0.4c0.6,0.7,1.3,1.1,1.9,1.3
				c0.6,0.2,1.3,0.2,2.3-0.1c0.9-0.2,1.5-0.7,1.8-1.4c0.4-0.7,0.4-1.6,0.2-2.5c-0.3-1-0.7-1.7-1.4-2.1c-0.7-0.4-1.4-0.5-2.3-0.3
				c-0.9,0.2-1.6,0.6-2,1.1c-0.4,0.5-0.8,1.2-1,2.1l-0.1,0.6l-1.4,0.4l-0.1,0.2l0-0.1l-1.4,0.4l-2.9-10.7l3.4-0.9l1.5,5.5
				c0.8-0.9,1.9-1.5,3.2-1.9c1.8-0.5,3.5-0.2,5,0.7c1.5,0.9,2.5,2.3,3,4.2l0,0c0.5,1.8,0.3,3.5-0.5,5.1c-0.8,1.6-2.2,2.6-4,3.1
				c-1.3,0.4-2.6,0.4-3.7,0l1.5,5.5L525.3,251.6z"/>
		</g>
	</g>
	<text transform="matrix(-0.9659 0.2588 -0.2588 -0.9659 369.1681 514.2367)" class="st5 st6">♋</text>
	<g class="st7">
		<g>
			<path class="st8" d="M355.9,536c-1.5,0-2.8-0.1-3.7-0.4l-0.5-0.2l-0.9-3.5l1.6,0.4c1.2,0.3,2.9,0.4,5,0.3
				c2.1-0.1,3.8-0.3,5.2-0.7c0.1,0,0.2,0,0.3-0.1c-0.1-0.1-0.2-0.2-0.3-0.3c-0.6-0.7-1.1-1.5-1.3-2.4c-0.4-1.5-0.2-3,0.6-4.3
				s1.9-2.3,3.5-2.7c1.5-0.4,3-0.2,4.3,0.6c1.4,0.8,2.3,1.9,2.7,3.5c0.3,1.2,0.2,2.5-0.3,3.7c-0.5,1.3-1.6,2.4-3.1,3.3
				c-1.5,0.8-3.2,1.6-5.3,2.1c-1.6,0.4-3.5,0.7-5.8,0.8C357,536,356.5,536,355.9,536z M366.7,525.3c-0.2,0-0.4,0-0.6,0.1l0,0
				c-0.6,0.2-1,0.5-1.3,1c-0.3,0.6-0.4,1.1-0.2,1.7c0.2,0.6,0.5,1,1,1.4c0.5,0.3,1.1,0.4,1.6,0.2c0.6-0.2,1-0.5,1.3-1
				c0.3-0.6,0.4-1.1,0.2-1.7c-0.2-0.6-0.5-1-1-1.4C367.4,525.4,367,525.3,366.7,525.3z M354.5,529.6c-1,0-1.9-0.3-2.8-0.8
				c-1.4-0.8-2.3-2-2.7-3.5c-0.3-1.2-0.2-2.5,0.3-3.7c0.5-1.3,1.6-2.4,3.1-3.3c1.5-0.8,3.2-1.6,5.3-2.1c1.6-0.4,3.5-0.7,5.8-0.8
				c2.4-0.1,4.1,0,5.4,0.3l0.5,0.2l0.9,3.5l-1.6-0.3c-1.2-0.3-2.9-0.3-5-0.2c-2.1,0.1-3.8,0.3-5.3,0.7c-0.1,0-0.2,0-0.3,0.1
				c0.1,0.1,0.2,0.2,0.3,0.3c0.6,0.7,1.1,1.5,1.3,2.4c0.4,1.5,0.2,3-0.6,4.3c-0.8,1.4-1.9,2.3-3.5,2.7
				C355.4,529.5,354.9,529.6,354.5,529.6z M354.5,521.7c-0.2,0-0.4,0-0.6,0.1l0,0c-0.6,0.2-1,0.5-1.3,1c-0.3,0.6-0.4,1.1-0.2,1.7
				c0.2,0.6,0.5,1,1,1.4c0.5,0.3,1.1,0.4,1.6,0.2c0.6-0.2,1-0.5,1.3-1c0.3-0.6,0.4-1.1,0.2-1.7c-0.2-0.6-0.5-1-1-1.4
				C355.2,521.8,354.8,521.7,354.5,521.7z"/>
		</g>
	</g>
	<text transform="matrix(-0.2588 -0.9659 0.9659 -0.2588 85.7072 368.4532)" class="st5 st6">♈</text>
	<g class="st7">
		<g>
			<path class="st8" d="M71.5,372c-1,0-1.9-0.2-2.8-0.7c-1.4-0.8-2.4-2-2.9-3.7c-0.4-1.3-0.3-2.6,0.3-3.9c0.2-0.5,0.5-0.9,0.8-1.3
				c-0.5-0.2-0.9-0.4-1.3-0.7c-1.1-0.8-1.8-1.9-2.2-3.2c-0.4-1.7-0.2-3.2,0.6-4.6c0.9-1.4,2.1-2.3,3.8-2.7c1.9-0.5,3.6-0.3,5,0.5
				c1.4,0.8,2.4,2.2,2.9,4l0.3,1l-3.3,0.9l-0.3-1c-0.2-0.9-0.7-1.5-1.3-1.9c-0.6-0.4-1.4-0.4-2.3-0.2c-0.8,0.2-1.4,0.6-1.8,1.2
				c-0.3,0.6-0.4,1.2-0.2,1.9c0.2,0.8,0.7,1.3,1.5,1.6c0.9,0.4,2.1,0.4,3.4,0l11.8-3.2l0.9,3.4l-11.8,3.2c-1.3,0.3-2.3,0.9-2.9,1.7
				c-0.6,0.7-0.7,1.4-0.5,2.2c0.2,0.7,0.6,1.3,1.2,1.6c0.6,0.3,1.3,0.4,2.2,0.1c1-0.3,1.6-0.7,2-1.3c0.4-0.6,0.4-1.4,0.2-2.2l-0.3-1
				l3.3-0.9l0.3,1c0.5,1.8,0.3,3.5-0.5,4.9c-0.8,1.4-2.2,2.4-4.1,2.9C72.7,372,72.1,372,71.5,372z"/>
		</g>
	</g>
	<path class="st8" d="M577.5,56.5c-15.1-10.4-18.9-10.4-33.9,0c10.4-15.1,10.4-18.9,0-33.9c15.1,10.4,18.9,10.4,33.9,0
		C567.1,37.7,567.1,41.5,577.5,56.5z"/>
	<g>
		<path class="st8" d="M324.1,300c-18,3.3-20.7,6-24,24c-3.3-18-6-20.7-24-24c18-3.3,20.7-6,24-24C303.4,294,306.1,296.7,324.1,300z
			"/>
		<line class="st1" x1="300.1" y1="269" x2="300.1" y2="246"/>
		<line class="st1" x1="269.1" y1="300" x2="246.1" y2="300"/>
		<line class="st1" x1="300.1" y1="331" x2="300.1" y2="354"/>
		<line class="st1" x1="331.1" y1="300" x2="354.1" y2="300"/>
	</g>
	<line class="st1" x1="503.8" y1="96.3" x2="537.8" y2="62.3"/>
	<path class="st8" d="M56.6,22.6c-10.4,15.1-10.4,18.9,0,33.9c-15.1-10.4-18.9-10.4-33.9,0c10.4-15.1,10.4-18.9,0-33.9
		C37.8,33,41.6,33,56.6,22.6z"/>
	<line class="st1" x1="96.4" y1="96.3" x2="62.5" y2="62.3"/>
	<path class="st8" d="M22.7,543.5c15.1,10.4,18.9,10.4,33.9,0c-10.4,15.1-10.4,18.9,0,33.9c-15.1-10.4-18.9-10.4-33.9,0
		C33.1,562.3,33.1,558.5,22.7,543.5z"/>
	<line class="st1" x1="96.4" y1="503.7" x2="62.5" y2="537.7"/>
	<path class="st8" d="M543.6,577.4c10.4-15.1,10.4-18.9,0-33.9c15.1,10.4,18.9,10.4,33.9,0c-10.4,15.1-10.4,18.9,0,33.9
		C562.5,567,558.7,567,543.6,577.4z"/>
	<line class="st1" x1="503.8" y1="503.7" x2="537.8" y2="537.7"/>
</g>
</svg>
