<?xml version="1.0" encoding="utf-8"?>
<!-- Generator: Adobe Illustrator 26.3.1, SVG Export Plug-In . SVG Version: 6.00 Build 0)  -->
<svg version="1.1" id="레이어_1" xmlns="http://www.w3.org/2000/svg" xmlns:xlink="http://www.w3.org/1999/xlink" x="0px"
	 y="0px" viewBox="0 0 600 600" style="enable-background:new 0 0 600 600;" xml:space="preserve">
<style type="text/css">
	.st0{fill:none;stroke:#231815;stroke-width:8;stroke-miterlimit:10;}
	.st1{fill:none;stroke:#231815;stroke-width:3;stroke-linecap:round;stroke-linejoin:round;stroke-miterlimit:10;}
	.st2{fill:#FFFFFF;stroke:#231815;stroke-width:3;stroke-miterlimit:10;}
	.st3{fill:#FFFFFF;stroke:#231815;stroke-linecap:round;stroke-linejoin:round;stroke-miterlimit:10;}
	.st4{fill:#FFFFFF;stroke:#231815;stroke-width:2;stroke-linecap:round;stroke-linejoin:round;stroke-miterlimit:10;}
	.st5{fill:#FFFFFF;stroke:#231815;stroke-width:3;stroke-linecap:round;stroke-linejoin:round;stroke-miterlimit:10;}
	.st6{font-family:'ArialUnicodeMS';}
	.st7{font-size:25.4px;}
	.st8{fill:none;stroke:#231815;stroke-width:2;stroke-miterlimit:9.9999;}
	.st9{fill:none;stroke:#231815;stroke-width:2;stroke-miterlimit:9.9997;}
	.st10{fill:#231815;}
</style>
<g>
	<g>
		<line class="st0" x1="300.11" y1="300" x2="238.11" y2="150.33"/>
		<line class="st0" x1="300.11" y1="300" x2="150.44" y2="238.01"/>
		<line class="st0" x1="300.11" y1="300" x2="150.44" y2="361.99"/>
		<line class="st0" x1="300.11" y1="300" x2="238.11" y2="449.67"/>
		<line class="st0" x1="300.11" y1="300" x2="362.1" y2="449.67"/>
		<line class="st0" x1="300.11" y1="300" x2="449.78" y2="361.99"/>
		<line class="st0" x1="300.11" y1="300" x2="449.78" y2="238.01"/>
		<line class="st0" x1="300.11" y1="300" x2="362.1" y2="150.33"/>
	</g>
	<circle class="st1" cx="300.11" cy="300" r="288"/>
	<g>
		<path class="st2" d="M300.11,575.29c-151.8,0-275.29-123.5-275.29-275.29S148.31,24.71,300.11,24.71S575.4,148.2,575.4,300
			S451.9,575.29,300.11,575.29z M300.11,35.29C154.15,35.29,35.4,154.04,35.4,300s118.75,264.71,264.71,264.71
			S564.82,445.96,564.82,300S446.07,35.29,300.11,35.29z"/>
	</g>
	<g>
		<g>
			<polygon class="st1" points="300.12,138 329.75,248.65 270.46,248.65 			"/>
			<line class="st1" x1="300.12" y1="138" x2="300.12" y2="240.71"/>
		</g>
		<g>
			<polygon class="st1" points="185.56,185.44 284.76,242.73 242.84,284.65 			"/>
			<line class="st1" x1="185.56" y1="185.44" x2="258.19" y2="258.07"/>
		</g>
		<g>
			<polygon class="st1" points="138.11,299.99 248.76,270.35 248.76,329.65 			"/>
			<line class="st1" x1="138.11" y1="299.99" x2="240.82" y2="299.99"/>
		</g>
		<g>
			<polygon class="st1" points="185.55,414.54 242.84,315.35 284.76,357.27 			"/>
			<line class="st1" x1="185.55" y1="414.54" x2="258.18" y2="341.92"/>
		</g>
		<g>
			<polygon class="st1" points="300.1,462 270.46,351.35 329.75,351.35 			"/>
			<line class="st1" x1="300.1" y1="462" x2="300.1" y2="359.29"/>
		</g>
		<g>
			<polygon class="st1" points="414.65,414.56 315.45,357.27 357.38,315.35 			"/>
			<line class="st1" x1="414.65" y1="414.56" x2="342.03" y2="341.93"/>
		</g>
		<g>
			<polygon class="st1" points="462.11,300.01 351.46,329.65 351.46,270.35 			"/>
			<line class="st1" x1="462.11" y1="300.01" x2="359.4" y2="300.01"/>
		</g>
		<g>
			<polygon class="st1" points="414.67,185.46 357.38,284.65 315.45,242.73 			"/>
			<line class="st1" x1="414.67" y1="185.46" x2="342.04" y2="258.08"/>
		</g>
	</g>
	<circle class="st3" cx="300.11" cy="300" r="60"/>
	<circle class="st4" cx="300.11" cy="300" r="54"/>
	<circle class="st1" cx="300.11" cy="300" r="162"/>
	<circle class="st1" cx="300.11" cy="300" r="186"/>
	<circle class="st1" cx="300.11" cy="300" r="195"/>
	<g>
		<g>
			<g>
				<path class="st5" d="M438.11,348c26.51,0,48-21.49,48-48c0,19.88-16.12,36-36,36s-36-16.12-36-36s16.12-36,36-36s36,16.12,36,36
					c0-26.51-21.49-48-48-48s-48,21.49-48,48S411.6,348,438.11,348z"/>
			</g>
			<g>
				<path class="st5" d="M444.11,342c23.2,0,42-18.8,42-42c0,19.88-16.12,36-36,36s-36-16.12-36-36s16.12-36,36-36s36,16.12,36,36
					c0-23.2-18.8-42-42-42s-42,18.8-42,42S420.91,342,444.11,342z"/>
			</g>
		</g>
		<g>
			<g>
				<path class="st5" d="M162.11,252c-26.51,0-48,21.49-48,48c0-19.88,16.12-36,36-36s36,16.12,36,36s-16.12,36-36,36
					s-36-16.12-36-36c0,26.51,21.49,48,48,48s48-21.49,48-48S188.62,252,162.11,252z"/>
			</g>
			<g>
				<path class="st5" d="M156.11,258c-23.2,0-42,18.8-42,42c0-19.88,16.12-36,36-36s36,16.12,36,36s-16.12,36-36,36s-36-16.12-36-36
					c0,23.2,18.8,42,42,42s42-18.8,42-42S179.3,258,156.11,258z"/>
			</g>
		</g>
	</g>
	<path class="st1" d="M465.11,495h-330c-16.57,0-30-13.43-30-30V135c0-16.57,13.43-30,30-30h330c16.57,0,30,13.43,30,30v330
		C495.11,481.57,481.68,495,465.11,495z"/>
	<circle class="st1" cx="135.11" cy="135.05" r="30"/>
	<circle class="st1" cx="465.07" cy="135.05" r="30"/>
	<circle class="st1" cx="135.11" cy="464.95" r="30"/>
	<circle class="st1" cx="465.07" cy="464.95" r="30"/>
	<text transform="matrix(0.7071 0.7071 -0.7071 0.7071 449.3758 131.3315)" class="st6 st7">♏</text>
	<text transform="matrix(0.7071 0.7071 -0.7071 0.7071 449.3758 131.3315)" class="st8 st6 st7">♏</text>
	<text transform="matrix(-0.7071 0.7071 -0.7071 -0.7071 466.0674 451.9715)" class="st6 st7">♌</text>
	<text transform="matrix(-0.7071 0.7071 -0.7071 -0.7071 466.0674 451.9715)" class="st8 st6 st7">♌</text>
	<text transform="matrix(-0.7071 -0.7071 0.7071 -0.7071 148.1418 465.9697)" class="st6 st7">♉</text>
	<text transform="matrix(-0.7071 -0.7071 0.7071 -0.7071 148.1418 465.9697)" class="st8 st6 st7">♉</text>
	<text transform="matrix(0.7071 -0.7071 0.7071 0.7071 132.8674 149.3029)" class="st6 st7">♒</text>
	<text transform="matrix(0.7071 -0.7071 0.7071 0.7071 132.8674 149.3029)" class="st8 st6 st7">♒</text>
	<path class="st1" d="M540.5,386.37l-285.79,165c-14.35,8.28-32.7,3.37-40.98-10.98l-165-285.79c-8.28-14.35-3.37-32.7,10.98-40.98
		l285.79-165c14.35-8.28,32.7-3.37,40.98,10.98l165,285.79C559.77,359.74,554.85,378.09,540.5,386.37z"/>
	<circle class="st1" cx="74.74" cy="239.65" r="30"/>
	<circle class="st1" cx="360.5" cy="74.67" r="30"/>
	<circle class="st1" cx="239.69" cy="525.35" r="30"/>
	<circle class="st1" cx="525.44" cy="360.37" r="30"/>
	<text transform="matrix(0.9659 0.2588 -0.2588 0.9659 348.4289 80.202)" class="st6 st7">♐</text>
	<text transform="matrix(0.9659 0.2588 -0.2588 0.9659 348.4289 80.202)" class="st9 st6 st7">♐</text>
	<text transform="matrix(-0.2588 0.9659 -0.9659 -0.2588 520.8033 344.9464)" class="st6 st7">♍</text>
	<text transform="matrix(-0.2588 0.9659 -0.9659 -0.2588 520.8033 344.9464)" class="st9 st6 st7">♍</text>
	<text transform="matrix(-0.9659 -0.2588 0.2588 -0.9659 250.921 519.5651)" class="st6 st7">♊</text>
	<text transform="matrix(-0.9659 -0.2588 0.2588 -0.9659 250.921 519.5651)" class="st9 st6 st7">♊</text>
	<text transform="matrix(0.2588 -0.9659 0.9659 0.2588 80.6718 250.337)" class="st6 st7">♓</text>
	<text transform="matrix(0.2588 -0.9659 0.9659 0.2588 80.6718 250.337)" class="st9 st6 st7">♓</text>
	<path class="st1" d="M551.48,254.61l-165,285.79c-8.28,14.35-26.63,19.27-40.98,10.98l-285.79-165
		c-14.35-8.28-19.27-26.63-10.98-40.98l165-285.79c8.28-14.35,26.63-19.27,40.98-10.98l285.79,165
		C554.85,221.91,559.77,240.26,551.48,254.61z"/>
	<circle class="st1" cx="74.76" cy="360.42" r="30"/>
	
		<ellipse transform="matrix(0.1602 -0.9871 0.9871 0.1602 127.6321 299.3535)" class="st1" cx="239.74" cy="74.67" rx="30" ry="30"/>
	<circle class="st1" cx="360.46" cy="525.37" r="30"/>
	<circle class="st1" cx="525.44" cy="239.61" r="30"/>
	<text transform="matrix(0.9659 -0.2588 0.2588 0.9659 231.2723 85.7002)" class="st6 st7">♑</text>
	<text transform="matrix(0.9659 -0.2588 0.2588 0.9659 231.2723 85.7002)" class="st9 st6 st7">♑</text>
	<text transform="matrix(0.2588 0.9659 -0.9659 0.2588 514.3168 230.8334)" class="st6 st7">♎</text>
	<text transform="matrix(0.2588 0.9659 -0.9659 0.2588 514.3168 230.8334)" class="st9 st6 st7">♎</text>
	<text transform="matrix(-0.9659 0.2588 -0.2588 -0.9659 369.1688 514.2368)" class="st6 st7">♋</text>
	<text transform="matrix(-0.9659 0.2588 -0.2588 -0.9659 369.1688 514.2368)" class="st9 st6 st7">♋</text>
	<text transform="matrix(-0.2588 -0.9659 0.9659 -0.2588 85.7072 368.454)" class="st6 st7">♈</text>
	<text transform="matrix(-0.2588 -0.9659 0.9659 -0.2588 85.7072 368.454)" class="st9 st6 st7">♈</text>
	<path class="st10" d="M577.52,56.52c-15.07-10.38-18.87-10.38-33.94,0c10.38-15.07,10.38-18.87,0-33.94
		c15.07,10.38,18.87,10.38,33.94,0C567.14,37.65,567.14,41.45,577.52,56.52z"/>
	<g>
		<path class="st10" d="M324.11,300c-18,3.31-20.69,6-24,24c-3.31-18-6-20.69-24-24c18-3.31,20.69-6,24-24
			C303.42,294,306.11,296.69,324.11,300z"/>
		<line class="st1" x1="300.11" y1="269" x2="300.11" y2="246"/>
		<line class="st1" x1="269.11" y1="300" x2="246.11" y2="300"/>
		<line class="st1" x1="300.11" y1="331" x2="300.11" y2="354"/>
		<line class="st1" x1="331.11" y1="300" x2="354.11" y2="300"/>
	</g>
	<line class="st1" x1="503.83" y1="96.28" x2="537.77" y2="62.34"/>
	<path class="st10" d="M56.63,22.58c-10.38,15.07-10.38,18.87,0,33.94c-15.07-10.38-18.87-10.38-33.94,0
		c10.38-15.07,10.38-18.87,0-33.94C37.76,32.97,41.56,32.97,56.63,22.58z"/>
	<line class="st1" x1="96.39" y1="96.28" x2="62.45" y2="62.34"/>
	<path class="st10" d="M22.69,543.48c15.07,10.38,18.87,10.38,33.94,0c-10.38,15.07-10.38,18.87,0,33.94
		c-15.07-10.38-18.87-10.38-33.94,0C33.08,562.35,33.08,558.55,22.69,543.48z"/>
	<line class="st1" x1="96.39" y1="503.72" x2="62.45" y2="537.66"/>
	<path class="st10" d="M543.58,577.42c10.38-15.07,10.38-18.87,0-33.94c15.07,10.38,18.87,10.38,33.94,0
		c-10.38,15.07-10.38,18.87,0,33.94C562.45,567.03,558.65,567.03,543.58,577.42z"/>
	<line class="st1" x1="503.83" y1="503.72" x2="537.77" y2="537.66"/>
</g>
</svg>
