<?xml version="1.0" encoding="utf-8"?>
<!-- Generator: Adobe Illustrator 26.3.1, SVG Export Plug-In . SVG Version: 6.00 Build 0)  -->
<svg version="1.1" id="레이어_1" xmlns="http://www.w3.org/2000/svg" xmlns:xlink="http://www.w3.org/1999/xlink" x="0px"
	 y="0px" viewBox="0 0 600 600" style="enable-background:new 0 0 600 600;" xml:space="preserve">
<style type="text/css">
	.st0{fill:none;stroke:#231815;stroke-width:3;stroke-linecap:round;stroke-linejoin:round;stroke-miterlimit:10;}
	.st1{fill:none;stroke:#231815;stroke-width:6;stroke-linecap:round;stroke-linejoin:round;stroke-miterlimit:10;}
	.st2{fill:none;stroke:#231815;stroke-width:8;stroke-linejoin:bevel;stroke-miterlimit:10;}
	.st3{fill:#FFFFFF;stroke:#231815;stroke-width:3;stroke-miterlimit:10;}
	.st4{fill:#231815;}
</style>
<g>
	<circle class="st0" cx="300" cy="300" r="270"/>
	<circle class="st0" cx="300" cy="300" r="192"/>
	<circle class="st1" cx="300" cy="300" r="282"/>
	<g>
		<polygon class="st2" points="247.1,372.81 300,210 352.9,372.81 214.4,272.19 385.59,272.19 		"/>
		<path class="st3" d="M300,114.71c-102.17,0-185.29,83.12-185.29,185.29S197.83,485.29,300,485.29
			c102.17,0,185.29-83.12,185.29-185.29S402.17,114.71,300,114.71z M178.33,351.15c-7.82-18.88-20.76-34.65-37.31-45.86h63.85
			c1.23,22.29,10.15,42.56,24.16,58.2l-44.26,44.27C187.98,388.82,185.86,369.32,178.33,351.15z M421.67,248.85
			c7.82,18.88,20.76,34.65,37.32,45.86h-63.85c-1.23-22.3-10.15-42.57-24.16-58.21l44.27-44.27
			C412.02,211.18,414.14,230.68,421.67,248.85z M300,384.71c-46.71,0-84.71-38-84.71-84.71s38-84.71,84.71-84.71
			s84.71,38,84.71,84.71S346.71,384.71,300,384.71z M363.49,229.02c-15.64-14-35.91-22.93-58.21-24.16V142.3
			c19.51,27.39,51.2,43.34,84.23,43.34c6.37,0,12.79-0.61,19.19-1.83L363.49,229.02z M294.71,204.86
			c-22.29,1.23-42.56,10.16-58.2,24.16l-44.31-44.3c5.67,0.95,11.35,1.45,17,1.45c33.76,0,66.13-16.68,85.51-45.2V204.86z
			 M229.02,236.51c-14,15.64-22.93,35.91-24.16,58.2h-62.61c32.69-23.27,49.1-63.87,41.57-103.4L229.02,236.51z M236.5,370.98
			c15.64,14,35.91,22.93,58.2,24.16v62.6c-23.27-32.68-63.87-49.09-103.41-41.56L236.5,370.98z M305.29,395.14
			c22.29-1.23,42.56-10.15,58.2-24.16l44.3,44.3c-39.57-6.66-79.88,10.45-102.51,43.73V395.14z M370.98,363.5
			c14.01-15.64,22.93-35.91,24.16-58.2h62.6c-32.69,23.27-49.1,63.87-41.56,103.41L370.98,363.5z M431.45,244.8
			c-8.37-20.22-9.32-42.26-2.87-62.93c26.85,29.2,43.91,67.53,45.91,109.74C455.04,281.59,439.91,265.22,431.45,244.8z
			 M307.37,125.48c42.24,1.76,80.67,18.57,110.01,45.22C374.7,184.25,328.14,165.09,307.37,125.48z M181.88,171.41
			c29.2-26.84,67.52-43.9,109.72-45.91C271.05,165.29,224.59,184.69,181.88,171.41z M125.48,292.63
			c1.76-42.24,18.57-80.67,45.22-110.01C184.25,225.3,165.09,271.86,125.48,292.63z M168.55,355.2c8.37,20.22,9.32,42.26,2.87,62.93
			c-26.85-29.2-43.91-67.53-45.91-109.74C144.96,318.41,160.09,334.78,168.55,355.2z M292.63,474.52
			c-42.24-1.76-80.67-18.57-110.01-45.22C225.3,415.75,271.86,434.91,292.63,474.52z M418.12,428.59
			c-29.2,26.84-67.52,43.9-109.72,45.91C328.96,434.71,375.42,415.31,418.12,428.59z M474.52,307.37
			c-1.76,42.24-18.57,80.67-45.22,110.01C415.75,374.7,434.91,328.14,474.52,307.37z"/>
	</g>
	<g>
		<path class="st4" d="M274.01,54.54c-8.27,14.33-3.35,32.72,10.98,40.99s32.72,3.35,40.99-10.98s3.35-32.72-10.98-40.99
			C300.67,35.29,282.29,40.22,274.01,54.54z M311.13,47.01c-0.48,1.42-1.21,2.69-2.03,3.91c-2.06,2.82-5.81,4.41-7.68,7.51
			c-1.04,1.48-0.63,3.8-0.62,5.61c-0.11,1-0.36,1.97-0.79,2.85c-0.16-0.35-0.31-0.71-0.44-1.07c-0.46-1.19-0.42-2.51-0.29-3.81
			c0.57-5.52-5.7-7.33-8.38-11.08c-0.82-1.22-1.55-2.49-2.03-3.91C295.69,43.66,303.92,43.44,311.13,47.01z M286.05,48.64
			c0.99,1.12,1.72,2.39,2.37,3.71c1.09,2.09,0.87,4.86,1.53,7.08c0.34,1.13,0.55,2.34,1.13,3.33c0.76,1.64,2.97,2.44,4.55,3.34
			c0.81,0.59,1.52,1.3,2.07,2.11c-0.38-0.03-0.77-0.08-1.15-0.16c-1.26-0.2-2.38-0.89-3.45-1.65c-4.5-3.25-9.2,1.28-13.79,1.72
			c-1.47,0.1-2.93,0.1-4.4-0.2c0.24-3.74,1.31-7.48,3.31-10.94C280.22,53.52,282.93,50.71,286.05,48.64z M274.92,71.17
			c1.47-0.29,2.93-0.3,4.4-0.19c2.35,0.1,4.64,1.68,6.89,2.21c1.15,0.27,2.3,0.69,3.45,0.68c1.8,0.16,3.6-1.35,5.17-2.27
			c0.92-0.4,1.89-0.67,2.86-0.74c-0.22,0.32-0.46,0.62-0.71,0.92c-0.81,0.99-1.96,1.62-3.15,2.16c-5.07,2.27-3.49,8.6-5.41,12.8
			c-0.65,1.32-1.38,2.59-2.37,3.72C279.35,85.99,275.42,78.76,274.92,71.17z M288.87,92.08c0.48-1.42,1.21-2.69,2.03-3.91
			c2.06-2.82,5.81-4.41,7.68-7.51c1.04-1.48,0.63-3.8,0.62-5.61c0.11-1,0.36-1.97,0.79-2.85c0.16,0.35,0.31,0.71,0.44,1.07
			c0.46,1.19,0.42,2.51,0.29,3.81c-0.57,5.52,5.7,7.33,8.38,11.08c0.82,1.22,1.55,2.49,2.03,3.91
			C304.31,95.44,296.08,95.65,288.87,92.08z M313.95,90.46c-0.99-1.12-1.72-2.39-2.37-3.71c-1.09-2.09-0.87-4.86-1.53-7.08
			c-0.34-1.13-0.55-2.34-1.13-3.33c-0.76-1.64-2.97-2.44-4.55-3.34c-0.81-0.59-1.52-1.3-2.07-2.11c0.38,0.03,0.77,0.08,1.15,0.16
			c1.26,0.2,2.38,0.89,3.45,1.65c4.5,3.25,9.2-1.28,13.79-1.72c1.47-0.1,2.93-0.1,4.4,0.2c-0.24,3.74-1.31,7.48-3.31,10.94
			C319.78,85.58,317.07,88.38,313.95,90.46z M325.08,67.92c-1.47,0.29-2.93,0.3-4.4,0.19c-2.35-0.1-4.64-1.68-6.89-2.21
			c-1.15-0.27-2.3-0.69-3.45-0.68c-1.8-0.16-3.6,1.35-5.17,2.27c-0.92,0.4-1.89,0.67-2.86,0.74c0.22-0.32,0.46-0.62,0.71-0.92
			c0.81-0.99,1.96-1.62,3.15-2.16c5.07-2.27,3.49-8.6,5.41-12.8c0.65-1.32,1.38-2.59,2.37-3.72
			C320.65,53.1,324.58,60.33,325.08,67.92z"/>
		<path class="st4" d="M152.52,101.02c0,16.55,13.46,30.01,30.01,30.01s30.01-13.46,30.01-30.01s-13.46-30.01-30.01-30.01
			S152.52,84.48,152.52,101.02z M180.9,75.94c0.29,1.47,0.3,2.94,0.2,4.4c-0.38,3.47-2.83,6.72-2.89,10.34
			c-0.16,1.8,1.35,3.6,2.27,5.17c0.4,0.92,0.67,1.89,0.74,2.86c-0.31-0.22-0.62-0.46-0.92-0.71c-0.99-0.81-1.62-1.96-2.16-3.15
			c-2.27-5.07-8.6-3.49-12.8-5.41c-1.32-0.65-2.59-1.38-3.71-2.37C165.85,80.76,172.87,76.46,180.9,75.94z M159.99,89.89
			c1.42,0.48,2.69,1.21,3.91,2.03c1.98,1.26,3.18,3.77,4.86,5.36c0.86,0.8,1.64,1.75,2.64,2.31c1.48,1.04,3.8,0.63,5.61,0.62
			c1,0.11,1.97,0.36,2.85,0.79c-0.35,0.16-0.71,0.31-1.07,0.44c-1.19,0.46-2.51,0.42-3.81,0.29c-5.52-0.57-7.33,5.7-11.08,8.38
			c-1.22,0.82-2.49,1.55-3.91,2.03c-1.67-3.36-2.61-7.14-2.61-11.13C157.39,97.03,158.33,93.25,159.99,89.89z M161.62,114.97
			c1.12-0.99,2.39-1.72,3.71-2.37c2.09-1.09,4.86-0.87,7.08-1.53c1.13-0.34,2.34-0.55,3.33-1.13c1.64-0.76,2.44-2.97,3.34-4.55
			c0.59-0.81,1.3-1.52,2.11-2.07c-0.03,0.38-0.08,0.77-0.16,1.15c-0.2,1.26-0.89,2.38-1.65,3.45c-3.25,4.5,1.28,9.2,1.72,13.79
			c0.1,1.47,0.1,2.94-0.2,4.4C172.87,125.59,165.85,121.29,161.62,114.97z M184.16,126.11c-0.29-1.47-0.3-2.94-0.2-4.4
			c0.38-3.47,2.83-6.72,2.89-10.34c0.16-1.8-1.35-3.6-2.27-5.17c-0.4-0.92-0.67-1.89-0.74-2.86c0.32,0.22,0.62,0.46,0.92,0.71
			c0.99,0.81,1.62,1.96,2.16,3.15c2.27,5.07,8.6,3.49,12.8,5.41c1.32,0.65,2.59,1.38,3.71,2.37
			C199.2,121.29,192.19,125.59,184.16,126.11z M205.06,112.16c-1.42-0.48-2.69-1.21-3.91-2.03c-1.98-1.26-3.18-3.77-4.86-5.36
			c-0.86-0.8-1.64-1.75-2.64-2.31c-1.48-1.04-3.8-0.63-5.61-0.62c-1-0.11-1.97-0.36-2.85-0.79c0.35-0.16,0.71-0.31,1.07-0.44
			c1.19-0.46,2.51-0.42,3.81-0.29c5.52,0.57,7.33-5.7,11.08-8.38c1.22-0.82,2.49-1.55,3.91-2.03c1.67,3.36,2.61,7.14,2.61,11.13
			C207.67,105.02,206.73,108.8,205.06,112.16z M203.44,87.07c-1.12,0.99-2.39,1.72-3.71,2.37c-2.09,1.09-4.86,0.87-7.08,1.53
			c-1.13,0.34-2.34,0.55-3.33,1.13c-1.64,0.76-2.44,2.97-3.34,4.55c-0.59,0.81-1.3,1.52-2.11,2.07c0.03-0.38,0.08-0.77,0.16-1.15
			c0.2-1.26,0.89-2.38,1.65-3.45c3.25-4.5-1.28-9.2-1.72-13.79c-0.1-1.47-0.1-2.94,0.2-4.4C192.19,76.46,199.2,80.75,203.44,87.07z"
			/>
		<path class="st4" d="M70.55,202.02c8.27,14.33,26.66,19.26,40.99,10.98s19.26-26.66,10.98-40.99
			c-8.27-14.33-26.66-19.26-40.99-10.98S62.28,187.69,70.55,202.02z M82.58,166.11c0.99,1.13,1.72,2.39,2.37,3.72
			c1.41,3.19,0.91,7.23,2.66,10.4c0.76,1.64,2.97,2.44,4.55,3.34c0.81,0.59,1.52,1.3,2.07,2.11c-0.38-0.03-0.77-0.08-1.15-0.16
			c-1.26-0.2-2.38-0.89-3.45-1.65c-4.5-3.25-9.2,1.28-13.79,1.72c-1.47,0.1-2.93,0.1-4.4-0.19
			C71.96,177.8,75.89,170.57,82.58,166.11z M71.45,188.64c1.47-0.29,2.93-0.3,4.4-0.2c2.35,0.1,4.64,1.68,6.89,2.21
			c1.15,0.27,2.3,0.69,3.45,0.68c1.8,0.16,3.6-1.35,5.17-2.27c0.92-0.4,1.89-0.67,2.86-0.74c-0.22,0.32-0.46,0.62-0.71,0.92
			c-0.81,0.99-1.96,1.62-3.15,2.16c-5.07,2.27-3.49,8.6-5.41,12.8c-0.65,1.32-1.38,2.59-2.37,3.71c-3.12-2.08-5.83-4.88-7.82-8.34
			C72.76,196.13,71.69,192.39,71.45,188.64z M85.4,209.55c0.48-1.42,1.21-2.69,2.03-3.91c1.26-1.98,3.77-3.18,5.36-4.86
			c0.8-0.86,1.75-1.64,2.31-2.64c1.04-1.48,0.63-3.8,0.62-5.61c0.11-1,0.36-1.97,0.79-2.85c0.16,0.35,0.31,0.71,0.44,1.07
			c0.46,1.19,0.42,2.51,0.29,3.81c-0.57,5.52,5.7,7.33,8.38,11.08c0.82,1.22,1.55,2.49,2.03,3.91
			C100.45,213.12,92.23,212.91,85.4,209.55z M110.49,207.93c-0.99-1.13-1.72-2.39-2.37-3.72c-1.41-3.19-0.91-7.23-2.66-10.4
			c-0.76-1.64-2.97-2.44-4.55-3.34c-0.81-0.59-1.52-1.3-2.07-2.11c0.38,0.03,0.77,0.08,1.15,0.16c1.26,0.2,2.38,0.89,3.45,1.65
			c4.5,3.25,9.2-1.28,13.79-1.72c1.47-0.1,2.93-0.1,4.4,0.19C121.11,196.23,117.18,203.46,110.49,207.93z M121.62,185.39
			c-1.47,0.29-2.93,0.3-4.4,0.2c-2.35-0.1-4.64-1.68-6.89-2.21c-1.15-0.27-2.3-0.69-3.45-0.68c-1.8-0.16-3.6,1.35-5.17,2.27
			c-0.92,0.4-1.89,0.67-2.86,0.74c0.22-0.32,0.46-0.62,0.71-0.92c0.81-0.99,1.96-1.62,3.15-2.16c5.07-2.27,3.49-8.6,5.41-12.8
			c0.65-1.32,1.38-2.59,2.37-3.71c3.12,2.08,5.83,4.88,7.82,8.34C120.31,177.91,121.38,181.65,121.62,185.39z M107.67,164.49
			c-0.48,1.42-1.21,2.69-2.03,3.91c-1.26,1.98-3.77,3.18-5.36,4.86c-0.8,0.86-1.75,1.64-2.31,2.64c-1.04,1.48-0.63,3.8-0.62,5.61
			c-0.11,1-0.36,1.97-0.79,2.85c-0.16-0.35-0.31-0.71-0.44-1.07c-0.46-1.19-0.42-2.51-0.29-3.81c0.57-5.52-5.7-7.33-8.38-11.08
			c-0.82-1.22-1.55-2.49-2.03-3.91C92.62,160.91,100.84,161.13,107.67,164.49z"/>
		<path class="st4" d="M50.06,330.47c14.33,8.27,32.72,3.35,40.99-10.98s3.35-32.72-10.98-40.99s-32.72-3.35-40.99,10.98
			C30.8,303.81,35.73,322.2,50.06,330.47z M42.52,293.36c1.42,0.48,2.69,1.21,3.91,2.03c2.82,2.06,4.41,5.81,7.51,7.68
			c1.48,1.04,3.8,0.63,5.61,0.62c1,0.11,1.97,0.36,2.85,0.79c-0.35,0.16-0.71,0.31-1.07,0.44c-1.19,0.46-2.51,0.42-3.81,0.29
			c-5.52-0.57-7.33,5.7-11.08,8.38c-1.22,0.82-2.49,1.55-3.91,2.03C39.17,308.8,38.95,300.57,42.52,293.36z M44.15,318.44
			c1.12-0.99,2.39-1.72,3.71-2.37c2.09-1.09,4.86-0.87,7.08-1.53c1.13-0.34,2.34-0.55,3.33-1.13c1.64-0.76,2.44-2.97,3.34-4.55
			c0.59-0.81,1.3-1.52,2.11-2.07c-0.03,0.38-0.08,0.77-0.16,1.15c-0.2,1.26-0.89,2.38-1.65,3.45c-3.25,4.5,1.28,9.2,1.72,13.79
			c0.1,1.47,0.1,2.93-0.2,4.4c-3.74-0.24-7.48-1.31-10.94-3.31C49.03,324.26,46.23,321.56,44.15,318.44z M66.68,329.57
			c-0.29-1.47-0.3-2.93-0.19-4.4c0.1-2.35,1.68-4.64,2.21-6.89c0.27-1.15,0.69-2.3,0.68-3.45c0.16-1.8-1.35-3.6-2.27-5.17
			c-0.4-0.92-0.67-1.89-0.74-2.86c0.32,0.22,0.62,0.46,0.92,0.71c0.99,0.81,1.62,1.96,2.16,3.15c2.27,5.07,8.6,3.49,12.8,5.41
			c1.32,0.65,2.59,1.38,3.72,2.37C81.5,325.14,74.27,329.06,66.68,329.57z M87.59,315.62c-1.42-0.48-2.69-1.21-3.91-2.03
			c-2.82-2.06-4.41-5.81-7.51-7.68c-1.48-1.04-3.8-0.63-5.61-0.62c-1-0.11-1.97-0.36-2.85-0.79c0.35-0.16,0.71-0.31,1.07-0.44
			c1.19-0.46,2.51-0.42,3.81-0.29c5.52,0.57,7.33-5.7,11.08-8.38c1.22-0.82,2.49-1.55,3.91-2.03
			C90.95,300.18,91.16,308.41,87.59,315.62z M85.97,290.54c-1.12,0.99-2.39,1.72-3.71,2.37c-2.09,1.09-4.86,0.87-7.08,1.53
			c-1.13,0.34-2.34,0.55-3.33,1.13c-1.64,0.76-2.44,2.97-3.34,4.55c-0.59,0.81-1.3,1.52-2.11,2.07c0.03-0.38,0.08-0.77,0.16-1.15
			c0.2-1.26,0.89-2.38,1.65-3.45c3.25-4.5-1.28-9.2-1.72-13.79c-0.1-1.47-0.1-2.93,0.2-4.4c3.74,0.24,7.48,1.31,10.94,3.31
			C81.09,284.71,83.89,287.42,85.97,290.54z M63.43,279.41c0.29,1.47,0.3,2.93,0.19,4.4c-0.1,2.35-1.68,4.64-2.21,6.89
			c-0.27,1.15-0.69,2.3-0.68,3.45c-0.16,1.8,1.35,3.6,2.27,5.17c0.4,0.92,0.67,1.89,0.74,2.86c-0.32-0.22-0.62-0.46-0.92-0.71
			c-0.99-0.81-1.62-1.96-2.16-3.15c-2.27-5.07-8.6-3.49-12.8-5.41c-1.32-0.65-2.59-1.38-3.72-2.37
			C48.61,283.84,55.84,279.91,63.43,279.41z"/>
		<path class="st4" d="M96.53,451.97c16.55,0,30.01-13.46,30.01-30.01s-13.46-30.01-30.01-30.01s-30.01,13.46-30.01,30.01
			S79.99,451.97,96.53,451.97z M71.45,423.59c1.47-0.29,2.94-0.3,4.4-0.2c3.47,0.38,6.72,2.83,10.34,2.89
			c1.8,0.16,3.6-1.35,5.17-2.27c0.92-0.4,1.89-0.67,2.86-0.74c-0.22,0.31-0.46,0.62-0.71,0.92c-0.81,0.99-1.96,1.62-3.15,2.16
			c-5.07,2.27-3.49,8.6-5.41,12.8c-0.65,1.32-1.38,2.59-2.37,3.71C76.27,438.64,71.97,431.62,71.45,423.59z M85.4,444.5
			c0.48-1.42,1.21-2.69,2.03-3.91c1.26-1.98,3.77-3.18,5.36-4.86c0.8-0.86,1.75-1.64,2.31-2.64c1.04-1.48,0.63-3.8,0.62-5.61
			c0.11-1,0.36-1.97,0.79-2.85c0.16,0.35,0.31,0.71,0.44,1.07c0.46,1.19,0.42,2.51,0.29,3.81c-0.57,5.52,5.7,7.33,8.38,11.08
			c0.82,1.22,1.55,2.49,2.03,3.91c-3.36,1.67-7.14,2.61-11.13,2.61C92.54,447.1,88.76,446.16,85.4,444.5z M110.48,442.87
			c-0.99-1.12-1.72-2.39-2.37-3.71c-1.09-2.09-0.87-4.86-1.53-7.08c-0.34-1.13-0.55-2.34-1.13-3.33c-0.76-1.64-2.97-2.44-4.55-3.34
			c-0.81-0.59-1.52-1.3-2.07-2.11c0.38,0.03,0.77,0.08,1.15,0.16c1.26,0.2,2.38,0.89,3.45,1.65c4.5,3.25,9.2-1.28,13.79-1.72
			c1.47-0.1,2.94-0.1,4.4,0.2C121.1,431.62,116.8,438.64,110.48,442.87z M121.62,420.33c-1.47,0.29-2.94,0.3-4.4,0.2
			c-3.47-0.38-6.72-2.83-10.34-2.89c-1.8-0.16-3.6,1.35-5.17,2.27c-0.92,0.4-1.89,0.67-2.86,0.74c0.22-0.32,0.46-0.62,0.71-0.92
			c0.81-0.99,1.96-1.62,3.15-2.16c5.07-2.27,3.49-8.6,5.41-12.8c0.65-1.32,1.38-2.59,2.37-3.71
			C116.8,405.28,121.1,412.3,121.62,420.33z M107.67,399.42c-0.48,1.42-1.21,2.69-2.03,3.91c-1.26,1.98-3.77,3.18-5.36,4.86
			c-0.8,0.86-1.75,1.64-2.31,2.64c-1.04,1.48-0.63,3.8-0.62,5.61c-0.11,1-0.36,1.97-0.79,2.85c-0.16-0.35-0.31-0.71-0.44-1.07
			c-0.46-1.19-0.42-2.51-0.29-3.81c0.57-5.52-5.7-7.33-8.38-11.08c-0.82-1.22-1.55-2.49-2.03-3.91c3.36-1.67,7.14-2.61,11.13-2.61
			C100.53,396.82,104.31,397.76,107.67,399.42z M82.59,401.05c0.99,1.12,1.72,2.39,2.37,3.71c1.09,2.09,0.87,4.86,1.53,7.08
			c0.34,1.13,0.55,2.34,1.13,3.33c0.76,1.64,2.97,2.44,4.55,3.34c0.81,0.59,1.52,1.3,2.07,2.11c-0.38-0.03-0.77-0.08-1.15-0.16
			c-1.26-0.2-2.38-0.89-3.45-1.65c-4.5-3.25-9.2,1.28-13.79,1.72c-1.47,0.1-2.94,0.1-4.4-0.2C71.97,412.3,76.27,405.28,82.59,401.05
			z"/>
		<path class="st4" d="M197.53,533.94c14.33-8.27,19.26-26.66,10.98-40.99c-8.27-14.33-26.66-19.26-40.99-10.98
			c-14.33,8.27-19.26,26.66-10.98,40.99C164.82,537.29,183.2,542.21,197.53,533.94z M161.62,521.91c1.13-0.99,2.39-1.72,3.72-2.37
			c3.19-1.41,7.23-0.91,10.4-2.66c1.64-0.76,2.44-2.97,3.34-4.55c0.59-0.81,1.3-1.52,2.11-2.07c-0.03,0.38-0.08,0.77-0.16,1.15
			c-0.2,1.26-0.89,2.38-1.65,3.45c-3.25,4.5,1.28,9.2,1.72,13.79c0.1,1.47,0.1,2.93-0.19,4.4
			C173.31,532.53,166.08,528.6,161.62,521.91z M184.16,533.04c-0.29-1.47-0.3-2.93-0.2-4.4c0.1-2.35,1.68-4.64,2.21-6.89
			c0.27-1.15,0.69-2.3,0.68-3.45c0.16-1.8-1.35-3.6-2.27-5.17c-0.4-0.92-0.67-1.89-0.74-2.86c0.32,0.22,0.62,0.46,0.92,0.71
			c0.99,0.81,1.62,1.96,2.16,3.15c2.27,5.07,8.6,3.49,12.8,5.41c1.32,0.65,2.59,1.38,3.71,2.37c-2.08,3.12-4.88,5.83-8.34,7.82
			S187.9,532.8,184.16,533.04z M205.06,519.09c-1.42-0.48-2.69-1.21-3.91-2.03c-1.98-1.26-3.18-3.77-4.86-5.36
			c-0.86-0.8-1.64-1.75-2.64-2.31c-1.48-1.04-3.8-0.63-5.61-0.62c-1-0.11-1.97-0.36-2.85-0.79c0.35-0.16,0.71-0.31,1.07-0.44
			c1.19-0.46,2.51-0.42,3.81-0.29c5.52,0.57,7.33-5.7,11.08-8.38c1.22-0.82,2.49-1.55,3.91-2.03
			C208.63,504.04,208.42,512.26,205.06,519.09z M203.44,494c-1.13,0.99-2.39,1.72-3.72,2.37c-3.19,1.41-7.23,0.91-10.4,2.66
			c-1.64,0.76-2.44,2.97-3.34,4.55c-0.59,0.81-1.3,1.52-2.11,2.07c0.03-0.38,0.08-0.77,0.16-1.15c0.2-1.26,0.89-2.38,1.65-3.45
			c3.25-4.5-1.28-9.2-1.72-13.79c-0.1-1.47-0.1-2.93,0.19-4.4C191.74,483.38,198.98,487.31,203.44,494z M180.9,482.87
			c0.29,1.47,0.3,2.93,0.2,4.4c-0.1,2.35-1.68,4.64-2.21,6.89c-0.27,1.15-0.69,2.3-0.68,3.45c-0.16,1.8,1.35,3.6,2.27,5.17
			c0.4,0.92,0.67,1.89,0.74,2.86c-0.32-0.22-0.62-0.46-0.92-0.71c-0.99-0.81-1.62-1.96-2.16-3.15c-2.27-5.07-8.6-3.49-12.8-5.41
			c-1.32-0.65-2.59-1.38-3.71-2.37c2.08-3.12,4.88-5.83,8.34-7.82C173.42,484.18,177.16,483.11,180.9,482.87z M160,496.82
			c1.42,0.48,2.69,1.21,3.91,2.03c1.98,1.26,3.18,3.77,4.86,5.36c0.86,0.8,1.64,1.75,2.64,2.31c1.48,1.04,3.8,0.63,5.61,0.62
			c1,0.11,1.97,0.36,2.85,0.79c-0.35,0.16-0.71,0.31-1.07,0.44c-1.19,0.46-2.51,0.42-3.81,0.29c-5.52-0.57-7.33,5.7-11.08,8.38
			c-1.22,0.82-2.49,1.55-3.91,2.03C156.42,511.87,156.64,503.65,160,496.82z"/>
		<path class="st4" d="M325.99,554.43c8.27-14.33,3.35-32.72-10.98-40.99s-32.72-3.35-40.99,10.98
			c-8.27,14.33-3.35,32.72,10.98,40.99C299.33,573.69,317.71,568.76,325.99,554.43z M288.87,561.97c0.48-1.42,1.21-2.69,2.03-3.91
			c2.06-2.82,5.81-4.41,7.68-7.51c1.04-1.48,0.63-3.8,0.62-5.61c0.11-1,0.36-1.97,0.79-2.85c0.16,0.35,0.31,0.71,0.44,1.07
			c0.46,1.19,0.42,2.51,0.29,3.81c-0.57,5.52,5.7,7.33,8.38,11.08c0.82,1.22,1.55,2.49,2.03,3.91
			C304.31,565.32,296.08,565.54,288.87,561.97z M313.95,560.34c-0.99-1.12-1.72-2.39-2.37-3.71c-1.09-2.09-0.87-4.86-1.53-7.08
			c-0.34-1.13-0.55-2.34-1.13-3.33c-0.76-1.64-2.97-2.44-4.55-3.34c-0.81-0.59-1.52-1.3-2.07-2.11c0.38,0.03,0.77,0.08,1.15,0.16
			c1.26,0.2,2.38,0.89,3.45,1.65c4.5,3.25,9.2-1.28,13.79-1.72c1.47-0.1,2.93-0.1,4.4,0.2c-0.24,3.74-1.31,7.48-3.31,10.94
			C319.78,555.46,317.07,558.26,313.95,560.34z M325.08,537.8c-1.47,0.29-2.93,0.3-4.4,0.19c-2.35-0.1-4.64-1.68-6.89-2.21
			c-1.15-0.27-2.3-0.69-3.45-0.68c-1.8-0.16-3.6,1.35-5.17,2.27c-0.92,0.4-1.89,0.67-2.86,0.74c0.22-0.32,0.46-0.62,0.71-0.92
			c0.81-0.99,1.96-1.62,3.15-2.16c5.07-2.27,3.49-8.6,5.41-12.8c0.65-1.32,1.38-2.59,2.37-3.72
			C320.65,522.98,324.58,530.22,325.08,537.8z M311.13,516.89c-0.48,1.42-1.21,2.69-2.03,3.91c-2.06,2.82-5.81,4.41-7.68,7.51
			c-1.04,1.48-0.63,3.8-0.62,5.61c-0.11,1-0.36,1.97-0.79,2.85c-0.16-0.35-0.31-0.71-0.44-1.07c-0.46-1.19-0.42-2.51-0.29-3.81
			c0.57-5.52-5.7-7.33-8.38-11.08c-0.82-1.22-1.55-2.49-2.03-3.91C295.69,513.54,303.92,513.33,311.13,516.89z M286.05,518.52
			c0.99,1.12,1.72,2.39,2.37,3.71c1.09,2.09,0.87,4.86,1.53,7.08c0.34,1.13,0.55,2.34,1.13,3.33c0.76,1.64,2.97,2.44,4.55,3.34
			c0.81,0.59,1.52,1.3,2.07,2.11c-0.38-0.03-0.77-0.08-1.15-0.16c-1.26-0.2-2.38-0.89-3.45-1.65c-4.5-3.25-9.2,1.28-13.79,1.72
			c-1.47,0.1-2.93,0.1-4.4-0.2c0.24-3.74,1.31-7.48,3.31-10.94C280.22,523.4,282.93,520.6,286.05,518.52z M274.92,541.06
			c1.47-0.29,2.93-0.3,4.4-0.19c2.35,0.1,4.64,1.68,6.89,2.21c1.15,0.27,2.3,0.69,3.45,0.68c1.8,0.16,3.6-1.35,5.17-2.27
			c0.92-0.4,1.89-0.67,2.86-0.74c-0.22,0.32-0.46,0.62-0.71,0.92c-0.81,0.99-1.96,1.62-3.15,2.16c-5.07,2.27-3.49,8.6-5.41,12.8
			c-0.65,1.32-1.38,2.59-2.37,3.72C279.35,555.88,275.42,548.65,274.92,541.06z"/>
		<path class="st4" d="M447.48,507.95c0-16.55-13.46-30.01-30.01-30.01s-30.01,13.46-30.01,30.01c0,16.55,13.46,30.01,30.01,30.01
			S447.48,524.5,447.48,507.95z M419.1,533.04c-0.29-1.47-0.3-2.94-0.2-4.4c0.38-3.47,2.83-6.72,2.89-10.34
			c0.16-1.8-1.35-3.6-2.27-5.17c-0.4-0.92-0.67-1.89-0.74-2.86c0.31,0.22,0.62,0.46,0.92,0.71c0.99,0.81,1.62,1.96,2.16,3.15
			c2.27,5.07,8.6,3.49,12.8,5.41c1.32,0.65,2.59,1.38,3.71,2.37C434.15,528.22,427.13,532.52,419.1,533.04z M440.01,519.09
			c-1.42-0.48-2.69-1.21-3.91-2.03c-1.98-1.26-3.18-3.77-4.86-5.36c-0.86-0.8-1.64-1.75-2.64-2.31c-1.48-1.04-3.8-0.63-5.61-0.62
			c-1-0.11-1.97-0.36-2.85-0.79c0.35-0.16,0.71-0.31,1.07-0.44c1.19-0.46,2.51-0.42,3.81-0.29c5.52,0.57,7.33-5.7,11.08-8.38
			c1.22-0.82,2.49-1.55,3.91-2.03c1.67,3.36,2.61,7.14,2.61,11.13C442.61,511.95,441.67,515.73,440.01,519.09z M438.38,494.01
			c-1.12,0.99-2.39,1.72-3.71,2.37c-2.09,1.09-4.86,0.87-7.08,1.53c-1.13,0.34-2.34,0.55-3.33,1.13c-1.64,0.76-2.44,2.97-3.34,4.55
			c-0.59,0.81-1.3,1.52-2.11,2.07c0.03-0.38,0.08-0.77,0.16-1.15c0.2-1.26,0.89-2.38,1.65-3.45c3.25-4.5-1.28-9.2-1.72-13.79
			c-0.1-1.47-0.1-2.94,0.2-4.4C427.13,483.39,434.15,487.69,438.38,494.01z M415.84,482.87c0.29,1.47,0.3,2.94,0.2,4.4
			c-0.38,3.47-2.83,6.72-2.89,10.34c-0.16,1.8,1.35,3.6,2.27,5.17c0.4,0.92,0.67,1.89,0.74,2.86c-0.32-0.22-0.62-0.46-0.92-0.71
			c-0.99-0.81-1.62-1.96-2.16-3.15c-2.27-5.07-8.6-3.49-12.8-5.41c-1.32-0.65-2.59-1.38-3.71-2.37
			C400.8,487.69,407.81,483.39,415.84,482.87z M394.94,496.82c1.42,0.48,2.69,1.21,3.91,2.03c1.98,1.26,3.18,3.77,4.86,5.36
			c0.86,0.8,1.64,1.75,2.64,2.31c1.48,1.04,3.8,0.63,5.61,0.62c1,0.11,1.97,0.36,2.85,0.79c-0.35,0.16-0.71,0.31-1.07,0.44
			c-1.19,0.46-2.51,0.42-3.81,0.29c-5.52-0.57-7.33,5.7-11.08,8.38c-1.22,0.82-2.49,1.55-3.91,2.03c-1.67-3.36-2.61-7.14-2.61-11.13
			C392.33,503.96,393.27,500.18,394.94,496.82z M396.56,521.9c1.12-0.99,2.39-1.72,3.71-2.37c2.09-1.09,4.86-0.87,7.08-1.53
			c1.13-0.34,2.34-0.55,3.33-1.13c1.64-0.76,2.44-2.97,3.34-4.55c0.59-0.81,1.3-1.52,2.11-2.07c-0.03,0.38-0.08,0.77-0.16,1.15
			c-0.2,1.26-0.89,2.38-1.65,3.45c-3.25,4.5,1.28,9.2,1.72,13.79c0.1,1.47,0.1,2.94-0.2,4.4
			C407.81,532.52,400.8,528.22,396.56,521.9z"/>
		<path class="st4" d="M529.45,406.96c-8.27-14.33-26.66-19.26-40.99-10.98s-19.26,26.66-10.98,40.99
			c8.27,14.33,26.66,19.26,40.99,10.98C532.8,439.67,537.72,421.29,529.45,406.96z M517.42,442.87c-0.99-1.13-1.72-2.39-2.37-3.72
			c-1.41-3.19-0.91-7.23-2.66-10.4c-0.76-1.64-2.97-2.44-4.55-3.34c-0.81-0.59-1.52-1.3-2.07-2.11c0.38,0.03,0.77,0.08,1.15,0.16
			c1.26,0.2,2.38,0.89,3.45,1.65c4.5,3.25,9.2-1.28,13.79-1.72c1.47-0.1,2.93-0.1,4.4,0.19
			C528.04,431.17,524.11,438.41,517.42,442.87z M528.55,420.33c-1.47,0.29-2.93,0.3-4.4,0.2c-2.35-0.1-4.64-1.68-6.89-2.21
			c-1.15-0.27-2.3-0.69-3.45-0.68c-1.8-0.16-3.6,1.35-5.17,2.27c-0.92,0.4-1.89,0.67-2.86,0.74c0.22-0.32,0.46-0.62,0.71-0.92
			c0.81-0.99,1.96-1.62,3.15-2.16c5.07-2.27,3.49-8.6,5.41-12.8c0.65-1.32,1.38-2.59,2.37-3.71c3.12,2.08,5.83,4.88,7.82,8.34
			S528.31,416.59,528.55,420.33z M514.6,399.43c-0.48,1.42-1.21,2.69-2.03,3.91c-1.26,1.98-3.77,3.18-5.36,4.86
			c-0.8,0.86-1.75,1.64-2.31,2.64c-1.04,1.48-0.63,3.8-0.62,5.61c-0.11,1-0.36,1.97-0.79,2.85c-0.16-0.35-0.31-0.71-0.44-1.07
			c-0.46-1.19-0.42-2.51-0.29-3.81c0.57-5.52-5.7-7.33-8.38-11.08c-0.82-1.22-1.55-2.49-2.03-3.91
			C499.55,395.85,507.77,396.07,514.6,399.43z M489.51,401.05c0.99,1.13,1.72,2.39,2.37,3.72c1.41,3.19,0.91,7.23,2.66,10.4
			c0.76,1.64,2.97,2.44,4.55,3.34c0.81,0.59,1.52,1.3,2.07,2.11c-0.38-0.03-0.77-0.08-1.15-0.16c-1.26-0.2-2.38-0.89-3.45-1.65
			c-4.5-3.25-9.2,1.28-13.79,1.72c-1.47,0.1-2.93,0.1-4.4-0.19C478.89,412.74,482.82,405.51,489.51,401.05z M478.38,423.59
			c1.47-0.29,2.93-0.3,4.4-0.2c2.35,0.1,4.64,1.68,6.89,2.21c1.15,0.27,2.3,0.69,3.45,0.68c1.8,0.16,3.6-1.35,5.17-2.27
			c0.92-0.4,1.89-0.67,2.86-0.74c-0.22,0.32-0.46,0.62-0.71,0.92c-0.81,0.99-1.96,1.62-3.15,2.16c-5.07,2.27-3.49,8.6-5.41,12.8
			c-0.65,1.32-1.38,2.59-2.37,3.71c-3.12-2.08-5.83-4.88-7.82-8.34C479.69,431.07,478.62,427.33,478.38,423.59z M492.33,444.49
			c0.48-1.42,1.21-2.69,2.03-3.91c1.26-1.98,3.77-3.18,5.36-4.86c0.8-0.86,1.75-1.64,2.31-2.64c1.04-1.48,0.63-3.8,0.62-5.61
			c0.11-1,0.36-1.97,0.79-2.85c0.16,0.35,0.31,0.71,0.44,1.07c0.46,1.19,0.42,2.51,0.29,3.81c-0.57,5.52,5.7,7.33,8.38,11.08
			c0.82,1.22,1.55,2.49,2.03,3.91C507.38,448.07,499.16,447.85,492.33,444.49z"/>
		<path class="st4" d="M549.94,278.5c-14.33-8.27-32.72-3.35-40.99,10.98c-8.27,14.33-3.35,32.72,10.98,40.99
			c14.33,8.27,32.72,3.35,40.99-10.98S564.27,286.78,549.94,278.5z M557.48,315.62c-1.42-0.48-2.69-1.21-3.91-2.03
			c-2.82-2.06-4.41-5.81-7.51-7.68c-1.48-1.04-3.8-0.63-5.61-0.62c-1-0.11-1.97-0.36-2.85-0.79c0.35-0.16,0.71-0.31,1.07-0.44
			c1.19-0.46,2.51-0.42,3.81-0.29c5.52,0.57,7.33-5.7,11.08-8.38c1.22-0.82,2.49-1.55,3.91-2.03
			C560.83,300.18,561.05,308.41,557.48,315.62z M555.85,290.54c-1.12,0.99-2.39,1.72-3.71,2.37c-2.09,1.09-4.86,0.87-7.08,1.53
			c-1.13,0.34-2.34,0.55-3.33,1.13c-1.64,0.76-2.44,2.97-3.34,4.55c-0.59,0.81-1.3,1.52-2.11,2.07c0.03-0.38,0.08-0.77,0.16-1.15
			c0.2-1.26,0.89-2.38,1.65-3.45c3.25-4.5-1.28-9.2-1.72-13.79c-0.1-1.47-0.1-2.93,0.2-4.4c3.74,0.24,7.48,1.31,10.94,3.31
			C550.97,284.71,553.77,287.42,555.85,290.54z M533.32,279.41c0.29,1.47,0.3,2.93,0.19,4.4c-0.1,2.35-1.68,4.64-2.21,6.89
			c-0.27,1.15-0.69,2.3-0.68,3.45c-0.16,1.8,1.35,3.6,2.27,5.17c0.4,0.92,0.67,1.89,0.74,2.86c-0.32-0.22-0.62-0.46-0.92-0.71
			c-0.99-0.81-1.62-1.96-2.16-3.15c-2.27-5.07-8.6-3.49-12.8-5.41c-1.32-0.65-2.59-1.38-3.72-2.37
			C518.5,283.84,525.73,279.91,533.32,279.41z M512.41,293.36c1.42,0.48,2.69,1.21,3.91,2.03c2.82,2.06,4.41,5.81,7.51,7.68
			c1.48,1.04,3.8,0.63,5.61,0.62c1,0.11,1.97,0.36,2.85,0.79c-0.35,0.16-0.71,0.31-1.07,0.44c-1.19,0.46-2.51,0.42-3.81,0.29
			c-5.52-0.57-7.33,5.7-11.08,8.38c-1.22,0.82-2.49,1.55-3.91,2.03C509.05,308.8,508.84,300.57,512.41,293.36z M514.03,318.44
			c1.12-0.99,2.39-1.72,3.71-2.37c2.09-1.09,4.86-0.87,7.08-1.53c1.13-0.34,2.34-0.55,3.33-1.13c1.64-0.76,2.44-2.97,3.34-4.55
			c0.59-0.81,1.3-1.52,2.11-2.07c-0.03,0.38-0.08,0.77-0.16,1.15c-0.2,1.26-0.89,2.38-1.65,3.45c-3.25,4.5,1.28,9.2,1.72,13.79
			c0.1,1.47,0.1,2.93-0.2,4.4c-3.74-0.24-7.48-1.31-10.94-3.31C518.91,324.26,516.11,321.56,514.03,318.44z M536.57,329.57
			c-0.29-1.47-0.3-2.93-0.19-4.4c0.1-2.35,1.68-4.64,2.21-6.89c0.27-1.15,0.69-2.3,0.68-3.45c0.16-1.8-1.35-3.6-2.27-5.17
			c-0.4-0.92-0.67-1.89-0.74-2.86c0.32,0.22,0.62,0.46,0.92,0.71c0.99,0.81,1.62,1.96,2.16,3.15c2.27,5.07,8.6,3.49,12.8,5.41
			c1.32,0.65,2.59,1.38,3.72,2.37C551.39,325.14,544.16,329.06,536.57,329.57z"/>
		<path class="st4" d="M503.47,157.01c-16.55,0-30.01,13.46-30.01,30.01s13.46,30.01,30.01,30.01c16.55,0,30.01-13.46,30.01-30.01
			S520.01,157.01,503.47,157.01z M528.55,185.39c-1.47,0.29-2.94,0.3-4.4,0.2c-3.47-0.38-6.72-2.83-10.34-2.89
			c-1.8-0.16-3.6,1.35-5.17,2.27c-0.92,0.4-1.89,0.67-2.86,0.74c0.22-0.31,0.46-0.62,0.71-0.92c0.81-0.99,1.96-1.62,3.15-2.16
			c5.07-2.27,3.49-8.6,5.41-12.8c0.65-1.32,1.38-2.59,2.37-3.71C523.73,170.34,528.03,177.36,528.55,185.39z M514.6,164.48
			c-0.48,1.42-1.21,2.69-2.03,3.91c-1.26,1.98-3.77,3.18-5.36,4.86c-0.8,0.86-1.75,1.64-2.31,2.64c-1.04,1.48-0.63,3.8-0.62,5.61
			c-0.11,1-0.36,1.97-0.79,2.85c-0.16-0.35-0.31-0.71-0.44-1.07c-0.46-1.19-0.42-2.51-0.29-3.81c0.57-5.52-5.7-7.33-8.38-11.08
			c-0.82-1.22-1.55-2.49-2.03-3.91c3.36-1.67,7.14-2.61,11.13-2.61S511.24,162.82,514.6,164.48z M489.52,166.11
			c0.99,1.12,1.72,2.39,2.37,3.71c1.09,2.09,0.87,4.86,1.53,7.08c0.34,1.13,0.55,2.34,1.13,3.33c0.76,1.64,2.97,2.44,4.55,3.34
			c0.81,0.59,1.52,1.3,2.07,2.11c-0.38-0.03-0.77-0.08-1.15-0.16c-1.26-0.2-2.38-0.89-3.45-1.65c-4.5-3.25-9.2,1.28-13.79,1.72
			c-1.47,0.1-2.94,0.1-4.4-0.2C478.9,177.36,483.2,170.34,489.52,166.11z M478.38,188.65c1.47-0.29,2.94-0.3,4.4-0.2
			c3.47,0.38,6.72,2.83,10.34,2.89c1.8,0.16,3.6-1.35,5.17-2.27c0.92-0.4,1.89-0.67,2.86-0.74c-0.22,0.32-0.46,0.62-0.71,0.92
			c-0.81,0.99-1.96,1.62-3.15,2.16c-5.07,2.27-3.49,8.6-5.41,12.8c-0.65,1.32-1.38,2.59-2.37,3.71
			C483.2,203.69,478.9,196.68,478.38,188.65z M492.33,209.55c0.48-1.42,1.21-2.69,2.03-3.91c1.26-1.98,3.77-3.18,5.36-4.86
			c0.8-0.86,1.75-1.64,2.31-2.64c1.04-1.48,0.63-3.8,0.62-5.61c0.11-1,0.36-1.97,0.79-2.85c0.16,0.35,0.31,0.71,0.44,1.07
			c0.46,1.19,0.42,2.51,0.29,3.81c-0.57,5.52,5.7,7.33,8.38,11.08c0.82,1.22,1.55,2.49,2.03,3.91c-3.36,1.67-7.14,2.61-11.13,2.61
			C499.47,212.16,495.69,211.22,492.33,209.55z M517.41,207.92c-0.99-1.12-1.72-2.39-2.37-3.71c-1.09-2.09-0.87-4.86-1.53-7.08
			c-0.34-1.13-0.55-2.34-1.13-3.33c-0.76-1.64-2.97-2.44-4.55-3.34c-0.81-0.59-1.52-1.3-2.07-2.11c0.38,0.03,0.77,0.08,1.15,0.16
			c1.26,0.2,2.38,0.89,3.45,1.65c4.5,3.25,9.2-1.28,13.79-1.72c1.47-0.1,2.94-0.1,4.4,0.2
			C528.03,196.68,523.73,203.69,517.41,207.92z"/>
		<path class="st4" d="M402.47,75.04c-14.33,8.27-19.26,26.66-10.98,40.99s26.66,19.26,40.99,10.98s19.26-26.66,10.98-40.99
			S416.8,66.76,402.47,75.04z M438.38,87.07c-1.13,0.99-2.39,1.72-3.72,2.37c-3.19,1.41-7.23,0.91-10.4,2.66
			c-1.64,0.76-2.44,2.97-3.34,4.55c-0.59,0.81-1.3,1.52-2.11,2.07c0.03-0.38,0.08-0.77,0.16-1.15c0.2-1.26,0.89-2.38,1.65-3.45
			c3.25-4.5-1.28-9.2-1.72-13.79c-0.1-1.47-0.1-2.93,0.19-4.4C426.69,76.45,433.92,80.37,438.38,87.07z M415.84,75.94
			c0.29,1.47,0.3,2.93,0.2,4.4c-0.1,2.35-1.68,4.64-2.21,6.89c-0.27,1.15-0.69,2.3-0.68,3.45c-0.16,1.8,1.35,3.6,2.27,5.17
			c0.4,0.92,0.67,1.89,0.74,2.86c-0.32-0.22-0.62-0.46-0.92-0.71c-0.99-0.81-1.62-1.96-2.16-3.15c-2.27-5.07-8.6-3.49-12.8-5.41
			c-1.32-0.65-2.59-1.38-3.71-2.37c2.08-3.12,4.88-5.83,8.34-7.82C408.36,77.25,412.1,76.18,415.84,75.94z M394.94,89.89
			c1.42,0.48,2.69,1.21,3.91,2.03c1.98,1.26,3.18,3.77,4.86,5.36c0.86,0.8,1.64,1.75,2.64,2.31c1.48,1.04,3.8,0.63,5.61,0.62
			c1,0.11,1.97,0.36,2.85,0.79c-0.35,0.16-0.71,0.31-1.07,0.44c-1.19,0.46-2.51,0.42-3.81,0.29c-5.52-0.57-7.33,5.7-11.08,8.38
			c-1.22,0.82-2.49,1.55-3.91,2.03C391.37,104.94,391.58,96.72,394.94,89.89z M396.56,114.97c1.13-0.99,2.39-1.72,3.72-2.37
			c3.19-1.41,7.23-0.91,10.4-2.66c1.64-0.76,2.44-2.97,3.34-4.55c0.59-0.81,1.3-1.52,2.11-2.07c-0.03,0.38-0.08,0.77-0.16,1.15
			c-0.2,1.26-0.89,2.38-1.65,3.45c-3.25,4.5,1.28,9.2,1.72,13.79c0.1,1.47,0.1,2.93-0.19,4.4
			C408.26,125.6,401.02,121.67,396.56,114.97z M419.1,126.11c-0.29-1.47-0.3-2.93-0.2-4.4c0.1-2.35,1.68-4.64,2.21-6.89
			c0.27-1.15,0.69-2.3,0.68-3.45c0.16-1.8-1.35-3.6-2.27-5.17c-0.4-0.92-0.67-1.89-0.74-2.86c0.32,0.22,0.62,0.46,0.92,0.71
			c0.99,0.81,1.62,1.96,2.16,3.15c2.27,5.07,8.6,3.49,12.8,5.41c1.32,0.65,2.59,1.38,3.71,2.37c-2.08,3.12-4.88,5.83-8.34,7.82
			C426.58,124.79,422.84,125.87,419.1,126.11z M440,112.15c-1.42-0.48-2.69-1.21-3.91-2.03c-1.98-1.26-3.18-3.77-4.86-5.36
			c-0.86-0.8-1.64-1.75-2.64-2.31c-1.48-1.04-3.8-0.63-5.61-0.62c-1-0.11-1.97-0.36-2.85-0.79c0.35-0.16,0.71-0.31,1.07-0.44
			c1.19-0.46,2.51-0.42,3.81-0.29c5.52,0.57,7.33-5.7,11.08-8.38c1.22-0.82,2.49-1.55,3.91-2.03
			C443.58,97.1,443.36,105.33,440,112.15z"/>
		<path class="st4" d="M380.24,30.57"/>
		<path class="st4" d="M232.43,52.33c-13.91,3.73-22.2,18.08-18.47,31.99c3.73,13.91,18.08,22.19,31.99,18.47
			s22.19-18.08,18.47-31.99C260.69,56.88,246.34,48.6,232.43,52.33z M260.33,71.89c0.66,2.46,0.85,4.93,0.66,7.34
			c-3.04-3.38-3.71-4.96-4.1-6.42c-0.39-1.46-0.6-3.16,0.34-7.61C258.6,67.19,259.67,69.43,260.33,71.89z M218.05,83.22
			c-0.66-2.46-0.85-4.93-0.66-7.34c3.04,3.38,3.71,4.96,4.1,6.42c0.39,1.46,0.6,3.16-0.34,7.61
			C219.79,87.91,218.71,85.68,218.05,83.22z M253.72,61.21c-2.07,6.24-6.83,11.22-12.93,13.57c-1.02-6.45,0.91-13.07,5.28-17.98
			C248.89,57.74,251.5,59.24,253.72,61.21z M240.87,55.76c-3.38,3.04-4.96,3.71-6.42,4.1c-1.46,0.39-3.16,0.6-7.61-0.34
			c1.99-1.37,4.22-2.44,6.68-3.1C235.99,55.76,238.46,55.57,240.87,55.76z M222.85,63.02c6.24,2.07,11.22,6.83,13.56,12.93
			c-6.45,1.02-13.07-0.91-17.98-5.28C219.38,67.85,220.88,65.25,222.85,63.02z M224.66,93.89c2.07-6.24,6.84-11.22,12.93-13.56
			c1.02,6.45-0.91,13.07-5.28,17.98C229.49,97.37,226.88,95.86,224.66,93.89z M237.52,99.35c3.38-3.04,4.96-3.71,6.42-4.1
			c1.46-0.39,3.16-0.6,7.61,0.34c-1.99,1.37-4.22,2.44-6.69,3.1C242.4,99.35,239.92,99.54,237.52,99.35z M255.53,92.08
			c-6.24-2.07-11.22-6.83-13.56-12.93c6.45-1.02,13.07,0.91,17.98,5.28C259.01,87.25,257.5,89.86,255.53,92.08z"/>
		<path class="st4" d="M115.4,119.89c-10.18,10.18-10.18,26.75,0,36.93c10.18,10.18,26.75,10.18,36.94,0
			c10.18-10.18,10.18-26.75,0-36.94C142.16,109.71,125.59,109.71,115.4,119.89z M149.34,122.89c1.8,1.8,3.2,3.85,4.24,6.03
			c-4.32-1.41-5.69-2.44-6.76-3.51c-1.07-1.07-2.1-2.43-3.51-6.76C145.5,119.69,147.54,121.08,149.34,122.89z M118.4,153.83
			c-1.8-1.8-3.2-3.85-4.24-6.03c4.32,1.41,5.69,2.44,6.76,3.51c1.07,1.07,2.1,2.43,3.51,6.76
			C122.25,157.03,120.2,155.64,118.4,153.83z M138.28,116.94c1.33,6.44-0.3,13.13-4.41,18.21c-4.11-5.08-5.74-11.77-4.42-18.21
			C132.36,116.35,135.37,116.35,138.28,116.94z M124.42,118.65c-1.41,4.32-2.44,5.69-3.51,6.76s-2.43,2.1-6.76,3.51
			c1.04-2.18,2.44-4.23,4.24-6.03C120.2,121.08,122.25,119.69,124.42,118.65z M112.45,133.95c6.44-1.33,13.14,0.31,18.21,4.41
			c-5.08,4.11-11.78,5.74-18.21,4.42C111.86,139.87,111.86,136.86,112.45,133.95z M129.45,159.78c-1.33-6.44,0.31-13.14,4.42-18.21
			c4.11,5.08,5.74,11.78,4.42,18.21C135.38,160.37,132.37,160.37,129.45,159.78z M143.32,158.07c1.41-4.32,2.44-5.69,3.51-6.76
			s2.43-2.1,6.76-3.51c-1.04,2.18-2.44,4.23-4.24,6.03C147.54,155.64,145.5,157.03,143.32,158.07z M155.29,142.77
			c-6.44,1.33-13.13-0.3-18.21-4.41c5.08-4.11,11.77-5.74,18.21-4.42C155.88,136.85,155.88,139.86,155.29,142.77z"/>
		<path class="st4" d="M47.84,236.92c-3.73,13.91,4.56,28.26,18.47,31.99c13.91,3.73,28.26-4.56,31.99-18.47
			c3.73-13.91-4.56-28.26-18.47-31.99C65.91,214.73,51.56,223.01,47.84,236.92z M78.73,222.54c2.46,0.66,4.69,1.73,6.69,3.1
			c-4.45,0.94-6.15,0.73-7.61,0.34c-1.46-0.39-3.04-1.06-6.42-4.1C73.79,221.7,76.27,221.88,78.73,222.54z M67.4,264.82
			c-2.46-0.66-4.69-1.73-6.69-3.1c4.45-0.94,6.15-0.73,7.61-0.34c1.46,0.39,3.04,1.06,6.42,4.1
			C72.33,265.67,69.86,265.48,67.4,264.82z M66.17,222.93c4.37,4.91,6.31,11.53,5.29,17.98c-6.1-2.34-10.86-7.33-12.93-13.56
			C60.75,225.37,63.36,223.87,66.17,222.93z M55.02,231.33c0.94,4.45,0.73,6.15,0.34,7.61c-0.39,1.46-1.06,3.04-4.1,6.42
			c-0.19-2.41,0-4.88,0.66-7.34C52.59,235.56,53.66,233.32,55.02,231.33z M52.31,250.57c4.91-4.37,11.53-6.3,17.98-5.28
			c-2.34,6.1-7.33,10.86-13.56,12.93C54.75,255.99,53.25,253.39,52.31,250.57z M79.95,264.44c-4.37-4.91-6.3-11.53-5.28-17.98
			c6.1,2.34,10.86,7.33,12.93,13.56C85.37,261.99,82.77,263.5,79.95,264.44z M91.1,256.03c-0.94-4.45-0.73-6.15-0.34-7.61
			c0.39-1.46,1.06-3.04,4.1-6.42c0.19,2.41,0,4.88-0.66,7.34C93.54,251.81,92.47,254.04,91.1,256.03z M93.82,236.79
			c-4.91,4.37-11.53,6.3-17.98,5.28c2.34-6.1,7.33-10.86,13.56-12.93C91.37,231.37,92.88,233.98,93.82,236.79z"/>
		<path class="st4" d="M47.84,372.06c3.73,13.91,18.08,22.2,31.99,18.47c13.91-3.73,22.19-18.08,18.47-31.99
			c-3.73-13.91-18.08-22.19-31.99-18.47C52.39,343.8,44.11,358.15,47.84,372.06z M67.4,344.16c2.46-0.66,4.93-0.85,7.34-0.66
			c-3.38,3.04-4.96,3.71-6.42,4.1c-1.46,0.39-3.16,0.6-7.61-0.34C62.7,345.89,64.94,344.82,67.4,344.16z M78.73,386.43
			c-2.46,0.66-4.93,0.85-7.34,0.66c3.38-3.04,4.96-3.71,6.42-4.1c1.46-0.39,3.16-0.6,7.61,0.34
			C83.42,384.7,81.19,385.78,78.73,386.43z M56.72,350.77c6.24,2.07,11.22,6.83,13.57,12.93c-6.45,1.02-13.07-0.91-17.98-5.28
			C53.25,355.6,54.75,352.99,56.72,350.77z M51.27,363.62c3.04,3.38,3.71,4.96,4.1,6.42c0.39,1.46,0.6,3.16-0.34,7.61
			c-1.37-1.99-2.44-4.22-3.1-6.68C51.27,368.5,51.08,366.03,51.27,363.62z M58.53,381.64c2.07-6.24,6.83-11.22,12.93-13.56
			c1.02,6.45-0.91,13.07-5.28,17.98C63.36,385.11,60.76,383.61,58.53,381.64z M89.4,379.83c-6.24-2.07-11.22-6.84-13.56-12.93
			c6.45-1.02,13.07,0.91,17.98,5.28C92.88,375,91.37,377.6,89.4,379.83z M94.86,366.97c-3.04-3.38-3.71-4.96-4.1-6.42
			c-0.39-1.46-0.6-3.16,0.34-7.61c1.37,1.99,2.44,4.22,3.1,6.69C94.86,362.09,95.05,364.57,94.86,366.97z M87.59,348.96
			c-2.07,6.24-6.83,11.22-12.93,13.56c-1.02-6.45,0.91-13.07,5.28-17.98C82.77,345.48,85.37,346.98,87.59,348.96z"/>
		<path class="st4" d="M115.4,489.09c10.18,10.18,26.75,10.18,36.93,0c10.18-10.18,10.18-26.75,0-36.94
			c-10.18-10.18-26.75-10.18-36.94,0C105.22,462.33,105.22,478.9,115.4,489.09z M118.4,455.14c1.8-1.8,3.85-3.2,6.03-4.24
			c-1.41,4.32-2.44,5.69-3.51,6.76c-1.07,1.07-2.43,2.1-6.76,3.51C115.2,458.99,116.6,456.95,118.4,455.14z M149.34,486.09
			c-1.8,1.8-3.85,3.2-6.03,4.24c1.41-4.32,2.44-5.69,3.51-6.76s2.43-2.1,6.76-3.51C152.54,482.24,151.15,484.29,149.34,486.09z
			 M112.45,466.21c6.44-1.33,13.13,0.3,18.21,4.41c-5.08,4.11-11.77,5.74-18.21,4.42C111.86,472.12,111.86,469.12,112.45,466.21z
			 M114.16,480.07c4.32,1.41,5.69,2.44,6.76,3.51s2.1,2.43,3.51,6.76c-2.18-1.04-4.23-2.44-6.03-4.24
			C116.6,484.29,115.2,482.24,114.16,480.07z M129.46,492.03c-1.33-6.44,0.31-13.14,4.41-18.21c4.11,5.08,5.74,11.78,4.42,18.21
			C135.38,492.63,132.37,492.63,129.46,492.03z M155.29,475.04c-6.44,1.33-13.14-0.31-18.21-4.42c5.08-4.11,11.78-5.74,18.21-4.42
			C155.88,469.11,155.88,472.12,155.29,475.04z M153.58,461.17c-4.32-1.41-5.69-2.44-6.76-3.51s-2.1-2.43-3.51-6.76
			c2.18,1.04,4.23,2.44,6.03,4.24C151.15,456.95,152.54,458.99,153.58,461.17z M138.28,449.2c1.33,6.44-0.3,13.13-4.41,18.21
			c-4.11-5.08-5.74-11.77-4.42-18.21C132.37,448.61,135.37,448.61,138.28,449.2z"/>
		<path class="st4" d="M232.43,556.65c13.91,3.73,28.26-4.56,31.99-18.47c3.73-13.91-4.56-28.26-18.47-31.99
			s-28.26,4.56-31.99,18.47C210.24,538.58,218.52,552.92,232.43,556.65z M218.05,525.76c0.66-2.46,1.73-4.69,3.1-6.68
			c0.94,4.45,0.73,6.15,0.34,7.61s-1.06,3.04-4.1,6.42C217.21,530.69,217.39,528.22,218.05,525.76z M260.33,537.09
			c-0.66,2.46-1.73,4.69-3.1,6.69c-0.94-4.45-0.73-6.15-0.34-7.61c0.39-1.46,1.06-3.04,4.1-6.42
			C261.18,532.16,260.99,534.63,260.33,537.09z M218.44,538.32c4.91-4.37,11.53-6.31,17.98-5.29c-2.34,6.1-7.33,10.86-13.56,12.93
			C220.88,543.74,219.38,541.13,218.44,538.32z M226.84,549.46c4.45-0.94,6.15-0.73,7.61-0.34c1.46,0.39,3.04,1.06,6.42,4.1
			c-2.41,0.19-4.88,0-7.34-0.66C231.07,551.9,228.83,550.83,226.84,549.46z M246.08,552.18c-4.37-4.91-6.3-11.53-5.28-17.98
			c6.1,2.34,10.86,7.33,12.93,13.56C251.5,549.74,248.9,551.24,246.08,552.18z M259.95,524.54c-4.91,4.37-11.53,6.3-17.98,5.28
			c2.34-6.1,7.33-10.86,13.56-12.93C257.5,519.12,259.01,521.72,259.95,524.54z M251.54,513.39c-4.45,0.94-6.15,0.73-7.61,0.34
			c-1.46-0.39-3.04-1.06-6.42-4.1c2.41-0.19,4.88,0,7.34,0.66C247.32,510.95,249.55,512.02,251.54,513.39z M232.31,510.67
			c4.37,4.91,6.3,11.53,5.28,17.98c-6.1-2.34-10.86-7.33-12.93-13.56C226.88,513.11,229.49,511.61,232.31,510.67z"/>
		<path class="st4" d="M367.57,556.65c13.91-3.73,22.19-18.08,18.47-31.99c-3.73-13.91-18.08-22.2-31.99-18.47
			c-13.91,3.73-22.19,18.08-18.47,31.99C339.31,552.09,353.66,560.38,367.57,556.65z M339.67,537.09c-0.66-2.46-0.85-4.93-0.66-7.34
			c3.04,3.38,3.71,4.96,4.1,6.42c0.39,1.46,0.6,3.16-0.34,7.61C341.4,541.78,340.33,539.55,339.67,537.09z M381.95,525.76
			c0.66,2.46,0.85,4.93,0.66,7.34c-3.04-3.38-3.71-4.96-4.1-6.42c-0.39-1.46-0.6-3.16,0.34-7.61
			C380.21,521.07,381.29,523.3,381.95,525.76z M346.28,547.77c2.07-6.24,6.83-11.22,12.93-13.57c1.02,6.45-0.91,13.07-5.28,17.98
			C351.11,551.24,348.5,549.74,346.28,547.77z M359.13,553.22c3.38-3.04,4.96-3.71,6.42-4.1c1.46-0.39,3.16-0.6,7.61,0.34
			c-1.99,1.37-4.22,2.44-6.68,3.1C364.01,553.22,361.54,553.41,359.13,553.22z M377.15,545.96c-6.24-2.07-11.22-6.83-13.56-12.93
			c6.45-1.02,13.07,0.91,17.98,5.28C380.62,541.13,379.12,543.73,377.15,545.96z M375.34,515.09c-2.07,6.24-6.84,11.22-12.93,13.56
			c-1.02-6.45,0.91-13.07,5.28-17.98C370.51,511.61,373.12,513.11,375.34,515.09z M362.48,509.63c-3.38,3.04-4.96,3.71-6.42,4.1
			c-1.46,0.39-3.16,0.6-7.61-0.34c1.99-1.37,4.22-2.44,6.69-3.1C357.6,509.63,360.08,509.44,362.48,509.63z M344.47,516.89
			c6.24,2.07,11.22,6.83,13.56,12.93c-6.45,1.02-13.07-0.91-17.98-5.28C340.99,521.72,342.5,519.12,344.47,516.89z"/>
		<path class="st4" d="M484.6,489.09c10.18-10.18,10.18-26.75,0-36.93c-10.18-10.18-26.75-10.18-36.94,0
			c-10.18,10.18-10.18,26.75,0,36.94C457.84,499.27,474.41,499.27,484.6,489.09z M450.66,486.09c-1.8-1.8-3.2-3.85-4.24-6.03
			c4.32,1.41,5.69,2.44,6.76,3.51s2.1,2.43,3.51,6.76C454.5,489.29,452.46,487.89,450.66,486.09z M481.6,455.14
			c1.8,1.8,3.2,3.85,4.24,6.03c-4.32-1.41-5.69-2.44-6.76-3.51c-1.07-1.07-2.1-2.43-3.51-6.76
			C477.75,451.94,479.8,453.34,481.6,455.14z M461.72,492.04c-1.33-6.44,0.3-13.13,4.41-18.21c4.11,5.08,5.74,11.77,4.42,18.21
			C467.64,492.63,464.63,492.63,461.72,492.04z M475.58,490.33c1.41-4.32,2.44-5.69,3.51-6.76c1.07-1.07,2.43-2.1,6.76-3.51
			c-1.04,2.18-2.44,4.23-4.24,6.03C479.8,487.89,477.75,489.29,475.58,490.33z M487.55,475.03c-6.44,1.33-13.14-0.31-18.21-4.41
			c5.08-4.11,11.78-5.74,18.21-4.42C488.14,469.11,488.14,472.12,487.55,475.03z M470.55,449.2c1.33,6.44-0.31,13.14-4.42,18.21
			c-4.11-5.08-5.74-11.78-4.42-18.21C464.62,448.61,467.63,448.61,470.55,449.2z M456.68,450.9c-1.41,4.32-2.44,5.69-3.51,6.76
			s-2.43,2.1-6.76,3.51c1.04-2.18,2.44-4.23,4.24-6.03C452.46,453.34,454.5,451.95,456.68,450.9z M444.71,466.2
			c6.44-1.33,13.13,0.3,18.21,4.41c-5.08,4.11-11.77,5.74-18.21,4.42C444.12,472.12,444.12,469.12,444.71,466.2z"/>
		<path class="st4" d="M552.16,372.06c3.73-13.91-4.56-28.26-18.47-31.99c-13.91-3.73-28.26,4.56-31.99,18.47
			c-3.73,13.91,4.56,28.26,18.47,31.99C534.09,394.25,548.44,385.97,552.16,372.06z M521.27,386.43c-2.46-0.66-4.69-1.73-6.68-3.1
			c4.45-0.94,6.15-0.73,7.61-0.34c1.46,0.39,3.04,1.06,6.42,4.1C526.21,387.28,523.73,387.09,521.27,386.43z M532.6,344.16
			c2.46,0.66,4.69,1.73,6.69,3.1c-4.45,0.94-6.15,0.73-7.61,0.34s-3.04-1.06-6.42-4.1C527.67,343.31,530.14,343.5,532.6,344.16z
			 M533.83,386.05c-4.37-4.91-6.31-11.53-5.28-17.98c6.1,2.34,10.86,7.33,12.93,13.56C539.25,383.61,536.64,385.11,533.83,386.05z
			 M544.98,377.64c-0.94-4.45-0.73-6.15-0.34-7.61c0.39-1.46,1.06-3.04,4.1-6.42c0.19,2.41,0,4.88-0.66,7.34
			C547.41,373.42,546.34,375.65,544.98,377.64z M547.69,358.41c-4.91,4.37-11.53,6.3-17.98,5.28c2.34-6.1,7.33-10.86,13.56-12.93
			C545.25,352.99,546.75,355.59,547.69,358.41z M520.05,344.54c4.37,4.91,6.3,11.53,5.28,17.98c-6.1-2.34-10.86-7.33-12.93-13.56
			C514.63,346.99,517.23,345.48,520.05,344.54z M508.9,352.95c0.94,4.45,0.73,6.15,0.34,7.61s-1.06,3.04-4.1,6.42
			c-0.19-2.41,0-4.88,0.66-7.34C506.46,357.17,507.53,354.94,508.9,352.95z M506.18,372.18c4.91-4.37,11.53-6.3,17.98-5.28
			c-2.34,6.1-7.33,10.86-13.56,12.93C508.63,377.61,507.12,375,506.18,372.18z"/>
		<path class="st4" d="M552.16,236.92c-3.73-13.91-18.08-22.19-31.99-18.47c-13.91,3.73-22.2,18.08-18.47,31.99
			c3.73,13.91,18.08,22.2,31.99,18.47C547.61,265.18,555.89,250.83,552.16,236.92z M532.6,264.82c-2.46,0.66-4.93,0.85-7.34,0.66
			c3.38-3.04,4.96-3.71,6.42-4.1c1.46-0.39,3.16-0.6,7.61,0.34C537.3,263.09,535.06,264.16,532.6,264.82z M521.27,222.54
			c2.46-0.66,4.93-0.85,7.34-0.66c-3.38,3.04-4.96,3.71-6.42,4.1c-1.46,0.39-3.16,0.6-7.61-0.34
			C516.58,224.28,518.81,223.2,521.27,222.54z M543.28,258.21c-6.24-2.07-11.22-6.83-13.57-12.93c6.45-1.02,13.07,0.91,17.98,5.28
			C546.75,253.38,545.25,255.99,543.28,258.21z M548.73,245.36c-3.04-3.38-3.71-4.96-4.1-6.42c-0.39-1.46-0.6-3.16,0.34-7.61
			c1.37,1.99,2.44,4.22,3.1,6.68C548.73,240.48,548.92,242.95,548.73,245.36z M541.47,227.34c-2.07,6.24-6.83,11.22-12.93,13.56
			c-1.02-6.45,0.91-13.07,5.28-17.98C536.64,223.87,539.24,225.37,541.47,227.34z M510.6,229.15c6.24,2.07,11.22,6.84,13.56,12.93
			c-6.45,1.02-13.07-0.91-17.98-5.28C507.12,233.98,508.63,231.37,510.6,229.15z M505.14,242.01c3.04,3.38,3.71,4.96,4.1,6.42
			c0.39,1.46,0.6,3.16-0.34,7.61c-1.37-1.99-2.44-4.22-3.1-6.69C505.14,246.88,504.95,244.41,505.14,242.01z M512.41,260.02
			c2.07-6.24,6.83-11.22,12.93-13.56c1.02,6.45-0.91,13.07-5.28,17.98C517.23,263.5,514.63,261.99,512.41,260.02z"/>
		<path class="st4" d="M484.6,119.89c-10.18-10.18-26.75-10.18-36.93,0c-10.18,10.18-10.18,26.75,0,36.94
			c10.18,10.18,26.75,10.18,36.94,0C494.78,146.64,494.78,130.08,484.6,119.89z M481.6,153.83c-1.8,1.8-3.85,3.2-6.03,4.24
			c1.41-4.32,2.44-5.69,3.51-6.76c1.07-1.07,2.43-2.1,6.76-3.51C484.8,149.98,483.4,152.03,481.6,153.83z M450.66,122.89
			c1.8-1.8,3.85-3.2,6.03-4.24c-1.41,4.32-2.44,5.69-3.51,6.76c-1.07,1.07-2.43,2.1-6.76,3.51
			C447.46,126.74,448.85,124.69,450.66,122.89z M487.55,142.77c-6.44,1.33-13.13-0.3-18.21-4.41c5.08-4.11,11.77-5.74,18.21-4.42
			C488.14,136.85,488.14,139.86,487.55,142.77z M485.84,128.91c-4.32-1.41-5.69-2.44-6.76-3.51c-1.07-1.07-2.1-2.43-3.51-6.76
			c2.18,1.04,4.23,2.44,6.03,4.24C483.4,124.69,484.8,126.73,485.84,128.91z M470.54,116.94c1.33,6.44-0.31,13.14-4.41,18.21
			c-4.11-5.08-5.74-11.78-4.42-18.21C464.62,116.35,467.63,116.35,470.54,116.94z M444.71,133.94c6.44-1.33,13.14,0.31,18.21,4.42
			c-5.08,4.11-11.78,5.74-18.21,4.42C444.12,139.86,444.12,136.86,444.71,133.94z M446.42,147.81c4.32,1.41,5.69,2.44,6.76,3.51
			s2.1,2.43,3.51,6.76c-2.18-1.04-4.23-2.44-6.03-4.24C448.85,152.03,447.46,149.98,446.42,147.81z M461.72,159.78
			c-1.33-6.44,0.3-13.13,4.41-18.21c4.11,5.08,5.74,11.77,4.42,18.21C467.63,160.37,464.63,160.37,461.72,159.78z"/>
		<path class="st4" d="M367.57,52.33c-13.91-3.73-28.26,4.56-31.99,18.47c-3.73,13.91,4.56,28.26,18.47,31.99
			c13.91,3.73,28.26-4.56,31.99-18.47C389.76,70.4,381.48,56.05,367.57,52.33z M381.95,83.22c-0.66,2.46-1.73,4.69-3.1,6.69
			c-0.94-4.45-0.73-6.15-0.34-7.61c0.39-1.46,1.06-3.04,4.1-6.42C382.79,78.28,382.61,80.76,381.95,83.22z M339.67,71.89
			c0.66-2.46,1.73-4.69,3.1-6.69c0.94,4.45,0.73,6.15,0.34,7.61c-0.39,1.46-1.06,3.04-4.1,6.42
			C338.82,76.82,339.01,74.35,339.67,71.89z M381.56,70.66c-4.91,4.37-11.53,6.31-17.98,5.29c2.34-6.1,7.33-10.86,13.56-12.93
			C379.12,65.24,380.62,67.84,381.56,70.66z M373.16,59.51c-4.45,0.94-6.15,0.73-7.61,0.34c-1.46-0.39-3.04-1.06-6.42-4.1
			c2.41-0.19,4.88,0,7.34,0.66C368.93,57.07,371.17,58.15,373.16,59.51z M353.92,56.8c4.37,4.91,6.3,11.53,5.28,17.98
			c-6.1-2.34-10.86-7.33-12.93-13.56C348.5,59.24,351.1,57.74,353.92,56.8z M340.05,84.43c4.91-4.37,11.53-6.3,17.98-5.28
			c-2.34,6.1-7.33,10.86-13.56,12.93C342.5,89.86,340.99,87.26,340.05,84.43z M348.46,95.59c4.45-0.94,6.15-0.73,7.61-0.34
			c1.46,0.39,3.04,1.06,6.42,4.1c-2.41,0.19-4.88,0-7.34-0.66C352.68,98.03,350.45,96.96,348.46,95.59z M367.69,98.31
			c-4.37-4.91-6.3-11.53-5.28-17.98c6.1,2.34,10.86,7.33,12.93,13.56C373.12,95.86,370.51,97.37,367.69,98.31z"/>
	</g>
	<g>
		<g>
			<path class="st4" d="M563.27,46.97l-1.83-1.06c0,0,0,0,0,0.01c-3.9,6.74-11.01,11-18.74,11.39c0.39-7.72,4.65-14.83,11.39-18.74
				c0,0,0,0,0,0c0,0,0,0,0,0l-1.06-1.83c-7.13,4.11-9.41,4.44-11.47,4.44c-2.06,0-4.35-0.33-11.47-4.44l-1.06,1.83c0,0,0,0,0.01,0
				c6.74,3.9,11,11.01,11.39,18.74c-7.72-0.39-14.83-4.65-18.74-11.39c0,0,0,0,0,0c0,0,0,0,0,0l-1.83,1.06
				c4.11,7.13,4.44,9.41,4.44,11.47c0,2.06-0.33,4.35-4.44,11.47l1.83,1.06c0,0,0,0,0-0.01c3.9-6.74,11.01-11,18.74-11.39
				c-0.39,7.72-4.65,14.83-11.39,18.74c0,0,0,0,0,0c0,0,0,0,0,0l1.06,1.83c7.13-4.11,9.41-4.44,11.47-4.44
				c2.06,0,4.35,0.33,11.47,4.44l1.06-1.83c0,0,0,0-0.01,0c-6.74-3.9-11-11.01-11.39-18.74c7.72,0.39,14.83,4.65,18.74,11.39
				c0,0,0,0,0,0c0,0,0,0,0,0l1.83-1.06c-4.11-7.13-4.44-9.41-4.44-11.47C558.83,56.38,559.16,54.09,563.27,46.97z"/>
			<circle class="st4" cx="563.27" cy="36.73" r="3.6"/>
			<circle class="st4" cx="519.86" cy="36.73" r="3.6"/>
			<circle class="st4" cx="563.27" cy="80.14" r="3.6"/>
			<circle class="st4" cx="519.86" cy="80.14" r="3.6"/>
		</g>
		<g>
			<path class="st4" d="M80.14,46.97l-1.83-1.06c0,0,0,0,0,0.01c-3.9,6.74-11.01,11-18.74,11.39c0.39-7.72,4.65-14.83,11.39-18.74
				c0,0,0,0,0,0c0,0,0,0,0,0l-1.06-1.83c-7.13,4.11-9.41,4.44-11.47,4.44c-2.06,0-4.35-0.33-11.47-4.44l-1.06,1.83c0,0,0,0,0.01,0
				c6.74,3.9,11,11.01,11.39,18.74c-7.72-0.39-14.83-4.65-18.74-11.39c0,0,0,0,0,0c0,0,0,0,0,0l-1.83,1.06
				c4.11,7.13,4.44,9.41,4.44,11.47c0,2.06-0.33,4.35-4.44,11.47l1.83,1.06c0,0,0,0,0-0.01c3.9-6.74,11.01-11,18.74-11.39
				c-0.39,7.72-4.65,14.83-11.39,18.74c0,0,0,0,0,0c0,0,0,0,0,0l1.06,1.83c7.13-4.11,9.41-4.44,11.47-4.44
				c2.06,0,4.35,0.33,11.47,4.44l1.06-1.83c0,0,0,0-0.01,0c-6.74-3.9-11-11.01-11.39-18.74c7.72,0.39,14.83,4.65,18.74,11.39
				c0,0,0,0,0,0c0,0,0,0,0,0l1.83-1.06c-4.11-7.13-4.44-9.41-4.44-11.47C75.7,56.38,76.04,54.09,80.14,46.97z"/>
			<circle class="st4" cx="80.14" cy="36.73" r="3.6"/>
			<circle class="st4" cx="36.73" cy="36.73" r="3.6"/>
			<circle class="st4" cx="80.14" cy="80.14" r="3.6"/>
			<circle class="st4" cx="36.73" cy="80.14" r="3.6"/>
		</g>
		<g>
			<path class="st4" d="M563.27,529.76l-1.83-1.06c0,0,0,0,0,0.01c-3.9,6.74-11.01,11-18.74,11.39c0.39-7.72,4.65-14.83,11.39-18.74
				c0,0,0,0,0,0c0,0,0,0,0,0l-1.06-1.83c-7.13,4.11-9.41,4.44-11.47,4.44c-2.06,0-4.35-0.33-11.47-4.44l-1.06,1.83c0,0,0,0,0.01,0
				c6.74,3.9,11,11.01,11.39,18.74c-7.72-0.39-14.83-4.65-18.74-11.39c0,0,0,0,0,0c0,0,0,0,0,0l-1.83,1.06
				c4.11,7.13,4.44,9.41,4.44,11.47c0,2.06-0.33,4.35-4.44,11.47l1.83,1.06c0,0,0,0,0-0.01c3.9-6.74,11.01-11,18.74-11.39
				c-0.39,7.72-4.65,14.83-11.39,18.74c0,0,0,0,0,0c0,0,0,0,0,0l1.06,1.83c7.13-4.11,9.41-4.44,11.47-4.44
				c2.06,0,4.35,0.33,11.47,4.44l1.06-1.83c0,0,0,0-0.01,0c-6.74-3.9-11-11.01-11.39-18.74c7.72,0.39,14.83,4.65,18.74,11.39
				c0,0,0,0,0,0c0,0,0,0,0,0l1.83-1.06c-4.11-7.13-4.44-9.41-4.44-11.47C558.83,539.17,559.16,536.88,563.27,529.76z"/>
			<circle class="st4" cx="563.27" cy="519.52" r="3.6"/>
			<circle class="st4" cx="519.86" cy="519.52" r="3.6"/>
			<circle class="st4" cx="563.27" cy="562.93" r="3.6"/>
			<circle class="st4" cx="519.86" cy="562.93" r="3.6"/>
		</g>
		<g>
			<path class="st4" d="M80.14,529.76l-1.83-1.06c0,0,0,0,0,0.01c-3.9,6.74-11.01,11-18.74,11.39c0.39-7.72,4.65-14.83,11.39-18.74
				c0,0,0,0,0,0c0,0,0,0,0,0l-1.06-1.83c-7.13,4.11-9.41,4.44-11.47,4.44c-2.06,0-4.35-0.33-11.47-4.44l-1.06,1.83c0,0,0,0,0.01,0
				c6.74,3.9,11,11.01,11.39,18.74c-7.72-0.39-14.83-4.65-18.74-11.39c0,0,0,0,0,0c0,0,0,0,0,0l-1.83,1.06
				c4.11,7.13,4.44,9.41,4.44,11.47c0,2.06-0.33,4.35-4.44,11.47l1.83,1.06c0,0,0,0,0-0.01c3.9-6.74,11.01-11,18.74-11.39
				c-0.39,7.72-4.65,14.83-11.39,18.74c0,0,0,0,0,0c0,0,0,0,0,0l1.06,1.83c7.13-4.11,9.41-4.44,11.47-4.44
				c2.06,0,4.35,0.33,11.47,4.44l1.06-1.83c0,0,0,0-0.01,0c-6.74-3.9-11-11.01-11.39-18.74c7.72,0.39,14.83,4.65,18.74,11.39
				c0,0,0,0,0,0c0,0,0,0,0,0l1.83-1.06c-4.11-7.13-4.44-9.41-4.44-11.47C75.7,539.17,76.04,536.88,80.14,529.76z"/>
			<circle class="st4" cx="80.14" cy="519.52" r="3.6"/>
			<circle class="st4" cx="36.73" cy="519.52" r="3.6"/>
			<circle class="st4" cx="80.14" cy="562.93" r="3.6"/>
			<circle class="st4" cx="36.73" cy="562.93" r="3.6"/>
		</g>
	</g>
</g>
</svg>
