<?xml version="1.0" encoding="utf-8"?>
<!-- Generator: Adobe Illustrator 26.3.1, SVG Export Plug-In . SVG Version: 6.00 Build 0)  -->
<svg version="1.1" id="레이어_1" xmlns="http://www.w3.org/2000/svg" xmlns:xlink="http://www.w3.org/1999/xlink" x="0px"
	 y="0px" viewBox="0 0 600 600" style="enable-background:new 0 0 600 600;" xml:space="preserve">
<style type="text/css">
	.st0{fill:none;stroke:#E9BC00;stroke-width:3;stroke-linecap:round;stroke-linejoin:round;stroke-miterlimit:10;}
	.st1{fill:none;stroke:#E9BC00;stroke-width:6;stroke-linecap:round;stroke-linejoin:round;stroke-miterlimit:10;}
	.st2{fill:none;stroke:#E9BC00;stroke-width:8;stroke-linejoin:bevel;stroke-miterlimit:10;}
	.st3{fill:none;stroke:#E9BC00;stroke-width:3;stroke-miterlimit:10;}
	.st4{fill:#E9BC00;}
</style>
<circle class="st0" cx="300" cy="300" r="270"/>
<circle class="st0" cx="300" cy="300" r="192"/>
<circle class="st1" cx="300" cy="300" r="282"/>
<g>
	<polygon class="st2" points="250.7,367 300,215.3 349.3,367 220.2,273.2 379.7,273.2 	"/>
	<path class="st3" d="M300,114.7c-102.2,0-185.3,83.1-185.3,185.3S197.8,485.3,300,485.3S485.3,402.2,485.3,300
		S402.2,114.7,300,114.7z M178.3,351.1c-7.8-18.9-20.8-34.6-37.3-45.9h63.8c1.2,22.3,10.1,42.6,24.2,58.2l-44.3,44.3
		C188,388.8,185.9,369.3,178.3,351.1z M421.7,248.9c7.8,18.9,20.8,34.6,37.3,45.9h-63.9c-1.2-22.3-10.1-42.6-24.2-58.2l44.3-44.3
		C412,211.2,414.1,230.7,421.7,248.9z M300,384.7c-46.7,0-84.7-38-84.7-84.7s38-84.7,84.7-84.7s84.7,38,84.7,84.7
		S346.7,384.7,300,384.7z M363.5,229c-15.6-14-35.9-22.9-58.2-24.2v-62.6c19.5,27.4,51.2,43.3,84.2,43.3c6.4,0,12.8-0.6,19.2-1.8
		L363.5,229z M294.7,204.9c-22.3,1.2-42.6,10.2-58.2,24.2l-44.3-44.3c5.7,0.9,11.4,1.4,17,1.4c33.8,0,66.1-16.7,85.5-45.2V204.9z
		 M229,236.5c-14,15.6-22.9,35.9-24.2,58.2h-62.6c32.7-23.3,49.1-63.9,41.6-103.4L229,236.5z M236.5,371
		c15.6,14,35.9,22.9,58.2,24.2v62.6c-23.3-32.7-63.9-49.1-103.4-41.6L236.5,371z M305.3,395.1c22.3-1.2,42.6-10.1,58.2-24.2
		l44.3,44.3c-39.6-6.7-79.9,10.5-102.5,43.7V395.1L305.3,395.1z M371,363.5c14-15.6,22.9-35.9,24.2-58.2h62.6
		c-32.7,23.3-49.1,63.9-41.6,103.4L371,363.5z M431.5,244.8c-8.4-20.2-9.3-42.3-2.9-62.9c26.9,29.2,43.9,67.5,45.9,109.7
		C455,281.6,439.9,265.2,431.5,244.8z M307.4,125.5c42.2,1.8,80.7,18.6,110,45.2C374.7,184.2,328.1,165.1,307.4,125.5z M181.9,171.4
		c29.2-26.8,67.5-43.9,109.7-45.9C271,165.3,224.6,184.7,181.9,171.4z M125.5,292.6c1.8-42.2,18.6-80.7,45.2-110
		C184.2,225.3,165.1,271.9,125.5,292.6z M168.6,355.2c8.4,20.2,9.3,42.3,2.9,62.9c-26.9-29.2-43.9-67.5-45.9-109.7
		C145,318.4,160.1,334.8,168.6,355.2z M292.6,474.5c-42.2-1.8-80.7-18.6-110-45.2C225.3,415.8,271.9,434.9,292.6,474.5z
		 M418.1,428.6c-29.2,26.8-67.5,43.9-109.7,45.9C329,434.7,375.4,415.3,418.1,428.6z M474.5,307.4c-1.8,42.2-18.6,80.7-45.2,110
		C415.8,374.7,434.9,328.1,474.5,307.4z"/>
</g>
<g>
	<path class="st4" d="M274,54.5c-8.3,14.3-3.4,32.7,11,41s32.7,3.3,41-11s3.4-32.7-11-41C300.7,35.3,282.3,40.2,274,54.5z M311.1,47
		c-0.5,1.4-1.2,2.7-2,3.9c-2.1,2.8-5.8,4.4-7.7,7.5c-1,1.5-0.6,3.8-0.6,5.6c-0.1,1-0.4,2-0.8,2.8c-0.2-0.3-0.3-0.7-0.4-1.1
		c-0.5-1.2-0.4-2.5-0.3-3.8c0.6-5.5-5.7-7.3-8.4-11.1c-0.8-1.2-1.5-2.5-2-3.9C295.7,43.7,303.9,43.4,311.1,47z M286,48.6
		c1,1.1,1.7,2.4,2.4,3.7c1.1,2.1,0.9,4.9,1.5,7.1c0.3,1.1,0.5,2.3,1.1,3.3c0.8,1.6,3,2.4,4.5,3.3c0.8,0.6,1.5,1.3,2.1,2.1
		c-0.4,0-0.8-0.1-1.1-0.2c-1.3-0.2-2.4-0.9-3.5-1.7c-4.5-3.2-9.2,1.3-13.8,1.7c-1.5,0.1-2.9,0.1-4.4-0.2c0.2-3.7,1.3-7.5,3.3-10.9
		C280.2,53.5,282.9,50.7,286,48.6z M274.9,71.2c1.5-0.3,2.9-0.3,4.4-0.2c2.4,0.1,4.6,1.7,6.9,2.2c1.1,0.3,2.3,0.7,3.5,0.7
		c1.8,0.2,3.6-1.3,5.2-2.3c0.9-0.4,1.9-0.7,2.9-0.7c-0.2,0.3-0.5,0.6-0.7,0.9c-0.8,1-2,1.6-3.1,2.2c-5.1,2.3-3.5,8.6-5.4,12.8
		c-0.6,1.3-1.4,2.6-2.4,3.7C279.4,86,275.4,78.8,274.9,71.2z M288.9,92.1c0.5-1.4,1.2-2.7,2-3.9c2.1-2.8,5.8-4.4,7.7-7.5
		c1-1.5,0.6-3.8,0.6-5.6c0.1-1,0.4-2,0.8-2.8c0.2,0.3,0.3,0.7,0.4,1.1c0.5,1.2,0.4,2.5,0.3,3.8c-0.6,5.5,5.7,7.3,8.4,11.1
		c0.8,1.2,1.5,2.5,2,3.9C304.3,95.4,296.1,95.7,288.9,92.1z M314,90.5c-1-1.1-1.7-2.4-2.4-3.7c-1.1-2.1-0.9-4.9-1.5-7.1
		c-0.3-1.1-0.5-2.3-1.1-3.3c-0.8-1.6-3-2.4-4.5-3.3c-0.8-0.6-1.5-1.3-2.1-2.1c0.4,0,0.8,0.1,1.1,0.2c1.3,0.2,2.4,0.9,3.5,1.7
		c4.5,3.2,9.2-1.3,13.8-1.7c1.5-0.1,2.9-0.1,4.4,0.2c-0.2,3.7-1.3,7.5-3.3,10.9C319.8,85.6,317.1,88.4,314,90.5z M325.1,67.9
		c-1.5,0.3-2.9,0.3-4.4,0.2c-2.4-0.1-4.6-1.7-6.9-2.2c-1.1-0.3-2.3-0.7-3.5-0.7c-1.8-0.2-3.6,1.3-5.2,2.3c-0.9,0.4-1.9,0.7-2.9,0.7
		c0.2-0.3,0.5-0.6,0.7-0.9c0.8-1,2-1.6,3.1-2.2c5.1-2.3,3.5-8.6,5.4-12.8c0.6-1.3,1.4-2.6,2.4-3.7C320.6,53.1,324.6,60.3,325.1,67.9
		z"/>
	<path class="st4" d="M152.5,101c0,16.5,13.5,30,30,30s30-13.5,30-30s-13.5-30-30-30S152.5,84.5,152.5,101z M180.9,75.9
		c0.3,1.5,0.3,2.9,0.2,4.4c-0.4,3.5-2.8,6.7-2.9,10.3c-0.2,1.8,1.4,3.6,2.3,5.2c0.4,0.9,0.7,1.9,0.7,2.9c-0.3-0.2-0.6-0.5-0.9-0.7
		c-1-0.8-1.6-2-2.2-3.2c-2.3-5.1-8.6-3.5-12.8-5.4c-1.3-0.7-2.6-1.4-3.7-2.4C165.9,80.8,172.9,76.5,180.9,75.9z M160,89.9
		c1.4,0.5,2.7,1.2,3.9,2c2,1.3,3.2,3.8,4.9,5.4c0.9,0.8,1.6,1.8,2.6,2.3c1.5,1,3.8,0.6,5.6,0.6c1,0.1,2,0.4,2.9,0.8
		c-0.4,0.2-0.7,0.3-1.1,0.4c-1.2,0.5-2.5,0.4-3.8,0.3c-5.5-0.6-7.3,5.7-11.1,8.4c-1.2,0.8-2.5,1.6-3.9,2c-1.7-3.4-2.6-7.1-2.6-11.1
		C157.4,97,158.3,93.2,160,89.9z M161.6,115c1.1-1,2.4-1.7,3.7-2.4c2.1-1.1,4.9-0.9,7.1-1.5c1.1-0.3,2.3-0.6,3.3-1.1
		c1.6-0.8,2.4-3,3.3-4.6c0.6-0.8,1.3-1.5,2.1-2.1c0,0.4-0.1,0.8-0.2,1.2c-0.2,1.3-0.9,2.4-1.6,3.4c-3.2,4.5,1.3,9.2,1.7,13.8
		c0.1,1.5,0.1,2.9-0.2,4.4C172.9,125.6,165.9,121.3,161.6,115z M184.2,126.1c-0.3-1.5-0.3-2.9-0.2-4.4c0.4-3.5,2.8-6.7,2.9-10.3
		c0.2-1.8-1.4-3.6-2.3-5.2c-0.4-0.9-0.7-1.9-0.7-2.9c0.3,0.2,0.6,0.5,0.9,0.7c1,0.8,1.6,2,2.2,3.2c2.3,5.1,8.6,3.5,12.8,5.4
		c1.3,0.7,2.6,1.4,3.7,2.4C199.2,121.3,192.2,125.6,184.2,126.1z M205.1,112.2c-1.4-0.5-2.7-1.2-3.9-2c-2-1.3-3.2-3.8-4.9-5.4
		c-0.9-0.8-1.6-1.8-2.6-2.3c-1.5-1-3.8-0.6-5.6-0.6c-1-0.1-2-0.4-2.9-0.8c0.4-0.2,0.7-0.3,1.1-0.4c1.2-0.5,2.5-0.4,3.8-0.3
		c5.5,0.6,7.3-5.7,11.1-8.4c1.2-0.8,2.5-1.6,3.9-2c1.7,3.4,2.6,7.1,2.6,11.1C207.7,105,206.7,108.8,205.1,112.2z M203.4,87.1
		c-1.1,1-2.4,1.7-3.7,2.4c-2.1,1.1-4.9,0.9-7.1,1.5c-1.1,0.3-2.3,0.6-3.3,1.1c-1.6,0.8-2.4,3-3.3,4.6c-0.6,0.8-1.3,1.5-2.1,2.1
		c0-0.4,0.1-0.8,0.2-1.2c0.2-1.3,0.9-2.4,1.6-3.4c3.2-4.5-1.3-9.2-1.7-13.8c-0.1-1.5-0.1-2.9,0.2-4.4
		C192.2,76.5,199.2,80.8,203.4,87.1z"/>
	<path class="st4" d="M70.6,202c8.3,14.3,26.7,19.3,41,11s19.3-26.7,11-41s-26.7-19.3-41-11S62.3,187.7,70.6,202z M82.6,166.1
		c1,1.1,1.7,2.4,2.4,3.7c1.4,3.2,0.9,7.2,2.7,10.4c0.8,1.6,3,2.4,4.6,3.3c0.8,0.6,1.5,1.3,2.1,2.1c-0.4,0-0.8-0.1-1.2-0.2
		c-1.3-0.2-2.4-0.9-3.4-1.6c-4.5-3.2-9.2,1.3-13.8,1.7c-1.5,0.1-2.9,0.1-4.4-0.2C72,177.8,75.9,170.6,82.6,166.1z M71.4,188.6
		c1.5-0.3,2.9-0.3,4.4-0.2c2.3,0.1,4.6,1.7,6.9,2.2c1.2,0.3,2.3,0.7,3.4,0.7c1.8,0.2,3.6-1.4,5.2-2.3c0.9-0.4,1.9-0.7,2.9-0.7
		c-0.2,0.3-0.5,0.6-0.7,0.9c-0.8,1-2,1.6-3.2,2.2c-5.1,2.3-3.5,8.6-5.4,12.8c-0.7,1.3-1.4,2.6-2.4,3.7c-3.1-2.1-5.8-4.9-7.8-8.3
		C72.8,196.1,71.7,192.4,71.4,188.6z M85.4,209.6c0.5-1.4,1.2-2.7,2-3.9c1.3-2,3.8-3.2,5.4-4.9c0.8-0.9,1.8-1.6,2.3-2.6
		c1-1.5,0.6-3.8,0.6-5.6c0.1-1,0.4-2,0.8-2.9c0.2,0.4,0.3,0.7,0.4,1.1c0.5,1.2,0.4,2.5,0.3,3.8c-0.6,5.5,5.7,7.3,8.4,11.1
		c0.8,1.2,1.6,2.5,2,3.9C100.4,213.1,92.2,212.9,85.4,209.6z M110.5,207.9c-1-1.1-1.7-2.4-2.4-3.7c-1.4-3.2-0.9-7.2-2.7-10.4
		c-0.8-1.6-3-2.4-4.6-3.3c-0.8-0.6-1.5-1.3-2.1-2.1c0.4,0,0.8,0.1,1.2,0.2c1.3,0.2,2.4,0.9,3.4,1.6c4.5,3.2,9.2-1.3,13.8-1.7
		c1.5-0.1,2.9-0.1,4.4,0.2C121.1,196.2,117.2,203.5,110.5,207.9z M121.6,185.4c-1.5,0.3-2.9,0.3-4.4,0.2c-2.3-0.1-4.6-1.7-6.9-2.2
		c-1.2-0.3-2.3-0.7-3.4-0.7c-1.8-0.2-3.6,1.4-5.2,2.3c-0.9,0.4-1.9,0.7-2.9,0.7c0.2-0.3,0.5-0.6,0.7-0.9c0.8-1,2-1.6,3.2-2.2
		c5.1-2.3,3.5-8.6,5.4-12.8c0.7-1.3,1.4-2.6,2.4-3.7c3.1,2.1,5.8,4.9,7.8,8.3C120.3,177.9,121.4,181.6,121.6,185.4z M107.7,164.5
		c-0.5,1.4-1.2,2.7-2,3.9c-1.3,2-3.8,3.2-5.4,4.9c-0.8,0.9-1.8,1.6-2.3,2.6c-1,1.5-0.6,3.8-0.6,5.6c-0.1,1-0.4,2-0.8,2.9
		c-0.2-0.4-0.3-0.7-0.4-1.1c-0.5-1.2-0.4-2.5-0.3-3.8c0.6-5.5-5.7-7.3-8.4-11.1c-0.8-1.2-1.6-2.5-2-3.9
		C92.6,160.9,100.8,161.1,107.7,164.5z"/>
	<path class="st4" d="M50.1,330.5c14.3,8.3,32.7,3.4,41-11s3.3-32.7-11-41s-32.7-3.4-41,11C30.8,303.8,35.7,322.2,50.1,330.5z
		 M42.5,293.4c1.4,0.5,2.7,1.2,3.9,2c2.8,2.1,4.4,5.8,7.5,7.7c1.5,1,3.8,0.6,5.6,0.6c1,0.1,2,0.4,2.8,0.8c-0.3,0.2-0.7,0.3-1.1,0.4
		c-1.2,0.5-2.5,0.4-3.8,0.3c-5.5-0.6-7.3,5.7-11.1,8.4c-1.2,0.8-2.5,1.5-3.9,2C39.2,308.8,39,300.6,42.5,293.4z M44.2,318.4
		c1.1-1,2.4-1.7,3.7-2.4c2.1-1.1,4.9-0.9,7.1-1.5c1.1-0.3,2.3-0.5,3.3-1.1c1.6-0.8,2.4-3,3.3-4.5c0.6-0.8,1.3-1.5,2.1-2.1
		c0,0.4-0.1,0.8-0.2,1.1c-0.2,1.3-0.9,2.4-1.7,3.5c-3.2,4.5,1.3,9.2,1.7,13.8c0.1,1.5,0.1,2.9-0.2,4.4c-3.7-0.2-7.5-1.3-10.9-3.3
		C49,324.3,46.2,321.6,44.2,318.4z M66.7,329.6c-0.3-1.5-0.3-2.9-0.2-4.4c0.1-2.4,1.7-4.6,2.2-6.9c0.3-1.1,0.7-2.3,0.7-3.5
		c0.2-1.8-1.3-3.6-2.3-5.2c-0.4-0.9-0.7-1.9-0.7-2.9c0.3,0.2,0.6,0.5,0.9,0.7c1,0.8,1.6,2,2.2,3.1c2.3,5.1,8.6,3.5,12.8,5.4
		c1.3,0.6,2.6,1.4,3.7,2.4C81.5,325.1,74.3,329.1,66.7,329.6z M87.6,315.6c-1.4-0.5-2.7-1.2-3.9-2c-2.8-2.1-4.4-5.8-7.5-7.7
		c-1.5-1-3.8-0.6-5.6-0.6c-1-0.1-2-0.4-2.8-0.8c0.3-0.2,0.7-0.3,1.1-0.4c1.2-0.5,2.5-0.4,3.8-0.3c5.5,0.6,7.3-5.7,11.1-8.4
		c1.2-0.8,2.5-1.5,3.9-2C90.9,300.2,91.2,308.4,87.6,315.6z M86,290.5c-1.1,1-2.4,1.7-3.7,2.4c-2.1,1.1-4.9,0.9-7.1,1.5
		c-1.1,0.3-2.3,0.5-3.3,1.1c-1.6,0.8-2.4,3-3.3,4.5c-0.6,0.8-1.3,1.5-2.1,2.1c0-0.4,0.1-0.8,0.2-1.1c0.2-1.3,0.9-2.4,1.7-3.5
		c3.2-4.5-1.3-9.2-1.7-13.8c-0.1-1.5-0.1-2.9,0.2-4.4c3.7,0.2,7.5,1.3,10.9,3.3C81.1,284.7,83.9,287.4,86,290.5z M63.4,279.4
		c0.3,1.5,0.3,2.9,0.2,4.4c-0.1,2.4-1.7,4.6-2.2,6.9c-0.3,1.1-0.7,2.3-0.7,3.5c-0.2,1.8,1.3,3.6,2.3,5.2c0.4,0.9,0.7,1.9,0.7,2.9
		c-0.3-0.2-0.6-0.5-0.9-0.7c-1-0.8-1.6-2-2.2-3.1c-2.3-5.1-8.6-3.5-12.8-5.4c-1.3-0.6-2.6-1.4-3.7-2.4
		C48.6,283.8,55.8,279.9,63.4,279.4z"/>
	<path class="st4" d="M96.5,452c16.6,0,30-13.5,30-30s-13.5-30-30-30s-30,13.5-30,30S80,452,96.5,452z M71.4,423.6
		c1.5-0.3,2.9-0.3,4.4-0.2c3.5,0.4,6.7,2.8,10.3,2.9c1.8,0.2,3.6-1.4,5.2-2.3c0.9-0.4,1.9-0.7,2.9-0.7c-0.2,0.3-0.5,0.6-0.7,0.9
		c-0.8,1-2,1.6-3.2,2.2c-5.1,2.3-3.5,8.6-5.4,12.8c-0.7,1.3-1.4,2.6-2.4,3.7C76.3,438.6,72,431.6,71.4,423.6z M85.4,444.5
		c0.5-1.4,1.2-2.7,2-3.9c1.3-2,3.8-3.2,5.4-4.9c0.8-0.9,1.8-1.6,2.3-2.6c1-1.5,0.6-3.8,0.6-5.6c0.1-1,0.4-2,0.8-2.9
		c0.2,0.4,0.3,0.7,0.4,1.1c0.5,1.2,0.4,2.5,0.3,3.8c-0.6,5.5,5.7,7.3,8.4,11.1c0.8,1.2,1.6,2.5,2,3.9c-3.4,1.7-7.1,2.6-11.1,2.6
		C92.5,447.1,88.8,446.2,85.4,444.5z M110.5,442.9c-1-1.1-1.7-2.4-2.4-3.7c-1.1-2.1-0.9-4.9-1.5-7.1c-0.3-1.1-0.6-2.3-1.1-3.3
		c-0.8-1.6-3-2.4-4.6-3.3c-0.8-0.6-1.5-1.3-2.1-2.1c0.4,0,0.8,0.1,1.2,0.2c1.3,0.2,2.4,0.9,3.4,1.6c4.5,3.2,9.2-1.3,13.8-1.7
		c1.5-0.1,2.9-0.1,4.4,0.2C121.1,431.6,116.8,438.6,110.5,442.9z M121.6,420.3c-1.5,0.3-2.9,0.3-4.4,0.2c-3.5-0.4-6.7-2.8-10.3-2.9
		c-1.8-0.2-3.6,1.4-5.2,2.3c-0.9,0.4-1.9,0.7-2.9,0.7c0.2-0.3,0.5-0.6,0.7-0.9c0.8-1,2-1.6,3.2-2.2c5.1-2.3,3.5-8.6,5.4-12.8
		c0.7-1.3,1.4-2.6,2.4-3.7C116.8,405.3,121.1,412.3,121.6,420.3z M107.7,399.4c-0.5,1.4-1.2,2.7-2,3.9c-1.3,2-3.8,3.2-5.4,4.9
		c-0.8,0.9-1.8,1.6-2.3,2.6c-1,1.5-0.6,3.8-0.6,5.6c-0.1,1-0.4,2-0.8,2.9c-0.2-0.4-0.3-0.7-0.4-1.1c-0.5-1.2-0.4-2.5-0.3-3.8
		c0.6-5.5-5.7-7.3-8.4-11.1c-0.8-1.2-1.6-2.5-2-3.9c3.4-1.7,7.1-2.6,11.1-2.6C100.5,396.8,104.3,397.8,107.7,399.4z M82.6,401
		c1,1.1,1.7,2.4,2.4,3.7c1.1,2.1,0.9,4.9,1.5,7.1c0.3,1.1,0.6,2.3,1.1,3.3c0.8,1.6,3,2.4,4.6,3.3c0.8,0.6,1.5,1.3,2.1,2.1
		c-0.4,0-0.8-0.1-1.2-0.2c-1.3-0.2-2.4-0.9-3.4-1.6c-4.5-3.2-9.2,1.3-13.8,1.7c-1.5,0.1-2.9,0.1-4.4-0.2
		C72,412.3,76.3,405.3,82.6,401z"/>
	<path class="st4" d="M197.5,533.9c14.3-8.3,19.3-26.7,11-41s-26.7-19.3-41-11s-19.3,26.7-11,41
		C164.8,537.3,183.2,542.2,197.5,533.9z M161.6,521.9c1.1-1,2.4-1.7,3.7-2.4c3.2-1.4,7.2-0.9,10.4-2.7c1.6-0.8,2.4-3,3.3-4.5
		c0.6-0.8,1.3-1.5,2.1-2.1c0,0.4-0.1,0.8-0.2,1.1c-0.2,1.3-0.9,2.4-1.6,3.4c-3.2,4.5,1.3,9.2,1.7,13.8c0.1,1.5,0.1,2.9-0.2,4.4
		C173.3,532.5,166.1,528.6,161.6,521.9z M184.2,533c-0.3-1.5-0.3-2.9-0.2-4.4c0.1-2.3,1.7-4.6,2.2-6.9c0.3-1.2,0.7-2.3,0.7-3.5
		c0.2-1.8-1.4-3.6-2.3-5.2c-0.4-0.9-0.7-1.9-0.7-2.9c0.3,0.2,0.6,0.5,0.9,0.7c1,0.8,1.6,2,2.2,3.1c2.3,5.1,8.6,3.5,12.8,5.4
		c1.3,0.7,2.6,1.4,3.7,2.4c-2.1,3.1-4.9,5.8-8.3,7.8S187.9,532.8,184.2,533z M205.1,519.1c-1.4-0.5-2.7-1.2-3.9-2
		c-2-1.3-3.2-3.8-4.9-5.4c-0.9-0.8-1.6-1.8-2.6-2.3c-1.5-1-3.8-0.6-5.6-0.6c-1-0.1-2-0.4-2.9-0.8c0.4-0.2,0.7-0.3,1.1-0.4
		c1.2-0.5,2.5-0.4,3.8-0.3c5.5,0.6,7.3-5.7,11.1-8.4c1.2-0.8,2.5-1.5,3.9-2C208.6,504,208.4,512.3,205.1,519.1z M203.4,494
		c-1.1,1-2.4,1.7-3.7,2.4c-3.2,1.4-7.2,0.9-10.4,2.7c-1.6,0.8-2.4,3-3.3,4.5c-0.6,0.8-1.3,1.5-2.1,2.1c0-0.4,0.1-0.8,0.2-1.1
		c0.2-1.3,0.9-2.4,1.6-3.5c3.2-4.5-1.3-9.2-1.7-13.8c-0.1-1.5-0.1-2.9,0.2-4.4C191.7,483.4,199,487.3,203.4,494z M180.9,482.9
		c0.3,1.5,0.3,2.9,0.2,4.4c-0.1,2.4-1.7,4.6-2.2,6.9c-0.3,1.1-0.7,2.3-0.7,3.5c-0.2,1.8,1.4,3.6,2.3,5.2c0.4,0.9,0.7,1.9,0.7,2.9
		c-0.3-0.2-0.6-0.5-0.9-0.7c-1-0.8-1.6-2-2.2-3.1c-2.3-5.1-8.6-3.5-12.8-5.4c-1.3-0.6-2.6-1.4-3.7-2.4c2.1-3.1,4.9-5.8,8.3-7.8
		C173.4,484.2,177.2,483.1,180.9,482.9z M160,496.8c1.4,0.5,2.7,1.2,3.9,2c2,1.3,3.2,3.8,4.9,5.4c0.9,0.8,1.6,1.8,2.6,2.3
		c1.5,1,3.8,0.6,5.6,0.6c1,0.1,2,0.4,2.9,0.8c-0.4,0.2-0.7,0.3-1.1,0.4c-1.2,0.5-2.5,0.4-3.8,0.3c-5.5-0.6-7.3,5.7-11.1,8.4
		c-1.2,0.8-2.5,1.5-3.9,2C156.4,511.9,156.6,503.6,160,496.8z"/>
	<path class="st4" d="M326,554.4c8.3-14.3,3.4-32.7-11-41s-32.7-3.4-41,11c-8.3,14.3-3.4,32.7,11,41
		C299.3,573.7,317.7,568.8,326,554.4z M288.9,562c0.5-1.4,1.2-2.7,2-3.9c2.1-2.8,5.8-4.4,7.7-7.5c1-1.5,0.6-3.8,0.6-5.6
		c0.1-1,0.4-2,0.8-2.8c0.2,0.3,0.3,0.7,0.4,1.1c0.5,1.2,0.4,2.5,0.3,3.8c-0.6,5.5,5.7,7.3,8.4,11.1c0.8,1.2,1.5,2.5,2,3.9
		C304.3,565.3,296.1,565.5,288.9,562z M314,560.3c-1-1.1-1.7-2.4-2.4-3.7c-1.1-2.1-0.9-4.9-1.5-7.1c-0.3-1.1-0.5-2.3-1.1-3.3
		c-0.8-1.6-3-2.4-4.5-3.3c-0.8-0.6-1.5-1.3-2.1-2.1c0.4,0,0.8,0.1,1.1,0.2c1.3,0.2,2.4,0.9,3.5,1.7c4.5,3.2,9.2-1.3,13.8-1.7
		c1.5-0.1,2.9-0.1,4.4,0.2c-0.2,3.7-1.3,7.5-3.3,10.9C319.8,555.5,317.1,558.3,314,560.3z M325.1,537.8c-1.5,0.3-2.9,0.3-4.4,0.2
		c-2.4-0.1-4.6-1.7-6.9-2.2c-1.1-0.3-2.3-0.7-3.5-0.7c-1.8-0.2-3.6,1.3-5.2,2.3c-0.9,0.4-1.9,0.7-2.9,0.7c0.2-0.3,0.5-0.6,0.7-0.9
		c0.8-1,2-1.6,3.1-2.2c5.1-2.3,3.5-8.6,5.4-12.8c0.6-1.3,1.4-2.6,2.4-3.7C320.6,523,324.6,530.2,325.1,537.8z M311.1,516.9
		c-0.5,1.4-1.2,2.7-2,3.9c-2.1,2.8-5.8,4.4-7.7,7.5c-1,1.5-0.6,3.8-0.6,5.6c-0.1,1-0.4,2-0.8,2.8c-0.2-0.3-0.3-0.7-0.4-1.1
		c-0.5-1.2-0.4-2.5-0.3-3.8c0.6-5.5-5.7-7.3-8.4-11.1c-0.8-1.2-1.5-2.5-2-3.9C295.7,513.5,303.9,513.3,311.1,516.9z M286,518.5
		c1,1.1,1.7,2.4,2.4,3.7c1.1,2.1,0.9,4.9,1.5,7.1c0.3,1.1,0.5,2.3,1.1,3.3c0.8,1.6,3,2.4,4.5,3.3c0.8,0.6,1.5,1.3,2.1,2.1
		c-0.4,0-0.8-0.1-1.1-0.2c-1.3-0.2-2.4-0.9-3.5-1.7c-4.5-3.2-9.2,1.3-13.8,1.7c-1.5,0.1-2.9,0.1-4.4-0.2c0.2-3.7,1.3-7.5,3.3-10.9
		C280.2,523.4,282.9,520.6,286,518.5z M274.9,541.1c1.5-0.3,2.9-0.3,4.4-0.2c2.4,0.1,4.6,1.7,6.9,2.2c1.1,0.3,2.3,0.7,3.5,0.7
		c1.8,0.2,3.6-1.3,5.2-2.3c0.9-0.4,1.9-0.7,2.9-0.7c-0.2,0.3-0.5,0.6-0.7,0.9c-0.8,1-2,1.6-3.1,2.2c-5.1,2.3-3.5,8.6-5.4,12.8
		c-0.6,1.3-1.4,2.6-2.4,3.7C279.4,555.9,275.4,548.7,274.9,541.1z"/>
	<path class="st4" d="M447.5,508c0-16.5-13.5-30-30-30s-30,13.5-30,30s13.5,30,30,30S447.5,524.5,447.5,508z M419.1,533
		c-0.3-1.5-0.3-2.9-0.2-4.4c0.4-3.5,2.8-6.7,2.9-10.3c0.2-1.8-1.4-3.6-2.3-5.2c-0.4-0.9-0.7-1.9-0.7-2.9c0.3,0.2,0.6,0.5,0.9,0.7
		c1,0.8,1.6,2,2.2,3.1c2.3,5.1,8.6,3.5,12.8,5.4c1.3,0.7,2.6,1.4,3.7,2.4C434.1,528.2,427.1,532.5,419.1,533z M440,519.1
		c-1.4-0.5-2.7-1.2-3.9-2c-2-1.3-3.2-3.8-4.9-5.4c-0.9-0.8-1.6-1.8-2.6-2.3c-1.5-1-3.8-0.6-5.6-0.6c-1-0.1-2-0.4-2.9-0.8
		c0.4-0.2,0.7-0.3,1.1-0.4c1.2-0.5,2.5-0.4,3.8-0.3c5.5,0.6,7.3-5.7,11.1-8.4c1.2-0.8,2.5-1.5,3.9-2c1.7,3.4,2.6,7.1,2.6,11.1
		C442.6,512,441.7,515.7,440,519.1z M438.4,494c-1.1,1-2.4,1.7-3.7,2.4c-2.1,1.1-4.9,0.9-7.1,1.5c-1.1,0.3-2.3,0.5-3.3,1.1
		c-1.6,0.8-2.4,3-3.3,4.5c-0.6,0.8-1.3,1.5-2.1,2.1c0-0.4,0.1-0.8,0.2-1.1c0.2-1.3,0.9-2.4,1.6-3.5c3.2-4.5-1.3-9.2-1.7-13.8
		c-0.1-1.5-0.1-2.9,0.2-4.4C427.1,483.4,434.1,487.7,438.4,494z M415.8,482.9c0.3,1.5,0.3,2.9,0.2,4.4c-0.4,3.5-2.8,6.7-2.9,10.3
		c-0.2,1.8,1.4,3.6,2.3,5.2c0.4,0.9,0.7,1.9,0.7,2.9c-0.3-0.2-0.6-0.5-0.9-0.7c-1-0.8-1.6-2-2.2-3.1c-2.3-5.1-8.6-3.5-12.8-5.4
		c-1.3-0.6-2.6-1.4-3.7-2.4C400.8,487.7,407.8,483.4,415.8,482.9z M394.9,496.8c1.4,0.5,2.7,1.2,3.9,2c2,1.3,3.2,3.8,4.9,5.4
		c0.9,0.8,1.6,1.8,2.6,2.3c1.5,1,3.8,0.6,5.6,0.6c1,0.1,2,0.4,2.9,0.8c-0.4,0.2-0.7,0.3-1.1,0.4c-1.2,0.5-2.5,0.4-3.8,0.3
		c-5.5-0.6-7.3,5.7-11.1,8.4c-1.2,0.8-2.5,1.5-3.9,2c-1.7-3.4-2.6-7.1-2.6-11.1C392.3,504,393.3,500.2,394.9,496.8z M396.6,521.9
		c1.1-1,2.4-1.7,3.7-2.4c2.1-1.1,4.9-0.9,7.1-1.5c1.1-0.3,2.3-0.5,3.3-1.1c1.6-0.8,2.4-3,3.3-4.5c0.6-0.8,1.3-1.5,2.1-2.1
		c0,0.4-0.1,0.8-0.2,1.1c-0.2,1.3-0.9,2.4-1.6,3.4c-3.2,4.5,1.3,9.2,1.7,13.8c0.1,1.5,0.1,2.9-0.2,4.4
		C407.8,532.5,400.8,528.2,396.6,521.9z"/>
	<path class="st4" d="M529.5,407c-8.3-14.3-26.7-19.3-41-11s-19.3,26.7-11,41s26.7,19.3,41,11S537.7,421.3,529.5,407z M517.4,442.9
		c-1-1.1-1.7-2.4-2.4-3.7c-1.4-3.2-0.9-7.2-2.7-10.4c-0.8-1.6-3-2.4-4.5-3.3c-0.8-0.6-1.5-1.3-2.1-2.1c0.4,0,0.8,0.1,1.1,0.2
		c1.3,0.2,2.4,0.9,3.5,1.6c4.5,3.2,9.2-1.3,13.8-1.7c1.5-0.1,2.9-0.1,4.4,0.2C528,431.2,524.1,438.4,517.4,442.9z M528.5,420.3
		c-1.5,0.3-2.9,0.3-4.4,0.2c-2.3-0.1-4.6-1.7-6.9-2.2c-1.2-0.3-2.3-0.7-3.5-0.7c-1.8-0.2-3.6,1.4-5.2,2.3c-0.9,0.4-1.9,0.7-2.9,0.7
		c0.2-0.3,0.5-0.6,0.7-0.9c0.8-1,2-1.6,3.1-2.2c5.1-2.3,3.5-8.6,5.4-12.8c0.7-1.3,1.4-2.6,2.4-3.7c3.1,2.1,5.8,4.9,7.8,8.3
		S528.3,416.6,528.5,420.3z M514.6,399.4c-0.5,1.4-1.2,2.7-2,3.9c-1.3,2-3.8,3.2-5.4,4.9c-0.8,0.9-1.8,1.6-2.3,2.6
		c-1,1.5-0.6,3.8-0.6,5.6c-0.1,1-0.4,2-0.8,2.9c-0.2-0.4-0.3-0.7-0.4-1.1c-0.5-1.2-0.4-2.5-0.3-3.8c0.6-5.5-5.7-7.3-8.4-11.1
		c-0.8-1.2-1.5-2.5-2-3.9C499.5,395.9,507.8,396.1,514.6,399.4z M489.5,401c1,1.1,1.7,2.4,2.4,3.7c1.4,3.2,0.9,7.2,2.7,10.4
		c0.8,1.6,3,2.4,4.5,3.3c0.8,0.6,1.5,1.3,2.1,2.1c-0.4,0-0.8-0.1-1.1-0.2c-1.3-0.2-2.4-0.9-3.5-1.6c-4.5-3.2-9.2,1.3-13.8,1.7
		c-1.5,0.1-2.9,0.1-4.4-0.2C478.9,412.7,482.8,405.5,489.5,401z M478.4,423.6c1.5-0.3,2.9-0.3,4.4-0.2c2.4,0.1,4.6,1.7,6.9,2.2
		c1.1,0.3,2.3,0.7,3.5,0.7c1.8,0.2,3.6-1.4,5.2-2.3c0.9-0.4,1.9-0.7,2.9-0.7c-0.2,0.3-0.5,0.6-0.7,0.9c-0.8,1-2,1.6-3.1,2.2
		c-5.1,2.3-3.5,8.6-5.4,12.8c-0.6,1.3-1.4,2.6-2.4,3.7c-3.1-2.1-5.8-4.9-7.8-8.3C479.7,431.1,478.6,427.3,478.4,423.6z M492.3,444.5
		c0.5-1.4,1.2-2.7,2-3.9c1.3-2,3.8-3.2,5.4-4.9c0.8-0.9,1.8-1.6,2.3-2.6c1-1.5,0.6-3.8,0.6-5.6c0.1-1,0.4-2,0.8-2.9
		c0.2,0.4,0.3,0.7,0.4,1.1c0.5,1.2,0.4,2.5,0.3,3.8c-0.6,5.5,5.7,7.3,8.4,11.1c0.8,1.2,1.5,2.5,2,3.9
		C507.4,448.1,499.2,447.9,492.3,444.5z"/>
	<path class="st4" d="M549.9,278.5c-14.3-8.3-32.7-3.4-41,11c-8.3,14.3-3.4,32.7,11,41c14.3,8.3,32.7,3.4,41-11
		S564.3,286.8,549.9,278.5z M557.5,315.6c-1.4-0.5-2.7-1.2-3.9-2c-2.8-2.1-4.4-5.8-7.5-7.7c-1.5-1-3.8-0.6-5.6-0.6
		c-1-0.1-2-0.4-2.8-0.8c0.3-0.2,0.7-0.3,1.1-0.4c1.2-0.5,2.5-0.4,3.8-0.3c5.5,0.6,7.3-5.7,11.1-8.4c1.2-0.8,2.5-1.5,3.9-2
		C560.8,300.2,561,308.4,557.5,315.6z M555.8,290.5c-1.1,1-2.4,1.7-3.7,2.4c-2.1,1.1-4.9,0.9-7.1,1.5c-1.1,0.3-2.3,0.5-3.3,1.1
		c-1.6,0.8-2.4,3-3.3,4.5c-0.6,0.8-1.3,1.5-2.1,2.1c0-0.4,0.1-0.8,0.2-1.1c0.2-1.3,0.9-2.4,1.7-3.5c3.2-4.5-1.3-9.2-1.7-13.8
		c-0.1-1.5-0.1-2.9,0.2-4.4c3.7,0.2,7.5,1.3,10.9,3.3S553.8,287.4,555.8,290.5z M533.3,279.4c0.3,1.5,0.3,2.9,0.2,4.4
		c-0.1,2.4-1.7,4.6-2.2,6.9c-0.3,1.1-0.7,2.3-0.7,3.5c-0.2,1.8,1.3,3.6,2.3,5.2c0.4,0.9,0.7,1.9,0.7,2.9c-0.3-0.2-0.6-0.5-0.9-0.7
		c-1-0.8-1.6-2-2.2-3.1c-2.3-5.1-8.6-3.5-12.8-5.4c-1.3-0.6-2.6-1.4-3.7-2.4C518.5,283.8,525.7,279.9,533.3,279.4z M512.4,293.4
		c1.4,0.5,2.7,1.2,3.9,2c2.8,2.1,4.4,5.8,7.5,7.7c1.5,1,3.8,0.6,5.6,0.6c1,0.1,2,0.4,2.8,0.8c-0.3,0.2-0.7,0.3-1.1,0.4
		c-1.2,0.5-2.5,0.4-3.8,0.3c-5.5-0.6-7.3,5.7-11.1,8.4c-1.2,0.8-2.5,1.5-3.9,2C509,308.8,508.8,300.6,512.4,293.4z M514,318.4
		c1.1-1,2.4-1.7,3.7-2.4c2.1-1.1,4.9-0.9,7.1-1.5c1.1-0.3,2.3-0.5,3.3-1.1c1.6-0.8,2.4-3,3.3-4.5c0.6-0.8,1.3-1.5,2.1-2.1
		c0,0.4-0.1,0.8-0.2,1.1c-0.2,1.3-0.9,2.4-1.7,3.5c-3.2,4.5,1.3,9.2,1.7,13.8c0.1,1.5,0.1,2.9-0.2,4.4c-3.7-0.2-7.5-1.3-10.9-3.3
		C518.9,324.3,516.1,321.6,514,318.4z M536.6,329.6c-0.3-1.5-0.3-2.9-0.2-4.4c0.1-2.4,1.7-4.6,2.2-6.9c0.3-1.1,0.7-2.3,0.7-3.5
		c0.2-1.8-1.3-3.6-2.3-5.2c-0.4-0.9-0.7-1.9-0.7-2.9c0.3,0.2,0.6,0.5,0.9,0.7c1,0.8,1.6,2,2.2,3.1c2.3,5.1,8.6,3.5,12.8,5.4
		c1.3,0.6,2.6,1.4,3.7,2.4C551.4,325.1,544.2,329.1,536.6,329.6z"/>
	<path class="st4" d="M503.5,157c-16.5,0-30,13.5-30,30s13.5,30,30,30s30-13.5,30-30S520,157,503.5,157z M528.5,185.4
		c-1.5,0.3-2.9,0.3-4.4,0.2c-3.5-0.4-6.7-2.8-10.3-2.9c-1.8-0.2-3.6,1.4-5.2,2.3c-0.9,0.4-1.9,0.7-2.9,0.7c0.2-0.3,0.5-0.6,0.7-0.9
		c0.8-1,2-1.6,3.1-2.2c5.1-2.3,3.5-8.6,5.4-12.8c0.7-1.3,1.4-2.6,2.4-3.7C523.7,170.3,528,177.4,528.5,185.4z M514.6,164.5
		c-0.5,1.4-1.2,2.7-2,3.9c-1.3,2-3.8,3.2-5.4,4.9c-0.8,0.9-1.8,1.6-2.3,2.6c-1,1.5-0.6,3.8-0.6,5.6c-0.1,1-0.4,2-0.8,2.9
		c-0.2-0.4-0.3-0.7-0.4-1.1c-0.5-1.2-0.4-2.5-0.3-3.8c0.6-5.5-5.7-7.3-8.4-11.1c-0.8-1.2-1.5-2.5-2-3.9c3.4-1.7,7.1-2.6,11.1-2.6
		S511.2,162.8,514.6,164.5z M489.5,166.1c1,1.1,1.7,2.4,2.4,3.7c1.1,2.1,0.9,4.9,1.5,7.1c0.3,1.1,0.5,2.3,1.1,3.3
		c0.8,1.6,3,2.4,4.5,3.3c0.8,0.6,1.5,1.3,2.1,2.1c-0.4,0-0.8-0.1-1.1-0.2c-1.3-0.2-2.4-0.9-3.5-1.6c-4.5-3.2-9.2,1.3-13.8,1.7
		c-1.5,0.1-2.9,0.1-4.4-0.2C478.9,177.4,483.2,170.3,489.5,166.1z M478.4,188.6c1.5-0.3,2.9-0.3,4.4-0.2c3.5,0.4,6.7,2.8,10.3,2.9
		c1.8,0.2,3.6-1.4,5.2-2.3c0.9-0.4,1.9-0.7,2.9-0.7c-0.2,0.3-0.5,0.6-0.7,0.9c-0.8,1-2,1.6-3.1,2.2c-5.1,2.3-3.5,8.6-5.4,12.8
		c-0.6,1.3-1.4,2.6-2.4,3.7C483.2,203.7,478.9,196.7,478.4,188.6z M492.3,209.6c0.5-1.4,1.2-2.7,2-3.9c1.3-2,3.8-3.2,5.4-4.9
		c0.8-0.9,1.8-1.6,2.3-2.6c1-1.5,0.6-3.8,0.6-5.6c0.1-1,0.4-2,0.8-2.9c0.2,0.4,0.3,0.7,0.4,1.1c0.5,1.2,0.4,2.5,0.3,3.8
		c-0.6,5.5,5.7,7.3,8.4,11.1c0.8,1.2,1.5,2.5,2,3.9c-3.4,1.7-7.1,2.6-11.1,2.6C499.5,212.2,495.7,211.2,492.3,209.6z M517.4,207.9
		c-1-1.1-1.7-2.4-2.4-3.7c-1.1-2.1-0.9-4.9-1.5-7.1c-0.3-1.1-0.5-2.3-1.1-3.3c-0.8-1.6-3-2.4-4.5-3.3c-0.8-0.6-1.5-1.3-2.1-2.1
		c0.4,0,0.8,0.1,1.1,0.2c1.3,0.2,2.4,0.9,3.5,1.6c4.5,3.2,9.2-1.3,13.8-1.7c1.5-0.1,2.9-0.1,4.4,0.2
		C528,196.7,523.7,203.7,517.4,207.9z"/>
	<path class="st4" d="M402.5,75c-14.3,8.3-19.3,26.7-11,41s26.7,19.3,41,11s19.3-26.7,11-41S416.8,66.8,402.5,75z M438.4,87.1
		c-1.1,1-2.4,1.7-3.7,2.4c-3.2,1.4-7.2,0.9-10.4,2.7c-1.6,0.8-2.4,3-3.3,4.6c-0.6,0.8-1.3,1.5-2.1,2.1c0-0.4,0.1-0.8,0.2-1.2
		c0.2-1.3,0.9-2.4,1.6-3.4c3.2-4.5-1.3-9.2-1.7-13.8c-0.1-1.5-0.1-2.9,0.2-4.4C426.7,76.4,433.9,80.4,438.4,87.1z M415.8,75.9
		c0.3,1.5,0.3,2.9,0.2,4.4c-0.1,2.3-1.7,4.6-2.2,6.9c-0.3,1.2-0.7,2.3-0.7,3.4c-0.2,1.8,1.4,3.6,2.3,5.2c0.4,0.9,0.7,1.9,0.7,2.9
		c-0.3-0.2-0.6-0.5-0.9-0.7c-1-0.8-1.6-2-2.2-3.2c-2.3-5.1-8.6-3.5-12.8-5.4c-1.3-0.7-2.6-1.4-3.7-2.4c2.1-3.1,4.9-5.8,8.3-7.8
		C408.4,77.2,412.1,76.2,415.8,75.9z M394.9,89.9c1.4,0.5,2.7,1.2,3.9,2c2,1.3,3.2,3.8,4.9,5.4c0.9,0.8,1.6,1.8,2.6,2.3
		c1.5,1,3.8,0.6,5.6,0.6c1,0.1,2,0.4,2.9,0.8c-0.4,0.2-0.7,0.3-1.1,0.4c-1.2,0.5-2.5,0.4-3.8,0.3c-5.5-0.6-7.3,5.7-11.1,8.4
		c-1.2,0.8-2.5,1.6-3.9,2C391.4,104.9,391.6,96.7,394.9,89.9z M396.6,115c1.1-1,2.4-1.7,3.7-2.4c3.2-1.4,7.2-0.9,10.4-2.7
		c1.6-0.8,2.4-3,3.3-4.6c0.6-0.8,1.3-1.5,2.1-2.1c0,0.4-0.1,0.8-0.2,1.2c-0.2,1.3-0.9,2.4-1.6,3.4c-3.2,4.5,1.3,9.2,1.7,13.8
		c0.1,1.5,0.1,2.9-0.2,4.4C408.3,125.6,401,121.7,396.6,115z M419.1,126.1c-0.3-1.5-0.3-2.9-0.2-4.4c0.1-2.3,1.7-4.6,2.2-6.9
		c0.3-1.2,0.7-2.3,0.7-3.4c0.2-1.8-1.4-3.6-2.3-5.2c-0.4-0.9-0.7-1.9-0.7-2.9c0.3,0.2,0.6,0.5,0.9,0.7c1,0.8,1.6,2,2.2,3.2
		c2.3,5.1,8.6,3.5,12.8,5.4c1.3,0.7,2.6,1.4,3.7,2.4c-2.1,3.1-4.9,5.8-8.3,7.8C426.6,124.8,422.8,125.9,419.1,126.1z M440,112.2
		c-1.4-0.5-2.7-1.2-3.9-2c-2-1.3-3.2-3.8-4.9-5.4c-0.9-0.8-1.6-1.8-2.6-2.3c-1.5-1-3.8-0.6-5.6-0.6c-1-0.1-2-0.4-2.9-0.8
		c0.4-0.2,0.7-0.3,1.1-0.4c1.2-0.5,2.5-0.4,3.8-0.3c5.5,0.6,7.3-5.7,11.1-8.4c1.2-0.8,2.5-1.6,3.9-2
		C443.6,97.1,443.4,105.3,440,112.2z"/>
	<path class="st4" d="M380.2,30.6"/>
	<path class="st4" d="M232.4,52.3c-13.9,3.7-22.2,18.1-18.5,32s18.1,22.2,32,18.5s22.2-18.1,18.5-32
		C260.7,56.9,246.3,48.6,232.4,52.3z M260.3,71.9c0.7,2.5,0.9,4.9,0.7,7.3c-3-3.4-3.7-5-4.1-6.4s-0.6-3.2,0.3-7.6
		C258.6,67.2,259.7,69.4,260.3,71.9z M218.1,83.2c-0.7-2.5-0.9-4.9-0.7-7.3c3,3.4,3.7,5,4.1,6.4s0.6,3.2-0.3,7.6
		C219.8,87.9,218.7,85.7,218.1,83.2z M253.7,61.2c-2.1,6.2-6.8,11.2-12.9,13.6c-1-6.4,0.9-13.1,5.3-18
		C248.9,57.7,251.5,59.2,253.7,61.2z M240.9,55.8c-3.4,3-5,3.7-6.4,4.1c-1.5,0.4-3.2,0.6-7.6-0.3c2-1.4,4.2-2.4,6.7-3.1
		C236,55.8,238.5,55.6,240.9,55.8z M222.9,63c6.2,2.1,11.2,6.8,13.6,12.9c-6.4,1-13.1-0.9-18-5.3C219.4,67.8,220.9,65.2,222.9,63z
		 M224.7,93.9c2.1-6.2,6.8-11.2,12.9-13.6c1,6.4-0.9,13.1-5.3,18C229.5,97.4,226.9,95.9,224.7,93.9z M237.5,99.3
		c3.4-3,5-3.7,6.4-4.1c1.5-0.4,3.2-0.6,7.6,0.3c-2,1.4-4.2,2.4-6.7,3.1C242.4,99.3,239.9,99.5,237.5,99.3z M255.5,92.1
		c-6.2-2.1-11.2-6.8-13.6-12.9c6.4-1,13.1,0.9,18,5.3C259,87.2,257.5,89.9,255.5,92.1z"/>
	<path class="st4" d="M115.4,119.9c-10.2,10.2-10.2,26.8,0,36.9c10.2,10.2,26.7,10.2,36.9,0s10.2-26.8,0-36.9
		C142.2,109.7,125.6,109.7,115.4,119.9z M149.3,122.9c1.8,1.8,3.2,3.8,4.2,6c-4.3-1.4-5.7-2.4-6.8-3.5s-2.1-2.4-3.5-6.8
		C145.5,119.7,147.5,121.1,149.3,122.9z M118.4,153.8c-1.8-1.8-3.2-3.9-4.2-6c4.3,1.4,5.7,2.4,6.8,3.5c1.1,1.1,2.1,2.4,3.5,6.8
		C122.2,157,120.2,155.6,118.4,153.8z M138.3,116.9c1.3,6.4-0.3,13.1-4.4,18.2c-4.1-5.1-5.7-11.8-4.4-18.2
		C132.4,116.3,135.4,116.3,138.3,116.9z M124.4,118.7c-1.4,4.3-2.4,5.7-3.5,6.8s-2.4,2.1-6.8,3.5c1-2.2,2.4-4.2,4.2-6
		C120.2,121.1,122.2,119.7,124.4,118.7z M112.4,133.9c6.4-1.3,13.1,0.3,18.2,4.4c-5.1,4.1-11.8,5.7-18.2,4.4
		C111.9,139.9,111.9,136.9,112.4,133.9z M129.4,159.8c-1.3-6.4,0.3-13.1,4.4-18.2c4.1,5.1,5.7,11.8,4.4,18.2
		C135.4,160.4,132.4,160.4,129.4,159.8z M143.3,158.1c1.4-4.3,2.4-5.7,3.5-6.8s2.4-2.1,6.8-3.5c-1,2.2-2.4,4.2-4.2,6
		C147.5,155.6,145.5,157,143.3,158.1z M155.3,142.8c-6.4,1.3-13.1-0.3-18.2-4.4c5.1-4.1,11.8-5.7,18.2-4.4
		C155.9,136.9,155.9,139.9,155.3,142.8z"/>
	<path class="st4" d="M47.8,236.9c-3.7,13.9,4.6,28.3,18.5,32s28.3-4.6,32-18.5s-4.6-28.3-18.5-32S51.6,223,47.8,236.9z M78.7,222.5
		c2.5,0.7,4.7,1.7,6.7,3.1c-4.4,0.9-6.2,0.7-7.6,0.3s-3-1.1-6.4-4.1C73.8,221.7,76.3,221.9,78.7,222.5z M67.4,264.8
		c-2.5-0.7-4.7-1.7-6.7-3.1c4.5-0.9,6.1-0.7,7.6-0.3s3,1.1,6.4,4.1C72.3,265.7,69.9,265.5,67.4,264.8z M66.2,222.9
		c4.4,4.9,6.3,11.5,5.3,18c-6.1-2.3-10.9-7.3-12.9-13.6C60.8,225.4,63.4,223.9,66.2,222.9z M55,231.3c0.9,4.4,0.7,6.1,0.3,7.6
		s-1.1,3-4.1,6.4c-0.2-2.4,0-4.9,0.7-7.3C52.6,235.6,53.7,233.3,55,231.3z M52.3,250.6c4.9-4.4,11.5-6.3,18-5.3
		c-2.3,6.1-7.3,10.9-13.6,12.9C54.8,256,53.2,253.4,52.3,250.6z M79.9,264.4c-4.4-4.9-6.3-11.5-5.3-18c6.1,2.3,10.9,7.3,12.9,13.6
		C85.4,262,82.8,263.5,79.9,264.4z M91.1,256c-0.9-4.4-0.7-6.1-0.3-7.6c0.4-1.5,1.1-3,4.1-6.4c0.2,2.4,0,4.9-0.7,7.3
		C93.5,251.8,92.5,254,91.1,256z M93.8,236.8c-4.9,4.4-11.5,6.3-18,5.3c2.3-6.1,7.3-10.9,13.6-12.9C91.4,231.4,92.9,234,93.8,236.8z
		"/>
	<path class="st4" d="M47.8,372.1c3.7,13.9,18.1,22.2,32,18.5s22.2-18.1,18.5-32s-18.1-22.2-32-18.5
		C52.4,343.8,44.1,358.1,47.8,372.1z M67.4,344.2c2.5-0.7,4.9-0.9,7.3-0.7c-3.4,3-5,3.7-6.4,4.1s-3.2,0.6-7.6-0.3
		C62.7,345.9,64.9,344.8,67.4,344.2z M78.7,386.4c-2.5,0.7-4.9,0.9-7.3,0.7c3.4-3,5-3.7,6.4-4.1s3.2-0.6,7.6,0.3
		C83.4,384.7,81.2,385.8,78.7,386.4z M56.7,350.8c6.2,2.1,11.2,6.8,13.6,12.9c-6.5,1-13.1-0.9-18-5.3
		C53.2,355.6,54.8,353,56.7,350.8z M51.3,363.6c3,3.4,3.7,5,4.1,6.4c0.4,1.5,0.6,3.2-0.3,7.6c-1.4-2-2.4-4.2-3.1-6.7
		C51.3,368.5,51.1,366,51.3,363.6z M58.5,381.6c2.1-6.2,6.8-11.2,12.9-13.6c1,6.5-0.9,13.1-5.3,18C63.4,385.1,60.8,383.6,58.5,381.6
		z M89.4,379.8c-6.2-2.1-11.2-6.8-13.6-12.9c6.4-1,13.1,0.9,18,5.3C92.9,375,91.4,377.6,89.4,379.8z M94.9,367c-3-3.4-3.7-5-4.1-6.4
		c-0.4-1.5-0.6-3.2,0.3-7.6c1.4,2,2.4,4.2,3.1,6.7C94.9,362.1,95.1,364.6,94.9,367z M87.6,349c-2.1,6.2-6.8,11.2-12.9,13.6
		c-1-6.5,0.9-13.1,5.3-18C82.8,345.5,85.4,347,87.6,349z"/>
	<path class="st4" d="M115.4,489.1c10.2,10.2,26.7,10.2,36.9,0s10.2-26.8,0-36.9c-10.2-10.2-26.8-10.2-36.9,0
		C105.2,462.3,105.2,478.9,115.4,489.1z M118.4,455.1c1.8-1.8,3.8-3.2,6-4.2c-1.4,4.3-2.4,5.7-3.5,6.8s-2.4,2.1-6.8,3.5
		C115.2,459,116.6,457,118.4,455.1z M149.3,486.1c-1.8,1.8-3.9,3.2-6,4.2c1.4-4.3,2.4-5.7,3.5-6.8s2.4-2.1,6.8-3.5
		C152.5,482.2,151.1,484.3,149.3,486.1z M112.4,466.2c6.4-1.3,13.1,0.3,18.2,4.4c-5.1,4.1-11.8,5.7-18.2,4.4
		C111.9,472.1,111.9,469.1,112.4,466.2z M114.2,480.1c4.3,1.4,5.7,2.4,6.8,3.5s2.1,2.4,3.5,6.8c-2.2-1-4.2-2.4-6-4.2
		C116.6,484.3,115.2,482.2,114.2,480.1z M129.5,492c-1.3-6.4,0.3-13.1,4.4-18.2c4.1,5.1,5.7,11.8,4.4,18.2
		C135.4,492.6,132.4,492.6,129.5,492z M155.3,475c-6.4,1.3-13.1-0.3-18.2-4.4c5.1-4.1,11.8-5.7,18.2-4.4
		C155.9,469.1,155.9,472.1,155.3,475z M153.6,461.2c-4.3-1.4-5.7-2.4-6.8-3.5s-2.1-2.4-3.5-6.8c2.2,1,4.2,2.4,6,4.2
		C151.1,457,152.5,459,153.6,461.2z M138.3,449.2c1.3,6.4-0.3,13.1-4.4,18.2c-4.1-5.1-5.7-11.8-4.4-18.2
		C132.4,448.6,135.4,448.6,138.3,449.2z"/>
	<path class="st4" d="M232.4,556.7c13.9,3.7,28.3-4.6,32-18.5s-4.6-28.3-18.5-32s-28.3,4.6-32,18.5
		C210.2,538.6,218.5,552.9,232.4,556.7z M218.1,525.8c0.7-2.5,1.7-4.7,3.1-6.7c0.9,4.5,0.7,6.2,0.3,7.6s-1.1,3-4.1,6.4
		C217.2,530.7,217.4,528.2,218.1,525.8z M260.3,537.1c-0.7,2.5-1.7,4.7-3.1,6.7c-0.9-4.5-0.7-6.2-0.3-7.6c0.4-1.5,1.1-3,4.1-6.4
		C261.2,532.2,261,534.6,260.3,537.1z M218.4,538.3c4.9-4.4,11.5-6.3,18-5.3c-2.3,6.1-7.3,10.9-13.6,12.9
		C220.9,543.7,219.4,541.1,218.4,538.3z M226.8,549.5c4.4-0.9,6.1-0.7,7.6-0.3s3,1.1,6.4,4.1c-2.4,0.2-4.9,0-7.3-0.7
		S228.8,550.8,226.8,549.5z M246.1,552.2c-4.4-4.9-6.3-11.5-5.3-18c6.1,2.3,10.9,7.3,12.9,13.6C251.5,549.7,248.9,551.2,246.1,552.2
		z M260,524.5c-4.9,4.4-11.5,6.3-18,5.3c2.3-6.1,7.3-10.9,13.6-12.9C257.5,519.1,259,521.7,260,524.5z M251.5,513.4
		c-4.4,0.9-6.1,0.7-7.6,0.3s-3-1.1-6.4-4.1c2.4-0.2,4.9,0,7.3,0.7C247.3,511,249.6,512,251.5,513.4z M232.3,510.7
		c4.4,4.9,6.3,11.5,5.3,18c-6.1-2.3-10.9-7.3-12.9-13.6C226.9,513.1,229.5,511.6,232.3,510.7z"/>
	<path class="st4" d="M367.6,556.7c13.9-3.7,22.2-18.1,18.5-32c-3.7-13.9-18.1-22.2-32-18.5s-22.2,18.1-18.5,32
		C339.3,552.1,353.7,560.4,367.6,556.7z M339.7,537.1c-0.7-2.5-0.9-4.9-0.7-7.3c3,3.4,3.7,5,4.1,6.4c0.4,1.5,0.6,3.2-0.3,7.6
		C341.4,541.8,340.3,539.5,339.7,537.1z M382,525.8c0.7,2.5,0.9,4.9,0.7,7.3c-3-3.4-3.7-5-4.1-6.4c-0.4-1.5-0.6-3.2,0.3-7.6
		C380.2,521.1,381.3,523.3,382,525.8z M346.3,547.8c2.1-6.2,6.8-11.2,12.9-13.6c1,6.5-0.9,13.1-5.3,18
		C351.1,551.2,348.5,549.7,346.3,547.8z M359.1,553.2c3.4-3,5-3.7,6.4-4.1c1.5-0.4,3.2-0.6,7.6,0.3c-2,1.4-4.2,2.4-6.7,3.1
		C364,553.2,361.5,553.4,359.1,553.2z M377.1,546c-6.2-2.1-11.2-6.8-13.6-12.9c6.5-1,13.1,0.9,18,5.3
		C380.6,541.1,379.1,543.7,377.1,546z M375.3,515.1c-2.1,6.2-6.8,11.2-12.9,13.6c-1-6.5,0.9-13.1,5.3-18
		C370.5,511.6,373.1,513.1,375.3,515.1z M362.5,509.6c-3.4,3-5,3.7-6.4,4.1c-1.5,0.4-3.2,0.6-7.6-0.3c2-1.4,4.2-2.4,6.7-3.1
		C357.6,509.6,360.1,509.4,362.5,509.6z M344.5,516.9c6.2,2.1,11.2,6.8,13.6,12.9c-6.5,1-13.1-0.9-18-5.3
		C341,521.7,342.5,519.1,344.5,516.9z"/>
	<path class="st4" d="M484.6,489.1c10.2-10.2,10.2-26.8,0-36.9s-26.8-10.2-36.9,0c-10.2,10.2-10.2,26.8,0,36.9
		C457.8,499.3,474.4,499.3,484.6,489.1z M450.7,486.1c-1.8-1.8-3.2-3.9-4.2-6c4.3,1.4,5.7,2.4,6.8,3.5s2.1,2.4,3.5,6.8
		C454.5,489.3,452.5,487.9,450.7,486.1z M481.6,455.1c1.8,1.8,3.2,3.9,4.2,6c-4.3-1.4-5.7-2.4-6.8-3.5s-2.1-2.4-3.5-6.8
		C477.8,451.9,479.8,453.3,481.6,455.1z M461.7,492c-1.3-6.4,0.3-13.1,4.4-18.2c4.1,5.1,5.7,11.8,4.4,18.2
		C467.6,492.6,464.6,492.6,461.7,492z M475.6,490.3c1.4-4.3,2.4-5.7,3.5-6.8s2.4-2.1,6.8-3.5c-1,2.2-2.4,4.2-4.2,6
		C479.8,487.9,477.8,489.3,475.6,490.3z M487.5,475c-6.4,1.3-13.1-0.3-18.2-4.4c5.1-4.1,11.8-5.7,18.2-4.4
		C488.1,469.1,488.1,472.1,487.5,475z M470.5,449.2c1.3,6.4-0.3,13.1-4.4,18.2c-4.1-5.1-5.7-11.8-4.4-18.2
		C464.6,448.6,467.6,448.6,470.5,449.2z M456.7,450.9c-1.4,4.3-2.4,5.7-3.5,6.8s-2.4,2.1-6.8,3.5c1-2.2,2.4-4.2,4.2-6
		C452.5,453.3,454.5,452,456.7,450.9z M444.7,466.2c6.4-1.3,13.1,0.3,18.2,4.4c-5.1,4.1-11.8,5.7-18.2,4.4
		C444.1,472.1,444.1,469.1,444.7,466.2z"/>
	<path class="st4" d="M552.2,372.1c3.7-13.9-4.6-28.3-18.5-32s-28.3,4.6-32,18.5s4.6,28.3,18.5,32
		C534.1,394.2,548.4,386,552.2,372.1z M521.3,386.4c-2.5-0.7-4.7-1.7-6.7-3.1c4.5-0.9,6.2-0.7,7.6-0.3c1.5,0.4,3,1.1,6.4,4.1
		C526.2,387.3,523.7,387.1,521.3,386.4z M532.6,344.2c2.5,0.7,4.7,1.7,6.7,3.1c-4.5,0.9-6.2,0.7-7.6,0.3s-3-1.1-6.4-4.1
		C527.7,343.3,530.1,343.5,532.6,344.2z M533.8,386c-4.4-4.9-6.3-11.5-5.3-18c6.1,2.3,10.9,7.3,12.9,13.6
		C539.2,383.6,536.6,385.1,533.8,386z M545,377.6c-0.9-4.5-0.7-6.1-0.3-7.6s1.1-3,4.1-6.4c0.2,2.4,0,4.9-0.7,7.3
		C547.4,373.4,546.3,375.6,545,377.6z M547.7,358.4c-4.9,4.4-11.5,6.3-18,5.3c2.3-6.1,7.3-10.9,13.6-12.9
		C545.2,353,546.8,355.6,547.7,358.4z M520,344.5c4.4,4.9,6.3,11.5,5.3,18c-6.1-2.3-10.9-7.3-12.9-13.6
		C514.6,347,517.2,345.5,520,344.5z M508.9,353c0.9,4.5,0.7,6.1,0.3,7.6s-1.1,3-4.1,6.4c-0.2-2.4,0-4.9,0.7-7.3
		C506.5,357.2,507.5,354.9,508.9,353z M506.2,372.2c4.9-4.4,11.5-6.3,18-5.3c-2.3,6.1-7.3,10.9-13.6,12.9
		C508.6,377.6,507.1,375,506.2,372.2z"/>
	<path class="st4" d="M552.2,236.9c-3.7-13.9-18.1-22.2-32-18.5c-13.9,3.7-22.2,18.1-18.5,32s18.1,22.2,32,18.5
		C547.6,265.2,555.9,250.8,552.2,236.9z M532.6,264.8c-2.5,0.7-4.9,0.9-7.3,0.7c3.4-3,5-3.7,6.4-4.1c1.5-0.4,3.2-0.6,7.6,0.3
		C537.3,263.1,535.1,264.2,532.6,264.8z M521.3,222.5c2.5-0.7,4.9-0.9,7.3-0.7c-3.4,3-5,3.7-6.4,4.1c-1.5,0.4-3.2,0.6-7.6-0.3
		C516.6,224.3,518.8,223.2,521.3,222.5z M543.3,258.2c-6.2-2.1-11.2-6.8-13.6-12.9c6.5-1,13.1,0.9,18,5.3
		C546.8,253.4,545.2,256,543.3,258.2z M548.7,245.4c-3-3.4-3.7-5-4.1-6.4c-0.4-1.5-0.6-3.2,0.3-7.6c1.4,2,2.4,4.2,3.1,6.7
		C548.7,240.5,548.9,242.9,548.7,245.4z M541.5,227.3c-2.1,6.2-6.8,11.2-12.9,13.6c-1-6.4,0.9-13.1,5.3-18
		C536.6,223.9,539.2,225.4,541.5,227.3z M510.6,229.1c6.2,2.1,11.2,6.8,13.6,12.9c-6.5,1-13.1-0.9-18-5.3
		C507.1,234,508.6,231.4,510.6,229.1z M505.1,242c3,3.4,3.7,5,4.1,6.4c0.4,1.5,0.6,3.2-0.3,7.6c-1.4-2-2.4-4.2-3.1-6.7
		C505.1,246.9,505,244.4,505.1,242z M512.4,260c2.1-6.2,6.8-11.2,12.9-13.6c1,6.4-0.9,13.1-5.3,18C517.2,263.5,514.6,262,512.4,260z
		"/>
	<path class="st4" d="M484.6,119.9c-10.2-10.2-26.8-10.2-36.9,0s-10.2,26.8,0,36.9c10.2,10.2,26.8,10.2,36.9,0
		C494.8,146.6,494.8,130.1,484.6,119.9z M481.6,153.8c-1.8,1.8-3.9,3.2-6,4.2c1.4-4.3,2.4-5.7,3.5-6.8s2.4-2.1,6.8-3.5
		C484.8,150,483.4,152,481.6,153.8z M450.7,122.9c1.8-1.8,3.9-3.2,6-4.2c-1.4,4.3-2.4,5.7-3.5,6.8s-2.4,2.1-6.8,3.5
		C447.5,126.7,448.9,124.7,450.7,122.9z M487.5,142.8c-6.4,1.3-13.1-0.3-18.2-4.4c5.1-4.1,11.8-5.7,18.2-4.4
		C488.1,136.9,488.1,139.9,487.5,142.8z M485.8,128.9c-4.3-1.4-5.7-2.4-6.8-3.5s-2.1-2.4-3.5-6.8c2.2,1,4.2,2.4,6,4.2
		C483.4,124.7,484.8,126.7,485.8,128.9z M470.5,116.9c1.3,6.4-0.3,13.1-4.4,18.2c-4.1-5.1-5.7-11.8-4.4-18.2
		C464.6,116.3,467.6,116.3,470.5,116.9z M444.7,133.9c6.4-1.3,13.1,0.3,18.2,4.4c-5.1,4.1-11.8,5.7-18.2,4.4
		C444.1,139.9,444.1,136.9,444.7,133.9z M446.4,147.8c4.3,1.4,5.7,2.4,6.8,3.5s2.1,2.4,3.5,6.8c-2.2-1-4.2-2.4-6-4.2
		C448.9,152,447.5,150,446.4,147.8z M461.7,159.8c-1.3-6.4,0.3-13.1,4.4-18.2c4.1,5.1,5.7,11.8,4.4,18.2
		C467.6,160.4,464.6,160.4,461.7,159.8z"/>
	<path class="st4" d="M367.6,52.3c-13.9-3.7-28.3,4.6-32,18.5s4.6,28.3,18.5,32s28.3-4.6,32-18.5C389.8,70.4,381.5,56,367.6,52.3z
		 M382,83.2c-0.7,2.5-1.7,4.7-3.1,6.7c-0.9-4.4-0.7-6.2-0.3-7.6s1.1-3,4.1-6.4C382.8,78.3,382.6,80.8,382,83.2z M339.7,71.9
		c0.7-2.5,1.7-4.7,3.1-6.7c0.9,4.4,0.7,6.2,0.3,7.6s-1.1,3-4.1,6.4C338.8,76.8,339,74.3,339.7,71.9z M381.6,70.7
		c-4.9,4.4-11.5,6.3-18,5.3c2.3-6.1,7.3-10.9,13.6-12.9C379.1,65.2,380.6,67.8,381.6,70.7z M373.2,59.5c-4.5,0.9-6.1,0.7-7.6,0.3
		s-3-1.1-6.4-4.1c2.4-0.2,4.9,0,7.3,0.7S371.2,58.2,373.2,59.5z M353.9,56.8c4.4,4.9,6.3,11.5,5.3,18c-6.1-2.3-10.9-7.3-12.9-13.6
		C348.5,59.2,351.1,57.7,353.9,56.8z M340,84.4c4.9-4.4,11.5-6.3,18-5.3c-2.3,6.1-7.3,10.9-13.6,12.9C342.5,89.9,341,87.3,340,84.4z
		 M348.5,95.6c4.5-0.9,6.1-0.7,7.6-0.3c1.5,0.4,3,1.1,6.4,4.1c-2.4,0.2-4.9,0-7.3-0.7C352.7,98,350.5,97,348.5,95.6z M367.7,98.3
		c-4.4-4.9-6.3-11.5-5.3-18c6.1,2.3,10.9,7.3,12.9,13.6C373.1,95.9,370.5,97.4,367.7,98.3z"/>
</g>
<g>
	<g>
		<path class="st4" d="M563.3,47l-1.8-1.1l0,0c-3.9,6.7-11,11-18.7,11.4c0.4-7.7,4.7-14.8,11.4-18.7l0,0l0,0l-1.1-1.8
			c-7.1,4.1-9.4,4.4-11.5,4.4s-4.3-0.3-11.5-4.4l-1.1,1.8l0,0c6.7,3.9,11,11,11.4,18.7c-7.7-0.4-14.8-4.7-18.7-11.4l0,0l0,0
			l-1.8,1.1c4.1,7.1,4.4,9.4,4.4,11.5s-0.3,4.3-4.4,11.5l1.8,1.1l0,0c3.9-6.7,11-11,18.7-11.4c-0.4,7.7-4.7,14.8-11.4,18.7l0,0l0,0
			l1.1,1.8c7.1-4.1,9.4-4.4,11.5-4.4s4.3,0.3,11.5,4.4l1.1-1.8l0,0c-6.7-3.9-11-11-11.4-18.7c7.7,0.4,14.8,4.7,18.7,11.4l0,0l0,0
			l1.8-1.1c-4.1-7.1-4.4-9.4-4.4-11.5C558.8,56.4,559.2,54.1,563.3,47z"/>
		<circle class="st4" cx="563.3" cy="36.7" r="3.6"/>
		<circle class="st4" cx="519.9" cy="36.7" r="3.6"/>
		<circle class="st4" cx="563.3" cy="80.1" r="3.6"/>
		<circle class="st4" cx="519.9" cy="80.1" r="3.6"/>
	</g>
	<g>
		<path class="st4" d="M80.1,47l-1.8-1.1l0,0c-3.9,6.7-11,11-18.7,11.4C60,49.6,64.2,42.5,71,38.6l0,0l0,0l-1.1-1.8
			c-7.1,4.1-9.4,4.4-11.5,4.4s-4.3-0.3-11.5-4.4l-1.1,1.8l0,0c6.7,3.9,11,11,11.4,18.7c-7.7-0.4-14.8-4.7-18.7-11.4l0,0l0,0L36.7,47
			c4.1,7.1,4.4,9.4,4.4,11.5s-0.3,4.3-4.4,11.5l1.8,1.1l0,0c3.9-6.7,11-11,18.7-11.4c-0.4,7.7-4.7,14.8-11.4,18.7l0,0l0,0l1.1,1.8
			c7.1-4.1,9.4-4.4,11.5-4.4s4.3,0.3,11.5,4.4l1.1-1.8l0,0c-6.7-3.9-11-11-11.4-18.7C67.3,60,74.4,64.2,78.3,71l0,0l0,0l1.8-1.1
			c-4.1-7.1-4.4-9.4-4.4-11.5C75.7,56.4,76,54.1,80.1,47z"/>
		<circle class="st4" cx="80.1" cy="36.7" r="3.6"/>
		<circle class="st4" cx="36.7" cy="36.7" r="3.6"/>
		<circle class="st4" cx="80.1" cy="80.1" r="3.6"/>
		<circle class="st4" cx="36.7" cy="80.1" r="3.6"/>
	</g>
	<g>
		<path class="st4" d="M563.3,529.8l-1.8-1.1l0,0c-3.9,6.7-11,11-18.7,11.4c0.4-7.7,4.7-14.8,11.4-18.7l0,0l0,0l-1.1-1.8
			c-7.1,4.1-9.4,4.4-11.5,4.4s-4.3-0.3-11.5-4.4l-1.1,1.8l0,0c6.7,3.9,11,11,11.4,18.7c-7.7-0.4-14.8-4.7-18.7-11.4l0,0l0,0
			l-1.8,1.1c4.1,7.1,4.4,9.4,4.4,11.5s-0.3,4.3-4.4,11.5l1.8,1.1l0,0c3.9-6.7,11-11,18.7-11.4c-0.4,7.7-4.7,14.8-11.4,18.7l0,0l0,0
			l1.1,1.8c7.1-4.1,9.4-4.4,11.5-4.4s4.3,0.3,11.5,4.4l1.1-1.8l0,0c-6.7-3.9-11-11-11.4-18.7c7.7,0.4,14.8,4.7,18.7,11.4l0,0l0,0
			l1.8-1.1c-4.1-7.1-4.4-9.4-4.4-11.5S559.2,536.9,563.3,529.8z"/>
		<circle class="st4" cx="563.3" cy="519.5" r="3.6"/>
		<circle class="st4" cx="519.9" cy="519.5" r="3.6"/>
		<circle class="st4" cx="563.3" cy="562.9" r="3.6"/>
		<circle class="st4" cx="519.9" cy="562.9" r="3.6"/>
	</g>
	<g>
		<path class="st4" d="M80.1,529.8l-1.8-1.1l0,0c-3.9,6.7-11,11-18.7,11.4c0.4-7.7,4.7-14.8,11.4-18.7l0,0l0,0l-1.1-1.8
			c-7.1,4.1-9.4,4.4-11.5,4.4s-4.3-0.3-11.5-4.4l-1.1,1.8l0,0c6.7,3.9,11,11,11.4,18.7c-7.7-0.4-14.8-4.7-18.7-11.4l0,0l0,0
			l-1.8,1.1c4.1,7.1,4.4,9.4,4.4,11.5s-0.3,4.3-4.4,11.5l1.8,1.1l0,0c3.9-6.7,11-11,18.7-11.4c-0.4,7.7-4.7,14.8-11.4,18.7l0,0l0,0
			l1.1,1.8c7.1-4.1,9.4-4.4,11.5-4.4s4.3,0.3,11.5,4.4l1.1-1.8l0,0c-6.7-3.9-11-11-11.4-18.7c7.7,0.4,14.8,4.7,18.7,11.4l0,0l0,0
			l1.8-1.1c-4.1-7.1-4.4-9.4-4.4-11.5C75.7,539.2,76,536.9,80.1,529.8z"/>
		<circle class="st4" cx="80.1" cy="519.5" r="3.6"/>
		<circle class="st4" cx="36.7" cy="519.5" r="3.6"/>
		<circle class="st4" cx="80.1" cy="562.9" r="3.6"/>
		<circle class="st4" cx="36.7" cy="562.9" r="3.6"/>
	</g>
</g>
</svg>
