<?xml version="1.0" encoding="utf-8"?>
<!-- Generator: Adobe Illustrator 26.3.1, SVG Export Plug-In . SVG Version: 6.00 Build 0)  -->
<svg version="1.1" id="레이어_1" xmlns="http://www.w3.org/2000/svg" xmlns:xlink="http://www.w3.org/1999/xlink" x="0px"
	 y="0px" viewBox="0 0 300 300" style="enable-background:new 0 0 300 300;" xml:space="preserve">
<style type="text/css">
	.st0{fill:#967905;stroke:#E9BC00;stroke-linecap:round;stroke-linejoin:round;stroke-miterlimit:10;}
	.st1{fill:#FF69B4;}
	.st2{fill:#FFB4DA;}
	.st3{fill:#967905;}
</style>
<g>
	<path class="st0" d="M163,252c-0.5,0-0.9-0.2-1.2-0.6c-12.1-16.8,5.3-29.8,15.7-37.6c2.1-1.5,3.8-2.9,5.1-4c3.3-3,4.5-8,2.9-12.1
		c-1.5-3.8-4.9-6-9.5-6c-8.9,0-13.7,9.5-13.8,9.6c-0.4,0.7-1.3,1-2,0.7c-0.7-0.4-1-1.3-0.7-2c0.2-0.5,5.7-11.2,16.5-11.2
		c5.8,0,10.4,3,12.3,7.9c2.1,5.3,0.6,11.5-3.7,15.4c-1.3,1.2-3.2,2.6-5.3,4.2c-10.1,7.6-25.5,19.1-15.1,33.5
		c0.5,0.7,0.3,1.6-0.3,2.1C163.6,251.9,163.3,252,163,252z"/>
</g>
<rect x="133.3" y="98.2" class="st1" width="33.3" height="68"/>
<g>
	<circle class="st2" cx="133.3" cy="114.8" r="2.3"/>
	<path class="st2" d="M133.3,108.8c-1.3,0-2.3-1-2.3-2.3s1-2.3,2.3-2.3c-3.3,0-6-2.7-6-6s2.7-6,6-6c7.7,0,30.2,6.8,30.2-4.2
		c0-1.8,1.4-3.1,3.1-3.1c1.8,0,3.1,1.4,3.1,3.1c0,6.5-8,8.9-3.1,8.9c2.1,0,3.7,1.7,3.7,3.7s-1.7,3.7-3.7,3.7l0,0
		c0,0.9-0.7,1.6-1.6,1.6c-0.9,0-1.6-0.7-1.6-1.6v62.1h-3.3v-63.6c0-0.9-0.7-1.6-1.6-1.6s-1.6,0.7-1.6,1.6c0.9,0.9,0.9,2.3,0,3.3
		s-2.3,0.9-3.3,0s-0.9-2.3,0-3.3c0-0.9-0.7-1.6-1.6-1.6s-1.6,0.7-1.6,1.6l0,0v34.7c0,0.9-0.7,1.6-1.6,1.6s-1.6-0.7-1.6-1.6v-34.7
		l0,0c0-0.9-0.7-1.6-1.6-1.6s-1.6,0.7-1.6,1.6v-0.4V150c0,0.9-0.7,1.6-1.6,1.6s-1.6-0.7-1.6-1.6v-49c-2.1,0-3.9,1.7-3.9,3.9
		C137.4,107.1,135.5,108.8,133.3,108.8z"/>
	<path class="st2" d="M160.6,166.2c0-2.2,1.8-4.2,4.2-4.2s4.2,1.8,4.2,4.2H160.6z"/>
	<path class="st2" d="M127.3,166.2c0-1.4,1.2-2.5,2.5-2.5c1.4,0,2.5,1.2,2.5,2.5H127.3z"/>
	<path class="st2" d="M146.4,166.2c0-1.4,1.2-2.5,2.5-2.5s2.5,1.2,2.5,2.5H146.4z"/>
	<path class="st2" d="M130.6,166.2c0-2.2,1.7-3.9,3.9-3.9s3.9,1.7,3.9,3.9H130.6z"/>
</g>
<g>
	<rect x="123.9" y="166.2" class="st0" width="52.2" height="5.4"/>
	<path class="st0" d="M158.3,189.1h-16.6c-2.6,0-4.8-2.1-4.8-4.8l0,0c0-2.6,2.1-4.8,4.8-4.8h16.6c2.6,0,4.8,2.1,4.8,4.8l0,0
		C163.1,186.9,160.9,189.1,158.3,189.1z"/>
	<path class="st0" d="M162.8,185.6h-25.7c-0.8,0-1.3-0.7-1.3-1.3l0,0c0-0.8,0.7-1.3,1.3-1.3h25.7c0.8,0,1.3,0.7,1.3,1.3l0,0
		C164.1,185,163.6,185.6,162.8,185.6z"/>
	<path class="st0" d="M141.7,179.5c0,0-10.2,0.8-17.8-8h52.2c-7.7,8.7-17.8,8-17.8,8H141.7z"/>
	<path class="st0" d="M112.3,264.7c4.4,0,31.6-9.7,31.6-44.5c0-5-6.1-9.8-6.1-17.9c0-6.8,5.5-12.1,12.1-12.1
		c6.7,0,12.1,5.5,12.1,12.1c0,8-6.1,12.8-6.1,17.9c0,34.9,27.3,44.5,31.6,44.5H112.3z"/>
	<circle class="st0" cx="150" cy="190" r="1.8"/>
	<circle class="st0" cx="153.7" cy="190" r="1.8"/>
	<circle class="st0" cx="157.3" cy="190" r="1.8"/>
	<rect x="94.4" y="250.5" class="st0" width="111.1" height="5.4"/>
	<path class="st0" d="M112.2,263.7c0,0-10.2,0.8-17.8-8h111.1c-7.7,8.7-17.8,8-17.8,8H112.2z"/>
	<circle class="st0" cx="146.2" cy="190" r="1.8"/>
	<circle class="st0" cx="142.6" cy="190" r="1.8"/>
	<path class="st0" d="M159.3,219.4v0.4c0,0.9-0.8,1.7-1.7,1.7h-15.1c-0.9,0-1.7-0.8-1.7-1.7v-0.4c0-0.9,0.8-1.7,1.7-1.7h15.1
		C158.5,217.7,159.3,218.4,159.3,219.4z"/>
	<path class="st0" d="M159.3,223v0.4c0,0.9-0.8,1.7-1.7,1.7h-15.1c-0.9,0-1.7-0.8-1.7-1.7V223c0-0.9,0.8-1.7,1.7-1.7h15.1
		C158.5,221.3,159.3,222.1,159.3,223z"/>
	<path class="st0" d="M112.2,265.5L112.2,265.5c0-1,0.8-1.8,1.8-1.8h71.8c1,0,1.8,0.8,1.8,1.8l0,0c0,1-0.8,1.8-1.8,1.8H114
		C113,267.5,112.2,266.6,112.2,265.5z"/>
</g>
<g>
	<path class="st2" d="M148.6,61.1c4.3-0.3,8.3-2.5,10.8-5.6c0.4-0.4,0.7-0.8,1-1.3c4.1-0.4,7.3-3.8,7.3-8c0-4.1-3.1-7.5-7.2-8
		c-2.4-3.7-6.6-6.1-11.9-5.6c6,0.6,10.7,6.3,9.8,12c-0.3,2.6-1.8,4.8-3.8,6.2c0-0.1,0-0.2,0-0.2c0-3.7-3.3-6.6-7.1-5.9
		c-2.2,0.4-4,2.1-4.7,4.2c-0.4,1.4-0.3,2.6,0.1,3.8c-6.9,1.9-12.5,8.3-13,15.9c-1,10.5,7.9,20.3,18.6,20.8c2.2,0.1,4.9,0.5,7.1-0.5
		c4.7-2,6.9-7.4,5-12.1s-7.4-6.9-12.1-5c-4.3,1.6-7.2-4.3-4.6-7.8C144.9,62.6,146.6,61.4,148.6,61.1z"/>
	<path class="st2" d="M163,78.6c1.5-3.2,0-7.2-3.2-8c-2.1-0.5-3.4-2.7-2.9-4.8c0.5-2.1,2.7-3.4,4.8-2.9c1.2,0.2,2,1.1,2.7,1.9
		c2.1,2.3,3.1,5.3,2.9,8c-0.2,2.7-1.5,5.1-3.3,6.5C163.4,79.7,162.7,79.2,163,78.6L163,78.6z"/>
</g>
<path class="st3" d="M149,94V83.1c0-0.6,0.4-1,1-1l0,0c0.6,0,1,0.4,1,1v11L149,94z"/>
</svg>
